<svg width="200" height="150" viewBox="0 0 200 150" fill="none" xmlns="http://www.w3.org/2000/svg">
<rect x="42.1519" y="22" width="102.911" height="66.2685" fill="#E4F3D8"/>
<rect width="92.7759" height="56.9129" transform="matrix(-1 0 0 1 140.385 26.6772)" fill="white"/>
<path d="M25.0002 119.454H164.164L145.063 88.2687H42.1521L25.0002 119.454Z" fill="#E4F3D8"/>
<path d="M43.7114 113.996H145.843L131.825 92.1667H56.2991L43.7114 113.996Z" fill="#95CA6C"/>
<rect x="86.5908" y="46.948" width="45.9981" height="3.11852" rx="1.55926" fill="#E4F3D8"/>
<rect x="86.5908" y="38.3723" width="45.9981" height="3.11852" rx="1.55926" fill="#E4F3D8"/>
<rect width="28.0667" height="43.6592" transform="matrix(-1 0 0 1 78.7944 32.135)" fill="#E4F3D8"/>
<path d="M54.7581 54.7651L73.6413 53.4646L72.7947 63.0185L55.6043 63.9425L54.7581 54.7651Z" fill="#75A74E"/>
<path d="M54.7537 54.2148L73.8225 52.8457L74.0103 51.2271L67.4652 44.7789L60.0423 45.4633L54.5925 52.4667L54.7537 54.2148Z" fill="#75A74E"/>
<path d="M55.5884 64.6934L72.7787 63.7693L72.8593 64.6433C72.8593 64.6433 68.1816 65.9562 63.9842 66.233C59.7868 66.5099 55.6891 65.7859 55.6891 65.7859L55.5884 64.6934Z" fill="#75A74E"/>
<path d="M59.6013 44.843L67.9243 43.5112L67.8555 42.7651C67.8555 42.7651 65.4605 42.2335 63.4219 42.5155C61.3834 42.7976 59.5153 43.9104 59.5153 43.9104L59.6013 44.843Z" fill="#75A74E"/>
<rect width="28.5343" height="47.4177" transform="matrix(-0.982851 0.184403 0.184403 0.982851 53.0449 78.1335)" fill="#1D7588"/>
<circle cx="47.1918" cy="124.088" r="1.84875" transform="rotate(169.37 47.1918 124.088)" fill="#E4E6E7"/>
<rect width="23.6432" height="36.6885" transform="matrix(-0.982851 0.184403 0.184403 0.982851 51.4731 82.6021)" fill="white"/>
<rect width="17.432" height="15.5149" transform="matrix(0.982784 -0.18476 0.184047 0.982917 34.8213 104.023)" fill="#1D7588"/>
<rect width="17.5254" height="11.8589" transform="matrix(0.982784 -0.18476 0.184047 0.982917 32.0923 89.0288)" fill="#75A74E"/>
<rect x="86.5908" y="55.5237" width="45.9981" height="3.11852" rx="1.55926" fill="#75A74E"/>
<rect x="86.5908" y="64.1003" width="45.9981" height="3.11852" rx="1.55926" fill="#75A74E"/>
<rect width="34.3037" height="43.6592" transform="matrix(-0.994812 -0.101734 -0.101734 0.994812 179.732 56.675)" fill="#1D7588"/>
<rect width="32.7444" height="42.8796" transform="matrix(-1 0 0 1 173.13 50.0662)" fill="#75A74E"/>
<rect x="86.5908" y="72.6758" width="45.9981" height="3.11852" rx="1.55926" fill="#1D7588"/>
</svg>
