<svg width="150" height="150" viewBox="0 0 150 150" fill="none" xmlns="http://www.w3.org/2000/svg">
<path d="M87.8534 55.655C87.9267 55.7133 87.9634 55.7522 87.9817 55.7522C87.9817 55.7522 87.9817 55.7522 88 55.7522C87.945 55.7133 87.8901 55.6939 87.8534 55.655ZM73.2349 64.6915C73.3815 61.485 73.5463 58.2591 73.3082 55.0331C72.5388 54.9943 71.7511 54.9554 71 55.1303C71 55.1497 71 55.1886 71 55.208C71 55.5384 71.0183 55.8688 71.055 56.1991C71.1282 56.9376 71.2198 57.6566 71.2931 58.3951C71.4946 60.2218 71.3664 62.0874 71.458 63.9141C71.6228 67.2372 72.0259 70.5797 72.0991 73.9223C72.1175 73.9417 72.1358 73.9611 72.1358 74C72.2091 74 72.2823 73.9806 72.3556 73.9806C72.5388 73.9611 72.722 73.9417 72.9052 73.9028C72.9968 73.8834 73.07 73.864 73.1616 73.8445C73.1983 73.8057 73.2349 73.7474 73.2716 73.7085C73.2899 73.6891 73.3265 73.6502 73.3448 73.6308C73.2716 72.387 73.0884 71.1433 73.07 69.8996C73.0884 68.1506 73.1616 66.421 73.2349 64.6915Z" fill="#14B6B9"/>
<path d="M112.066 80.9159C109.433 81.0105 106.8 81.1998 104.148 81.1998C103.976 81.1998 103.824 81.1619 103.69 81.1052C100.236 85.8936 96.7829 90.682 91.8792 94.1266C87.8914 96.9277 83.2549 98.5932 78.3512 98.7257C73.1613 98.8582 67.9905 97.6091 63.3349 95.3379C54.6152 91.0605 46.4297 82.9032 45.4756 72.8532C44.5407 63.125 51.028 54.8163 59.5761 50.7849C64.1172 48.6463 69.1544 47.6432 74.1726 48.1542C79.5151 48.703 84.476 50.8228 89.1316 53.3589C89.5323 53.5861 89.685 53.9457 89.685 54.3053C89.9903 55.1002 88.9981 56.0465 88.1395 55.5544C88.1395 55.5544 88.1395 55.5544 88.1204 55.5544C88.1013 55.5544 88.0441 55.5355 87.9677 55.5355C87.7006 55.5355 87.4144 55.5355 87.1473 55.5733C86.5558 55.6301 85.9452 55.7248 85.3537 55.8383C84.9149 55.9329 84.476 56.0276 84.0372 56.1601C84.6287 56.4061 85.2202 56.7657 85.7735 57.0685C87.2427 57.8445 88.6928 58.7341 90.1047 59.6425C91.5358 60.5699 92.776 61.592 93.9781 62.8033C95.1611 63.9767 96.344 65.1691 97.6797 66.1532C99.9693 67.8566 102.831 68.8219 104.663 71.112C105.312 71.9069 105.922 72.7397 106.571 73.5346C106.686 73.686 106.8 73.8185 106.934 73.9699C107.029 73.5914 107.105 73.2128 107.124 72.8154C107.201 71.5851 107.277 70.4117 107.487 69.1815C107.945 66.5886 107.983 64.0524 107.983 61.4216V53.7753C107.983 52.5451 107.85 51.4852 107.525 50.2929C107.353 49.6494 107.163 49.0059 107.048 48.3434C105.903 48.6652 104.759 48.9112 103.595 49.1762C103.232 49.479 102.698 49.5737 102.221 49.233C98.9962 46.905 95.7716 44.5392 92.3181 42.5519C87.2618 39.6373 81.7857 37.65 75.928 37.139C70.3374 36.6469 64.5751 37.4796 59.2899 39.3534C49.4825 42.8169 40.7819 50.0657 36.6796 59.7372C32.4246 69.825 33.2451 81.9758 39.0837 91.2876C44.8078 100.41 54.329 106.486 64.4607 109.854C70.1657 111.747 76.2333 112.504 82.2245 111.652C87.7006 110.877 93.0813 109.022 97.8896 106.315C102.393 103.779 106.609 100.599 109.643 96.3978C111.055 94.4483 112.219 92.3096 113.039 90.0574C113.955 87.5591 114.394 84.9283 114.871 82.3165C114.871 82.2786 114.89 82.2597 114.89 82.2218C114.89 82.1083 114.909 81.9947 114.967 81.8622C115.329 80.8402 112.639 80.897 112.066 80.9159Z" fill="#71C598"/>
<path d="M83.9123 66.8704C83.8566 66.5741 83.7823 66.2963 83.7266 66C83.281 66.1111 82.8168 66.3519 82.4455 66.5185C81.7214 66.8519 81.0344 67.2407 80.3288 67.5926C78.8063 68.3889 77.2466 69.1667 75.6499 69.8148C75.6313 69.8148 75.6313 69.8333 75.6127 69.8333C75.4085 69.9815 75.2228 70.0741 75 70.1296C75.0186 70.7407 75.0743 71.3704 75.1485 72C76.9124 70.9074 78.8806 70.1852 80.7373 69.2037C81.6842 68.7037 82.7983 68.5185 83.6895 67.963C84.098 67.7037 84.0237 67.5 83.9123 66.8704Z" fill="#14B6B9"/>
<path d="M88.131 55.6181C88.1119 55.6181 88.1119 55.6181 88.131 55.6181C88.1119 55.6181 88.131 55.6181 88.131 55.6181ZM113.506 78.8983C112.363 78.785 111.258 78.8794 110.115 78.9738C108.076 79.1437 106.019 79.1248 103.961 79.1248C103.847 79.1248 103.752 79.1437 103.676 79.1626C103.295 78.8794 102.742 78.8416 102.38 79.3514C99.4847 83.3542 96.7034 87.3758 92.9125 90.6611C89.2549 93.8331 84.9115 95.9478 80.0538 96.4953C69.843 97.6282 59.0988 92.266 52.8123 84.4682C49.7071 80.6164 47.6307 75.9528 47.5545 70.9683C47.4783 66.2292 49.6119 61.7544 52.7932 58.2992C55.9174 54.9195 60.0703 52.5782 64.4518 51.2377C69.5572 49.6706 74.8912 49.9727 79.9395 51.5775C81.7873 52.1628 83.5971 52.937 85.3497 53.8055C84.1114 54.0321 82.3398 54.2586 81.4254 55.2027C81.1587 55.4859 81.1015 55.8069 81.1777 56.0901C80.9872 56.4866 81.0253 56.9775 81.4254 57.2985C81.7683 57.5628 82.1683 57.695 82.5684 57.8649C83.1589 58.1103 83.7304 58.3936 84.3019 58.6957C85.8069 59.4509 87.2356 60.3572 88.6644 61.2257C91.7695 63.0949 93.9031 66.0403 96.8558 68.1361C98.2846 69.1557 99.9038 69.8732 101.352 70.8928C102.399 71.6291 102.799 72.12 103.58 73.1018C104.228 73.9326 104.876 74.7822 105.581 75.5752C105.847 75.8773 106.114 76.2172 106.438 76.5004C106.667 76.8969 107.105 77.1235 107.543 76.9535C107.562 76.9535 107.562 76.9535 107.581 76.9535C108.229 76.9347 108.533 76.4438 108.514 75.934C109.315 74.499 109.162 72.4221 109.295 70.9494C109.429 69.59 109.791 68.2494 109.943 66.89C110.096 65.5117 110.077 64.1145 110.077 62.7362V54.3719C110.077 53.0691 110.057 51.8607 109.753 50.5957C109.543 49.6894 109.219 48.8209 109.105 47.9146C109.391 47.537 109.429 46.9895 108.972 46.5741C108.819 46.2531 108.495 46.0832 108.133 46.0832C107.962 46.0454 107.752 46.0454 107.543 46.1021C106.038 46.593 104.514 46.9328 102.971 47.2727C98.5703 44.1007 94.1888 40.9853 89.3121 38.6818C84.1114 36.2273 78.3583 35.0189 72.6052 35.0001C61.7467 34.9812 51.0787 39.4937 43.2682 46.8762C35.4577 54.2775 31.5144 64.6432 32.0478 75.3109C32.5812 85.9031 37.9342 95.589 46.1638 102.254C50.3548 105.653 55.1554 108.353 60.1656 110.392C65.5377 112.582 71.1574 113.922 76.9867 113.998C87.8071 114.111 99.1228 109.467 107.067 102.254C109.715 99.8561 111.924 96.9862 113.582 93.8142C115.411 90.3024 116.173 86.5262 116.877 82.6745C116.896 82.5801 116.896 82.4857 116.896 82.4101C117.468 80.2199 115.582 79.1248 113.506 78.8983ZM114.896 81.8437C114.858 81.957 114.839 82.0892 114.82 82.2024C114.82 82.2402 114.801 82.2591 114.801 82.2968C114.325 84.9024 113.906 87.5269 112.972 90.0192C112.134 92.266 110.991 94.3995 109.581 96.3443C106.533 100.555 102.342 103.708 97.8464 106.238C93.0459 108.938 87.6738 110.788 82.2064 111.562C76.2438 112.412 70.1668 111.676 64.4709 109.769C54.3744 106.427 44.8494 100.366 39.1344 91.2653C33.3051 81.9759 32.4859 69.8543 36.7341 59.7908C40.8298 50.1426 49.5166 42.9112 59.3274 39.4182C64.6042 37.549 70.3573 36.7182 75.939 37.2091C81.7873 37.7189 87.2547 39.7014 92.3029 42.6091C95.7509 44.5916 98.9704 46.9517 102.19 49.2741C102.666 49.6139 103.199 49.5195 103.561 49.2174C104.723 48.9531 105.866 48.7076 107.009 48.3867C107.124 49.0475 107.295 49.6894 107.486 50.3314C107.81 51.5209 107.943 52.5782 107.943 53.8055V61.4334C107.943 64.0578 107.905 66.5879 107.448 69.1746C107.238 70.4018 107.162 71.5536 107.086 72.7997C107.067 73.1962 106.99 73.5738 106.895 73.9515C106.781 73.8004 106.667 73.6683 106.533 73.5172C105.886 72.7242 105.276 71.9123 104.628 71.1004C102.799 68.8158 99.9419 67.8529 97.6559 66.1536C96.3224 65.1718 95.1413 63.9823 93.9602 62.8117C92.7601 61.6033 91.5409 60.5837 90.0931 59.6586C88.7025 58.7712 87.2356 57.8838 85.7688 57.0908C85.1973 56.7887 84.6258 56.4488 84.0352 56.1845C84.4734 56.0523 84.9115 55.9579 85.3497 55.8635C85.9402 55.7502 86.5308 55.6558 87.1404 55.5992C87.4071 55.5803 87.6928 55.5614 87.9595 55.5614C88.0357 55.5614 88.0929 55.5803 88.1119 55.5803C88.0929 55.5614 88.0548 55.5425 87.9786 55.4859C88.0357 55.5237 88.0738 55.5614 88.131 55.5803C88.9882 56.0712 89.9979 55.1272 89.674 54.3342C89.6931 53.9754 89.5407 53.6167 89.1216 53.3901C84.4734 50.8978 79.5204 48.7832 74.2054 48.2356C69.1953 47.7258 64.1661 48.7265 59.6322 50.8601C51.0787 54.8817 44.6208 63.1704 45.5542 72.8753C46.5067 82.901 54.6792 91.0387 63.385 95.3058C68.0142 97.5715 73.1958 98.8177 78.3774 98.6855C83.2732 98.5533 87.9024 96.8918 91.8838 94.0974C96.7987 90.6611 100.228 85.8842 103.676 81.1073C103.809 81.164 103.961 81.2018 104.133 81.2018C106.781 81.2018 109.391 80.9941 112.039 80.9185C112.572 80.8997 115.258 80.843 114.896 81.8437Z" fill="black"/>
<path d="M85.3945 63.7501C85.3216 63.4109 84.9574 63.0517 84.6479 63.0318C82.9725 62.8921 81.4428 63.8698 80.0224 64.7078C78.4381 65.6256 76.8174 66.5234 75.142 67.2816C75.1602 66.284 75.2148 65.2864 75.2513 64.2888C75.4152 60.5378 75.6155 56.7868 75.2513 53.0558C75.1966 52.4173 74.7414 52.0582 74.1769 52.0382C72.7929 52.0183 71.4453 51.8786 70.0977 52.2976C69.8246 52.3774 69.6425 52.557 69.5332 52.7765C69.515 52.7964 69.515 52.7964 69.4968 52.8164C68.6955 53.6144 69.0779 55.47 69.1872 56.4875C69.3875 58.3431 69.4239 60.1388 69.4603 62.0342C69.5332 66.3638 70.1706 70.6934 70.1706 75.023C70.1706 75.9607 71.0629 76.2001 71.6456 75.841C72.6472 76.0605 73.9401 75.5816 74.7778 75.3422C75.2148 75.2225 75.4334 74.7237 75.4516 74.2648C76.4896 73.3869 77.6915 72.7484 78.8751 72.1499C80.1499 71.4914 81.4064 70.7333 82.7175 70.1946C83.8284 69.7556 85.0849 69.3566 85.7405 68.1994C86.3961 66.9823 85.6312 64.9871 85.3945 63.7501ZM73.3938 73.2871C73.3756 73.3071 73.3392 73.347 73.321 73.3669C73.2845 73.4068 73.2299 73.4667 73.2117 73.5066C73.1206 73.5266 73.0478 73.5465 72.9568 73.5665C72.7746 73.6064 72.5925 73.6263 72.4104 73.6463C72.3376 73.6463 72.2648 73.6662 72.1919 73.6662C72.1737 73.6463 72.1555 73.6064 72.1555 73.5864C72.0644 70.1547 71.6638 66.7229 71.5181 63.3111C71.4271 61.4157 71.5728 59.5202 71.3542 57.6448C71.2814 56.8866 71.1721 56.1484 71.1175 55.3902C71.0811 55.051 71.0811 54.7118 71.0629 54.3726C71.0629 54.3327 71.0629 54.3128 71.0629 54.2928C71.8095 54.1132 72.5925 54.1531 73.3574 54.1931C73.5941 57.4851 73.4302 60.7972 73.2845 64.1092C73.2117 65.8849 73.1389 67.6806 73.1389 69.4563C73.1206 70.7333 73.3028 72.0102 73.3938 73.2871ZM83.6463 67.3813C82.754 67.9799 81.6613 68.1794 80.7508 68.7181C78.948 69.7756 76.9995 70.5537 75.2695 71.7309C75.1966 71.0525 75.142 70.3941 75.1238 69.7157C75.3241 69.6559 75.5244 69.5561 75.7247 69.3965C75.743 69.3965 75.743 69.3765 75.7612 69.3765C77.3273 68.6583 78.8569 67.8402 80.3502 66.9823C81.0422 66.5833 81.716 66.1842 82.4262 65.8251C82.7904 65.6455 83.2274 65.3861 83.6827 65.2664C83.7555 65.5857 83.8102 65.8849 83.8648 66.2042C83.9741 66.8825 84.0469 67.102 83.6463 67.3813Z" fill="black"/>
</svg>
