<svg width="214" height="206" viewBox="0 0 214 206" fill="none" xmlns="http://www.w3.org/2000/svg">
<rect y="59" width="30" height="30" fill="#478C5C"/>
<path d="M42.959 85.8389V82.5869C45.1074 83.417 46.8799 83.832 48.2764 83.832C49.5752 83.832 50.6152 83.5 51.3965 82.8359C52.1875 82.1719 52.583 81.2881 52.583 80.1846C52.583 77.3232 50.4883 75.8926 46.2988 75.8926H44.9658V73.2998L46.0938 73.2852C50.0195 73.2852 51.9824 72.001 51.9824 69.4326C51.9824 67.4697 50.7715 66.4883 48.3496 66.4883C46.7578 66.4883 45.0586 66.8936 43.252 67.7041V64.7451C45.1562 64.0908 47.1631 63.7637 49.2725 63.7637C51.5088 63.7637 53.2568 64.2227 54.5166 65.1406C55.7861 66.0586 56.4209 67.3281 56.4209 68.9492C56.4209 71.5078 54.8242 73.3145 51.6309 74.3691C55.2832 75.209 57.1094 77.1621 57.1094 80.2285C57.1094 82.1719 56.377 83.71 54.9121 84.8428C53.4473 85.9756 51.4551 86.542 48.9355 86.542C46.7969 86.542 44.8047 86.3076 42.959 85.8389ZM72.417 86V64.3203H76.9287V73.124H85.8936V64.3203H90.4053V86H85.8936V76.1123H76.9287V86H72.417ZM103.706 84.2715C102.261 85.668 100.713 86.3662 99.0625 86.3662C97.6562 86.3662 96.5137 85.9365 95.6348 85.0771C94.7559 84.2178 94.3164 83.1045 94.3164 81.7373C94.3164 79.96 95.0244 78.5928 96.4404 77.6357C97.8662 76.6689 99.9023 76.1855 102.549 76.1855H103.706V74.7207C103.706 73.0508 102.754 72.2158 100.85 72.2158C99.1602 72.2158 97.4512 72.6943 95.7227 73.6514V70.6631C97.6855 69.9209 99.6289 69.5498 101.553 69.5498C105.762 69.5498 107.866 71.2246 107.866 74.5742V81.6934C107.866 82.9531 108.271 83.583 109.082 83.583C109.229 83.583 109.419 83.5635 109.653 83.5244L109.756 85.9561C108.838 86.2295 108.027 86.3662 107.324 86.3662C105.547 86.3662 104.404 85.668 103.896 84.2715H103.706ZM103.706 81.9424V78.6758H102.681C99.8779 78.6758 98.4766 79.5547 98.4766 81.3125C98.4766 81.9082 98.6768 82.4111 99.0771 82.8213C99.4873 83.2217 99.9902 83.4219 100.586 83.4219C101.602 83.4219 102.642 82.9287 103.706 81.9424ZM113.462 86V62.8701H117.798V72.9482C118.911 70.6826 120.664 69.5498 123.057 69.5498C124.99 69.5498 126.509 70.2578 127.612 71.6738C128.726 73.0898 129.282 75.0381 129.282 77.5186C129.282 80.2041 128.657 82.3525 127.407 83.9639C126.157 85.5654 124.487 86.3662 122.397 86.3662C120.601 86.3662 119.067 85.7021 117.798 84.374L116.992 86H113.462ZM117.798 81.7959C118.853 82.9678 119.976 83.5537 121.167 83.5537C122.231 83.5537 123.081 83.041 123.716 82.0156C124.351 80.9805 124.668 79.6035 124.668 77.8848C124.668 74.5938 123.608 72.9482 121.489 72.9482C120.21 72.9482 118.979 73.7734 117.798 75.4238V81.7959ZM133.354 86V69.916H137.69V86H133.354ZM133.354 67.2061V63.5879H137.69V67.2061H133.354ZM151.401 85.9121C150.366 86.2148 149.551 86.3662 148.955 86.3662C145.195 86.3662 143.315 84.6084 143.315 81.0928V72.626H141.514V69.916H143.315V67.2061L147.651 66.708V69.916H151.094V72.626H147.651V80.5215C147.651 82.4941 148.457 83.4805 150.068 83.4805C150.439 83.4805 150.884 83.4121 151.401 83.2754V85.9121ZM154.844 85.4873V82.3086C156.992 83.207 158.828 83.6562 160.352 83.6562C162.129 83.6562 163.018 83.0508 163.018 81.8398C163.018 81.0586 162.285 80.375 160.82 79.7891L159.355 79.2031C157.764 78.5586 156.626 77.8652 155.942 77.123C155.259 76.3809 154.917 75.4629 154.917 74.3691C154.917 72.8457 155.498 71.6641 156.66 70.8242C157.822 69.9746 159.448 69.5498 161.538 69.5498C162.847 69.5498 164.404 69.7402 166.211 70.1211V73.168C164.473 72.5625 163.032 72.2598 161.89 72.2598C160.093 72.2598 159.194 72.8164 159.194 73.9297C159.194 74.6621 159.858 75.2822 161.187 75.79L162.446 76.2734C164.331 76.9863 165.64 77.709 166.372 78.4414C167.114 79.1738 167.485 80.1162 167.485 81.2686C167.485 82.7822 166.855 84.0127 165.596 84.96C164.346 85.8975 162.715 86.3662 160.703 86.3662C158.77 86.3662 156.816 86.0732 154.844 85.4873Z" fill="#478C5C"/>
<rect y="2" width="30" height="30" fill="#013A20"/>
<path d="M42.959 28.8389V25.5869C45.1074 26.417 46.8799 26.832 48.2764 26.832C49.5752 26.832 50.6152 26.5 51.3965 25.8359C52.1875 25.1719 52.583 24.2881 52.583 23.1846C52.583 20.3232 50.4883 18.8926 46.2988 18.8926H44.9658V16.2998L46.0938 16.2852C50.0195 16.2852 51.9824 15.001 51.9824 12.4326C51.9824 10.4697 50.7715 9.48828 48.3496 9.48828C46.7578 9.48828 45.0586 9.89355 43.252 10.7041V7.74512C45.1562 7.09082 47.1631 6.76367 49.2725 6.76367C51.5088 6.76367 53.2568 7.22266 54.5166 8.14062C55.7861 9.05859 56.4209 10.3281 56.4209 11.9492C56.4209 14.5078 54.8242 16.3145 51.6309 17.3691C55.2832 18.209 57.1094 20.1621 57.1094 23.2285C57.1094 25.1719 56.377 26.71 54.9121 27.8428C53.4473 28.9756 51.4551 29.542 48.9355 29.542C46.7969 29.542 44.8047 29.3076 42.959 28.8389ZM89.8633 28.1357C87.7637 29.0732 85.2588 29.542 82.3486 29.542C78.7939 29.542 76.0254 28.541 74.043 26.5391C72.0605 24.5371 71.0693 21.7441 71.0693 18.1602C71.0693 14.5078 72.0654 11.7002 74.0576 9.7373C76.0596 7.76465 78.9111 6.77832 82.6123 6.77832C84.9756 6.77832 87.3242 7.05664 89.6582 7.61328V11.1436C87.0117 10.2158 84.7949 9.75195 83.0078 9.75195C80.7227 9.75195 78.96 10.4795 77.7197 11.9346C76.4795 13.3799 75.8594 15.4355 75.8594 18.1016C75.8594 20.7188 76.5234 22.7598 77.8516 24.2246C79.1895 25.6895 81.0449 26.4219 83.418 26.4219C85.5469 26.4219 87.6953 25.8848 89.8633 24.8105V28.1357ZM100.557 29.3662C98.0469 29.3662 96.0498 28.6094 94.5654 27.0957C93.0908 25.5723 92.3535 23.5264 92.3535 20.958C92.3535 18.3604 93.0957 16.3096 94.5801 14.8057C96.0742 13.3018 98.1006 12.5498 100.659 12.5498C103.228 12.5498 105.254 13.3018 106.738 14.8057C108.232 16.3096 108.979 18.3506 108.979 20.9287C108.979 23.5654 108.232 25.6309 106.738 27.125C105.244 28.6191 103.184 29.3662 100.557 29.3662ZM100.63 26.6562C103.12 26.6562 104.365 24.7471 104.365 20.9287C104.365 19.1807 104.033 17.7988 103.369 16.7832C102.715 15.7676 101.812 15.2598 100.659 15.2598C99.5166 15.2598 98.6133 15.7676 97.9492 16.7832C97.2949 17.7988 96.9678 19.1904 96.9678 20.958C96.9678 22.7061 97.2949 24.0928 97.9492 25.1182C98.6035 26.1436 99.4971 26.6562 100.63 26.6562ZM112.964 29V12.916H117.3V15.9482C118.716 13.6826 120.542 12.5498 122.778 12.5498C124.214 12.5498 125.347 13.0039 126.177 13.9121C127.007 14.8203 127.422 16.0605 127.422 17.6328V29H123.086V18.7021C123.086 16.876 122.48 15.9629 121.27 15.9629C119.893 15.9629 118.569 16.9346 117.3 18.8779V29H112.964ZM144.546 28.6484C142.749 29.127 141.084 29.3662 139.551 29.3662C136.982 29.3662 134.951 28.6143 133.457 27.1104C131.973 25.5967 131.23 23.541 131.23 20.9434C131.23 18.3164 131.997 16.2607 133.53 14.7764C135.063 13.292 137.183 12.5498 139.888 12.5498C141.196 12.5498 142.705 12.7598 144.414 13.1797V16.3145C142.637 15.7383 141.216 15.4502 140.151 15.4502C138.853 15.4502 137.808 15.9482 137.017 16.9443C136.226 17.9404 135.83 19.2637 135.83 20.9141C135.83 22.6035 136.255 23.9561 137.104 24.9717C137.964 25.9873 139.106 26.4951 140.532 26.4951C141.831 26.4951 143.169 26.2119 144.546 25.6455V28.6484ZM161.743 28.458C159.683 29.0635 157.729 29.3662 155.884 29.3662C153.198 29.3662 151.079 28.6045 149.526 27.0811C147.974 25.5576 147.197 23.4775 147.197 20.8408C147.197 18.3506 147.905 16.3486 149.321 14.835C150.747 13.3115 152.627 12.5498 154.961 12.5498C157.314 12.5498 159.033 13.292 160.117 14.7764C161.201 16.2607 161.743 18.6094 161.743 21.8223H151.768C152.061 24.8887 153.745 26.4219 156.821 26.4219C158.276 26.4219 159.917 26.085 161.743 25.4111V28.458ZM151.709 19.376H157.48C157.48 16.6318 156.597 15.2598 154.829 15.2598C153.032 15.2598 151.992 16.6318 151.709 19.376ZM166.226 29V12.916H170.562V15.9482C171.685 13.6826 173.394 12.5498 175.688 12.5498C175.962 12.5498 176.23 12.5791 176.494 12.6377V16.5049C175.879 16.2803 175.308 16.168 174.78 16.168C173.052 16.168 171.646 17.042 170.562 18.79V29H166.226ZM179.878 29V12.916H184.214V15.9482C185.63 13.6826 187.456 12.5498 189.692 12.5498C191.128 12.5498 192.261 13.0039 193.091 13.9121C193.921 14.8203 194.336 16.0605 194.336 17.6328V29H190V18.7021C190 16.876 189.395 15.9629 188.184 15.9629C186.807 15.9629 185.483 16.9346 184.214 18.8779V29H179.878ZM199.17 28.4873V25.3086C201.318 26.207 203.154 26.6562 204.678 26.6562C206.455 26.6562 207.344 26.0508 207.344 24.8398C207.344 24.0586 206.611 23.375 205.146 22.7891L203.682 22.2031C202.09 21.5586 200.952 20.8652 200.269 20.123C199.585 19.3809 199.243 18.4629 199.243 17.3691C199.243 15.8457 199.824 14.6641 200.986 13.8242C202.148 12.9746 203.774 12.5498 205.864 12.5498C207.173 12.5498 208.73 12.7402 210.537 13.1211V16.168C208.799 15.5625 207.358 15.2598 206.216 15.2598C204.419 15.2598 203.521 15.8164 203.521 16.9297C203.521 17.6621 204.185 18.2822 205.513 18.79L206.772 19.2734C208.657 19.9863 209.966 20.709 210.698 21.4414C211.44 22.1738 211.812 23.1162 211.812 24.2686C211.812 25.7822 211.182 27.0127 209.922 27.96C208.672 28.8975 207.041 29.3662 205.029 29.3662C203.096 29.3662 201.143 29.0732 199.17 28.4873Z" fill="#013A20"/>
<rect y="174" width="30" height="30" fill="#998E57"/>
<path d="M44.2188 200V197.466H48.5547V181.47L44.2188 182.554V179.946L52.9053 177.778V197.466H57.2412V200H44.2188ZM72.417 200V178.32H86.0547V181.294H76.9287V187.886H84.4287V190.874H76.9287V200H72.417ZM97.5244 198.271C96.0791 199.668 94.5312 200.366 92.8809 200.366C91.4746 200.366 90.332 199.937 89.4531 199.077C88.5742 198.218 88.1348 197.104 88.1348 195.737C88.1348 193.96 88.8428 192.593 90.2588 191.636C91.6846 190.669 93.7207 190.186 96.3672 190.186H97.5244V188.721C97.5244 187.051 96.5723 186.216 94.668 186.216C92.9785 186.216 91.2695 186.694 89.541 187.651V184.663C91.5039 183.921 93.4473 183.55 95.3711 183.55C99.5801 183.55 101.685 185.225 101.685 188.574V195.693C101.685 196.953 102.09 197.583 102.9 197.583C103.047 197.583 103.237 197.563 103.472 197.524L103.574 199.956C102.656 200.229 101.846 200.366 101.143 200.366C99.3652 200.366 98.2227 199.668 97.7148 198.271H97.5244ZM97.5244 195.942V192.676H96.499C93.6963 192.676 92.2949 193.555 92.2949 195.312C92.2949 195.908 92.4951 196.411 92.8955 196.821C93.3057 197.222 93.8086 197.422 94.4043 197.422C95.4199 197.422 96.46 196.929 97.5244 195.942ZM119.146 199.648C117.349 200.127 115.684 200.366 114.15 200.366C111.582 200.366 109.551 199.614 108.057 198.11C106.572 196.597 105.83 194.541 105.83 191.943C105.83 189.316 106.597 187.261 108.13 185.776C109.663 184.292 111.782 183.55 114.487 183.55C115.796 183.55 117.305 183.76 119.014 184.18V187.314C117.236 186.738 115.815 186.45 114.751 186.45C113.452 186.45 112.407 186.948 111.616 187.944C110.825 188.94 110.43 190.264 110.43 191.914C110.43 193.604 110.854 194.956 111.704 195.972C112.563 196.987 113.706 197.495 115.132 197.495C116.431 197.495 117.769 197.212 119.146 196.646V199.648ZM123.247 200V183.916H127.583V200H123.247ZM123.247 181.206V177.588H127.583V181.206H123.247ZM133.003 200V176.87H137.339V200H133.003ZM142.759 200V183.916H147.095V200H142.759ZM142.759 181.206V177.588H147.095V181.206H142.759ZM160.806 199.912C159.771 200.215 158.955 200.366 158.359 200.366C154.6 200.366 152.72 198.608 152.72 195.093V186.626H150.918V183.916H152.72V181.206L157.056 180.708V183.916H160.498V186.626H157.056V194.521C157.056 196.494 157.861 197.48 159.473 197.48C159.844 197.48 160.288 197.412 160.806 197.275V199.912ZM164.673 200V183.916H169.009V200H164.673ZM164.673 181.206V177.588H169.009V181.206H164.673ZM187.524 199.458C185.464 200.063 183.511 200.366 181.665 200.366C178.979 200.366 176.86 199.604 175.308 198.081C173.755 196.558 172.979 194.478 172.979 191.841C172.979 189.351 173.687 187.349 175.103 185.835C176.528 184.312 178.408 183.55 180.742 183.55C183.096 183.55 184.814 184.292 185.898 185.776C186.982 187.261 187.524 189.609 187.524 192.822H177.549C177.842 195.889 179.526 197.422 182.603 197.422C184.058 197.422 185.698 197.085 187.524 196.411V199.458ZM177.49 190.376H183.262C183.262 187.632 182.378 186.26 180.61 186.26C178.813 186.26 177.773 187.632 177.49 190.376ZM191.582 199.487V196.309C193.73 197.207 195.566 197.656 197.09 197.656C198.867 197.656 199.756 197.051 199.756 195.84C199.756 195.059 199.023 194.375 197.559 193.789L196.094 193.203C194.502 192.559 193.364 191.865 192.681 191.123C191.997 190.381 191.655 189.463 191.655 188.369C191.655 186.846 192.236 185.664 193.398 184.824C194.561 183.975 196.187 183.55 198.276 183.55C199.585 183.55 201.143 183.74 202.949 184.121V187.168C201.211 186.562 199.771 186.26 198.628 186.26C196.831 186.26 195.933 186.816 195.933 187.93C195.933 188.662 196.597 189.282 197.925 189.79L199.185 190.273C201.069 190.986 202.378 191.709 203.11 192.441C203.853 193.174 204.224 194.116 204.224 195.269C204.224 196.782 203.594 198.013 202.334 198.96C201.084 199.897 199.453 200.366 197.441 200.366C195.508 200.366 193.555 200.073 191.582 199.487Z" fill="#998E57"/>
<rect y="116" width="30" height="30" fill="#8E9E5B"/>
<path d="M42.959 141.839V138.587C45.1074 139.417 46.8799 139.832 48.2764 139.832C49.5752 139.832 50.6152 139.5 51.3965 138.836C52.1875 138.172 52.583 137.288 52.583 136.185C52.583 133.323 50.4883 131.893 46.2988 131.893H44.9658V129.3L46.0938 129.285C50.0195 129.285 51.9824 128.001 51.9824 125.433C51.9824 123.47 50.7715 122.488 48.3496 122.488C46.7578 122.488 45.0586 122.894 43.252 123.704V120.745C45.1562 120.091 47.1631 119.764 49.2725 119.764C51.5088 119.764 53.2568 120.223 54.5166 121.141C55.7861 122.059 56.4209 123.328 56.4209 124.949C56.4209 127.508 54.8242 129.314 51.6309 130.369C55.2832 131.209 57.1094 133.162 57.1094 136.229C57.1094 138.172 56.377 139.71 54.9121 140.843C53.4473 141.976 51.4551 142.542 48.9355 142.542C46.7969 142.542 44.8047 142.308 42.959 141.839ZM72.417 142V120.32H76.9287V142H72.417ZM82.3779 142V125.916H86.5381V128.948C87.8076 126.683 89.6143 125.55 91.958 125.55C93.1689 125.55 94.165 125.848 94.9463 126.443C95.7275 127.039 96.2061 127.874 96.3818 128.948C97.8857 126.683 99.7021 125.55 101.831 125.55C104.771 125.55 106.24 127.171 106.24 130.413V142H102.08V131.834C102.08 129.93 101.445 128.978 100.176 128.978C98.877 128.978 97.6123 129.915 96.3818 131.79V142H92.2217V131.834C92.2217 129.92 91.582 128.963 90.3027 128.963C89.0234 128.963 87.7686 129.905 86.5381 131.79V142H82.3779ZM111.47 147.786V125.916H115.806V128.948C116.919 126.683 118.672 125.55 121.064 125.55C122.998 125.55 124.517 126.258 125.62 127.674C126.733 129.09 127.29 131.038 127.29 133.519C127.29 136.214 126.665 138.362 125.415 139.964C124.165 141.565 122.49 142.366 120.391 142.366C118.701 142.366 117.173 141.702 115.806 140.374V147.786H111.47ZM115.806 137.796C116.86 138.968 117.983 139.554 119.175 139.554C120.239 139.554 121.089 139.041 121.724 138.016C122.358 136.98 122.676 135.604 122.676 133.885C122.676 130.594 121.616 128.948 119.497 128.948C118.218 128.948 116.987 129.773 115.806 131.424V137.796ZM139.243 140.271C137.798 141.668 136.25 142.366 134.6 142.366C133.193 142.366 132.051 141.937 131.172 141.077C130.293 140.218 129.854 139.104 129.854 137.737C129.854 135.96 130.562 134.593 131.978 133.636C133.403 132.669 135.439 132.186 138.086 132.186H139.243V130.721C139.243 129.051 138.291 128.216 136.387 128.216C134.697 128.216 132.988 128.694 131.26 129.651V126.663C133.223 125.921 135.166 125.55 137.09 125.55C141.299 125.55 143.403 127.225 143.403 130.574V137.693C143.403 138.953 143.809 139.583 144.619 139.583C144.766 139.583 144.956 139.563 145.19 139.524L145.293 141.956C144.375 142.229 143.564 142.366 142.861 142.366C141.084 142.366 139.941 141.668 139.434 140.271H139.243ZM139.243 137.942V134.676H138.218C135.415 134.676 134.014 135.555 134.014 137.312C134.014 137.908 134.214 138.411 134.614 138.821C135.024 139.222 135.527 139.422 136.123 139.422C137.139 139.422 138.179 138.929 139.243 137.942ZM160.864 141.648C159.067 142.127 157.402 142.366 155.869 142.366C153.301 142.366 151.27 141.614 149.775 140.11C148.291 138.597 147.549 136.541 147.549 133.943C147.549 131.316 148.315 129.261 149.849 127.776C151.382 126.292 153.501 125.55 156.206 125.55C157.515 125.55 159.023 125.76 160.732 126.18V129.314C158.955 128.738 157.534 128.45 156.47 128.45C155.171 128.45 154.126 128.948 153.335 129.944C152.544 130.94 152.148 132.264 152.148 133.914C152.148 135.604 152.573 136.956 153.423 137.972C154.282 138.987 155.425 139.495 156.851 139.495C158.149 139.495 159.487 139.212 160.864 138.646V141.648ZM173.257 141.912C172.222 142.215 171.406 142.366 170.811 142.366C167.051 142.366 165.171 140.608 165.171 137.093V128.626H163.369V125.916H165.171V123.206L169.507 122.708V125.916H172.949V128.626H169.507V136.521C169.507 138.494 170.312 139.48 171.924 139.48C172.295 139.48 172.739 139.412 173.257 139.275V141.912Z" fill="#8E9E5B"/>
</svg>
