<svg width="1000" height="621" viewBox="0 0 1000 621" fill="none" xmlns="http://www.w3.org/2000/svg">
<rect width="1000" height="621" fill="#46B4B8"/>
<circle cx="500" cy="311" r="76" fill="white"/>
<path d="M500.166 350C495.366 350 491.099 349.4 487.366 348.2C483.633 347 480.133 344.967 476.866 342.1C475.066 340.5 474.166 338.733 474.166 336.8C474.166 335.267 474.733 333.933 475.866 332.8C476.999 331.6 478.366 331 479.966 331C481.233 331 482.366 331.4 483.366 332.2C486.033 334.4 488.633 336 491.166 337C493.699 338 496.699 338.5 500.166 338.5C503.899 338.5 507.099 337.667 509.766 336C512.499 334.333 513.866 332.267 513.866 329.8C513.866 326.8 512.533 324.467 509.866 322.8C507.199 321.067 502.966 319.767 497.166 318.9C482.566 316.767 475.266 309.967 475.266 298.5C475.266 294.3 476.366 290.667 478.566 287.6C480.766 284.467 483.766 282.1 487.566 280.5C491.366 278.833 495.599 278 500.266 278C504.466 278 508.399 278.633 512.066 279.9C515.799 281.167 518.899 282.833 521.366 284.9C523.299 286.433 524.266 288.2 524.266 290.2C524.266 291.733 523.699 293.1 522.566 294.3C521.433 295.433 520.099 296 518.566 296C517.566 296 516.666 295.7 515.866 295.1C514.133 293.7 511.699 292.433 508.566 291.3C505.499 290.1 502.733 289.5 500.266 289.5C496.066 289.5 492.799 290.3 490.466 291.9C488.199 293.433 487.066 295.467 487.066 298C487.066 300.867 488.233 303.033 490.566 304.5C492.966 305.967 496.699 307.167 501.766 308.1C507.499 309.1 512.066 310.4 515.466 312C518.933 313.533 521.533 315.667 523.266 318.4C524.999 321.067 525.866 324.633 525.866 329.1C525.866 333.3 524.666 337 522.266 340.2C519.933 343.333 516.799 345.767 512.866 347.5C508.933 349.167 504.699 350 500.166 350Z" fill="#46B4B8"/>
</svg>
