<svg width="602" height="115" viewBox="0 0 602 115" fill="none" xmlns="http://www.w3.org/2000/svg">
<mask id="mask0" mask-type="alpha" maskUnits="userSpaceOnUse" x="33" y="10" width="537" height="95">
<circle cx="80.5" cy="57.5" r="47.5" fill="white"/>
<circle cx="301.5" cy="57.5" r="47.5" fill="white"/>
<circle cx="190.5" cy="57.5" r="47.5" fill="white"/>
<circle cx="411.5" cy="57.5" r="47.5" fill="white"/>
<circle cx="522.5" cy="57.5" r="47.5" fill="white"/>
</mask>
<g mask="url(#mask0)">
<rect x="-8" y="-21" width="620" height="156" fill="url(#paint0_linear)"/>
</g>
<g filter="url(#filter0_d)">
<path d="M135 59C135 88.8234 110.376 113 80 113C49.6243 113 25 88.8234 25 59" stroke="#DDF1F2" stroke-width="3"/>
</g>
<g filter="url(#filter1_d)">
<path d="M246 57C246 26.6243 221.152 2 190.5 2C159.848 2 135 26.6243 135 57" stroke="#DDF1F2" stroke-width="3"/>
</g>
<g filter="url(#filter2_d)">
<path d="M356 59C356 88.8234 331.376 113 301 113C270.624 113 246 88.8234 246 59" stroke="#DDF1F2" stroke-width="3"/>
</g>
<g filter="url(#filter3_d)">
<path d="M577 59C577 88.8234 552.376 113 522 113C491.624 113 467 88.8234 467 59" stroke="#DDF1F2" stroke-width="3"/>
</g>
<g filter="url(#filter4_d)">
<path d="M467 57C467 26.6243 442.152 2 411.5 2C380.848 2 356 26.6243 356 57" stroke="#DDF1F2" stroke-width="3"/>
</g>
<circle cx="80.5" cy="57.5" r="46" stroke="#ECC377" stroke-width="3"/>
<path d="M55.3648 42.5C55.8748 42.5 56.3598 42.655 56.8198 42.965C57.2798 43.265 57.6498 43.675 57.9298 44.195C58.2098 44.705 58.3498 45.265 58.3498 45.875C58.3498 46.475 58.2098 47.035 57.9298 47.555C57.6498 48.075 57.2798 48.49 56.8198 48.8C56.3598 49.1 55.8748 49.25 55.3648 49.25H52.7548V52.085C52.7548 52.355 52.6748 52.575 52.5148 52.745C52.3548 52.915 52.1448 53 51.8848 53C51.6348 53 51.4298 52.915 51.2698 52.745C51.1098 52.565 51.0298 52.345 51.0298 52.085V43.415C51.0298 43.155 51.1148 42.94 51.2848 42.77C51.4648 42.59 51.6848 42.5 51.9448 42.5H55.3648ZM55.3648 47.54C55.5548 47.54 55.7398 47.46 55.9198 47.3C56.1098 47.14 56.2598 46.935 56.3698 46.685C56.4898 46.425 56.5498 46.155 56.5498 45.875C56.5498 45.595 56.4898 45.33 56.3698 45.08C56.2598 44.82 56.1098 44.615 55.9198 44.465C55.7398 44.305 55.5548 44.225 55.3648 44.225H52.7548V47.54H55.3648ZM64.0879 44.825C64.3879 44.825 64.6379 44.91 64.8379 45.08C65.0479 45.25 65.1529 45.45 65.1529 45.68C65.1529 45.99 65.0729 46.225 64.9129 46.385C64.7529 46.535 64.5629 46.61 64.3429 46.61C64.1929 46.61 64.0229 46.575 63.8329 46.505C63.8029 46.495 63.7329 46.475 63.6229 46.445C63.5229 46.415 63.4129 46.4 63.2929 46.4C63.0329 46.4 62.7829 46.48 62.5429 46.64C62.3029 46.8 62.1029 47.045 61.9429 47.375C61.7929 47.695 61.7179 48.08 61.7179 48.53V52.085C61.7179 52.345 61.6329 52.565 61.4629 52.745C61.2929 52.915 61.0779 53 60.8179 53C60.5579 53 60.3429 52.915 60.1729 52.745C60.0029 52.565 59.9179 52.345 59.9179 52.085V45.89C59.9179 45.63 60.0029 45.415 60.1729 45.245C60.3429 45.065 60.5579 44.975 60.8179 44.975C61.0779 44.975 61.2929 45.065 61.4629 45.245C61.6329 45.415 61.7179 45.63 61.7179 45.89V46.085C61.9479 45.675 62.2779 45.365 62.7079 45.155C63.1379 44.935 63.5979 44.825 64.0879 44.825ZM73.7949 48.995C73.7949 49.795 73.6149 50.515 73.2549 51.155C72.8949 51.785 72.3999 52.275 71.7699 52.625C71.1499 52.975 70.4649 53.15 69.7149 53.15C68.9549 53.15 68.2649 52.975 67.6449 52.625C67.0249 52.275 66.5349 51.785 66.1749 51.155C65.8149 50.515 65.6349 49.795 65.6349 48.995C65.6349 48.195 65.8149 47.48 66.1749 46.85C66.5349 46.21 67.0249 45.715 67.6449 45.365C68.2649 45.005 68.9549 44.825 69.7149 44.825C70.4649 44.825 71.1499 45.005 71.7699 45.365C72.3999 45.715 72.8949 46.21 73.2549 46.85C73.6149 47.48 73.7949 48.195 73.7949 48.995ZM71.9949 48.995C71.9949 48.505 71.8899 48.07 71.6799 47.69C71.4799 47.3 71.2049 47 70.8549 46.79C70.5149 46.58 70.1349 46.475 69.7149 46.475C69.2949 46.475 68.9099 46.58 68.5599 46.79C68.2199 47 67.9449 47.3 67.7349 47.69C67.5349 48.07 67.4349 48.505 67.4349 48.995C67.4349 49.485 67.5349 49.92 67.7349 50.3C67.9449 50.68 68.2199 50.975 68.5599 51.185C68.9099 51.395 69.2949 51.5 69.7149 51.5C70.1349 51.5 70.5149 51.395 70.8549 51.185C71.2049 50.975 71.4799 50.68 71.6799 50.3C71.8899 49.92 71.9949 49.485 71.9949 48.995ZM79.4537 44.825C80.1437 44.825 80.7687 45.005 81.3287 45.365C81.8887 45.715 82.3287 46.205 82.6487 46.835C82.9787 47.465 83.1437 48.18 83.1437 48.98C83.1437 49.78 82.9837 50.5 82.6637 51.14C82.3437 51.77 81.9037 52.265 81.3437 52.625C80.7937 52.975 80.1837 53.15 79.5137 53.15C79.0337 53.15 78.5787 53.055 78.1487 52.865C77.7287 52.665 77.3787 52.425 77.0987 52.145V52.235C77.0987 52.495 77.0137 52.715 76.8437 52.895C76.6737 53.065 76.4587 53.15 76.1987 53.15C75.9387 53.15 75.7237 53.065 75.5537 52.895C75.3837 52.725 75.2987 52.505 75.2987 52.235V42.815C75.2987 42.555 75.3837 42.34 75.5537 42.17C75.7237 41.99 75.9387 41.9 76.1987 41.9C76.4587 41.9 76.6737 41.99 76.8437 42.17C77.0137 42.34 77.0987 42.555 77.0987 42.815V45.95C77.3387 45.65 77.6737 45.39 78.1037 45.17C78.5337 44.94 78.9837 44.825 79.4537 44.825ZM79.2287 51.5C79.8687 51.5 80.3937 51.26 80.8037 50.78C81.2137 50.3 81.4187 49.7 81.4187 48.98C81.4187 48.26 81.2137 47.665 80.8037 47.195C80.4037 46.715 79.8787 46.475 79.2287 46.475C78.5787 46.475 78.0487 46.715 77.6387 47.195C77.2287 47.665 77.0237 48.26 77.0237 48.98C77.0237 49.7 77.2287 50.3 77.6387 50.78C78.0487 51.26 78.5787 51.5 79.2287 51.5ZM86.5944 52.085C86.5944 52.345 86.5044 52.565 86.3244 52.745C86.1544 52.915 85.9394 53 85.6794 53C85.4294 53 85.2194 52.915 85.0494 52.745C84.8794 52.565 84.7944 52.345 84.7944 52.085V42.815C84.7944 42.555 84.8794 42.34 85.0494 42.17C85.2294 41.99 85.4494 41.9 85.7094 41.9C85.9594 41.9 86.1694 41.99 86.3394 42.17C86.5094 42.34 86.5944 42.555 86.5944 42.815V52.085ZM95.7409 48.8C95.7309 49.04 95.6359 49.235 95.4559 49.385C95.2759 49.535 95.0659 49.61 94.8259 49.61H89.8759C89.9959 50.2 90.2709 50.665 90.7009 51.005C91.1309 51.335 91.6159 51.5 92.1559 51.5C92.5659 51.5 92.8859 51.465 93.1159 51.395C93.3459 51.315 93.5259 51.235 93.6559 51.155C93.7959 51.065 93.8909 51.005 93.9409 50.975C94.1209 50.885 94.2909 50.84 94.4509 50.84C94.6609 50.84 94.8409 50.915 94.9909 51.065C95.1409 51.215 95.2159 51.39 95.2159 51.59C95.2159 51.86 95.0759 52.105 94.7959 52.325C94.5159 52.555 94.1409 52.75 93.6709 52.91C93.2009 53.07 92.7259 53.15 92.2459 53.15C91.4059 53.15 90.6709 52.975 90.0409 52.625C89.4209 52.275 88.9409 51.795 88.6009 51.185C88.2609 50.565 88.0909 49.87 88.0909 49.1C88.0909 48.24 88.2709 47.485 88.6309 46.835C88.9909 46.185 89.4659 45.69 90.0559 45.35C90.6459 45 91.2759 44.825 91.9459 44.825C92.6059 44.825 93.2259 45.005 93.8059 45.365C94.3959 45.725 94.8659 46.21 95.2159 46.82C95.5659 47.43 95.7409 48.09 95.7409 48.8ZM91.9459 46.475C90.7859 46.475 90.1009 47.02 89.8909 48.11H93.8209V48.005C93.7809 47.585 93.5759 47.225 93.2059 46.925C92.8359 46.625 92.4159 46.475 91.9459 46.475ZM106.497 44.825C107.487 44.825 108.172 45.13 108.552 45.74C108.932 46.34 109.122 47.175 109.122 48.245V52.085C109.122 52.345 109.037 52.565 108.867 52.745C108.697 52.915 108.482 53 108.222 53C107.962 53 107.747 52.915 107.577 52.745C107.407 52.565 107.322 52.345 107.322 52.085V48.245C107.322 47.695 107.212 47.265 106.992 46.955C106.782 46.635 106.407 46.475 105.867 46.475C105.307 46.475 104.867 46.645 104.547 46.985C104.237 47.315 104.082 47.735 104.082 48.245V52.085C104.082 52.345 103.997 52.565 103.827 52.745C103.657 52.915 103.442 53 103.182 53C102.922 53 102.707 52.915 102.537 52.745C102.367 52.565 102.282 52.345 102.282 52.085V48.245C102.282 47.695 102.172 47.265 101.952 46.955C101.742 46.635 101.367 46.475 100.827 46.475C100.267 46.475 99.8271 46.645 99.5071 46.985C99.1971 47.315 99.0421 47.735 99.0421 48.245V52.085C99.0421 52.345 98.9571 52.565 98.7871 52.745C98.6171 52.915 98.4021 53 98.1421 53C97.8821 53 97.6671 52.915 97.4971 52.745C97.3271 52.565 97.2421 52.345 97.2421 52.085V45.89C97.2421 45.63 97.3271 45.415 97.4971 45.245C97.6671 45.065 97.8821 44.975 98.1421 44.975C98.4021 44.975 98.6171 45.065 98.7871 45.245C98.9571 45.415 99.0421 45.63 99.0421 45.89V46.13C99.3121 45.77 99.6521 45.465 100.062 45.215C100.482 44.955 100.947 44.825 101.457 44.825C102.717 44.825 103.522 45.375 103.872 46.475C104.102 46.055 104.447 45.675 104.907 45.335C105.377 44.995 105.907 44.825 106.497 44.825ZM50.7983 61.5C51.7383 61.5 52.5433 61.735 53.2133 62.205C53.8933 62.665 54.4083 63.295 54.7583 64.095C55.1183 64.885 55.2983 65.77 55.2983 66.75C55.2983 67.73 55.1183 68.62 54.7583 69.42C54.4083 70.21 53.8933 70.84 53.2133 71.31C52.5433 71.77 51.7383 72 50.7983 72H47.2133C46.9533 72 46.7333 71.915 46.5533 71.745C46.3833 71.565 46.2983 71.345 46.2983 71.085V62.415C46.2983 62.155 46.3833 61.94 46.5533 61.77C46.7333 61.59 46.9533 61.5 47.2133 61.5H50.7983ZM50.6483 70.275C51.5483 70.275 52.2233 69.945 52.6733 69.285C53.1233 68.615 53.3483 67.77 53.3483 66.75C53.3483 65.73 53.1183 64.89 52.6583 64.23C52.2083 63.56 51.5383 63.225 50.6483 63.225H48.1733V70.275H50.6483ZM64.1882 67.8C64.1782 68.04 64.0832 68.235 63.9032 68.385C63.7232 68.535 63.5132 68.61 63.2732 68.61H58.3232C58.4432 69.2 58.7182 69.665 59.1482 70.005C59.5782 70.335 60.0632 70.5 60.6032 70.5C61.0132 70.5 61.3332 70.465 61.5632 70.395C61.7932 70.315 61.9732 70.235 62.1032 70.155C62.2432 70.065 62.3382 70.005 62.3882 69.975C62.5682 69.885 62.7382 69.84 62.8982 69.84C63.1082 69.84 63.2882 69.915 63.4382 70.065C63.5882 70.215 63.6632 70.39 63.6632 70.59C63.6632 70.86 63.5232 71.105 63.2432 71.325C62.9632 71.555 62.5882 71.75 62.1182 71.91C61.6482 72.07 61.1732 72.15 60.6932 72.15C59.8532 72.15 59.1182 71.975 58.4882 71.625C57.8682 71.275 57.3882 70.795 57.0482 70.185C56.7082 69.565 56.5382 68.87 56.5382 68.1C56.5382 67.24 56.7182 66.485 57.0782 65.835C57.4382 65.185 57.9132 64.69 58.5032 64.35C59.0932 64 59.7232 63.825 60.3932 63.825C61.0532 63.825 61.6732 64.005 62.2532 64.365C62.8432 64.725 63.3132 65.21 63.6632 65.82C64.0132 66.43 64.1882 67.09 64.1882 67.8ZM60.3932 65.475C59.2332 65.475 58.5482 66.02 58.3382 67.11H62.2682V67.005C62.2282 66.585 62.0232 66.225 61.6532 65.925C61.2832 65.625 60.8632 65.475 60.3932 65.475ZM69.5444 62.49C69.2044 62.49 68.9644 62.59 68.8244 62.79C68.6844 62.98 68.6144 63.19 68.6144 63.42V64.125H69.9794C70.2194 64.125 70.4194 64.205 70.5794 64.365C70.7394 64.515 70.8194 64.71 70.8194 64.95C70.8194 65.19 70.7394 65.39 70.5794 65.55C70.4194 65.7 70.2194 65.775 69.9794 65.775H68.6144V71.085C68.6144 71.345 68.5294 71.565 68.3594 71.745C68.1894 71.915 67.9744 72 67.7144 72C67.4544 72 67.2394 71.915 67.0694 71.745C66.8994 71.565 66.8144 71.345 66.8144 71.085V65.775H66.0044C65.7644 65.775 65.5644 65.7 65.4044 65.55C65.2444 65.39 65.1644 65.19 65.1644 64.95C65.1644 64.71 65.2444 64.515 65.4044 64.365C65.5644 64.205 65.7644 64.125 66.0044 64.125H66.8144V63.435C66.8144 62.685 67.0694 62.075 67.5794 61.605C68.0994 61.135 68.8444 60.9 69.8144 60.9C70.1844 60.9 70.5044 60.975 70.7744 61.125C71.0544 61.275 71.1944 61.505 71.1944 61.815C71.1944 62.055 71.1244 62.25 70.9844 62.4C70.8444 62.55 70.6744 62.625 70.4744 62.625C70.4244 62.625 70.3694 62.62 70.3094 62.61C70.2594 62.6 70.2044 62.59 70.1444 62.58C69.9044 62.52 69.7044 62.49 69.5444 62.49ZM73.6394 71.085C73.6394 71.345 73.5544 71.565 73.3844 71.745C73.2144 71.915 72.9994 72 72.7394 72C72.4794 72 72.2644 71.915 72.0944 71.745C71.9244 71.565 71.8394 71.345 71.8394 71.085V64.89C71.8394 64.63 71.9244 64.415 72.0944 64.245C72.2644 64.065 72.4794 63.975 72.7394 63.975C72.9994 63.975 73.2144 64.065 73.3844 64.245C73.5544 64.415 73.6394 64.63 73.6394 64.89V71.085ZM72.7244 63C72.3844 63 72.1444 62.945 72.0044 62.835C71.8644 62.725 71.7944 62.53 71.7944 62.25V61.965C71.7944 61.685 71.8694 61.49 72.0194 61.38C72.1694 61.27 72.4094 61.215 72.7394 61.215C73.0894 61.215 73.3344 61.27 73.4744 61.38C73.6144 61.49 73.6844 61.685 73.6844 61.965V62.25C73.6844 62.54 73.6094 62.74 73.4594 62.85C73.3194 62.95 73.0744 63 72.7244 63ZM79.7792 63.825C80.7992 63.825 81.5042 64.13 81.8942 64.74C82.2842 65.34 82.4792 66.175 82.4792 67.245V71.085C82.4792 71.345 82.3942 71.565 82.2242 71.745C82.0542 71.915 81.8392 72 81.5792 72C81.3192 72 81.1042 71.915 80.9342 71.745C80.7642 71.565 80.6792 71.345 80.6792 71.085V67.245C80.6792 66.695 80.5642 66.265 80.3342 65.955C80.1042 65.635 79.7092 65.475 79.1492 65.475C78.5692 65.475 78.1142 65.645 77.7842 65.985C77.4542 66.315 77.2892 66.735 77.2892 67.245V71.085C77.2892 71.345 77.2042 71.565 77.0342 71.745C76.8642 71.915 76.6492 72 76.3892 72C76.1292 72 75.9142 71.915 75.7442 71.745C75.5742 71.565 75.4892 71.345 75.4892 71.085V64.89C75.4892 64.63 75.5742 64.415 75.7442 64.245C75.9142 64.065 76.1292 63.975 76.3892 63.975C76.6492 63.975 76.8642 64.065 77.0342 64.245C77.2042 64.415 77.2892 64.63 77.2892 64.89V65.145C77.5592 64.785 77.9092 64.475 78.3392 64.215C78.7792 63.955 79.2592 63.825 79.7792 63.825ZM86.1197 71.085C86.1197 71.345 86.0347 71.565 85.8647 71.745C85.6947 71.915 85.4797 72 85.2197 72C84.9597 72 84.7447 71.915 84.5747 71.745C84.4047 71.565 84.3197 71.345 84.3197 71.085V64.89C84.3197 64.63 84.4047 64.415 84.5747 64.245C84.7447 64.065 84.9597 63.975 85.2197 63.975C85.4797 63.975 85.6947 64.065 85.8647 64.245C86.0347 64.415 86.1197 64.63 86.1197 64.89V71.085ZM85.2047 63C84.8647 63 84.6247 62.945 84.4847 62.835C84.3447 62.725 84.2747 62.53 84.2747 62.25V61.965C84.2747 61.685 84.3497 61.49 84.4997 61.38C84.6497 61.27 84.8897 61.215 85.2197 61.215C85.5697 61.215 85.8147 61.27 85.9547 61.38C86.0947 61.49 86.1647 61.685 86.1647 61.965V62.25C86.1647 62.54 86.0897 62.74 85.9397 62.85C85.7997 62.95 85.5547 63 85.2047 63ZM91.8396 70.305C91.9796 70.305 92.1046 70.375 92.2146 70.515C92.3346 70.645 92.3946 70.82 92.3946 71.04C92.3946 71.31 92.2446 71.54 91.9446 71.73C91.6546 71.91 91.3246 72 90.9546 72C90.3346 72 89.8096 71.87 89.3796 71.61C88.9596 71.34 88.7496 70.775 88.7496 69.915V65.775H88.0596C87.8196 65.775 87.6196 65.695 87.4596 65.535C87.2996 65.375 87.2196 65.175 87.2196 64.935C87.2196 64.705 87.2996 64.515 87.4596 64.365C87.6196 64.205 87.8196 64.125 88.0596 64.125H88.7496V63.165C88.7496 62.905 88.8346 62.69 89.0046 62.52C89.1846 62.34 89.4046 62.25 89.6646 62.25C89.9146 62.25 90.1246 62.34 90.2946 62.52C90.4646 62.69 90.5496 62.905 90.5496 63.165V64.125H91.6146C91.8546 64.125 92.0546 64.205 92.2146 64.365C92.3746 64.525 92.4546 64.725 92.4546 64.965C92.4546 65.195 92.3746 65.39 92.2146 65.55C92.0546 65.7 91.8546 65.775 91.6146 65.775H90.5496V69.84C90.5496 70.05 90.6046 70.205 90.7146 70.305C90.8246 70.395 90.9746 70.44 91.1646 70.44C91.2446 70.44 91.3546 70.42 91.4946 70.38C91.6146 70.33 91.7296 70.305 91.8396 70.305ZM95.8023 71.085C95.8023 71.345 95.7173 71.565 95.5473 71.745C95.3773 71.915 95.1623 72 94.9023 72C94.6423 72 94.4273 71.915 94.2573 71.745C94.0873 71.565 94.0023 71.345 94.0023 71.085V64.89C94.0023 64.63 94.0873 64.415 94.2573 64.245C94.4273 64.065 94.6423 63.975 94.9023 63.975C95.1623 63.975 95.3773 64.065 95.5473 64.245C95.7173 64.415 95.8023 64.63 95.8023 64.89V71.085ZM94.8873 63C94.5473 63 94.3073 62.945 94.1673 62.835C94.0273 62.725 93.9573 62.53 93.9573 62.25V61.965C93.9573 61.685 94.0323 61.49 94.1823 61.38C94.3323 61.27 94.5723 61.215 94.9023 61.215C95.2523 61.215 95.4973 61.27 95.6373 61.38C95.7773 61.49 95.8473 61.685 95.8473 61.965V62.25C95.8473 62.54 95.7723 62.74 95.6223 62.85C95.4823 62.95 95.2373 63 94.8873 63ZM105.362 67.995C105.362 68.795 105.182 69.515 104.822 70.155C104.462 70.785 103.967 71.275 103.337 71.625C102.717 71.975 102.032 72.15 101.282 72.15C100.522 72.15 99.8322 71.975 99.2122 71.625C98.5922 71.275 98.1022 70.785 97.7422 70.155C97.3822 69.515 97.2022 68.795 97.2022 67.995C97.2022 67.195 97.3822 66.48 97.7422 65.85C98.1022 65.21 98.5922 64.715 99.2122 64.365C99.8322 64.005 100.522 63.825 101.282 63.825C102.032 63.825 102.717 64.005 103.337 64.365C103.967 64.715 104.462 65.21 104.822 65.85C105.182 66.48 105.362 67.195 105.362 67.995ZM103.562 67.995C103.562 67.505 103.457 67.07 103.247 66.69C103.047 66.3 102.772 66 102.422 65.79C102.082 65.58 101.702 65.475 101.282 65.475C100.862 65.475 100.477 65.58 100.127 65.79C99.7872 66 99.5122 66.3 99.3022 66.69C99.1022 67.07 99.0022 67.505 99.0022 67.995C99.0022 68.485 99.1022 68.92 99.3022 69.3C99.5122 69.68 99.7872 69.975 100.127 70.185C100.477 70.395 100.862 70.5 101.282 70.5C101.702 70.5 102.082 70.395 102.422 70.185C102.772 69.975 103.047 69.68 103.247 69.3C103.457 68.92 103.562 68.485 103.562 67.995ZM111.156 63.825C112.176 63.825 112.881 64.13 113.271 64.74C113.661 65.34 113.856 66.175 113.856 67.245V71.085C113.856 71.345 113.771 71.565 113.601 71.745C113.431 71.915 113.216 72 112.956 72C112.696 72 112.481 71.915 112.311 71.745C112.141 71.565 112.056 71.345 112.056 71.085V67.245C112.056 66.695 111.941 66.265 111.711 65.955C111.481 65.635 111.086 65.475 110.526 65.475C109.946 65.475 109.491 65.645 109.161 65.985C108.831 66.315 108.666 66.735 108.666 67.245V71.085C108.666 71.345 108.581 71.565 108.411 71.745C108.241 71.915 108.026 72 107.766 72C107.506 72 107.291 71.915 107.121 71.745C106.951 71.565 106.866 71.345 106.866 71.085V64.89C106.866 64.63 106.951 64.415 107.121 64.245C107.291 64.065 107.506 63.975 107.766 63.975C108.026 63.975 108.241 64.065 108.411 64.245C108.581 64.415 108.666 64.63 108.666 64.89V65.145C108.936 64.785 109.286 64.475 109.716 64.215C110.156 63.955 110.636 63.825 111.156 63.825Z" fill="white"/>
<circle cx="301.5" cy="57.5" r="46" stroke="#89BA97" stroke-width="3"/>
<path d="M304.005 51.83C304.055 51.96 304.08 52.08 304.08 52.19C304.08 52.45 303.995 52.665 303.825 52.835C303.655 52.995 303.46 53.075 303.24 53.075C303.06 53.075 302.895 53.02 302.745 52.91C302.605 52.8 302.495 52.65 302.415 52.46L301.635 50.645H297.165L296.385 52.475C296.315 52.665 296.205 52.815 296.055 52.925C295.915 53.025 295.76 53.075 295.59 53.075C295.33 53.075 295.13 53.005 294.99 52.865C294.86 52.725 294.795 52.535 294.795 52.295C294.795 52.205 294.81 52.11 294.84 52.01L298.575 43.04C298.655 42.84 298.775 42.685 298.935 42.575C299.095 42.465 299.275 42.42 299.475 42.44C299.655 42.44 299.82 42.495 299.97 42.605C300.13 42.705 300.245 42.85 300.315 43.04L304.005 51.83ZM300.9 48.92L299.385 45.41L297.9 48.92H300.9ZM307.225 52.085C307.225 52.345 307.13 52.565 306.94 52.745C306.75 52.915 306.53 53 306.28 53C306.01 53 305.785 52.915 305.605 52.745C305.435 52.565 305.35 52.345 305.35 52.085V43.415C305.35 43.155 305.44 42.94 305.62 42.77C305.8 42.59 306.03 42.5 306.31 42.5C306.56 42.5 306.775 42.59 306.955 42.77C307.135 42.94 307.225 43.155 307.225 43.415V52.085ZM282.75 61.5C283.69 61.5 284.495 61.735 285.165 62.205C285.845 62.665 286.36 63.295 286.71 64.095C287.07 64.885 287.25 65.77 287.25 66.75C287.25 67.73 287.07 68.62 286.71 69.42C286.36 70.21 285.845 70.84 285.165 71.31C284.495 71.77 283.69 72 282.75 72H279.165C278.905 72 278.685 71.915 278.505 71.745C278.335 71.565 278.25 71.345 278.25 71.085V62.415C278.25 62.155 278.335 61.94 278.505 61.77C278.685 61.59 278.905 61.5 279.165 61.5H282.75ZM282.6 70.275C283.5 70.275 284.175 69.945 284.625 69.285C285.075 68.615 285.3 67.77 285.3 66.75C285.3 65.73 285.07 64.89 284.61 64.23C284.16 63.56 283.49 63.225 282.6 63.225H280.125V70.275H282.6ZM296.14 67.8C296.13 68.04 296.035 68.235 295.855 68.385C295.675 68.535 295.465 68.61 295.225 68.61H290.275C290.395 69.2 290.67 69.665 291.1 70.005C291.53 70.335 292.015 70.5 292.555 70.5C292.965 70.5 293.285 70.465 293.515 70.395C293.745 70.315 293.925 70.235 294.055 70.155C294.195 70.065 294.29 70.005 294.34 69.975C294.52 69.885 294.69 69.84 294.85 69.84C295.06 69.84 295.24 69.915 295.39 70.065C295.54 70.215 295.615 70.39 295.615 70.59C295.615 70.86 295.475 71.105 295.195 71.325C294.915 71.555 294.54 71.75 294.07 71.91C293.6 72.07 293.125 72.15 292.645 72.15C291.805 72.15 291.07 71.975 290.44 71.625C289.82 71.275 289.34 70.795 289 70.185C288.66 69.565 288.49 68.87 288.49 68.1C288.49 67.24 288.67 66.485 289.03 65.835C289.39 65.185 289.865 64.69 290.455 64.35C291.045 64 291.675 63.825 292.345 63.825C293.005 63.825 293.625 64.005 294.205 64.365C294.795 64.725 295.265 65.21 295.615 65.82C295.965 66.43 296.14 67.09 296.14 67.8ZM292.345 65.475C291.185 65.475 290.5 66.02 290.29 67.11H294.22V67.005C294.18 66.585 293.975 66.225 293.605 65.925C293.235 65.625 292.815 65.475 292.345 65.475ZM297.176 70.755C297.086 70.635 297.041 70.485 297.041 70.305C297.041 70.045 297.171 69.825 297.431 69.645C297.571 69.555 297.716 69.51 297.866 69.51C298.076 69.51 298.276 69.605 298.466 69.795C298.766 70.105 299.076 70.335 299.396 70.485C299.726 70.635 300.121 70.71 300.581 70.71C301.361 70.68 301.751 70.385 301.751 69.825C301.751 69.535 301.616 69.315 301.346 69.165C301.086 69.015 300.676 68.865 300.116 68.715C299.536 68.555 299.061 68.395 298.691 68.235C298.331 68.075 298.016 67.835 297.746 67.515C297.486 67.185 297.356 66.745 297.356 66.195C297.356 65.715 297.491 65.3 297.761 64.95C298.041 64.59 298.401 64.315 298.841 64.125C299.291 63.925 299.766 63.825 300.266 63.825C300.776 63.825 301.286 63.92 301.796 64.11C302.306 64.3 302.706 64.58 302.996 64.95C303.126 65.11 303.191 65.29 303.191 65.49C303.191 65.72 303.096 65.91 302.906 66.06C302.766 66.17 302.606 66.225 302.426 66.225C302.206 66.225 302.026 66.155 301.886 66.015C301.706 65.795 301.471 65.62 301.181 65.49C300.901 65.36 300.581 65.295 300.221 65.295C299.461 65.295 299.081 65.57 299.081 66.12C299.081 66.34 299.151 66.52 299.291 66.66C299.431 66.79 299.606 66.895 299.816 66.975C300.036 67.045 300.341 67.135 300.731 67.245C301.271 67.395 301.721 67.55 302.081 67.71C302.441 67.87 302.746 68.115 302.996 68.445C303.246 68.775 303.371 69.21 303.371 69.75C303.371 70.24 303.226 70.67 302.936 71.04C302.646 71.4 302.271 71.675 301.811 71.865C301.361 72.055 300.896 72.15 300.416 72.15C299.756 72.15 299.141 72.04 298.571 71.82C298.001 71.6 297.536 71.245 297.176 70.755ZM306.572 71.085C306.572 71.345 306.487 71.565 306.317 71.745C306.147 71.915 305.932 72 305.672 72C305.412 72 305.197 71.915 305.027 71.745C304.857 71.565 304.772 71.345 304.772 71.085V64.89C304.772 64.63 304.857 64.415 305.027 64.245C305.197 64.065 305.412 63.975 305.672 63.975C305.932 63.975 306.147 64.065 306.317 64.245C306.487 64.415 306.572 64.63 306.572 64.89V71.085ZM305.657 63C305.317 63 305.077 62.945 304.937 62.835C304.797 62.725 304.727 62.53 304.727 62.25V61.965C304.727 61.685 304.802 61.49 304.952 61.38C305.102 61.27 305.342 61.215 305.672 61.215C306.022 61.215 306.267 61.27 306.407 61.38C306.547 61.49 306.617 61.685 306.617 61.965V62.25C306.617 62.54 306.542 62.74 306.392 62.85C306.252 62.95 306.007 63 305.657 63ZM315.067 63.825C315.327 63.825 315.542 63.91 315.712 64.08C315.882 64.25 315.967 64.47 315.967 64.74V71.415C315.967 72.635 315.587 73.535 314.827 74.115C314.077 74.705 313.122 75 311.962 75C311.662 75 311.247 74.95 310.717 74.85C310.197 74.75 309.827 74.65 309.607 74.55C309.117 74.34 308.872 74.05 308.872 73.68C308.872 73.61 308.887 73.53 308.917 73.44C308.977 73.22 309.077 73.05 309.217 72.93C309.367 72.82 309.527 72.765 309.697 72.765C309.797 72.765 309.892 72.78 309.982 72.81C310.022 72.82 310.267 72.91 310.717 73.08C311.177 73.26 311.592 73.35 311.962 73.35C312.702 73.35 313.252 73.2 313.612 72.9C313.982 72.61 314.167 72.195 314.167 71.655V70.935C313.947 71.245 313.612 71.525 313.162 71.775C312.722 72.025 312.247 72.15 311.737 72.15C311.037 72.15 310.397 71.975 309.817 71.625C309.247 71.265 308.797 70.77 308.467 70.14C308.137 69.51 307.972 68.795 307.972 67.995C307.972 67.195 308.132 66.48 308.452 65.85C308.782 65.21 309.227 64.715 309.787 64.365C310.357 64.005 310.987 63.825 311.677 63.825C312.187 63.825 312.662 63.93 313.102 64.14C313.542 64.35 313.897 64.605 314.167 64.905V64.74C314.167 64.48 314.252 64.265 314.422 64.095C314.592 63.915 314.807 63.825 315.067 63.825ZM311.962 70.5C312.632 70.5 313.177 70.265 313.597 69.795C314.027 69.315 314.242 68.715 314.242 67.995C314.242 67.275 314.027 66.675 313.597 66.195C313.177 65.715 312.632 65.475 311.962 65.475C311.292 65.475 310.747 65.715 310.327 66.195C309.907 66.675 309.697 67.275 309.697 67.995C309.697 68.715 309.907 69.315 310.327 69.795C310.747 70.265 311.292 70.5 311.962 70.5ZM322.204 63.825C323.224 63.825 323.929 64.13 324.319 64.74C324.709 65.34 324.904 66.175 324.904 67.245V71.085C324.904 71.345 324.819 71.565 324.649 71.745C324.479 71.915 324.264 72 324.004 72C323.744 72 323.529 71.915 323.359 71.745C323.189 71.565 323.104 71.345 323.104 71.085V67.245C323.104 66.695 322.989 66.265 322.759 65.955C322.529 65.635 322.134 65.475 321.574 65.475C320.994 65.475 320.539 65.645 320.209 65.985C319.879 66.315 319.714 66.735 319.714 67.245V71.085C319.714 71.345 319.629 71.565 319.459 71.745C319.289 71.915 319.074 72 318.814 72C318.554 72 318.339 71.915 318.169 71.745C317.999 71.565 317.914 71.345 317.914 71.085V64.89C317.914 64.63 317.999 64.415 318.169 64.245C318.339 64.065 318.554 63.975 318.814 63.975C319.074 63.975 319.289 64.065 319.459 64.245C319.629 64.415 319.714 64.63 319.714 64.89V65.145C319.984 64.785 320.334 64.475 320.764 64.215C321.204 63.955 321.684 63.825 322.204 63.825Z" fill="white"/>
<circle cx="190.5" cy="57.5" r="46" stroke="#A1CF93" stroke-width="3"/>
<path d="M167.388 61.53C167.518 61.61 167.618 61.715 167.688 61.845C167.768 61.975 167.808 62.11 167.808 62.25C167.808 62.43 167.748 62.595 167.628 62.745C167.478 62.925 167.248 63.015 166.938 63.015C166.698 63.015 166.478 62.96 166.278 62.85C165.558 62.44 165.198 61.605 165.198 60.345C165.198 59.985 165.078 59.7 164.838 59.49C164.608 59.28 164.273 59.175 163.833 59.175H161.028V62.085C161.028 62.355 160.953 62.575 160.803 62.745C160.663 62.915 160.473 63 160.233 63C159.943 63 159.688 62.915 159.468 62.745C159.258 62.565 159.153 62.345 159.153 62.085V53.415C159.153 53.155 159.238 52.94 159.408 52.77C159.588 52.59 159.808 52.5 160.068 52.5H164.388C164.908 52.5 165.398 52.64 165.858 52.92C166.318 53.2 166.683 53.585 166.953 54.075C167.233 54.565 167.373 55.115 167.373 55.725C167.373 56.225 167.238 56.715 166.968 57.195C166.698 57.665 166.348 58.04 165.918 58.32C166.548 58.76 166.893 59.35 166.953 60.09C166.983 60.25 166.998 60.405 166.998 60.555C167.038 60.865 167.078 61.09 167.118 61.23C167.158 61.36 167.248 61.46 167.388 61.53ZM164.313 57.63C164.493 57.63 164.668 57.545 164.838 57.375C165.008 57.205 165.148 56.98 165.258 56.7C165.368 56.41 165.423 56.1 165.423 55.77C165.423 55.49 165.368 55.235 165.258 55.005C165.148 54.765 165.008 54.575 164.838 54.435C164.668 54.295 164.493 54.225 164.313 54.225H161.028V57.63H164.313ZM176.428 58.8C176.418 59.04 176.323 59.235 176.143 59.385C175.963 59.535 175.753 59.61 175.513 59.61H170.563C170.683 60.2 170.958 60.665 171.388 61.005C171.818 61.335 172.303 61.5 172.843 61.5C173.253 61.5 173.573 61.465 173.803 61.395C174.033 61.315 174.213 61.235 174.343 61.155C174.483 61.065 174.578 61.005 174.628 60.975C174.808 60.885 174.978 60.84 175.138 60.84C175.348 60.84 175.528 60.915 175.678 61.065C175.828 61.215 175.903 61.39 175.903 61.59C175.903 61.86 175.763 62.105 175.483 62.325C175.203 62.555 174.828 62.75 174.358 62.91C173.888 63.07 173.413 63.15 172.933 63.15C172.093 63.15 171.358 62.975 170.728 62.625C170.108 62.275 169.628 61.795 169.288 61.185C168.948 60.565 168.778 59.87 168.778 59.1C168.778 58.24 168.958 57.485 169.318 56.835C169.678 56.185 170.153 55.69 170.743 55.35C171.333 55 171.963 54.825 172.633 54.825C173.293 54.825 173.913 55.005 174.493 55.365C175.083 55.725 175.553 56.21 175.903 56.82C176.253 57.43 176.428 58.09 176.428 58.8ZM172.633 56.475C171.473 56.475 170.788 57.02 170.578 58.11H174.508V58.005C174.468 57.585 174.263 57.225 173.893 56.925C173.523 56.625 173.103 56.475 172.633 56.475ZM177.464 61.755C177.374 61.635 177.329 61.485 177.329 61.305C177.329 61.045 177.459 60.825 177.719 60.645C177.859 60.555 178.004 60.51 178.154 60.51C178.364 60.51 178.564 60.605 178.754 60.795C179.054 61.105 179.364 61.335 179.684 61.485C180.014 61.635 180.409 61.71 180.869 61.71C181.649 61.68 182.039 61.385 182.039 60.825C182.039 60.535 181.904 60.315 181.634 60.165C181.374 60.015 180.964 59.865 180.404 59.715C179.824 59.555 179.349 59.395 178.979 59.235C178.619 59.075 178.304 58.835 178.034 58.515C177.774 58.185 177.644 57.745 177.644 57.195C177.644 56.715 177.779 56.3 178.049 55.95C178.329 55.59 178.689 55.315 179.129 55.125C179.579 54.925 180.054 54.825 180.554 54.825C181.064 54.825 181.574 54.92 182.084 55.11C182.594 55.3 182.994 55.58 183.284 55.95C183.414 56.11 183.479 56.29 183.479 56.49C183.479 56.72 183.384 56.91 183.194 57.06C183.054 57.17 182.894 57.225 182.714 57.225C182.494 57.225 182.314 57.155 182.174 57.015C181.994 56.795 181.759 56.62 181.469 56.49C181.189 56.36 180.869 56.295 180.509 56.295C179.749 56.295 179.369 56.57 179.369 57.12C179.369 57.34 179.439 57.52 179.579 57.66C179.719 57.79 179.894 57.895 180.104 57.975C180.324 58.045 180.629 58.135 181.019 58.245C181.559 58.395 182.009 58.55 182.369 58.71C182.729 58.87 183.034 59.115 183.284 59.445C183.534 59.775 183.659 60.21 183.659 60.75C183.659 61.24 183.514 61.67 183.224 62.04C182.934 62.4 182.559 62.675 182.099 62.865C181.649 63.055 181.184 63.15 180.704 63.15C180.044 63.15 179.429 63.04 178.859 62.82C178.289 62.6 177.824 62.245 177.464 61.755ZM192.365 58.8C192.355 59.04 192.26 59.235 192.08 59.385C191.9 59.535 191.69 59.61 191.45 59.61H186.5C186.62 60.2 186.895 60.665 187.325 61.005C187.755 61.335 188.24 61.5 188.78 61.5C189.19 61.5 189.51 61.465 189.74 61.395C189.97 61.315 190.15 61.235 190.28 61.155C190.42 61.065 190.515 61.005 190.565 60.975C190.745 60.885 190.915 60.84 191.075 60.84C191.285 60.84 191.465 60.915 191.615 61.065C191.765 61.215 191.84 61.39 191.84 61.59C191.84 61.86 191.7 62.105 191.42 62.325C191.14 62.555 190.765 62.75 190.295 62.91C189.825 63.07 189.35 63.15 188.87 63.15C188.03 63.15 187.295 62.975 186.665 62.625C186.045 62.275 185.565 61.795 185.225 61.185C184.885 60.565 184.715 59.87 184.715 59.1C184.715 58.24 184.895 57.485 185.255 56.835C185.615 56.185 186.09 55.69 186.68 55.35C187.27 55 187.9 54.825 188.57 54.825C189.23 54.825 189.85 55.005 190.43 55.365C191.02 55.725 191.49 56.21 191.84 56.82C192.19 57.43 192.365 58.09 192.365 58.8ZM188.57 56.475C187.41 56.475 186.725 57.02 186.515 58.11H190.445V58.005C190.405 57.585 190.2 57.225 189.83 56.925C189.46 56.625 189.04 56.475 188.57 56.475ZM200.42 54.825C200.68 54.825 200.895 54.91 201.065 55.08C201.235 55.25 201.32 55.47 201.32 55.74V62.085C201.32 62.345 201.235 62.565 201.065 62.745C200.895 62.915 200.68 63 200.42 63C200.16 63 199.945 62.915 199.775 62.745C199.615 62.575 199.53 62.36 199.52 62.1C199.27 62.39 198.93 62.64 198.5 62.85C198.08 63.05 197.635 63.15 197.165 63.15C196.475 63.15 195.85 62.975 195.29 62.625C194.73 62.265 194.285 61.77 193.955 61.14C193.635 60.51 193.475 59.795 193.475 58.995C193.475 58.195 193.635 57.48 193.955 56.85C194.275 56.21 194.71 55.715 195.26 55.365C195.82 55.005 196.435 54.825 197.105 54.825C197.585 54.825 198.035 54.915 198.455 55.095C198.875 55.265 199.23 55.485 199.52 55.755V55.74C199.52 55.48 199.605 55.265 199.775 55.095C199.945 54.915 200.16 54.825 200.42 54.825ZM197.39 61.5C198.04 61.5 198.57 61.265 198.98 60.795C199.39 60.315 199.595 59.715 199.595 58.995C199.595 58.275 199.39 57.675 198.98 57.195C198.57 56.715 198.04 56.475 197.39 56.475C196.75 56.475 196.225 56.715 195.815 57.195C195.405 57.675 195.2 58.275 195.2 58.995C195.2 59.715 195.4 60.315 195.8 60.795C196.21 61.265 196.74 61.5 197.39 61.5ZM207.441 54.825C207.741 54.825 207.991 54.91 208.191 55.08C208.401 55.25 208.506 55.45 208.506 55.68C208.506 55.99 208.426 56.225 208.266 56.385C208.106 56.535 207.916 56.61 207.696 56.61C207.546 56.61 207.376 56.575 207.186 56.505C207.156 56.495 207.086 56.475 206.976 56.445C206.876 56.415 206.766 56.4 206.646 56.4C206.386 56.4 206.136 56.48 205.896 56.64C205.656 56.8 205.456 57.045 205.296 57.375C205.146 57.695 205.071 58.08 205.071 58.53V62.085C205.071 62.345 204.986 62.565 204.816 62.745C204.646 62.915 204.431 63 204.171 63C203.911 63 203.696 62.915 203.526 62.745C203.356 62.565 203.271 62.345 203.271 62.085V55.89C203.271 55.63 203.356 55.415 203.526 55.245C203.696 55.065 203.911 54.975 204.171 54.975C204.431 54.975 204.646 55.065 204.816 55.245C204.986 55.415 205.071 55.63 205.071 55.89V56.085C205.301 55.675 205.631 55.365 206.061 55.155C206.491 54.935 206.951 54.825 207.441 54.825ZM212.933 54.825C213.783 54.825 214.468 54.96 214.988 55.23C215.508 55.49 215.768 55.84 215.768 56.28C215.768 56.5 215.703 56.695 215.573 56.865C215.443 57.025 215.273 57.105 215.063 57.105C214.903 57.105 214.773 57.085 214.673 57.045C214.573 56.995 214.473 56.935 214.373 56.865C214.283 56.785 214.193 56.72 214.103 56.67C214.003 56.62 213.853 56.575 213.653 56.535C213.463 56.495 213.308 56.475 213.188 56.475C212.438 56.475 211.848 56.71 211.418 57.18C210.998 57.64 210.788 58.245 210.788 58.995C210.788 59.715 211.003 60.315 211.433 60.795C211.863 61.265 212.413 61.5 213.083 61.5C213.573 61.5 213.938 61.44 214.178 61.32C214.238 61.29 214.318 61.24 214.418 61.17C214.528 61.09 214.628 61.03 214.718 60.99C214.808 60.95 214.918 60.93 215.048 60.93C215.298 60.93 215.493 61.01 215.633 61.17C215.783 61.33 215.858 61.535 215.858 61.785C215.858 62.025 215.718 62.25 215.438 62.46C215.158 62.67 214.788 62.84 214.328 62.97C213.868 63.09 213.378 63.15 212.858 63.15C212.088 63.15 211.408 62.97 210.818 62.61C210.238 62.25 209.788 61.755 209.468 61.125C209.148 60.485 208.988 59.775 208.988 58.995C208.988 58.185 209.153 57.465 209.483 56.835C209.823 56.205 210.293 55.715 210.893 55.365C211.493 55.005 212.173 54.825 212.933 54.825ZM221.373 54.825C222.363 54.825 223.048 55.13 223.428 55.74C223.808 56.34 223.998 57.175 223.998 58.245V62.085C223.998 62.345 223.913 62.565 223.743 62.745C223.573 62.915 223.358 63 223.098 63C222.838 63 222.623 62.915 222.453 62.745C222.283 62.565 222.198 62.345 222.198 62.085V58.245C222.198 57.695 222.088 57.265 221.868 56.955C221.658 56.635 221.283 56.475 220.743 56.475C220.183 56.475 219.743 56.645 219.423 56.985C219.113 57.315 218.958 57.735 218.958 58.245V62.085C218.958 62.345 218.873 62.565 218.703 62.745C218.533 62.915 218.318 63 218.058 63C217.798 63 217.583 62.915 217.413 62.745C217.243 62.565 217.158 62.345 217.158 62.085V52.815C217.158 52.555 217.243 52.34 217.413 52.17C217.583 51.99 217.798 51.9 218.058 51.9C218.318 51.9 218.533 51.99 218.703 52.17C218.873 52.34 218.958 52.555 218.958 52.815V56.13C219.228 55.77 219.568 55.465 219.978 55.215C220.398 54.955 220.863 54.825 221.373 54.825Z" fill="white"/>
<circle cx="411.5" cy="57.5" r="46" stroke="#61BEAE" stroke-width="3"/>
<path d="M380.617 42.5C381.127 42.5 381.612 42.655 382.072 42.965C382.532 43.265 382.902 43.675 383.182 44.195C383.462 44.705 383.602 45.265 383.602 45.875C383.602 46.475 383.462 47.035 383.182 47.555C382.902 48.075 382.532 48.49 382.072 48.8C381.612 49.1 381.127 49.25 380.617 49.25H378.007V52.085C378.007 52.355 377.927 52.575 377.767 52.745C377.607 52.915 377.397 53 377.137 53C376.887 53 376.682 52.915 376.522 52.745C376.362 52.565 376.282 52.345 376.282 52.085V43.415C376.282 43.155 376.367 42.94 376.537 42.77C376.717 42.59 376.937 42.5 377.197 42.5H380.617ZM380.617 47.54C380.807 47.54 380.992 47.46 381.172 47.3C381.362 47.14 381.512 46.935 381.622 46.685C381.742 46.425 381.802 46.155 381.802 45.875C381.802 45.595 381.742 45.33 381.622 45.08C381.512 44.82 381.362 44.615 381.172 44.465C380.992 44.305 380.807 44.225 380.617 44.225H378.007V47.54H380.617ZM389.34 44.825C389.64 44.825 389.89 44.91 390.09 45.08C390.3 45.25 390.405 45.45 390.405 45.68C390.405 45.99 390.325 46.225 390.165 46.385C390.005 46.535 389.815 46.61 389.595 46.61C389.445 46.61 389.275 46.575 389.085 46.505C389.055 46.495 388.985 46.475 388.875 46.445C388.775 46.415 388.665 46.4 388.545 46.4C388.285 46.4 388.035 46.48 387.795 46.64C387.555 46.8 387.355 47.045 387.195 47.375C387.045 47.695 386.97 48.08 386.97 48.53V52.085C386.97 52.345 386.885 52.565 386.715 52.745C386.545 52.915 386.33 53 386.07 53C385.81 53 385.595 52.915 385.425 52.745C385.255 52.565 385.17 52.345 385.17 52.085V45.89C385.17 45.63 385.255 45.415 385.425 45.245C385.595 45.065 385.81 44.975 386.07 44.975C386.33 44.975 386.545 45.065 386.715 45.245C386.885 45.415 386.97 45.63 386.97 45.89V46.085C387.2 45.675 387.53 45.365 387.96 45.155C388.39 44.935 388.85 44.825 389.34 44.825ZM399.047 48.995C399.047 49.795 398.867 50.515 398.507 51.155C398.147 51.785 397.652 52.275 397.022 52.625C396.402 52.975 395.717 53.15 394.967 53.15C394.207 53.15 393.517 52.975 392.897 52.625C392.277 52.275 391.787 51.785 391.427 51.155C391.067 50.515 390.887 49.795 390.887 48.995C390.887 48.195 391.067 47.48 391.427 46.85C391.787 46.21 392.277 45.715 392.897 45.365C393.517 45.005 394.207 44.825 394.967 44.825C395.717 44.825 396.402 45.005 397.022 45.365C397.652 45.715 398.147 46.21 398.507 46.85C398.867 47.48 399.047 48.195 399.047 48.995ZM397.247 48.995C397.247 48.505 397.142 48.07 396.932 47.69C396.732 47.3 396.457 47 396.107 46.79C395.767 46.58 395.387 46.475 394.967 46.475C394.547 46.475 394.162 46.58 393.812 46.79C393.472 47 393.197 47.3 392.987 47.69C392.787 48.07 392.687 48.505 392.687 48.995C392.687 49.485 392.787 49.92 392.987 50.3C393.197 50.68 393.472 50.975 393.812 51.185C394.162 51.395 394.547 51.5 394.967 51.5C395.387 51.5 395.767 51.395 396.107 51.185C396.457 50.975 396.732 50.68 396.932 50.3C397.142 49.92 397.247 49.485 397.247 48.995ZM404.421 51.305C404.561 51.305 404.686 51.375 404.796 51.515C404.916 51.645 404.976 51.82 404.976 52.04C404.976 52.31 404.826 52.54 404.526 52.73C404.236 52.91 403.906 53 403.536 53C402.916 53 402.391 52.87 401.961 52.61C401.541 52.34 401.331 51.775 401.331 50.915V46.775H400.641C400.401 46.775 400.201 46.695 400.041 46.535C399.881 46.375 399.801 46.175 399.801 45.935C399.801 45.705 399.881 45.515 400.041 45.365C400.201 45.205 400.401 45.125 400.641 45.125H401.331V44.165C401.331 43.905 401.416 43.69 401.586 43.52C401.766 43.34 401.986 43.25 402.246 43.25C402.496 43.25 402.706 43.34 402.876 43.52C403.046 43.69 403.131 43.905 403.131 44.165V45.125H404.196C404.436 45.125 404.636 45.205 404.796 45.365C404.956 45.525 405.036 45.725 405.036 45.965C405.036 46.195 404.956 46.39 404.796 46.55C404.636 46.7 404.436 46.775 404.196 46.775H403.131V50.84C403.131 51.05 403.186 51.205 403.296 51.305C403.406 51.395 403.556 51.44 403.746 51.44C403.826 51.44 403.936 51.42 404.076 51.38C404.196 51.33 404.311 51.305 404.421 51.305ZM414.326 48.995C414.326 49.795 414.146 50.515 413.786 51.155C413.426 51.785 412.931 52.275 412.301 52.625C411.681 52.975 410.996 53.15 410.246 53.15C409.486 53.15 408.796 52.975 408.176 52.625C407.556 52.275 407.066 51.785 406.706 51.155C406.346 50.515 406.166 49.795 406.166 48.995C406.166 48.195 406.346 47.48 406.706 46.85C407.066 46.21 407.556 45.715 408.176 45.365C408.796 45.005 409.486 44.825 410.246 44.825C410.996 44.825 411.681 45.005 412.301 45.365C412.931 45.715 413.426 46.21 413.786 46.85C414.146 47.48 414.326 48.195 414.326 48.995ZM412.526 48.995C412.526 48.505 412.421 48.07 412.211 47.69C412.011 47.3 411.736 47 411.386 46.79C411.046 46.58 410.666 46.475 410.246 46.475C409.826 46.475 409.441 46.58 409.091 46.79C408.751 47 408.476 47.3 408.266 47.69C408.066 48.07 407.966 48.505 407.966 48.995C407.966 49.485 408.066 49.92 408.266 50.3C408.476 50.68 408.751 50.975 409.091 51.185C409.441 51.395 409.826 51.5 410.246 51.5C410.666 51.5 411.046 51.395 411.386 51.185C411.736 50.975 412.011 50.68 412.211 50.3C412.421 49.92 412.526 49.485 412.526 48.995ZM419.699 51.305C419.839 51.305 419.964 51.375 420.074 51.515C420.194 51.645 420.254 51.82 420.254 52.04C420.254 52.31 420.104 52.54 419.804 52.73C419.514 52.91 419.184 53 418.814 53C418.194 53 417.669 52.87 417.239 52.61C416.819 52.34 416.609 51.775 416.609 50.915V46.775H415.919C415.679 46.775 415.479 46.695 415.319 46.535C415.159 46.375 415.079 46.175 415.079 45.935C415.079 45.705 415.159 45.515 415.319 45.365C415.479 45.205 415.679 45.125 415.919 45.125H416.609V44.165C416.609 43.905 416.694 43.69 416.864 43.52C417.044 43.34 417.264 43.25 417.524 43.25C417.774 43.25 417.984 43.34 418.154 43.52C418.324 43.69 418.409 43.905 418.409 44.165V45.125H419.474C419.714 45.125 419.914 45.205 420.074 45.365C420.234 45.525 420.314 45.725 420.314 45.965C420.314 46.195 420.234 46.39 420.074 46.55C419.914 46.7 419.714 46.775 419.474 46.775H418.409V50.84C418.409 51.05 418.464 51.205 418.574 51.305C418.684 51.395 418.834 51.44 419.024 51.44C419.104 51.44 419.214 51.42 419.354 51.38C419.474 51.33 419.589 51.305 419.699 51.305ZM427.922 44.975C428.182 44.975 428.397 45.065 428.567 45.245C428.737 45.415 428.822 45.63 428.822 45.89V52.265C428.822 53.565 428.472 54.51 427.772 55.1C427.072 55.7 426.137 56 424.967 56C424.627 56 424.277 55.97 423.917 55.91C423.567 55.86 423.282 55.79 423.062 55.7C422.572 55.49 422.327 55.2 422.327 54.83C422.327 54.76 422.342 54.68 422.372 54.59C422.432 54.37 422.532 54.2 422.672 54.08C422.822 53.97 422.982 53.915 423.152 53.915C423.252 53.915 423.347 53.93 423.437 53.96C423.507 53.99 423.627 54.04 423.797 54.11C423.977 54.18 424.162 54.235 424.352 54.275C424.552 54.325 424.757 54.35 424.967 54.35C425.677 54.35 426.197 54.195 426.527 53.885C426.867 53.585 427.037 53.065 427.037 52.325V52.175C426.517 52.825 425.707 53.15 424.607 53.15C424.087 53.15 423.627 53.03 423.227 52.79C422.827 52.54 422.517 52.2 422.297 51.77C422.077 51.33 421.967 50.83 421.967 50.27V45.89C421.967 45.63 422.052 45.415 422.222 45.245C422.392 45.065 422.607 44.975 422.867 44.975C423.127 44.975 423.342 45.065 423.512 45.245C423.682 45.415 423.767 45.63 423.767 45.89V49.73C423.767 50.36 423.902 50.815 424.172 51.095C424.452 51.365 424.857 51.5 425.387 51.5C425.907 51.5 426.307 51.35 426.587 51.05C426.877 50.74 427.022 50.3 427.022 49.73V45.89C427.022 45.63 427.107 45.415 427.277 45.245C427.447 45.065 427.662 44.975 427.922 44.975ZM434.926 44.825C435.616 44.825 436.241 45.005 436.801 45.365C437.361 45.715 437.801 46.205 438.121 46.835C438.451 47.465 438.616 48.18 438.616 48.98C438.616 49.78 438.456 50.5 438.136 51.14C437.816 51.77 437.376 52.265 436.816 52.625C436.266 52.975 435.656 53.15 434.986 53.15C434.506 53.15 434.051 53.055 433.621 52.865C433.201 52.665 432.851 52.425 432.571 52.145V55.085C432.571 55.345 432.486 55.56 432.316 55.73C432.146 55.91 431.931 56 431.671 56C431.411 56 431.196 55.915 431.026 55.745C430.856 55.575 430.771 55.355 430.771 55.085V45.89C430.771 45.63 430.856 45.415 431.026 45.245C431.196 45.065 431.411 44.975 431.671 44.975C431.931 44.975 432.146 45.065 432.316 45.245C432.486 45.415 432.571 45.63 432.571 45.89V45.95C432.811 45.65 433.146 45.39 433.576 45.17C434.006 44.94 434.456 44.825 434.926 44.825ZM434.701 51.5C435.341 51.5 435.866 51.26 436.276 50.78C436.686 50.3 436.891 49.7 436.891 48.98C436.891 48.26 436.686 47.665 436.276 47.195C435.876 46.715 435.351 46.475 434.701 46.475C434.051 46.475 433.521 46.715 433.111 47.195C432.701 47.665 432.496 48.26 432.496 48.98C432.496 49.7 432.701 50.3 433.111 50.78C433.521 51.26 434.051 51.5 434.701 51.5ZM447.317 48.8C447.307 49.04 447.212 49.235 447.032 49.385C446.852 49.535 446.642 49.61 446.402 49.61H441.452C441.572 50.2 441.847 50.665 442.277 51.005C442.707 51.335 443.192 51.5 443.732 51.5C444.142 51.5 444.462 51.465 444.692 51.395C444.922 51.315 445.102 51.235 445.232 51.155C445.372 51.065 445.467 51.005 445.517 50.975C445.697 50.885 445.867 50.84 446.027 50.84C446.237 50.84 446.417 50.915 446.567 51.065C446.717 51.215 446.792 51.39 446.792 51.59C446.792 51.86 446.652 52.105 446.372 52.325C446.092 52.555 445.717 52.75 445.247 52.91C444.777 53.07 444.302 53.15 443.822 53.15C442.982 53.15 442.247 52.975 441.617 52.625C440.997 52.275 440.517 51.795 440.177 51.185C439.837 50.565 439.667 49.87 439.667 49.1C439.667 48.24 439.847 47.485 440.207 46.835C440.567 46.185 441.042 45.69 441.632 45.35C442.222 45 442.852 44.825 443.522 44.825C444.182 44.825 444.802 45.005 445.382 45.365C445.972 45.725 446.442 46.21 446.792 46.82C447.142 47.43 447.317 48.09 447.317 48.8ZM443.522 46.475C442.362 46.475 441.677 47.02 441.467 48.11H445.397V48.005C445.357 47.585 445.152 47.225 444.782 46.925C444.412 46.625 443.992 46.475 443.522 46.475ZM392.75 61.5C393.69 61.5 394.495 61.735 395.165 62.205C395.845 62.665 396.36 63.295 396.71 64.095C397.07 64.885 397.25 65.77 397.25 66.75C397.25 67.73 397.07 68.62 396.71 69.42C396.36 70.21 395.845 70.84 395.165 71.31C394.495 71.77 393.69 72 392.75 72H389.165C388.905 72 388.685 71.915 388.505 71.745C388.335 71.565 388.25 71.345 388.25 71.085V62.415C388.25 62.155 388.335 61.94 388.505 61.77C388.685 61.59 388.905 61.5 389.165 61.5H392.75ZM392.6 70.275C393.5 70.275 394.175 69.945 394.625 69.285C395.075 68.615 395.3 67.77 395.3 66.75C395.3 65.73 395.07 64.89 394.61 64.23C394.16 63.56 393.49 63.225 392.6 63.225H390.125V70.275H392.6ZM406.14 67.8C406.13 68.04 406.035 68.235 405.855 68.385C405.675 68.535 405.465 68.61 405.225 68.61H400.275C400.395 69.2 400.67 69.665 401.1 70.005C401.53 70.335 402.015 70.5 402.555 70.5C402.965 70.5 403.285 70.465 403.515 70.395C403.745 70.315 403.925 70.235 404.055 70.155C404.195 70.065 404.29 70.005 404.34 69.975C404.52 69.885 404.69 69.84 404.85 69.84C405.06 69.84 405.24 69.915 405.39 70.065C405.54 70.215 405.615 70.39 405.615 70.59C405.615 70.86 405.475 71.105 405.195 71.325C404.915 71.555 404.54 71.75 404.07 71.91C403.6 72.07 403.125 72.15 402.645 72.15C401.805 72.15 401.07 71.975 400.44 71.625C399.82 71.275 399.34 70.795 399 70.185C398.66 69.565 398.49 68.87 398.49 68.1C398.49 67.24 398.67 66.485 399.03 65.835C399.39 65.185 399.865 64.69 400.455 64.35C401.045 64 401.675 63.825 402.345 63.825C403.005 63.825 403.625 64.005 404.205 64.365C404.795 64.725 405.265 65.21 405.615 65.82C405.965 66.43 406.14 67.09 406.14 67.8ZM402.345 65.475C401.185 65.475 400.5 66.02 400.29 67.11H404.22V67.005C404.18 66.585 403.975 66.225 403.605 65.925C403.235 65.625 402.815 65.475 402.345 65.475ZM407.176 70.755C407.086 70.635 407.041 70.485 407.041 70.305C407.041 70.045 407.171 69.825 407.431 69.645C407.571 69.555 407.716 69.51 407.866 69.51C408.076 69.51 408.276 69.605 408.466 69.795C408.766 70.105 409.076 70.335 409.396 70.485C409.726 70.635 410.121 70.71 410.581 70.71C411.361 70.68 411.751 70.385 411.751 69.825C411.751 69.535 411.616 69.315 411.346 69.165C411.086 69.015 410.676 68.865 410.116 68.715C409.536 68.555 409.061 68.395 408.691 68.235C408.331 68.075 408.016 67.835 407.746 67.515C407.486 67.185 407.356 66.745 407.356 66.195C407.356 65.715 407.491 65.3 407.761 64.95C408.041 64.59 408.401 64.315 408.841 64.125C409.291 63.925 409.766 63.825 410.266 63.825C410.776 63.825 411.286 63.92 411.796 64.11C412.306 64.3 412.706 64.58 412.996 64.95C413.126 65.11 413.191 65.29 413.191 65.49C413.191 65.72 413.096 65.91 412.906 66.06C412.766 66.17 412.606 66.225 412.426 66.225C412.206 66.225 412.026 66.155 411.886 66.015C411.706 65.795 411.471 65.62 411.181 65.49C410.901 65.36 410.581 65.295 410.221 65.295C409.461 65.295 409.081 65.57 409.081 66.12C409.081 66.34 409.151 66.52 409.291 66.66C409.431 66.79 409.606 66.895 409.816 66.975C410.036 67.045 410.341 67.135 410.731 67.245C411.271 67.395 411.721 67.55 412.081 67.71C412.441 67.87 412.746 68.115 412.996 68.445C413.246 68.775 413.371 69.21 413.371 69.75C413.371 70.24 413.226 70.67 412.936 71.04C412.646 71.4 412.271 71.675 411.811 71.865C411.361 72.055 410.896 72.15 410.416 72.15C409.756 72.15 409.141 72.04 408.571 71.82C408.001 71.6 407.536 71.245 407.176 70.755ZM416.572 71.085C416.572 71.345 416.487 71.565 416.317 71.745C416.147 71.915 415.932 72 415.672 72C415.412 72 415.197 71.915 415.027 71.745C414.857 71.565 414.772 71.345 414.772 71.085V64.89C414.772 64.63 414.857 64.415 415.027 64.245C415.197 64.065 415.412 63.975 415.672 63.975C415.932 63.975 416.147 64.065 416.317 64.245C416.487 64.415 416.572 64.63 416.572 64.89V71.085ZM415.657 63C415.317 63 415.077 62.945 414.937 62.835C414.797 62.725 414.727 62.53 414.727 62.25V61.965C414.727 61.685 414.802 61.49 414.952 61.38C415.102 61.27 415.342 61.215 415.672 61.215C416.022 61.215 416.267 61.27 416.407 61.38C416.547 61.49 416.617 61.685 416.617 61.965V62.25C416.617 62.54 416.542 62.74 416.392 62.85C416.252 62.95 416.007 63 415.657 63ZM425.067 63.825C425.327 63.825 425.542 63.91 425.712 64.08C425.882 64.25 425.967 64.47 425.967 64.74V71.415C425.967 72.635 425.587 73.535 424.827 74.115C424.077 74.705 423.122 75 421.962 75C421.662 75 421.247 74.95 420.717 74.85C420.197 74.75 419.827 74.65 419.607 74.55C419.117 74.34 418.872 74.05 418.872 73.68C418.872 73.61 418.887 73.53 418.917 73.44C418.977 73.22 419.077 73.05 419.217 72.93C419.367 72.82 419.527 72.765 419.697 72.765C419.797 72.765 419.892 72.78 419.982 72.81C420.022 72.82 420.267 72.91 420.717 73.08C421.177 73.26 421.592 73.35 421.962 73.35C422.702 73.35 423.252 73.2 423.612 72.9C423.982 72.61 424.167 72.195 424.167 71.655V70.935C423.947 71.245 423.612 71.525 423.162 71.775C422.722 72.025 422.247 72.15 421.737 72.15C421.037 72.15 420.397 71.975 419.817 71.625C419.247 71.265 418.797 70.77 418.467 70.14C418.137 69.51 417.972 68.795 417.972 67.995C417.972 67.195 418.132 66.48 418.452 65.85C418.782 65.21 419.227 64.715 419.787 64.365C420.357 64.005 420.987 63.825 421.677 63.825C422.187 63.825 422.662 63.93 423.102 64.14C423.542 64.35 423.897 64.605 424.167 64.905V64.74C424.167 64.48 424.252 64.265 424.422 64.095C424.592 63.915 424.807 63.825 425.067 63.825ZM421.962 70.5C422.632 70.5 423.177 70.265 423.597 69.795C424.027 69.315 424.242 68.715 424.242 67.995C424.242 67.275 424.027 66.675 423.597 66.195C423.177 65.715 422.632 65.475 421.962 65.475C421.292 65.475 420.747 65.715 420.327 66.195C419.907 66.675 419.697 67.275 419.697 67.995C419.697 68.715 419.907 69.315 420.327 69.795C420.747 70.265 421.292 70.5 421.962 70.5ZM432.204 63.825C433.224 63.825 433.929 64.13 434.319 64.74C434.709 65.34 434.904 66.175 434.904 67.245V71.085C434.904 71.345 434.819 71.565 434.649 71.745C434.479 71.915 434.264 72 434.004 72C433.744 72 433.529 71.915 433.359 71.745C433.189 71.565 433.104 71.345 433.104 71.085V67.245C433.104 66.695 432.989 66.265 432.759 65.955C432.529 65.635 432.134 65.475 431.574 65.475C430.994 65.475 430.539 65.645 430.209 65.985C429.879 66.315 429.714 66.735 429.714 67.245V71.085C429.714 71.345 429.629 71.565 429.459 71.745C429.289 71.915 429.074 72 428.814 72C428.554 72 428.339 71.915 428.169 71.745C427.999 71.565 427.914 71.345 427.914 71.085V64.89C427.914 64.63 427.999 64.415 428.169 64.245C428.339 64.065 428.554 63.975 428.814 63.975C429.074 63.975 429.289 64.065 429.459 64.245C429.629 64.415 429.714 64.63 429.714 64.89V65.145C429.984 64.785 430.334 64.475 430.764 64.215C431.204 63.955 431.684 63.825 432.204 63.825Z" fill="white"/>
<circle cx="522.5" cy="57.5" r="46" stroke="#42ADB1" stroke-width="3"/>
<path d="M500.746 43.01C501.056 43.17 501.211 43.425 501.211 43.775C501.211 43.985 501.136 44.19 500.986 44.39C500.826 44.6 500.621 44.705 500.371 44.705C500.201 44.705 500.031 44.66 499.861 44.57C499.371 44.34 498.841 44.225 498.271 44.225C497.571 44.225 496.961 44.375 496.441 44.675C495.921 44.965 495.521 45.38 495.241 45.92C494.961 46.45 494.821 47.06 494.821 47.75C494.821 48.93 495.136 49.825 495.766 50.435C496.406 51.045 497.241 51.35 498.271 51.35C498.881 51.35 499.411 51.235 499.861 51.005C500.041 50.925 500.201 50.885 500.341 50.885C500.601 50.885 500.821 50.995 501.001 51.215C501.151 51.405 501.226 51.61 501.226 51.83C501.226 51.99 501.186 52.135 501.106 52.265C501.026 52.395 500.911 52.495 500.761 52.565C499.981 52.955 499.151 53.15 498.271 53.15C497.291 53.15 496.391 52.945 495.571 52.535C494.751 52.115 494.096 51.5 493.606 50.69C493.116 49.88 492.871 48.9 492.871 47.75C492.871 46.73 493.101 45.815 493.561 45.005C494.031 44.195 494.676 43.565 495.496 43.115C496.316 42.655 497.241 42.425 498.271 42.425C499.161 42.425 499.986 42.62 500.746 43.01ZM510.36 48.995C510.36 49.795 510.18 50.515 509.82 51.155C509.46 51.785 508.965 52.275 508.335 52.625C507.715 52.975 507.03 53.15 506.28 53.15C505.52 53.15 504.83 52.975 504.21 52.625C503.59 52.275 503.1 51.785 502.74 51.155C502.38 50.515 502.2 49.795 502.2 48.995C502.2 48.195 502.38 47.48 502.74 46.85C503.1 46.21 503.59 45.715 504.21 45.365C504.83 45.005 505.52 44.825 506.28 44.825C507.03 44.825 507.715 45.005 508.335 45.365C508.965 45.715 509.46 46.21 509.82 46.85C510.18 47.48 510.36 48.195 510.36 48.995ZM508.56 48.995C508.56 48.505 508.455 48.07 508.245 47.69C508.045 47.3 507.77 47 507.42 46.79C507.08 46.58 506.7 46.475 506.28 46.475C505.86 46.475 505.475 46.58 505.125 46.79C504.785 47 504.51 47.3 504.3 47.69C504.1 48.07 504 48.505 504 48.995C504 49.485 504.1 49.92 504.3 50.3C504.51 50.68 504.785 50.975 505.125 51.185C505.475 51.395 505.86 51.5 506.28 51.5C506.7 51.5 507.08 51.395 507.42 51.185C507.77 50.975 508.045 50.68 508.245 50.3C508.455 49.92 508.56 49.485 508.56 48.995ZM516.154 44.825C517.174 44.825 517.879 45.13 518.269 45.74C518.659 46.34 518.854 47.175 518.854 48.245V52.085C518.854 52.345 518.769 52.565 518.599 52.745C518.429 52.915 518.214 53 517.954 53C517.694 53 517.479 52.915 517.309 52.745C517.139 52.565 517.054 52.345 517.054 52.085V48.245C517.054 47.695 516.939 47.265 516.709 46.955C516.479 46.635 516.084 46.475 515.524 46.475C514.944 46.475 514.489 46.645 514.159 46.985C513.829 47.315 513.664 47.735 513.664 48.245V52.085C513.664 52.345 513.579 52.565 513.409 52.745C513.239 52.915 513.024 53 512.764 53C512.504 53 512.289 52.915 512.119 52.745C511.949 52.565 511.864 52.345 511.864 52.085V45.89C511.864 45.63 511.949 45.415 512.119 45.245C512.289 45.065 512.504 44.975 512.764 44.975C513.024 44.975 513.239 45.065 513.409 45.245C513.579 45.415 513.664 45.63 513.664 45.89V46.145C513.934 45.785 514.284 45.475 514.714 45.215C515.154 44.955 515.634 44.825 516.154 44.825ZM524.295 44.825C525.145 44.825 525.83 44.96 526.35 45.23C526.87 45.49 527.13 45.84 527.13 46.28C527.13 46.5 527.065 46.695 526.935 46.865C526.805 47.025 526.635 47.105 526.425 47.105C526.265 47.105 526.135 47.085 526.035 47.045C525.935 46.995 525.835 46.935 525.735 46.865C525.645 46.785 525.555 46.72 525.465 46.67C525.365 46.62 525.215 46.575 525.015 46.535C524.825 46.495 524.67 46.475 524.55 46.475C523.8 46.475 523.21 46.71 522.78 47.18C522.36 47.64 522.15 48.245 522.15 48.995C522.15 49.715 522.365 50.315 522.795 50.795C523.225 51.265 523.775 51.5 524.445 51.5C524.935 51.5 525.3 51.44 525.54 51.32C525.6 51.29 525.68 51.24 525.78 51.17C525.89 51.09 525.99 51.03 526.08 50.99C526.17 50.95 526.28 50.93 526.41 50.93C526.66 50.93 526.855 51.01 526.995 51.17C527.145 51.33 527.22 51.535 527.22 51.785C527.22 52.025 527.08 52.25 526.8 52.46C526.52 52.67 526.15 52.84 525.69 52.97C525.23 53.09 524.74 53.15 524.22 53.15C523.45 53.15 522.77 52.97 522.18 52.61C521.6 52.25 521.15 51.755 520.83 51.125C520.51 50.485 520.35 49.775 520.35 48.995C520.35 48.185 520.515 47.465 520.845 46.835C521.185 46.205 521.655 45.715 522.255 45.365C522.855 45.005 523.535 44.825 524.295 44.825ZM535.719 48.8C535.709 49.04 535.614 49.235 535.434 49.385C535.254 49.535 535.044 49.61 534.804 49.61H529.854C529.974 50.2 530.249 50.665 530.679 51.005C531.109 51.335 531.594 51.5 532.134 51.5C532.544 51.5 532.864 51.465 533.094 51.395C533.324 51.315 533.504 51.235 533.634 51.155C533.774 51.065 533.869 51.005 533.919 50.975C534.099 50.885 534.269 50.84 534.429 50.84C534.639 50.84 534.819 50.915 534.969 51.065C535.119 51.215 535.194 51.39 535.194 51.59C535.194 51.86 535.054 52.105 534.774 52.325C534.494 52.555 534.119 52.75 533.649 52.91C533.179 53.07 532.704 53.15 532.224 53.15C531.384 53.15 530.649 52.975 530.019 52.625C529.399 52.275 528.919 51.795 528.579 51.185C528.239 50.565 528.069 49.87 528.069 49.1C528.069 48.24 528.249 47.485 528.609 46.835C528.969 46.185 529.444 45.69 530.034 45.35C530.624 45 531.254 44.825 531.924 44.825C532.584 44.825 533.204 45.005 533.784 45.365C534.374 45.725 534.844 46.21 535.194 46.82C535.544 47.43 535.719 48.09 535.719 48.8ZM531.924 46.475C530.764 46.475 530.079 47.02 529.869 48.11H533.799V48.005C533.759 47.585 533.554 47.225 533.184 46.925C532.814 46.625 532.394 46.475 531.924 46.475ZM541.376 44.825C542.066 44.825 542.691 45.005 543.251 45.365C543.811 45.715 544.251 46.205 544.571 46.835C544.901 47.465 545.066 48.18 545.066 48.98C545.066 49.78 544.906 50.5 544.586 51.14C544.266 51.77 543.826 52.265 543.266 52.625C542.716 52.975 542.106 53.15 541.436 53.15C540.956 53.15 540.501 53.055 540.071 52.865C539.651 52.665 539.301 52.425 539.021 52.145V55.085C539.021 55.345 538.936 55.56 538.766 55.73C538.596 55.91 538.381 56 538.121 56C537.861 56 537.646 55.915 537.476 55.745C537.306 55.575 537.221 55.355 537.221 55.085V45.89C537.221 45.63 537.306 45.415 537.476 45.245C537.646 45.065 537.861 44.975 538.121 44.975C538.381 44.975 538.596 45.065 538.766 45.245C538.936 45.415 539.021 45.63 539.021 45.89V45.95C539.261 45.65 539.596 45.39 540.026 45.17C540.456 44.94 540.906 44.825 541.376 44.825ZM541.151 51.5C541.791 51.5 542.316 51.26 542.726 50.78C543.136 50.3 543.341 49.7 543.341 48.98C543.341 48.26 543.136 47.665 542.726 47.195C542.326 46.715 541.801 46.475 541.151 46.475C540.501 46.475 539.971 46.715 539.561 47.195C539.151 47.665 538.946 48.26 538.946 48.98C538.946 49.7 539.151 50.3 539.561 50.78C539.971 51.26 540.501 51.5 541.151 51.5ZM550.436 51.305C550.576 51.305 550.701 51.375 550.811 51.515C550.931 51.645 550.991 51.82 550.991 52.04C550.991 52.31 550.841 52.54 550.541 52.73C550.251 52.91 549.921 53 549.551 53C548.931 53 548.406 52.87 547.976 52.61C547.556 52.34 547.346 51.775 547.346 50.915V46.775H546.656C546.416 46.775 546.216 46.695 546.056 46.535C545.896 46.375 545.816 46.175 545.816 45.935C545.816 45.705 545.896 45.515 546.056 45.365C546.216 45.205 546.416 45.125 546.656 45.125H547.346V44.165C547.346 43.905 547.431 43.69 547.601 43.52C547.781 43.34 548.001 43.25 548.261 43.25C548.511 43.25 548.721 43.34 548.891 43.52C549.061 43.69 549.146 43.905 549.146 44.165V45.125H550.211C550.451 45.125 550.651 45.205 550.811 45.365C550.971 45.525 551.051 45.725 551.051 45.965C551.051 46.195 550.971 46.39 550.811 46.55C550.651 46.7 550.451 46.775 550.211 46.775H549.146V50.84C549.146 51.05 549.201 51.205 549.311 51.305C549.421 51.395 549.571 51.44 549.761 51.44C549.841 51.44 549.951 51.42 550.091 51.38C550.211 51.33 550.326 51.305 550.436 51.305ZM510.304 61.47C510.554 61.47 510.769 61.555 510.949 61.725C511.139 61.895 511.234 62.1 511.234 62.34C511.234 62.47 511.204 62.605 511.144 62.745L507.439 71.415C507.349 71.605 507.224 71.75 507.064 71.85C506.904 71.95 506.734 72 506.554 72C506.384 71.99 506.224 71.94 506.074 71.85C505.934 71.75 505.824 71.61 505.744 71.43L502.039 62.73C501.989 62.63 501.964 62.505 501.964 62.355C501.964 62.085 502.064 61.87 502.264 61.71C502.464 61.54 502.669 61.455 502.879 61.455C503.049 61.455 503.209 61.505 503.359 61.605C503.509 61.705 503.624 61.85 503.704 62.04L506.719 69.135L509.479 62.04C509.559 61.86 509.674 61.72 509.824 61.62C509.974 61.52 510.134 61.47 510.304 61.47ZM514.35 71.085C514.35 71.345 514.265 71.565 514.095 71.745C513.925 71.915 513.71 72 513.45 72C513.19 72 512.975 71.915 512.805 71.745C512.635 71.565 512.55 71.345 512.55 71.085V64.89C512.55 64.63 512.635 64.415 512.805 64.245C512.975 64.065 513.19 63.975 513.45 63.975C513.71 63.975 513.925 64.065 514.095 64.245C514.265 64.415 514.35 64.63 514.35 64.89V71.085ZM513.435 63C513.095 63 512.855 62.945 512.715 62.835C512.575 62.725 512.505 62.53 512.505 62.25V61.965C512.505 61.685 512.58 61.49 512.73 61.38C512.88 61.27 513.12 61.215 513.45 61.215C513.8 61.215 514.045 61.27 514.185 61.38C514.325 61.49 514.395 61.685 514.395 61.965V62.25C514.395 62.54 514.32 62.74 514.17 62.85C514.03 62.95 513.785 63 513.435 63ZM522.695 60.9C522.955 60.9 523.17 60.985 523.34 61.155C523.51 61.325 523.595 61.545 523.595 61.815V71.085C523.595 71.345 523.51 71.565 523.34 71.745C523.17 71.915 522.955 72 522.695 72C522.435 72 522.22 71.915 522.05 71.745C521.89 71.575 521.805 71.36 521.795 71.1C521.545 71.39 521.205 71.64 520.775 71.85C520.355 72.05 519.91 72.15 519.44 72.15C518.75 72.15 518.125 71.975 517.565 71.625C517.005 71.265 516.56 70.77 516.23 70.14C515.91 69.51 515.75 68.795 515.75 67.995C515.75 67.195 515.91 66.48 516.23 65.85C516.55 65.21 516.985 64.715 517.535 64.365C518.095 64.005 518.71 63.825 519.38 63.825C519.86 63.825 520.31 63.915 520.73 64.095C521.15 64.265 521.505 64.485 521.795 64.755V61.815C521.795 61.555 521.88 61.34 522.05 61.17C522.22 60.99 522.435 60.9 522.695 60.9ZM519.665 70.5C520.315 70.5 520.845 70.265 521.255 69.795C521.665 69.315 521.87 68.715 521.87 67.995C521.87 67.275 521.665 66.675 521.255 66.195C520.845 65.715 520.315 65.475 519.665 65.475C519.025 65.475 518.5 65.715 518.09 66.195C517.68 66.675 517.475 67.275 517.475 67.995C517.475 68.715 517.675 69.315 518.075 69.795C518.485 70.265 519.015 70.5 519.665 70.5ZM532.746 67.8C532.736 68.04 532.641 68.235 532.461 68.385C532.281 68.535 532.071 68.61 531.831 68.61H526.881C527.001 69.2 527.276 69.665 527.706 70.005C528.136 70.335 528.621 70.5 529.161 70.5C529.571 70.5 529.891 70.465 530.121 70.395C530.351 70.315 530.531 70.235 530.661 70.155C530.801 70.065 530.896 70.005 530.946 69.975C531.126 69.885 531.296 69.84 531.456 69.84C531.666 69.84 531.846 69.915 531.996 70.065C532.146 70.215 532.221 70.39 532.221 70.59C532.221 70.86 532.081 71.105 531.801 71.325C531.521 71.555 531.146 71.75 530.676 71.91C530.206 72.07 529.731 72.15 529.251 72.15C528.411 72.15 527.676 71.975 527.046 71.625C526.426 71.275 525.946 70.795 525.606 70.185C525.266 69.565 525.096 68.87 525.096 68.1C525.096 67.24 525.276 66.485 525.636 65.835C525.996 65.185 526.471 64.69 527.061 64.35C527.651 64 528.281 63.825 528.951 63.825C529.611 63.825 530.231 64.005 530.811 64.365C531.401 64.725 531.871 65.21 532.221 65.82C532.571 66.43 532.746 67.09 532.746 67.8ZM528.951 65.475C527.791 65.475 527.106 66.02 526.896 67.11H530.826V67.005C530.786 66.585 530.581 66.225 530.211 65.925C529.841 65.625 529.421 65.475 528.951 65.475ZM541.957 67.995C541.957 68.795 541.777 69.515 541.417 70.155C541.057 70.785 540.562 71.275 539.932 71.625C539.312 71.975 538.627 72.15 537.877 72.15C537.117 72.15 536.427 71.975 535.807 71.625C535.187 71.275 534.697 70.785 534.337 70.155C533.977 69.515 533.797 68.795 533.797 67.995C533.797 67.195 533.977 66.48 534.337 65.85C534.697 65.21 535.187 64.715 535.807 64.365C536.427 64.005 537.117 63.825 537.877 63.825C538.627 63.825 539.312 64.005 539.932 64.365C540.562 64.715 541.057 65.21 541.417 65.85C541.777 66.48 541.957 67.195 541.957 67.995ZM540.157 67.995C540.157 67.505 540.052 67.07 539.842 66.69C539.642 66.3 539.367 66 539.017 65.79C538.677 65.58 538.297 65.475 537.877 65.475C537.457 65.475 537.072 65.58 536.722 65.79C536.382 66 536.107 66.3 535.897 66.69C535.697 67.07 535.597 67.505 535.597 67.995C535.597 68.485 535.697 68.92 535.897 69.3C536.107 69.68 536.382 69.975 536.722 70.185C537.072 70.395 537.457 70.5 537.877 70.5C538.297 70.5 538.677 70.395 539.017 70.185C539.367 69.975 539.642 69.68 539.842 69.3C540.052 68.92 540.157 68.485 540.157 67.995Z" fill="white"/>
<line y1="57.5" x2="26" y2="57.5" stroke="#DDF1F2" stroke-width="3" stroke-linejoin="round"/>
<line x1="576" y1="57.5" x2="602" y2="57.5" stroke="#DDF1F2" stroke-width="3" stroke-linejoin="round"/>
<defs>
<filter id="filter0_d" x="23.5" y="56" width="113" height="58.5" filterUnits="userSpaceOnUse" color-interpolation-filters="sRGB">
<feFlood flood-opacity="0" result="BackgroundImageFix"/>
<feColorMatrix in="SourceAlpha" type="matrix" values="0 0 0 0 0 0 0 0 0 0 0 0 0 0 0 0 0 0 127 0"/>
<feOffset dy="-3"/>
<feColorMatrix type="matrix" values="0 0 0 0 0.866667 0 0 0 0 0.945098 0 0 0 0 0.94902 0 0 0 1 0"/>
<feBlend mode="normal" in2="BackgroundImageFix" result="effect1_dropShadow"/>
<feBlend mode="normal" in="SourceGraphic" in2="effect1_dropShadow" result="shape"/>
</filter>
<filter id="filter1_d" x="133.5" y="0.5" width="114" height="59.5" filterUnits="userSpaceOnUse" color-interpolation-filters="sRGB">
<feFlood flood-opacity="0" result="BackgroundImageFix"/>
<feColorMatrix in="SourceAlpha" type="matrix" values="0 0 0 0 0 0 0 0 0 0 0 0 0 0 0 0 0 0 127 0"/>
<feOffset dy="3"/>
<feColorMatrix type="matrix" values="0 0 0 0 0.866667 0 0 0 0 0.945098 0 0 0 0 0.94902 0 0 0 1 0"/>
<feBlend mode="normal" in2="BackgroundImageFix" result="effect1_dropShadow"/>
<feBlend mode="normal" in="SourceGraphic" in2="effect1_dropShadow" result="shape"/>
</filter>
<filter id="filter2_d" x="244.5" y="56" width="113" height="58.5" filterUnits="userSpaceOnUse" color-interpolation-filters="sRGB">
<feFlood flood-opacity="0" result="BackgroundImageFix"/>
<feColorMatrix in="SourceAlpha" type="matrix" values="0 0 0 0 0 0 0 0 0 0 0 0 0 0 0 0 0 0 127 0"/>
<feOffset dy="-3"/>
<feColorMatrix type="matrix" values="0 0 0 0 0.866667 0 0 0 0 0.945098 0 0 0 0 0.94902 0 0 0 1 0"/>
<feBlend mode="normal" in2="BackgroundImageFix" result="effect1_dropShadow"/>
<feBlend mode="normal" in="SourceGraphic" in2="effect1_dropShadow" result="shape"/>
</filter>
<filter id="filter3_d" x="465.5" y="56" width="113" height="58.5" filterUnits="userSpaceOnUse" color-interpolation-filters="sRGB">
<feFlood flood-opacity="0" result="BackgroundImageFix"/>
<feColorMatrix in="SourceAlpha" type="matrix" values="0 0 0 0 0 0 0 0 0 0 0 0 0 0 0 0 0 0 127 0"/>
<feOffset dy="-3"/>
<feColorMatrix type="matrix" values="0 0 0 0 0.866667 0 0 0 0 0.945098 0 0 0 0 0.94902 0 0 0 1 0"/>
<feBlend mode="normal" in2="BackgroundImageFix" result="effect1_dropShadow"/>
<feBlend mode="normal" in="SourceGraphic" in2="effect1_dropShadow" result="shape"/>
</filter>
<filter id="filter4_d" x="354.5" y="0.5" width="114" height="59.5" filterUnits="userSpaceOnUse" color-interpolation-filters="sRGB">
<feFlood flood-opacity="0" result="BackgroundImageFix"/>
<feColorMatrix in="SourceAlpha" type="matrix" values="0 0 0 0 0 0 0 0 0 0 0 0 0 0 0 0 0 0 127 0"/>
<feOffset dy="3"/>
<feColorMatrix type="matrix" values="0 0 0 0 0.866667 0 0 0 0 0.945098 0 0 0 0 0.94902 0 0 0 1 0"/>
<feBlend mode="normal" in2="BackgroundImageFix" result="effect1_dropShadow"/>
<feBlend mode="normal" in="SourceGraphic" in2="effect1_dropShadow" result="shape"/>
</filter>
<linearGradient id="paint0_linear" x1="-8" y1="40" x2="612" y2="40" gradientUnits="userSpaceOnUse">
<stop stop-color="#FFBA61"/>
<stop offset="0.447917" stop-color="#96D197"/>
<stop offset="1" stop-color="#46B4B8"/>
</linearGradient>
</defs>
</svg>
