<?xml version="1.0" encoding="utf-8"?>
<svg version="1.1" xmlns:xlink="http://www.w3.org/1999/xlink" width="30px" height="24px" xmlns="http://www.w3.org/2000/svg">
  <g transform="matrix(1 0 0 1 -200 -3692 )">
    <path d="M 27.8515625 17.8515625  C 27.9505208333333 17.7526041666667  28 17.6354166666667  28 17.5  L 28 2.5  C 28 2.36458333333333  27.9505208333333 2.24739583333333  27.8515625 2.1484375  C 27.7526041666667 2.04947916666666  27.6354166666667 2  27.5 2  L 2.5 2  C 2.36458333333333 2  2.24739583333333 2.04947916666666  2.1484375 2.1484375  C 2.04947916666667 2.24739583333333  2 2.36458333333333  2 2.5  L 2 17.5  C 2 17.6354166666667  2.04947916666667 17.7526041666667  2.1484375 17.8515625  C 2.24739583333333 17.9505208333333  2.36458333333333 18  2.5 18  L 27.5 18  C 27.6354166666667 18  27.7526041666667 17.9505208333333  27.8515625 17.8515625  Z M 29.265625 0.734375000000001  C 29.7552083333333 1.22395833333333  30 1.8125  30 2.5  L 30 17.5  C 30 18.1875  29.7552083333333 18.7760416666667  29.265625 19.265625  C 28.7760416666667 19.7552083333333  28.1875 20  27.5 20  L 16 20  L 16 22  L 21.5 22  C 21.6458333333333 22  21.765625 22.046875  21.859375 22.140625  C 21.953125 22.234375  22 22.3541666666667  22 22.5  L 22 23.5  C 22 23.6458333333333  21.953125 23.765625  21.859375 23.859375  C 21.765625 23.953125  21.6458333333333 24  21.5 24  L 8.5 24  C 8.35416666666667 24  8.234375 23.953125  8.140625 23.859375  C 8.046875 23.765625  8 23.6458333333333  8 23.5  L 8 22.5  C 8 22.3541666666667  8.046875 22.234375  8.140625 22.140625  C 8.234375 22.046875  8.35416666666667 22  8.5 22  L 14 22  L 14 20  L 2.5 20  C 1.8125 20  1.22395833333333 19.7552083333333  0.734375 19.265625  C 0.244791666666667 18.7760416666667  0 18.1875  0 17.5  L 0 2.5  C 0 1.8125  0.244791666666667 1.22395833333333  0.734375 0.734375000000001  C 1.22395833333333 0.244791666666664  1.8125 0  2.5 0  L 27.5 0  C 28.1875 0  28.7760416666667 0.244791666666664  29.265625 0.734375000000001  Z " fill-rule="nonzero" fill="#0066b9" stroke="none" transform="matrix(1 0 0 1 200 3692 )" />
  </g>
</svg>