<?xml version="1.0" encoding="utf-8"?>
<svg version="1.1" xmlns:xlink="http://www.w3.org/1999/xlink" width="49px" height="19px" xmlns="http://www.w3.org/2000/svg">
  <g transform="matrix(1 0 0 1 -643 -7322 )">
    <path d="M 676.840627484104 7326.69742566105  A 15.2397059063707 15.2397059063707 0 0 0 678.252176121191 7329.26745055257 A 5.67022816787241 5.67022816787241 0 0 0 680.667169905177 7331.5 A 5.67022816787241 5.67022816787241 0 0 0 678.252176121191 7333.73254944743 A 15.2397059063707 15.2397059063707 0 0 0 676.840627484104 7336.30257433895 L 677.759372515896 7336.69742566105  A 14.2397059063707 14.2397059063707 0 0 1 679.098166708291 7334.26698905049 A 4.67022816787241 4.67022816787241 0 0 1 682.381558282168 7331.99330340219 A 0.5 0.5 0 0 0 682.8 7331.5 A 0.5 0.5 0 0 0 682.381558282168 7331.00669659781 A 4.67022816787241 4.67022816787241 0 0 1 679.098166708291 7328.73301094951 A 14.2397059063707 14.2397059063707 0 0 1 677.759372515896 7326.30257433895 L 676.840627484104 7326.69742566105  Z " fill-rule="nonzero" fill="#000000" stroke="none" />
    <path d="M 643 7331.5  L 683 7331.5  " stroke-width="1" stroke="#000000" fill="none" />
  </g>
</svg>