<?xml version="1.0" encoding="utf-8"?>
<svg version="1.1" xmlns:xlink="http://www.w3.org/1999/xlink" width="22px" height="20px" preserveAspectRatio="xMinYMid meet" viewBox="652 7341  22 18" xmlns="http://www.w3.org/2000/svg">
  <g transform="matrix(0 1 -1 0 8013 6687 )">
    <path d="M 676.340627484104 7327.19742566105  A 15.2397059063707 15.2397059063707 0 0 0 677.752176121191 7329.76745055257 A 5.67022816787241 5.67022816787241 0 0 0 680.167169905177 7332 A 5.67022816787241 5.67022816787241 0 0 0 677.752176121191 7334.23254944743 A 15.2397059063707 15.2397059063707 0 0 0 676.340627484104 7336.80257433895 L 677.259372515896 7337.19742566105  A 14.2397059063707 14.2397059063707 0 0 1 678.598166708291 7334.76698905049 A 4.67022816787241 4.67022816787241 0 0 1 681.881558282168 7332.49330340219 A 0.5 0.5 0 0 0 682.3 7332 A 0.5 0.5 0 0 0 681.881558282168 7331.50669659781 A 4.67022816787241 4.67022816787241 0 0 1 678.598166708291 7329.23301094951 A 14.2397059063707 14.2397059063707 0 0 1 677.259372515896 7326.80257433895 L 676.340627484104 7327.19742566105  Z " fill-rule="nonzero" fill="#000000" stroke="none" transform="matrix(6.12303176911189E-17 1 -1 6.12303176911189E-17 7994.5 6668.5 )" />
    <path d="M 642.5 7332  L 682.5 7332  " stroke-width="1" stroke="#000000" fill="none" transform="matrix(6.12303176911189E-17 1 -1 6.12303176911189E-17 7994.5 6668.5 )" />
  </g>
</svg>