<?xml version="1.0" encoding="utf-8"?>
<svg version="1.1" xmlns:xlink="http://www.w3.org/1999/xlink" width="20px" height="17px" xmlns="http://www.w3.org/2000/svg">
  <g transform="matrix(1 0 0 1 -325 -7397 )">
    <path d="M 8.55769230769231 8.40340909090909  C 9.00641025641026 8.85416666666667  9.23076923076923 9.40151515151515  9.23076923076923 10.0454545454545  L 9.23076923076923 14.6818181818182  C 9.23076923076923 15.3257575757576  9.00641025641026 15.8731060606061  8.55769230769231 16.3238636363636  C 8.10897435897436 16.7746212121212  7.56410256410256 17  6.92307692307692 17  L 2.30769230769231 17  C 1.66666666666667 17  1.12179487179487 16.7746212121212  0.673076923076923 16.3238636363636  C 0.224358974358974 15.8731060606061  0 15.3257575757576  0 14.6818181818182  L 0 6.18181818181818  C 0 5.34469696969697  0.162259615384615 4.54580965909091  0.486778846153846 3.78515625  C 0.811298076923077 3.02450284090909  1.25 2.36647727272727  1.80288461538462 1.81107954545455  C 2.35576923076923 1.25568181818182  3.01081730769231 0.814985795454546  3.76802884615385 0.488991477272728  C 4.52524038461539 0.16299715909091  5.32051282051282 0  6.15384615384615 0  L 6.92307692307692 0  C 7.13141025641026 0  7.31169871794872 0.0764678030303014  7.46394230769231 0.22940340909091  C 7.6161858974359 0.382339015151513  7.69230769230769 0.563446969696969  7.69230769230769 0.772727272727272  L 7.69230769230769 2.31818181818182  C 7.69230769230769 2.52746212121212  7.6161858974359 2.70857007575758  7.46394230769231 2.86150568181818  C 7.31169871794872 3.01444128787879  7.13141025641026 3.09090909090909  6.92307692307692 3.09090909090909  L 6.15384615384615 3.09090909090909  C 5.30448717948718 3.09090909090909  4.57932692307692 3.39275568181818  3.97836538461538 3.99644886363636  C 3.37740384615385 4.60014204545455  3.07692307692308 5.32859848484848  3.07692307692308 6.18181818181818  L 3.07692307692308 6.56818181818182  C 3.07692307692308 6.89015151515151  3.18910256410256 7.16382575757576  3.41346153846154 7.38920454545455  C 3.63782051282051 7.61458333333333  3.91025641025641 7.72727272727273  4.23076923076923 7.72727272727273  L 6.92307692307692 7.72727272727273  C 7.56410256410256 7.72727272727273  8.10897435897436 7.95265151515152  8.55769230769231 8.40340909090909  Z M 19.3269230769231 8.40340909090909  C 19.775641025641 8.85416666666667  20 9.40151515151515  20 10.0454545454545  L 20 14.6818181818182  C 20 15.3257575757576  19.775641025641 15.8731060606061  19.3269230769231 16.3238636363636  C 18.8782051282051 16.7746212121212  18.3333333333333 17  17.6923076923077 17  L 13.0769230769231 17  C 12.4358974358974 17  11.8910256410256 16.7746212121212  11.4423076923077 16.3238636363636  C 10.9935897435897 15.8731060606061  10.7692307692308 15.3257575757576  10.7692307692308 14.6818181818182  L 10.7692307692308 6.18181818181818  C 10.7692307692308 5.34469696969697  10.9314903846154 4.54580965909091  11.2560096153846 3.78515625  C 11.5805288461538 3.02450284090909  12.0192307692308 2.36647727272727  12.5721153846154 1.81107954545455  C 13.125 1.25568181818182  13.7800480769231 0.814985795454546  14.5372596153846 0.488991477272728  C 15.2944711538462 0.16299715909091  16.0897435897436 0  16.9230769230769 0  L 17.6923076923077 0  C 17.900641025641 0  18.0809294871795 0.0764678030303014  18.2331730769231 0.22940340909091  C 18.3854166666667 0.382339015151513  18.4615384615385 0.563446969696969  18.4615384615385 0.772727272727272  L 18.4615384615385 2.31818181818182  C 18.4615384615385 2.52746212121212  18.3854166666667 2.70857007575758  18.2331730769231 2.86150568181818  C 18.0809294871795 3.01444128787879  17.900641025641 3.09090909090909  17.6923076923077 3.09090909090909  L 16.9230769230769 3.09090909090909  C 16.073717948718 3.09090909090909  15.3485576923077 3.39275568181818  14.7475961538462 3.99644886363636  C 14.1466346153846 4.60014204545455  13.8461538461538 5.32859848484848  13.8461538461538 6.18181818181818  L 13.8461538461538 6.56818181818182  C 13.8461538461538 6.89015151515151  13.9583333333333 7.16382575757576  14.1826923076923 7.38920454545455  C 14.4070512820513 7.61458333333333  14.6794871794872 7.72727272727273  15 7.72727272727273  L 17.6923076923077 7.72727272727273  C 18.3333333333333 7.72727272727273  18.8782051282051 7.95265151515152  19.3269230769231 8.40340909090909  Z " fill-rule="nonzero" fill="#0066b9" stroke="none" transform="matrix(1 0 0 1 325 7397 )" />
  </g>
</svg>