<?xml version="1.0" encoding="utf-8"?>
<svg version="1.1" xmlns:xlink="http://www.w3.org/1999/xlink" width="215px" height="26px" xmlns="http://www.w3.org/2000/svg">
  <g transform="matrix(1 0 0 1 -641 -3266 )">
    <path d="M 0.233825486344348 0  C 0.233825486344348 0  4.65052911729291 8  17.6408339142006 8  C 30.6311387111083 8  175.862746340536 8  185.735377986186 8  C 195.608009631836 8  205 0  205 0  " stroke-width="1" stroke-dasharray="9,4" stroke="#6f6f6f" fill="none" transform="matrix(1 0 0 1 650 3275 )" />
    <path d="M -0.658145076848021 7.75931560030664  C -0.0912524114464557 6.9603435677983  0.39727938365942 6.10857087883238  0.800668503076849 5.21582185410471  C 1.33050514281669 4.22867074128044  1.55603236517415 3.10668377057917  1.44878489561917 1.99147429938774  C 2.39136359693389 2.59706457027131  3.49221844948125 2.90985185273431  4.61240331953976 2.89035720595643  C 5.59079399511097 2.94010947999371  6.57170254188075 2.89540543798768  7.54151197332134 2.75686566209119  L 7.4000950472408 1.7669155355606  C 6.4822811423139 1.89802761653343  5.55385620453756 1.93919005548976  4.62804033922333 1.88981672881773  C 3.23005945616395 1.92404183784922  1.8903053857431 1.33002017669578  0.977035476335743 0.27103010117156  C 0.882054547832896 0.160894138503239  0.743826825893822 0.0975711701703572  0.598391936502931 0.0975711701703572  C 0.322249561587534 0.0975711701703572  0.0983919365029307 0.32142879525496  0.0983919365029307 0.597571170170357  C 0.0983919365029307 0.661760076937523  0.110751540886794 0.725348555944608  0.134795786923808 0.784864015990511  C 0.658616330720238 2.08144951081317  0.573863076425669 3.54453515048543  -0.0961679029105618 4.77196351671192  C -0.475840191071968 5.61778955997169  -0.937210721082247 6.42451407646036  -1.47370990745719 7.18064988759036  L -0.658145076848021 7.75931560030664  Z " fill-rule="nonzero" fill="#6f6f6f" stroke="none" transform="matrix(1 0 0 1 650 3275 )" />
  </g>
</svg>