<?xml version="1.0" encoding="utf-8"?>
<svg version="1.1" xmlns:xlink="http://www.w3.org/1999/xlink" width="64px" height="24px" xmlns="http://www.w3.org/2000/svg">
  <g transform="matrix(1 0 0 1 -1114 -2550 )">
    <path d="M 0.152021355589795 0.248925036786659  C 0.152021355589795 0.248925036786659  11.9145864980339 14.636782737924  26.0115918129788 14.3372781065086  C 41.3120947273392 14.0122039944217  54.2601156069363 14.3372781065086  54.2601156069363 14.3372781065086  " stroke-width="1" stroke="#ffffff" fill="none" transform="matrix(1 0 0 1 1114 2550 )" />
    <path d="M 48.2139335797109 9.3929608670488  C 48.5797454860205 10.3017541614886  49.0323346687141 11.1731570879276  49.5654182782603 11.9950728184315  C 50.1095828567878 12.9743986558508  50.9316685955072 13.7705722101979  51.9279146446406 14.2831031789667  C 50.9089447225614 14.7488224960011  50.0507768446836 15.5059652723823  49.4617260249612 16.458967536884  C 48.8910532683718 17.25524400125  48.3984902712671 18.1046918939314  47.9908748002438 18.9955191670877  L 48.9002024920441 19.4115998671031  C 49.2859639984183 18.5685335576979  49.7531396690397 17.765156868812  50.2950772573848 17.0129093083687  C 51.0218815596887 15.8182221469577  52.245788945571 15.0120872860867  53.6303847710813 14.816086501733  C 53.8769931622354 14.7811770810892  54.0603043874092 14.5700891137234  54.0603043874092 14.3210221222586  C 54.0603043874092 14.0807396132159  53.8893868060069 13.8744345654215  53.6532965777568 13.8297457717853  C 52.2792951099893 13.5696652572126  51.094139206425 12.7075700261764  50.4235919157407 11.480423645974  C 49.9171680802686 10.7038235940039  49.4877996104675 9.87962099232975  49.141600405434 9.01955189493797  L 48.2139335797109 9.3929608670488  Z " fill-rule="nonzero" fill="#ffffff" stroke="none" transform="matrix(1 0 0 1 1114 2550 )" />
  </g>
</svg>