<?xml version="1.0" encoding="utf-8"?>
<svg version="1.1" xmlns:xlink="http://www.w3.org/1999/xlink" width="56px" height="80px" xmlns="http://www.w3.org/2000/svg">
  <g transform="matrix(1 0 0 1 -130 -2453 )">
    <path d="M 0.168674698795257 68.8258918025042  C 0.168674698795257 68.8258918025042  7.39759036144574 53.9428301441041  27.277108433735 42.3671155209065  C 47.1566265060241 30.7914008977088  46.2527472527472 1.35746606334801  46.2527472527472 1.35746606334801  " stroke-width="1" stroke="#ffffff" fill="none" transform="matrix(1 0 0 1 130 2462 )" />
    <path d="M 41.4902863511217 7.54790677716249  C 42.3878075545682 7.15525006681547  43.2453761665601 6.67696552365741  44.051087407315 6.11969270058247  C 45.0138099463628 5.54666608935896  45.7852021827387 4.70128374502797  46.2679016271199 3.69024693523562  C 46.7636957137567 4.69492718686642  47.5460060454248 5.53021625983033  48.5160920881618 6.09068682466645  C 49.3289754111939 6.63744482044975  50.1926855136506 7.1045474723497  51.0952323594905 7.48551045464714  L 51.4841070603362 6.56421980178988  C 50.629949513395 6.20368183311327  49.8130446960901 5.76058621032961  49.0450247471924 5.24124229734969  C 47.8292669626746 4.55026117107184  46.9871176027375 3.35084999941879  46.750057725788 1.97269016753123  C 46.7087896358501 1.73277599638184  46.5007321451159 1.55745129328217  46.2572945457903 1.55745129328217  C 46.0113998990036 1.55745129328217  45.8020044120713 1.73624252712453  45.7634717389094 1.97909929647093  C 45.5443369107878 3.3602226923309  44.7178413678098 4.57047383179169  43.511163413681 5.27719175466263  C 42.7499555970785 5.80646994408433  41.9388764207734 6.26014139043085  41.0894750705862 6.63174613764806  L 41.4902863511217 7.54790677716249  Z " fill-rule="nonzero" fill="#ffffff" stroke="none" transform="matrix(1 0 0 1 130 2462 )" />
  </g>
</svg>