<svg width="1000" height="621" viewBox="0 0 1000 621" fill="none" xmlns="http://www.w3.org/2000/svg">
<rect width="1000" height="621" fill="#017BC4"/>
<path d="M328.51 281.4C330.576 282.467 331.61 284.167 331.61 286.5C331.61 287.9 331.11 289.267 330.11 290.6C329.043 292 327.676 292.7 326.01 292.7C324.876 292.7 323.743 292.4 322.61 291.8C319.343 290.267 315.81 289.5 312.01 289.5C307.343 289.5 303.276 290.5 299.81 292.5C296.343 294.433 293.676 297.2 291.81 300.8C289.943 304.333 289.01 308.4 289.01 313C289.01 320.867 291.11 326.833 295.31 330.9C299.576 334.967 305.143 337 312.01 337C316.076 337 319.61 336.233 322.61 334.7C323.81 334.167 324.876 333.9 325.81 333.9C327.543 333.9 329.01 334.633 330.21 336.1C331.21 337.367 331.71 338.733 331.71 340.2C331.71 341.267 331.443 342.233 330.91 343.1C330.376 343.967 329.61 344.633 328.61 345.1C323.41 347.7 317.876 349 312.01 349C305.476 349 299.476 347.633 294.01 344.9C288.543 342.1 284.176 338 280.91 332.6C277.643 327.2 276.01 320.667 276.01 313C276.01 306.2 277.543 300.1 280.61 294.7C283.743 289.3 288.043 285.1 293.51 282.1C298.976 279.033 305.143 277.5 312.01 277.5C317.943 277.5 323.443 278.8 328.51 281.4ZM384.505 293.5C386.238 293.5 387.672 294.067 388.805 295.2C389.938 296.333 390.505 297.8 390.505 299.6V341.9C390.505 343.633 389.938 345.1 388.805 346.3C387.672 347.433 386.238 348 384.505 348C382.772 348 381.338 347.433 380.205 346.3C379.138 345.167 378.572 343.733 378.505 342C376.838 343.933 374.572 345.6 371.705 347C368.905 348.333 365.938 349 362.805 349C358.205 349 354.038 347.833 350.305 345.5C346.572 343.1 343.605 339.8 341.405 335.6C339.272 331.4 338.205 326.633 338.205 321.3C338.205 315.967 339.272 311.2 341.405 307C343.538 302.733 346.438 299.433 350.105 297.1C353.838 294.7 357.938 293.5 362.405 293.5C365.605 293.5 368.605 294.1 371.405 295.3C374.205 296.433 376.572 297.9 378.505 299.7V299.6C378.505 297.867 379.072 296.433 380.205 295.3C381.338 294.1 382.772 293.5 384.505 293.5ZM364.305 338C368.638 338 372.172 336.433 374.905 333.3C377.638 330.1 379.005 326.1 379.005 321.3C379.005 316.5 377.638 312.5 374.905 309.3C372.172 306.1 368.638 304.5 364.305 304.5C360.038 304.5 356.538 306.1 353.805 309.3C351.072 312.5 349.705 316.5 349.705 321.3C349.705 326.1 351.038 330.1 353.705 333.3C356.438 336.433 359.972 338 364.305 338ZM431.21 293.5C435.81 293.5 439.976 294.7 443.71 297.1C447.443 299.433 450.376 302.7 452.51 306.9C454.71 311.1 455.81 315.867 455.81 321.2C455.81 326.533 454.743 331.333 452.61 335.6C450.476 339.8 447.543 343.1 443.81 345.5C440.143 347.833 436.076 349 431.61 349C428.41 349 425.376 348.367 422.51 347.1C419.71 345.767 417.376 344.167 415.51 342.3V361.9C415.51 363.633 414.943 365.067 413.81 366.2C412.676 367.4 411.243 368 409.51 368C407.776 368 406.343 367.433 405.21 366.3C404.076 365.167 403.51 363.7 403.51 361.9V300.6C403.51 298.867 404.076 297.433 405.21 296.3C406.343 295.1 407.776 294.5 409.51 294.5C411.243 294.5 412.676 295.1 413.81 296.3C414.943 297.433 415.51 298.867 415.51 300.6V301C417.11 299 419.343 297.267 422.21 295.8C425.076 294.267 428.076 293.5 431.21 293.5ZM429.71 338C433.976 338 437.476 336.4 440.21 333.2C442.943 330 444.31 326 444.31 321.2C444.31 316.4 442.943 312.433 440.21 309.3C437.543 306.1 434.043 304.5 429.71 304.5C425.376 304.5 421.843 306.1 419.11 309.3C416.376 312.433 415.01 316.4 415.01 321.2C415.01 326 416.376 330 419.11 333.2C421.843 336.4 425.376 338 429.71 338ZM462.714 339.7C462.114 338.9 461.814 337.9 461.814 336.7C461.814 334.967 462.681 333.5 464.414 332.3C465.348 331.7 466.314 331.4 467.314 331.4C468.714 331.4 470.048 332.033 471.314 333.3C473.314 335.367 475.381 336.9 477.514 337.9C479.714 338.9 482.348 339.4 485.414 339.4C490.614 339.2 493.214 337.233 493.214 333.5C493.214 331.567 492.314 330.1 490.514 329.1C488.781 328.1 486.048 327.1 482.314 326.1C478.448 325.033 475.281 323.967 472.814 322.9C470.414 321.833 468.314 320.233 466.514 318.1C464.781 315.9 463.914 312.967 463.914 309.3C463.914 306.1 464.814 303.333 466.614 301C468.481 298.6 470.881 296.767 473.814 295.5C476.814 294.167 479.981 293.5 483.314 293.5C486.714 293.5 490.114 294.133 493.514 295.4C496.914 296.667 499.581 298.533 501.514 301C502.381 302.067 502.814 303.267 502.814 304.6C502.814 306.133 502.181 307.4 500.914 308.4C499.981 309.133 498.914 309.5 497.714 309.5C496.248 309.5 495.048 309.033 494.114 308.1C492.914 306.633 491.348 305.467 489.414 304.6C487.548 303.733 485.414 303.3 483.014 303.3C477.948 303.3 475.414 305.133 475.414 308.8C475.414 310.267 475.881 311.467 476.814 312.4C477.748 313.267 478.914 313.967 480.314 314.5C481.781 314.967 483.814 315.567 486.414 316.3C490.014 317.3 493.014 318.333 495.414 319.4C497.814 320.467 499.848 322.1 501.514 324.3C503.181 326.5 504.014 329.4 504.014 333C504.014 336.267 503.048 339.133 501.114 341.6C499.181 344 496.681 345.833 493.614 347.1C490.614 348.367 487.514 349 484.314 349C479.914 349 475.814 348.267 472.014 346.8C468.214 345.333 465.114 342.967 462.714 339.7ZM539.857 336.7C540.79 336.7 541.623 337.167 542.357 338.1C543.157 338.967 543.557 340.133 543.557 341.6C543.557 343.4 542.557 344.933 540.557 346.2C538.623 347.4 536.423 348 533.957 348C529.823 348 526.323 347.133 523.457 345.4C520.657 343.6 519.257 339.833 519.257 334.1V306.5H514.657C513.057 306.5 511.723 305.967 510.657 304.9C509.59 303.833 509.057 302.5 509.057 300.9C509.057 299.367 509.59 298.1 510.657 297.1C511.723 296.033 513.057 295.5 514.657 295.5H519.257V289.1C519.257 287.367 519.823 285.933 520.957 284.8C522.157 283.6 523.623 283 525.357 283C527.023 283 528.423 283.6 529.557 284.8C530.69 285.933 531.257 287.367 531.257 289.1V295.5H538.357C539.957 295.5 541.29 296.033 542.357 297.1C543.423 298.167 543.957 299.5 543.957 301.1C543.957 302.633 543.423 303.933 542.357 305C541.29 306 539.957 306.5 538.357 306.5H531.257V333.6C531.257 335 531.623 336.033 532.357 336.7C533.09 337.3 534.09 337.6 535.357 337.6C535.89 337.6 536.623 337.467 537.557 337.2C538.357 336.867 539.123 336.7 539.857 336.7ZM605.886 321.3C605.886 326.633 604.686 331.433 602.286 335.7C599.886 339.9 596.586 343.167 592.386 345.5C588.253 347.833 583.686 349 578.686 349C573.62 349 569.02 347.833 564.886 345.5C560.753 343.167 557.486 339.9 555.086 335.7C552.686 331.433 551.486 326.633 551.486 321.3C551.486 315.967 552.686 311.2 555.086 307C557.486 302.733 560.753 299.433 564.886 297.1C569.02 294.7 573.62 293.5 578.686 293.5C583.686 293.5 588.253 294.7 592.386 297.1C596.586 299.433 599.886 302.733 602.286 307C604.686 311.2 605.886 315.967 605.886 321.3ZM593.886 321.3C593.886 318.033 593.186 315.133 591.786 312.6C590.453 310 588.62 308 586.286 306.6C584.02 305.2 581.486 304.5 578.686 304.5C575.886 304.5 573.32 305.2 570.986 306.6C568.72 308 566.886 310 565.486 312.6C564.153 315.133 563.486 318.033 563.486 321.3C563.486 324.567 564.153 327.467 565.486 330C566.886 332.533 568.72 334.5 570.986 335.9C573.32 337.3 575.886 338 578.686 338C581.486 338 584.02 337.3 586.286 335.9C588.62 334.5 590.453 332.533 591.786 330C593.186 327.467 593.886 324.567 593.886 321.3ZM644.512 293.5C651.312 293.5 656.012 295.533 658.612 299.6C661.212 303.6 662.512 309.167 662.512 316.3V341.9C662.512 343.633 661.945 345.1 660.812 346.3C659.679 347.433 658.245 348 656.512 348C654.779 348 653.345 347.433 652.212 346.3C651.079 345.1 650.512 343.633 650.512 341.9V316.3C650.512 312.633 649.745 309.767 648.212 307.7C646.679 305.567 644.045 304.5 640.312 304.5C636.445 304.5 633.412 305.633 631.212 307.9C629.012 310.1 627.912 312.9 627.912 316.3V341.9C627.912 343.633 627.345 345.1 626.212 346.3C625.079 347.433 623.645 348 621.912 348C620.179 348 618.745 347.433 617.612 346.3C616.479 345.1 615.912 343.633 615.912 341.9V300.6C615.912 298.867 616.479 297.433 617.612 296.3C618.745 295.1 620.179 294.5 621.912 294.5C623.645 294.5 625.079 295.1 626.212 296.3C627.345 297.433 627.912 298.867 627.912 300.6V302.3C629.712 299.9 632.045 297.833 634.912 296.1C637.845 294.367 641.045 293.5 644.512 293.5ZM723.482 320C723.416 321.6 722.782 322.9 721.582 323.9C720.382 324.9 718.982 325.4 717.382 325.4H684.382C685.182 329.333 687.016 332.433 689.882 334.7C692.749 336.9 695.982 338 699.582 338C702.316 338 704.449 337.767 705.982 337.3C707.516 336.767 708.716 336.233 709.582 335.7C710.516 335.1 711.149 334.7 711.482 334.5C712.682 333.9 713.816 333.6 714.882 333.6C716.282 333.6 717.482 334.1 718.482 335.1C719.482 336.1 719.982 337.267 719.982 338.6C719.982 340.4 719.049 342.033 717.182 343.5C715.316 345.033 712.816 346.333 709.682 347.4C706.549 348.467 703.382 349 700.182 349C694.582 349 689.682 347.833 685.482 345.5C681.349 343.167 678.149 339.967 675.882 335.9C673.616 331.767 672.482 327.133 672.482 322C672.482 316.267 673.682 311.233 676.082 306.9C678.482 302.567 681.649 299.267 685.582 297C689.516 294.667 693.716 293.5 698.182 293.5C702.582 293.5 706.716 294.7 710.582 297.1C714.516 299.5 717.649 302.733 719.982 306.8C722.316 310.867 723.482 315.267 723.482 320ZM698.182 304.5C690.449 304.5 685.882 308.133 684.482 315.4H710.682V314.7C710.416 311.9 709.049 309.5 706.582 307.5C704.116 305.5 701.316 304.5 698.182 304.5Z" fill="white"/>
</svg>
