<svg width="150" height="150" viewBox="0 0 150 150" fill="none" xmlns="http://www.w3.org/2000/svg">
<path d="M109.543 92.7499C108.915 92.1172 107.591 92.261 106.742 92.2178C103.704 92.074 100.648 92.1459 97.6099 92.1172C95.8785 92.3904 93.9943 92.4335 92.4497 92.376C89.0887 92.2466 85.7787 91.9733 82.4177 92.0021C78.9889 92.0309 75.577 92.0452 72.1652 92.0309C65.596 92.0021 59.0439 92.2178 52.4748 92.1028C52.339 92.2034 52.1522 92.261 51.9146 92.261C48.9101 92.2322 45.9056 92.4335 42.9011 92.4767C42.5107 92.4767 41.8996 92.4335 41.5602 92.6349C41.2207 92.8362 41.1867 93.2245 41.1358 93.5552C41 94.2887 41 94.9933 41 95.7124C42.4259 96.1726 44.2761 95.9281 45.7359 95.9281C47.9426 95.9281 50.1323 95.9712 52.339 96C52.0504 94.8351 52.6784 93.3251 53.8497 92.8506C53.8836 92.8362 53.9176 92.8218 53.9515 92.8074C53.9855 92.7931 54.0194 92.7787 54.0534 92.7499C55.7678 92.0596 57.9405 92.6349 59.1118 93.8429C59.7398 94.49 59.9096 95.2378 59.7229 95.9137C61.4712 95.8993 63.2026 95.8418 64.951 95.8562C64.8322 95.3385 64.6794 94.8208 64.4927 94.3174C64.289 93.7422 64.7982 93.3395 65.3414 93.2964C65.3923 93.0663 65.5791 92.8506 65.9355 92.7499C68.1592 92.1459 70.5186 92.1315 72.8272 92.2178C75.2206 92.3041 77.597 92.4335 79.9904 92.4623C81.1277 92.4767 82.231 92.4192 83.3513 92.3904C84.234 92.3616 85.2695 92.3616 85.9824 92.865C86.9669 93.5552 87.1367 94.6626 87.1536 95.7268L92.6194 95.7987C92.4666 94.677 93.0777 93.3395 94.1811 92.8937C94.215 92.8793 94.249 92.865 94.2829 92.8506C94.3169 92.8362 94.3508 92.8218 94.3848 92.7931C96.0992 92.1028 98.2719 92.678 99.4432 93.886C100.003 94.4756 100.19 95.1228 100.105 95.7411C101.837 95.7987 103.551 95.9281 105.282 95.7411C106.844 95.5686 108.372 95.2234 109.933 95.0652C110.086 94.3462 109.984 93.2101 109.543 92.7499Z" fill="#BCBCBC"/>
<path d="M96.775 83.1871C96.758 83.1871 96.758 83.1871 96.775 83.1871C97.2161 84.1938 97.267 85.3199 96.1132 85.9854C95.0781 86.5826 94.043 85.0128 95.0951 84.4156C95.163 84.3815 95.1969 84.3644 95.2308 84.3474C95.2139 84.1938 95.1799 84.0402 95.1121 83.9037C94.9593 83.5966 94.7387 83.2724 94.5012 83.0335C94.2467 82.7946 93.9752 82.5899 93.6697 82.4193C93.6358 83.426 93.6528 84.4327 93.9582 85.3882C94.3315 86.5485 92.5668 87.1286 92.1935 85.9854C91.7184 84.518 91.8202 82.9823 91.8711 81.4637C91.2263 81.1225 90.5476 80.7983 89.8858 80.4912C89.9367 81.8903 90.1403 83.2895 90.4118 84.6545C90.6494 85.8318 88.8847 86.429 88.6471 85.2517C88.2738 83.426 87.9853 81.5661 88.0023 79.7063C88.0023 79.7063 88.0023 79.7063 88.0023 79.6892C87.6969 79.5698 87.3914 79.4674 87.086 79.365C86.7806 79.2626 86.4751 79.1773 86.1527 79.092C86.2206 81.1054 86.6957 83.0506 86.543 85.0811C86.4582 86.2925 84.6256 85.883 84.7104 84.6886C84.8631 82.7093 84.2862 80.7642 84.2693 78.7849C84.2693 78.7337 84.2693 78.6825 84.2862 78.6484C83.5396 78.4948 82.776 78.3754 82.0125 78.2901C82.0464 78.4095 82.0634 78.546 82.0464 78.6996C81.8767 80.3376 82.0125 82.1633 82.4027 83.8013C82.5555 83.9378 82.6573 84.1426 82.6573 84.4327V84.7739C82.6403 85.7977 81.164 86.2072 80.8416 85.1322C80.1968 82.9823 80.0102 80.5594 80.2308 78.3242C80.2308 78.2559 80.2478 78.1877 80.2647 78.1365C79.6878 78.0853 79.0939 78.0683 78.517 78.0341C78.483 79.1603 78.3982 80.2693 78.3982 81.3955C78.3982 82.351 78.3303 83.5454 78.7715 84.4327C79.2975 85.5076 77.7364 86.5485 77.2104 85.4564C76.1075 83.2042 76.5995 80.4229 76.6505 78C76.1075 78 75.5475 78 75.0045 78.0171C74.9367 78.0171 74.8688 78.0171 74.7839 78.0171C74.8688 78.2901 74.8179 78.5972 74.5294 78.8531C74.6312 78.7678 74.5294 79.0238 74.5294 79.1603C74.5294 79.4845 74.5633 79.8087 74.5803 80.1328C74.6312 80.6106 74.6652 81.0884 74.7161 81.5661C74.7839 82.2828 74.733 82.9994 74.733 83.716C74.733 84.2109 74.6312 84.9275 74.8518 85.3882C75.3778 86.4631 73.8167 87.504 73.2907 86.412C72.578 84.9446 72.9514 83.153 72.8665 81.5832C72.8156 80.6447 72.3744 79.0579 72.8156 78.0683C72.069 78.0853 71.3054 78.1194 70.5588 78.1706C71.543 80.4229 71.4751 83.0506 71.4412 85.4735C71.4242 86.685 69.5577 86.8044 69.5746 85.5929V85.2346C69.5746 85.2176 69.5746 85.2176 69.5746 85.2176C69.6256 83.0165 69.7274 80.44 68.6414 78.5119C68.6074 78.4436 68.5735 78.3924 68.5565 78.3242C67.9796 78.3754 67.4197 78.4266 66.8427 78.4948C66.9106 78.6313 66.9445 78.802 66.9276 78.9896C66.7579 81.0713 67.3518 83.153 67.3518 85.2346C67.3518 86.4461 65.4853 86.5655 65.4853 85.3541C65.4853 83.1359 64.9423 80.986 65.078 78.7508C64.7217 78.819 64.3654 78.8702 64.009 78.9385C64.026 79.0238 64.043 79.1091 64.043 79.1944C64.026 80.2182 63.9751 81.2419 63.992 82.2828C64.009 83.0847 63.9411 84.1597 64.3144 84.8934C64.8405 85.9683 63.2963 87.0091 62.7534 85.9171C61.7862 83.972 62.1425 81.4808 62.1764 79.365C61.7862 79.4674 61.4129 79.5698 61.0226 79.6892C61.1074 79.8087 61.1414 79.9793 61.1414 80.167C61.1244 81.0542 60.9886 81.9415 60.9547 82.8288C60.9377 83.5113 60.8359 84.4156 61.2432 85.0128C61.9389 86.0024 60.3778 87.0262 59.6821 86.0366C58.5452 84.4497 59.2239 82.078 59.2748 80.2864V80.2694C58.7319 80.457 58.1889 80.6789 57.6628 80.8836C57.6968 80.9519 57.7138 81.0372 57.7307 81.1396C57.9004 82.5046 58.1719 83.8525 58.1719 85.2346C58.1719 86.4461 56.3054 86.5655 56.3054 85.3541C56.3054 84.1085 56.0678 82.897 55.9151 81.6685C55.4739 81.8733 55.0497 82.078 54.6085 82.2998C54.6255 82.351 54.6425 82.4022 54.6425 82.4534C54.7613 83.153 54.5576 84.1255 54.9649 84.7398C55.6266 85.7636 54.0486 86.7873 53.4038 85.7636C52.9117 84.9957 52.9117 84.1255 52.8608 83.2553C52.7081 83.3407 52.5723 83.426 52.4196 83.5113C52.4196 83.5283 52.4196 83.5283 52.4196 83.5454C52.3348 83.8184 52.2839 84.1085 52.2669 84.3815C52.3517 84.5009 52.4026 84.6545 52.4196 84.8251C52.4026 84.5521 52.4536 84.9616 52.4536 85.064C52.4705 85.2176 52.4196 85.4564 52.3348 85.5929C52.1481 85.9683 51.7579 86.139 51.3676 86.156C50.9264 86.1731 50.4513 85.8489 50.3834 85.3882C49.6368 86.7873 49.8913 88.2377 51.9445 89.5686C51.9784 89.6027 52.0293 89.6198 52.0633 89.6539C57.9343 89.7904 63.8054 89.5856 69.6934 89.5686C72.7138 89.5686 75.7172 89.6709 78.7206 89.6027C81.6901 89.5344 84.6935 89.4662 87.6629 89.6709C90.5136 89.8757 93.3643 90.1828 96.215 89.8586C96.2829 89.8586 96.3507 89.8416 96.4186 89.8245C96.5544 89.7221 96.724 89.6709 96.9446 89.6709C97.0464 89.6709 97.1483 89.6709 97.2501 89.6709C98.5397 89.3809 99.982 88.7496 99.9989 87.6234C100.05 85.9001 98.2512 84.3132 96.775 83.1871Z" fill="#74CCCF"/>
<path d="M113.9 99.2184C113.812 97.1399 113.918 95.0613 113.971 93C113.513 93.773 112.808 94.735 111.927 94.7521C111.945 95.4908 111.874 96.2294 111.61 96.9166C111.504 97.2258 111.117 97.3975 110.817 97.4319C108.844 97.5865 106.942 98.1877 104.969 98.3423C104.652 98.3767 104.317 98.3767 104 98.3939C104.44 99.5276 104.599 100.73 104.81 101.915C105.022 103.049 105.286 104.509 106.237 105.299C107.065 105.969 108.245 106.038 109.285 105.986C110.289 105.935 111.504 105.883 112.456 105.591C113.301 105.334 113.601 104.715 113.795 103.891C114.129 102.362 113.971 100.747 113.9 99.2184Z" fill="#BCBCBC"/>
<path d="M97.389 94.6317C96.6049 94.0113 95.6248 93.8163 94.716 94.1885C94.021 94.6139 93.6646 96.0673 94.4309 96.4927C95.1437 96.8827 96.5337 97.2726 97.2821 96.7409C98.1553 96.1028 98.2801 95.3406 97.389 94.6317Z" fill="#D6E5E5"/>
<path d="M49.8706 102.333C49.6567 100.926 49.2823 99.5734 49.0506 98.1665C47.8562 98.1485 46.6618 98.1304 45.4675 98.1485C43.5066 98.1845 41.1179 98.4551 39.3531 97.3909C39.0678 97.2286 38.8183 96.922 38.8183 96.5793C38.8183 96.5252 38.8183 96.453 38.8183 96.3809C38.3904 96.453 37.9626 96.2726 37.82 95.7315C37.6417 95.1183 37.3387 94.5411 37 94C37.1248 94.5772 37.2496 95.1544 37.3565 95.7315C37.6774 97.5532 37.3565 99.4832 37.4457 101.323C37.517 102.766 37.5883 104.768 38.7826 105.778C39.6026 106.463 40.7435 106.662 41.7774 106.734C43.0431 106.806 44.3088 106.788 45.5744 106.896C46.5905 106.987 47.981 107.185 48.8723 106.572C50.1914 105.67 50.0845 103.74 49.8706 102.333Z" fill="#BCBCBC"/>
<path d="M103.544 69.3019C103.091 68.7641 102.035 68.7473 101.246 68.8817C101.162 69.2178 101.095 69.5708 101.112 69.9069C101.129 70.1422 101.129 70.3942 101.23 70.6127C101.246 70.6127 101.28 70.6295 101.313 70.6463C102.001 70.9152 102.89 71.1337 103.628 71.0665C104.383 70.9992 103.796 69.6212 103.544 69.3019ZM98.5961 54.3783C97.1368 51.8742 95.2078 49.3702 92.4905 48.1602C90.6286 47.3199 88.5822 47.0678 86.5693 47.0174C84.2042 46.9669 81.8056 47.0342 79.4405 47.1182C74.2574 47.3199 69.091 47.8913 63.908 48.1265C59.7984 48.3114 54.783 48.345 51.8476 51.723C49.0129 54.9833 48.409 59.5041 47 63.4534C47.0503 63.4534 47.1006 63.4534 47.151 63.4702C47.151 63.4702 47.151 63.4702 47.1677 63.4702C47.7716 62.9325 48.3922 62.4115 49.0464 61.9577C52.5018 59.6049 56.5946 58.4453 60.6706 57.8067C65.0653 57.1177 69.5775 56.832 74.0225 56.9328C79.3398 57.0504 84.6571 57.6386 89.857 58.731C93.3627 59.4705 97.8581 60.0083 100.374 62.8652C100.793 62.798 101.213 62.7644 101.649 62.7476C101.028 59.8402 100.089 56.9496 98.5961 54.3783ZM57.752 94.5106C57.0139 93.9224 56.0914 93.7375 55.2359 94.0904C54.5817 94.4938 54.2463 95.8718 54.9675 96.2752C55.6385 96.6449 56.9468 97.0146 57.6513 96.5105C58.4733 95.9055 58.5907 95.1828 57.752 94.5106ZM84.439 93.8383C83.5668 93.7543 82.7113 93.9224 81.8391 93.9392C80.8159 93.9392 79.7927 93.9056 78.7695 93.8888C74.8612 93.8383 70.6175 92.9476 66.8098 94.1576C66.7763 94.1745 66.7427 94.1745 66.6924 94.1913C66.9272 95.0484 67.1117 95.9223 67.2459 96.813C70.3155 97.0987 73.4019 96.9978 76.4883 96.897C78.216 96.8298 79.9437 96.7794 81.6714 96.6785C82.8623 96.6113 84.1707 96.6953 85.3616 96.5105C85.4622 95.4181 85.4455 93.9392 84.439 93.8383Z" fill="#D6E5E5"/>
<path d="M105 63.2897C104.628 61.8185 104.189 60.3811 103.666 58.9606C103.125 57.5063 102.467 56.0858 101.96 54.6145C101.116 52.1287 100.305 49.4737 98.6835 47.3767C95.7279 43.5718 89.8167 43.9777 85.5099 44.0453C80.6121 44.1299 75.7311 44.1806 70.8502 44.3497C68.1986 44.4512 65.547 44.4681 62.8954 44.4681C60.9869 44.4681 59.0278 44.5527 57.1531 44.9416C53.5388 45.6857 50.2792 47.4782 48.5565 50.8942C47.4418 53.0926 46.7832 55.5277 45.888 57.8107C45.3983 59.0621 44.8578 60.2965 44.2498 61.4972C43.8445 62.292 43.2533 63.1037 43 64C43.608 63.8816 44.2498 63.814 44.8916 63.7971C45.0605 63.7971 45.2463 63.7971 45.432 63.7971C45.3138 63.5772 45.2631 63.2897 45.3814 63.0023C46.6143 59.5525 47.1885 55.7645 49.1814 52.636C50.161 51.0802 51.377 49.7273 52.9815 48.7972C54.5522 47.901 56.2411 47.3598 58.0144 47.0554C60.1425 46.6834 62.3043 46.6327 64.4661 46.5312C66.9995 46.3959 69.5328 46.1592 72.0831 45.9732C77.116 45.618 82.2335 45.2122 87.2833 45.4489C89.3269 45.5504 91.3705 45.7871 93.2621 46.5989C95.2888 47.4613 96.927 48.848 98.3457 50.5221C101.284 54.0227 102.973 58.3687 103.868 62.7993C103.902 62.9346 103.902 63.053 103.885 63.1545C104.24 63.1883 104.612 63.2221 105 63.2897Z" fill="#1E4384"/>
<path d="M48.5234 69.4296C48.054 68.9587 46.9588 68.944 46.1418 69.0617C46.0548 69.356 45.9853 69.665 46.0027 69.9593C46.0201 70.1653 46.0201 70.386 46.1244 70.5773C46.1244 70.5773 46.1244 70.5773 46.1244 70.592C46.1418 70.592 46.1765 70.6067 46.2113 70.6214C46.924 70.8568 47.8454 71.0481 48.6103 70.9893C49.3926 70.9157 48.8015 69.7091 48.5234 69.4296Z" fill="#D6E5E5"/>
<path d="M114.825 84.2103C114.365 82.9422 113.345 81.9953 112.325 81.133C112.155 81.0823 112.002 80.947 111.9 80.761C111.611 80.5074 111.475 79.9832 111.696 79.6451C111.713 79.6282 111.73 79.5944 111.747 79.5775C111.798 79.5098 111.866 79.4253 111.934 79.3746C111.934 79.2055 112.002 79.0533 112.104 78.918C112.121 76.7031 112.529 74.4374 111.951 72.2732C111.441 70.3288 110.454 68.4351 108.941 67.0655C107.411 65.6621 105.591 64.9858 103.517 64.9013C102.922 64.8844 102.292 64.8844 101.68 64.9351C103.466 65.2564 105.183 66.0679 106.441 67.3022C108.975 69.8046 109.383 73.6935 107.224 76.5847C103.347 81.8093 94.4704 78.9349 92.5489 73.3722C92.4469 73.0848 92.4809 72.8481 92.5999 72.6452C92.4299 69.7201 93.8242 66.3385 96.7319 65.2902C96.766 65.0704 96.868 64.8675 97.072 64.6984C97.5652 64.2757 98.1433 63.9544 98.7385 63.7008C97.5482 62.754 95.9498 62.2467 94.5554 61.8747C92.4639 61.3168 90.3213 60.8772 88.2128 60.4883C82.9755 59.5245 77.6361 58.9835 72.2968 59.0004C68.0117 59.0173 63.6416 59.3216 59.4415 60.1332C55.8366 60.8265 52.1637 62.01 49.2049 64.2588C49.596 64.4279 49.9531 64.6308 50.2422 64.9013C50.7183 65.3409 50.5823 65.9327 50.2082 66.2708C50.6673 66.5752 51.1094 66.9133 51.5005 67.3022C54.0341 69.8046 54.4422 73.6935 52.2827 76.5847C48.6268 81.505 40.5157 79.2224 37.9991 74.2852C38.0671 76.1789 38.3562 78.0895 38.6282 79.9663C39.4104 80.2876 39.4444 81.5557 38.5942 81.7248C38.4922 81.86 38.3221 81.9784 38.1011 82.0291C37.1488 82.2489 36.2136 83.7368 36.0606 84.6499C35.8395 85.9687 36.2646 87.389 36.6727 88.6233C37.0978 89.9252 37.5059 91.244 38.3051 92.3937C38.6792 92.9348 39.0703 93.442 39.4274 94C39.5975 92.4783 40.1416 91.0918 41.859 90.7706C43.2704 90.5169 44.7838 90.6691 46.2121 90.6353C47.3684 90.6015 48.5247 90.5169 49.681 90.4662C49.2049 90.0097 48.8138 89.5194 48.5587 88.9445C47.3854 86.3745 49.528 83.8552 51.7045 82.1982C54.3742 80.1523 57.622 78.5799 61.0229 77.4132C62.5533 76.8891 64.0497 76.5509 65.7161 76.3649C68.7429 75.993 71.7696 75.6886 74.8304 75.621C80.8329 75.4857 86.6314 76.2635 92.0218 78.5968C94.3343 79.5944 96.6129 80.7441 98.5854 82.1644C100.337 83.4325 102.462 85.2078 102.871 87.1692C103.16 88.488 102.819 89.5025 102.088 90.2633C102.717 90.2633 103.347 90.2633 103.976 90.2802C105.642 90.3141 107.445 90.2295 109.094 90.5169C110.369 90.7368 111.611 91.4638 111.917 92.8164C111.951 92.8164 111.985 92.8333 112.019 92.8333C112.138 92.715 112.24 92.5966 112.325 92.4614C112.631 91.9879 112.886 91.4976 113.124 90.9904C113.617 89.959 114.025 88.8938 114.416 87.8117C114.535 87.4735 114.808 86.645 114.893 86.104C115.046 85.4614 115.046 84.8189 114.825 84.2103Z" fill="#1E4384"/>
<path d="M105.559 69.8132C105.678 70.8277 105.339 71.825 104.407 72.4784C103.831 72.8739 102.882 72.7535 102.238 72.6504C101.543 72.5472 100.831 72.3925 100.187 72.1001C98.7469 71.4467 98.8317 69.4693 99.1875 68.0937C99.052 67.6467 99.1875 67.1136 99.7637 66.9589C100.56 66.7182 101.543 66.615 102.475 66.7354C101.594 66.3055 100.628 66.0476 99.6451 66.0132C97.9166 65.9272 96.0863 66.2367 94.9679 67.6983C93.9002 69.1082 93.5444 70.9309 93.7986 72.6676C93.7986 72.7192 93.8155 72.7707 93.8155 72.8051C94.934 75.2468 97.6115 76.7943 100.221 76.9835C103.187 77.207 105.966 75.1436 106 71.9626C106 71.1888 105.847 70.4666 105.559 69.8132ZM100.187 75.4875C98.7978 75.4359 97.3234 75.0748 96.3405 73.9916C95.3237 72.8911 94.8662 71.5499 94.6798 70.054C94.5273 68.8331 96.3914 68.73 96.5439 69.9336C96.7981 71.9798 97.9166 73.5101 100.069 73.5961C101.272 73.6477 101.391 75.5391 100.187 75.4875ZM50.8394 69.8132C50.958 70.8277 50.6191 71.825 49.687 72.4784C49.1108 72.8739 48.1618 72.7535 47.5179 72.6504C46.8231 72.5472 46.1113 72.3925 45.4673 72.1001C44.0269 71.4467 44.1116 69.4693 44.4675 68.0937C44.3319 67.6467 44.4675 67.1136 45.0437 66.9589C45.8402 66.7182 46.8231 66.615 47.7551 66.7354C46.8739 66.3055 45.908 66.0476 44.9251 66.0132C43.1965 65.9272 41.3663 66.2367 40.2478 67.6983C39.1802 69.1082 38.8243 70.9309 39.0785 72.6676C39.0785 72.7192 39.0955 72.7707 39.0955 72.8051C40.214 75.2468 42.8915 76.7943 45.5012 76.9835C48.4669 77.207 51.2461 75.1436 51.28 71.9626C51.28 71.1888 51.1275 70.4666 50.8394 69.8132ZM45.4673 75.4875C44.0777 75.4359 42.6034 75.0748 41.6205 73.9916C40.6037 72.8911 40.1462 71.5499 39.9598 70.054C39.8072 68.8331 41.6713 68.73 41.8239 69.9336C42.0781 71.9798 43.1965 73.5101 45.3487 73.5961C46.5519 73.6477 46.6705 75.5391 45.4673 75.4875Z" fill="#D6E5E5"/>
<path d="M105.829 67.3019C104.562 66.0852 102.872 65.3124 101.098 65C99.8145 65.1151 98.5643 65.4604 97.5675 66.2825C96.858 66.8744 96.0977 66.0852 96.216 65.3453C93.3102 66.3647 91.9249 69.6531 92.1107 72.4975C91.9924 72.6948 91.9587 72.925 92.06 73.2045C93.9691 78.614 102.788 81.4091 106.64 76.3285C108.752 73.5005 108.346 69.7188 105.829 67.3019ZM103.481 69.5544C103.751 69.8668 104.325 71.2151 103.565 71.2808C102.822 71.3466 101.926 71.1329 101.234 70.8698C101.2 70.8533 101.166 70.8533 101.149 70.8369C101.048 70.6232 101.031 70.3765 101.031 70.1463C101.014 69.8175 101.082 69.4722 101.166 69.1434C101.96 69.0118 103.024 69.0283 103.481 69.5544ZM100.389 77.1506C97.7872 76.9698 95.1179 75.5064 94.0029 73.1552C94.0029 73.1059 94.0029 73.0566 93.986 73.0237C93.7325 71.363 94.0873 69.6038 95.1517 68.272C96.2667 66.8744 98.0913 66.5784 99.8145 66.6606C100.777 66.71 101.757 66.9402 102.636 67.3512C101.707 67.2361 100.727 67.3348 99.9327 67.5649C99.3583 67.7294 99.2232 68.2226 99.3583 68.6501C99.0035 69.9655 98.9191 71.8727 100.355 72.4811C100.997 72.7606 101.707 72.9086 102.399 73.0072C103.041 73.1059 103.987 73.2374 104.562 72.8428C105.508 72.218 105.829 71.2644 105.711 70.2943C105.998 70.9191 106.15 71.6097 106.133 72.3496C106.116 75.3913 103.345 77.3644 100.389 77.1506Z" fill="black"/>
<path d="M100.045 73.7005C97.9113 73.6317 96.8027 72.1006 96.5508 70.0361C96.3996 68.8319 94.5519 68.9351 94.7031 70.1566C94.8879 71.6361 95.3414 72.978 96.3492 74.0962C97.3234 75.18 98.7848 75.5413 100.162 75.5929C101.355 75.6273 101.237 73.7349 100.045 73.7005ZM51.3496 66.7502C50.9632 66.3545 50.5265 66.0105 50.073 65.7008C49.7538 66.0105 49.2667 66.1137 48.8636 65.718C48.4101 65.2879 47.5702 65.2019 46.9655 65.1331C46.0752 65.0126 45.1682 64.9782 44.2611 65.0126C42.5814 65.0987 40.8345 65.632 39.6923 67.0255C38.4829 68.4878 38.0798 70.4662 38.0126 72.3414C37.9958 72.8575 37.9958 73.3564 38.0126 73.8726C40.4986 78.896 48.5108 81.2185 52.1222 76.2123C54.2555 73.2532 53.8523 69.2964 51.3496 66.7502ZM49.0148 69.1243C49.2835 69.4512 49.8546 70.8619 49.0987 70.9307C48.3597 70.9995 47.4694 70.7759 46.7807 70.5006C46.7471 70.4834 46.7135 70.4834 46.6967 70.4662C46.6967 70.4662 46.6967 70.4662 46.6967 70.449C46.596 70.2254 46.5792 69.9673 46.5792 69.7265C46.5624 69.3824 46.6296 69.0211 46.7135 68.677C47.503 68.5566 48.5612 68.5738 49.0148 69.1243ZM45.9409 77.0724C43.3541 76.8832 40.7001 75.3521 39.5915 72.8919C39.5915 72.8403 39.5915 72.7887 39.5747 72.7543C39.3228 71.0167 39.6755 69.1759 40.7337 67.7824C41.8424 66.3201 43.6565 66.0105 45.3698 66.0965C46.3272 66.1481 47.3014 66.3889 48.1749 66.819C47.251 66.6986 46.2768 66.8018 45.4873 67.0427C44.9162 67.2147 44.7819 67.7308 44.9162 68.1781C44.5635 69.5544 44.4795 71.5501 45.9073 72.1866C46.5456 72.4791 47.251 72.6339 47.9397 72.7371C48.578 72.8403 49.5187 72.978 50.0898 72.5651C51.0304 71.9113 51.3496 70.9135 51.232 69.8985C51.5175 70.5522 51.6687 71.2748 51.6519 72.049C51.6519 75.2316 48.8804 77.2961 45.9409 77.0724Z" fill="black"/>
<path d="M45.9394 73.9325C43.5713 73.8573 42.3406 72.1849 42.0609 69.9299C41.8931 68.6145 39.8419 68.7273 40.0098 70.0615C40.2149 71.6775 40.7183 73.1432 41.8371 74.3647C42.9186 75.5485 44.5409 75.9431 46.0699 75.9995C47.3938 76.0371 47.2633 73.97 45.9394 73.9325Z" fill="black"/>
<path d="M115.812 83.417C115.408 81.9226 114.277 80.7305 113.113 79.7063C113.147 79.6055 113.164 79.4712 113.164 79.3369C113.012 76.5664 113.569 73.88 112.843 71.1599C112.236 68.8428 110.853 66.6936 109.048 65.1153C108.188 64.3765 107.243 63.8392 106.231 63.4698C106.298 63.3019 106.332 63.1004 106.281 62.8653C105.674 60.33 104.814 57.8785 103.785 55.4943C102.924 53.513 102.384 51.4142 101.507 49.4497C100.698 47.6363 99.6517 45.7893 98.0828 44.5132C96.6995 43.4051 94.9451 42.8342 93.2076 42.4816C89.4963 41.7428 85.6501 42.0786 81.8882 42.0618C76.4395 42.045 71.0075 42.3808 65.5587 42.448C59.8063 42.532 53.7502 42.2633 49.1111 46.2595C46.6482 48.3919 45.6361 51.431 44.5733 54.3861C43.9322 56.1491 43.2912 57.8785 42.4646 59.5744C41.7055 61.1359 40.6596 62.5799 40.5078 64.3429C39.8161 64.6787 39.1582 65.1153 38.5509 65.6526C36.9315 67.1301 36.2567 69.4137 36.0543 71.5125C35.7675 74.4005 36.2567 77.322 36.6616 80.1764C35.8181 80.6465 35.2952 81.5532 34.7216 82.3256C33.7769 83.5849 33.9287 85.3479 34.2324 86.7919C34.4348 87.7993 34.7047 88.8068 35.0421 89.7806C34.924 89.9317 34.8565 90.1332 34.8734 90.3851C34.9578 91.4093 35.1433 92.3999 35.3626 93.3906C35.5819 94.3812 35.9362 95.3887 35.9699 96.4129C36.0711 98.5453 35.8181 100.678 36.1555 102.81C36.3917 104.288 36.8977 105.732 38.1292 106.638C39.2763 107.478 40.6765 107.679 42.0429 107.78C43.3587 107.864 44.6914 107.881 46.0072 107.965C47.3905 108.066 48.8412 107.998 49.9715 107.108C52.7043 104.943 51.2535 100.963 50.6969 98.008C51.5066 98.0248 52.2994 98.0416 53.0923 98.0584C53.2947 98.0584 53.4634 98.008 53.5984 97.924C54.8973 98.6796 56.7867 98.8643 58.035 98.1423C58.1194 98.0919 58.2037 98.0416 58.2881 97.9744C60.5485 97.9912 62.809 97.8905 65.0695 97.9073C65.0864 97.9073 65.1033 97.9073 65.1201 97.9073C65.2213 98.2263 65.4575 98.5453 65.8118 98.5789C69.1688 98.9483 72.5426 98.8811 75.9165 98.7804C77.7553 98.7132 79.594 98.646 81.4328 98.5453C83.0016 98.4613 84.6717 98.5453 86.2068 98.1759C86.4598 98.1255 86.6285 97.9408 86.7297 97.7226L93.2413 97.8233C93.3088 97.8233 93.3763 97.8233 93.4269 97.8065C94.7258 98.7132 96.7839 98.9651 98.1334 98.1927C98.4033 98.0248 98.6564 97.8401 98.8757 97.6386C99.0106 97.7058 99.1456 97.7561 99.3311 97.7561C100.175 97.7729 101.001 97.8233 101.845 97.8401C101.845 97.9408 101.862 98.0584 101.912 98.1759C103.009 100.762 102.469 104.103 104.831 106.084C106.72 107.663 109.858 107.159 112.067 106.706C114.902 106.135 115.171 103.179 115.188 100.778C115.188 98.8643 115.02 96.9502 115.07 95.0361C115.121 93.1052 115.256 91.191 115.155 89.2601C115.138 89.0922 115.104 88.9411 115.02 88.8236C115.087 88.6221 115.171 88.4206 115.239 88.2191C115.863 86.6408 116.251 85.0793 115.812 83.417ZM43.7129 61.2031C44.3202 60.0109 44.8601 58.7852 45.3493 57.5427C46.2434 55.2592 46.9181 52.8582 48.0146 50.6754C49.7353 47.3005 52.9911 45.5207 56.6011 44.7651C58.4736 44.3789 60.4305 44.3118 62.3367 44.295C64.9852 44.295 67.6337 44.2782 70.2822 44.1774C75.1574 43.9927 80.0326 43.9592 84.9079 43.8752C89.2095 43.7912 95.1307 43.4051 98.0659 47.1829C99.7023 49.265 100.512 51.9011 101.339 54.3693C101.845 55.8301 102.503 57.2405 103.042 58.6845C103.565 60.0949 104.004 61.5221 104.375 62.9829C104.004 62.9157 103.616 62.8653 103.228 62.8318C103.245 62.7142 103.245 62.5967 103.211 62.4792C102.317 58.08 100.63 53.7648 97.6948 50.2892C96.2947 48.6269 94.6415 47.2333 92.6171 46.3938C90.7278 45.6046 88.6866 45.3528 86.6454 45.252C81.6015 45.017 76.4901 45.4031 71.463 45.7725C68.9326 45.9572 66.4022 46.2091 63.8549 46.3266C61.6957 46.4274 59.5364 46.4945 57.4108 46.8471C55.6396 47.1494 53.9526 47.6867 52.3838 48.5766C50.7812 49.4833 49.5666 50.8433 48.5882 52.388C46.5976 55.4943 46.024 59.2554 44.7926 62.6806C44.6914 62.9829 44.7251 63.2515 44.8432 63.4698C44.6576 63.4698 44.4721 63.4698 44.3034 63.4698C43.6623 63.4698 43.0382 63.537 42.414 63.6713C42.7177 62.815 43.3081 61.9922 43.7129 61.2031ZM101.423 62.7982C101.001 62.815 100.563 62.8485 100.141 62.9157C97.6105 60.0613 93.1064 59.524 89.5638 58.7852C84.3343 57.6938 78.9867 57.1062 73.6391 56.9886C69.1688 56.8879 64.6309 57.1733 60.2112 57.8617C56.1119 58.4998 51.9958 59.6583 48.5207 62.009C47.8459 62.4624 47.2218 62.9829 46.6313 63.5202C46.6313 63.5202 46.6313 63.5202 46.6145 63.5202C46.5639 63.5202 46.5133 63.5202 46.4627 63.5034C47.8797 59.5576 48.487 55.0409 51.3379 51.7836C54.29 48.4087 59.334 48.3751 63.4669 48.1904C68.6796 47.9553 73.8753 47.3844 79.0879 47.1829C81.4665 47.099 83.862 47.015 86.2574 47.0822C88.2817 47.1326 90.3398 47.4012 92.2123 48.224C94.9282 49.4329 96.8851 51.9347 98.3527 54.4365C99.871 57.0054 100.816 59.8934 101.423 62.7982ZM48.6894 105.782C47.8459 106.37 46.5301 106.168 45.5686 106.084C44.3709 105.984 43.1731 106 41.9754 105.933C40.997 105.883 39.9173 105.698 39.1414 105.043C38.0111 104.103 37.9436 102.239 37.8762 100.896C37.7918 99.1833 38.0955 97.3867 37.7918 95.6909C37.6906 95.1536 37.5725 94.6163 37.4544 94.079C37.7918 94.5995 38.0786 95.12 38.2304 95.6909C38.3654 96.1946 38.7871 96.3625 39.1751 96.2954C39.1751 96.3625 39.1751 96.4129 39.1751 96.4801C39.1751 96.8159 39.4113 97.0845 39.6812 97.2356C41.3344 98.2095 43.6117 97.9744 45.4674 97.9408C46.5976 97.924 47.7279 97.924 48.8581 97.9576C49.0774 99.2505 49.4317 100.527 49.6341 101.836C49.8196 103.146 49.9209 104.943 48.6894 105.782ZM57.1747 96.5136C56.4662 97.0174 55.1504 96.648 54.4756 96.2786C53.7502 95.8756 54.0876 94.4988 54.7455 94.0958C55.6227 93.7432 56.5336 93.9279 57.2759 94.5156C58.1362 95.204 58.0181 95.926 57.1747 96.5136ZM85.0934 96.5304C83.8788 96.7151 82.5799 96.6144 81.3822 96.6983C79.6446 96.7991 77.9071 96.8662 76.1695 96.9166C73.0825 97.0174 69.9616 97.1181 66.8745 96.8327C66.7396 95.9595 66.554 95.0696 66.3179 94.2133C66.3516 94.2133 66.3853 94.1965 66.4359 94.1797C70.2653 92.9708 74.5332 93.8439 78.4638 93.9111C79.4928 93.9279 80.5218 93.9615 81.5509 93.9615C82.4112 93.9615 83.2884 93.7768 84.1656 93.8607C85.144 93.9615 85.1609 95.439 85.0934 96.5304ZM97.29 96.564C96.5814 97.0677 95.2656 96.6983 94.5909 96.3289C93.8655 95.926 94.2029 94.5491 94.8608 94.1462C95.738 93.7936 96.6489 93.9783 97.3912 94.5659C98.2346 95.2543 98.1165 95.9763 97.29 96.564ZM99.8035 95.9092C99.9047 95.1872 99.7023 94.4316 99.1456 93.7432C97.9816 92.316 95.8223 91.6612 94.1185 92.4671C94.0848 92.4839 94.051 92.5007 94.0173 92.5343C93.9836 92.5511 93.9498 92.5679 93.9161 92.5846C92.8196 93.1051 92.2123 94.6667 92.3641 95.9763L86.9322 95.8924C86.9153 94.6499 86.7466 93.357 85.7682 92.5511C85.0597 91.9634 84.0307 91.9802 83.1534 91.997C82.0401 92.0306 80.9267 92.0977 79.8133 92.0809C77.4347 92.0473 75.073 91.8962 72.6945 91.7955C70.4002 91.7115 68.0385 91.7283 65.8455 92.4167C65.4913 92.5343 65.3057 92.7693 65.2551 93.0548C64.7153 93.1052 64.2092 93.5921 64.4116 94.2469C64.5972 94.8346 64.749 95.439 64.8671 96.0435C63.1296 96.0267 61.4089 96.0939 59.6713 96.1107C59.8569 95.3215 59.6882 94.4484 59.064 93.6928C57.9001 92.2656 55.7408 91.6108 54.037 92.4167C54.0032 92.4335 53.9695 92.4503 53.9358 92.4839C53.902 92.5007 53.8683 92.5175 53.8346 92.5343C52.6537 93.1052 52.0295 94.8514 52.3332 96.2114C50.1402 96.1778 47.964 96.1107 45.771 96.1275C44.3202 96.1275 42.4815 96.4129 41.0645 95.8756C41.0645 95.0361 41.0645 94.2133 41.1994 93.357C41.25 92.9708 41.2838 92.5175 41.6212 92.2824C41.9585 92.0473 42.5658 92.0977 42.9538 92.0977C45.9397 92.0473 48.9256 91.8123 51.9114 91.8459C52.1476 91.8459 52.3332 91.7787 52.4681 91.6612C58.9966 91.8123 65.5081 91.5604 72.0366 91.5772C75.4442 91.594 78.818 91.5772 82.2256 91.5436C85.5826 91.51 88.8553 91.8123 92.1954 91.9802C93.7305 92.0473 95.603 91.997 97.3237 91.678C100.343 91.7115 103.38 91.6276 106.399 91.7955C107.243 91.8459 108.559 91.678 109.183 92.4167C109.638 92.954 109.723 94.2805 109.588 95.1368C108.036 95.3383 106.517 95.7245 104.965 95.926C103.245 96.1275 101.524 95.9763 99.8035 95.9092ZM50.68 85.4822C50.68 84.9785 50.68 84.458 50.7643 83.9543C50.4438 83.5681 50.4101 82.9636 50.9668 82.6278C51.0511 82.5775 51.1355 82.5271 51.2198 82.4767C55.1504 80.1428 59.334 78.3462 63.8212 77.4396C66.1154 76.9862 68.4097 76.8183 70.7376 76.6672C72.9981 76.5161 75.2586 76.4153 77.5191 76.4489C79.8133 76.4825 82.1413 76.6336 84.4018 77.0534C86.5779 77.4563 88.6022 78.1783 90.6266 79.0682C91.5038 79.4544 92.381 79.8574 93.2413 80.3107C93.3257 80.3443 93.41 80.3779 93.4775 80.4451C93.5956 80.5122 93.7305 80.5794 93.8486 80.6466C94.5571 81.0327 95.3668 81.4189 95.9067 82.0402C96.2441 82.4264 96.5814 82.9133 96.8176 83.4338C98.2852 84.542 100.073 86.1035 100.04 87.8161C100.023 88.9243 98.5889 89.5288 97.3068 89.831C97.2056 89.831 97.1044 89.831 97.0032 89.831C96.7839 89.831 96.6152 89.8814 96.4802 89.9821C96.4127 89.9989 96.3453 89.9989 96.2778 90.0157C93.4437 90.3347 90.6097 90.0493 87.7756 89.831C84.8066 89.6127 81.8376 89.6967 78.8855 89.7638C75.8828 89.831 72.8969 89.7302 69.911 89.7302C64.0742 89.747 58.2374 89.9317 52.3838 89.8142C52.35 89.7806 52.3163 89.7638 52.2657 89.7302C50.2076 88.4038 49.9715 86.9934 50.7137 85.6166C50.68 85.5494 50.68 85.5158 50.68 85.4822ZM113.198 103.196C113.012 104.002 112.725 104.607 111.916 104.859C110.988 105.144 109.841 105.194 108.879 105.245C107.884 105.312 106.771 105.245 105.961 104.573C105.033 103.801 104.78 102.374 104.594 101.265C104.392 100.107 104.24 98.9315 103.818 97.8233C104.122 97.8065 104.443 97.8065 104.746 97.7729C106.636 97.6218 108.457 97.0341 110.347 96.883C110.634 96.8662 111.005 96.6815 111.106 96.3793C111.359 95.6909 111.426 94.9689 111.41 94.2637C112.27 94.2469 112.928 93.2898 113.366 92.5511C113.333 94.5827 113.215 96.5976 113.299 98.6292C113.383 100.14 113.535 101.719 113.198 103.196ZM114.109 85.6837C114.024 86.221 113.754 87.0438 113.636 87.3796C113.248 88.4542 112.827 89.4952 112.354 90.5362C112.118 91.0399 111.865 91.5268 111.561 91.997C111.477 92.1313 111.359 92.2488 111.258 92.3664C111.224 92.3664 111.19 92.3496 111.157 92.3496C110.853 91.0231 109.621 90.2843 108.356 90.0661C106.72 89.7806 104.932 89.8646 103.279 89.831C102.654 89.8142 102.03 89.8142 101.406 89.8142C102.131 89.0586 102.469 88.0512 102.182 86.7415C101.76 84.8106 99.6685 83.0308 97.931 81.7715C95.9741 80.3611 93.7305 79.2194 91.4194 78.2287C86.0718 75.9116 80.3194 75.1392 74.3645 75.2736C71.328 75.3407 68.3084 75.6598 65.3226 76.0124C63.6862 76.2138 62.2017 76.5329 60.6666 77.0534C57.3096 78.1951 54.0876 79.7734 51.4222 81.8051C49.263 83.4674 47.1374 85.9524 48.3014 88.5045C48.5544 89.0586 48.9424 89.5623 49.4148 90.0157C48.2677 90.0661 47.1206 90.1332 45.9734 90.1836C44.5564 90.234 43.055 90.0661 41.6549 90.3179C39.9342 90.6537 39.4113 92.0306 39.2426 93.5417C38.9052 93.0044 38.5003 92.4839 38.1292 91.9466C37.3363 90.8048 36.9315 89.512 36.5097 88.2023C36.1049 86.9598 35.6831 85.5662 35.9024 84.2565C36.0543 83.3666 36.9821 81.8723 37.9268 81.654C38.1461 81.6036 38.3148 81.4861 38.416 81.3518C39.2594 81.1838 39.2257 79.9246 38.4497 79.6055C38.1798 77.7418 37.893 75.8612 37.8256 73.9639C37.6737 73.6617 37.5388 73.3594 37.4376 73.0572C37.3363 72.7718 37.3701 72.5367 37.4882 72.3352C37.3195 69.4305 38.7028 66.0723 41.5874 65.0313C44.2528 64.0743 47.5085 64.4437 49.9209 66.0052C50.2751 65.6694 50.4101 65.0817 49.9546 64.6451C49.6678 64.3765 49.3136 64.1582 48.9256 64.0071C51.844 61.774 55.4877 60.5986 59.0809 59.9102C63.2476 59.1042 67.5999 58.8188 71.8341 58.7852C77.1311 58.7516 82.4112 59.2889 87.6238 60.2628C89.7325 60.649 91.858 61.0855 93.9161 61.6396C95.2994 62.009 96.902 62.5127 98.0659 63.453C97.4755 63.7049 96.902 64.0239 96.4127 64.4437C96.2103 64.6116 96.1091 64.8298 96.0754 65.0313C97.5936 64.494 99.3143 64.3765 100.967 64.6787C101.575 64.6283 102.182 64.6283 102.789 64.6451C104.847 64.7291 106.652 65.4175 108.171 66.7943C109.672 68.1544 110.634 70.0349 111.157 71.9658C111.73 74.115 111.308 76.365 111.308 78.5645C111.207 78.6988 111.157 78.85 111.14 79.0179C111.072 79.085 111.005 79.1522 110.954 79.2194C110.937 79.2361 110.92 79.2697 110.904 79.2865C110.684 79.6223 110.819 80.1428 111.106 80.3947C111.207 80.5794 111.359 80.6969 111.528 80.7641C112.54 81.6204 113.552 82.5775 114.007 83.82C114.21 84.4244 114.21 85.0625 114.109 85.6837Z" fill="black"/>
<path d="M96.0907 64.5261C95.9718 65.2797 96.7362 66.1019 97.4497 65.5024C98.4519 64.646 99.709 64.2864 101 64.1665C99.3522 63.8582 97.6196 63.9781 96.0907 64.5261ZM41.2392 64.5261C38.3174 65.588 36.9245 69.0135 37.1113 71.9765C36.9924 72.182 36.9584 72.4218 37.0604 72.713C37.1623 73.0384 37.2982 73.3467 37.4511 73.6378C37.4341 73.124 37.4341 72.6273 37.4511 72.1135C37.519 70.2466 37.9267 68.277 39.1498 66.8212C40.3049 65.4339 42.0716 64.8858 43.7703 64.8173C44.6876 64.7831 45.6049 64.8173 46.5052 64.9372C47.0998 65.0228 47.9661 65.0913 48.4248 65.5195C48.8324 65.9135 49.3421 65.8107 49.6478 65.5024C47.2017 63.9438 43.9232 63.567 41.2392 64.5261ZM96.8212 83.2976C95.0885 81.9959 93.1349 80.9169 91.0965 79.992C88.5654 78.8445 85.9664 77.9196 83.1465 77.4401C80.1058 76.9091 76.9971 76.7892 73.9225 76.892C69.4718 77.0461 64.6984 77.2688 60.6215 78.8103C57.9545 79.8208 51.9411 82.544 50.3783 85.507C50.4462 85.9694 50.9219 86.2949 51.3635 86.2777C51.7712 86.2606 52.1449 86.0893 52.3318 85.7125C52.3998 85.5755 52.4677 85.3357 52.4507 85.1816C52.4337 85.0788 52.3828 84.6678 52.4167 84.9418C52.3998 84.7705 52.3488 84.6164 52.2639 84.4965C52.2808 84.2053 52.3318 83.9313 52.4167 83.6573C52.4167 83.6401 52.4167 83.6401 52.4167 83.623C52.5696 83.5374 52.7055 83.4517 52.8584 83.3661C52.9264 84.2396 52.9094 85.1131 53.402 85.8838C54.0645 86.9114 55.6273 85.8667 54.9648 84.8562C54.5741 84.2396 54.761 83.2805 54.6421 82.5611C54.6421 82.5097 54.6251 82.4584 54.6081 82.407C55.0328 82.1843 55.4744 81.9788 55.9161 81.7733C56.086 83.0064 56.3068 84.2225 56.3068 85.4727C56.3068 86.6888 58.1754 86.5689 58.1754 85.3529C58.1754 83.9655 57.8866 82.6125 57.7337 81.2423C57.7167 81.1567 57.6997 81.071 57.6658 80.9854C58.1924 80.7628 58.736 80.5572 59.2795 80.3688V80.386C59.2286 82.1843 58.5661 84.5479 59.6872 86.1578C60.3837 87.1512 61.9465 86.1236 61.2501 85.1302C60.8254 84.5307 60.9273 83.623 60.9613 82.9379C60.9952 82.0473 61.1142 81.1567 61.1481 80.2661C61.1481 80.0777 61.1142 79.9064 61.0292 79.7865C61.4029 79.6666 61.7936 79.5639 62.1843 79.4611C62.1334 81.5849 61.7936 84.0854 62.7619 86.0379C63.3055 87.117 64.8513 86.0893 64.3247 85.0103C63.951 84.2567 64.019 83.1948 64.002 82.3898C63.985 81.3622 64.0359 80.3346 64.0529 79.2898C64.0529 79.1871 64.036 79.1014 64.019 79.0329C64.3757 78.9644 64.7324 78.8959 65.0892 78.8445C64.9363 81.071 65.4968 83.2462 65.4968 85.4727C65.4968 86.6888 67.3654 86.5689 67.3654 85.3529C67.3654 83.2633 66.7709 81.1909 66.9408 79.0843C66.9577 78.8959 66.9238 78.7246 66.8558 78.5876C67.4164 78.5191 67.994 78.4677 68.5715 78.4163C68.5885 78.4848 68.6225 78.5362 68.6565 78.6047C69.7436 80.5401 69.6417 83.1263 69.5908 85.3357V85.3529V85.7125C69.5738 86.9286 71.4423 86.8087 71.4593 85.5926C71.4933 83.1606 71.5613 80.523 70.576 78.2622C71.3234 78.2279 72.0879 78.1937 72.8353 78.1594C72.3936 79.1528 72.8353 80.7456 72.8863 81.6876C72.9712 83.2633 72.5975 85.0617 73.3109 86.5346C73.8545 87.6308 75.4004 86.586 74.8738 85.507C74.6529 85.0446 74.7548 84.3252 74.7548 83.8285C74.7718 83.1092 74.8228 82.3898 74.7379 81.6705C74.6869 81.1909 74.6529 80.7114 74.602 80.2318C74.568 79.9064 74.551 79.581 74.551 79.2556C74.551 79.1185 74.6529 78.8445 74.551 78.9473C74.8398 78.6904 74.8907 78.3821 74.8058 78.108C74.8738 78.108 74.9417 78.108 75.0266 78.108C75.5702 78.0909 76.1308 78.0909 76.6744 78.0909C76.6234 80.523 76.1138 83.3147 77.235 85.5755C77.7616 86.6717 79.3244 85.6269 78.7978 84.5479C78.3561 83.6573 78.4241 82.4584 78.4241 81.4992C78.4241 80.3688 78.509 79.2556 78.543 78.1252C79.1205 78.1423 79.7151 78.1765 80.2927 78.2279C80.2757 78.2793 80.2587 78.3478 80.2587 78.4163C80.0378 80.66 80.2247 83.0921 80.8702 85.2501C81.193 86.3291 82.6709 85.9181 82.6878 84.8904V84.5479C82.6878 84.2567 82.5859 84.0512 82.433 83.9142C82.0423 82.27 81.9064 80.4373 82.0763 78.7931C82.0933 78.639 82.0763 78.502 82.0423 78.3821C82.8068 78.4677 83.5712 78.6047 84.3186 78.7417C84.3186 78.7931 84.3016 78.8274 84.3016 78.8788C84.3016 80.8655 84.8962 82.818 84.7433 84.8048C84.6584 86.0037 86.476 86.3976 86.5779 85.1987C86.7308 83.1777 86.2552 81.2081 86.1872 79.1871C86.493 79.2727 86.8157 79.3583 87.1215 79.4611C87.4273 79.5639 87.733 79.6666 88.0388 79.7865C88.0388 79.7865 88.0388 79.7865 88.0388 79.8036C88.0388 81.6705 88.3276 83.5374 88.6843 85.37C88.9221 86.5518 90.6888 85.9523 90.451 84.7705C90.1792 83.4003 89.9753 81.9959 89.9244 80.5915C90.6039 80.8998 91.2664 81.2423 91.9119 81.5677C91.8609 83.0921 91.759 84.6335 92.2346 86.1065C92.6083 87.254 94.375 86.6717 94.0013 85.507C93.6955 84.565 93.6785 83.5374 93.7125 82.5269C94.0183 82.7153 94.3071 82.9037 94.5449 83.1434C94.7997 83.3832 95.0205 83.6915 95.1564 84.0169C95.2244 84.1539 95.2583 84.3081 95.2753 84.4622C95.2414 84.4794 95.2074 84.4965 95.1394 84.5307C94.0862 85.1302 95.1224 86.7059 96.1587 86.1065C97.3138 85.4385 97.2798 84.3081 96.8212 83.2976Z" fill="black"/>
<path d="M96.111 82.5016C95.5742 81.891 94.769 81.5114 94.0645 81.1319C93.9471 81.0659 93.8129 80.9999 93.6954 80.9339C93.6283 80.8843 93.5445 80.8348 93.4606 80.8018C92.6051 80.3728 91.7328 79.9602 90.8606 79.5807C88.8476 78.7061 86.8347 78.013 84.6708 77.6004C82.4231 77.1879 80.1082 77.0394 77.8269 77.0064C75.5791 76.9734 73.3313 77.0724 71.0836 77.2209C68.7687 77.3694 66.4874 77.5179 64.2061 77.98C59.7441 78.8711 55.5673 80.6368 51.6756 82.9306C51.5917 82.9801 51.5079 83.0296 51.424 83.0791C50.8704 83.4092 50.9208 84.0032 51.2227 84.3828C51.1388 84.8779 51.1388 85.3894 51.1388 85.8845C51.1388 85.9175 51.1388 85.967 51.1388 86C52.6988 83.1451 58.6202 80.5213 61.2538 79.5477C65.2796 78.0625 69.9932 77.848 74.3881 77.6994C77.4411 77.6004 80.494 77.7325 83.4966 78.2275C86.2812 78.6896 88.8476 79.5972 91.347 80.6863C93.3767 81.5774 95.3058 82.6171 97 83.8712C96.7987 83.3597 96.4632 82.8811 96.111 82.5016Z" fill="black"/>
</svg>
