<svg width="200" height="150" viewBox="0 0 200 150" fill="none" xmlns="http://www.w3.org/2000/svg">
<circle cx="101.179" cy="75.5" r="62.5" fill="#E4F3D8"/>
<path d="M138.269 124.309V136.214H112.916V131.344C112.916 131.344 105.364 131.344 103.206 129.179C101.048 127.015 100.509 116.192 100.509 116.192L94.0356 112.946L100.509 103.205C100.509 103.205 103.206 82.6426 124.244 82.6426C145.282 82.6426 145.821 99.4175 145.821 105.37C145.821 111.322 138.269 124.309 138.269 124.309Z" fill="#75A74E"/>
<path d="M45.5952 107.832L70.0799 106.184L69.0582 119.393L46.7665 120.534L45.5952 107.832Z" fill="#75A74E"/>
<path d="M45.5855 107.07L70.3104 105.329L70.541 103.092L61.9992 94.1196L52.3757 95.007L45.3624 104.651L45.5855 107.07Z" fill="#75A74E"/>
<path d="M46.752 121.572L69.0437 120.431L69.1552 121.641C69.1552 121.641 63.0979 123.42 57.6553 123.769C52.2127 124.118 46.8914 123.084 46.8914 123.084L46.752 121.572Z" fill="#75A74E"/>
<path d="M51.7979 94.1455L62.5837 92.3699L62.4885 91.3372C62.4885 91.3372 59.3774 90.5827 56.7353 90.9565C54.0932 91.3303 51.6788 92.8547 51.6788 92.8547L51.7979 94.1455Z" fill="#75A74E"/>
<path d="M116.957 57.2101C117.266 53.636 119.065 46.5901 127.341 47.3047C135.617 48.0192 136.234 54.6737 135.874 58.8433C135.513 63.013 129.139 67.8636 129.139 67.8636L128.676 73.2246C128.676 73.2246 126.106 75.4031 124.924 75.301C123.742 75.199 121.583 72.6121 121.583 72.6121L122.046 67.2511C122.046 67.2511 116.648 60.7841 116.957 57.2101Z" fill="#1D7588"/>
<path d="M127.301 55.6863C124.371 57.8292 125.682 58.5413 127.293 61.0762L124.766 63.8528" stroke="white" stroke-width="2"/>
<path d="M36 34.905L68.5992 37.5031V75.954L36 79.0717V34.905Z" fill="#1D7588"/>
<path d="M69.6504 37.0074L101.198 31.7495V78.0194L69.6504 75.9162V37.0074Z" fill="white"/>
<rect x="74.9072" y="55.9368" width="21.0318" height="2.10317" rx="1.05159" fill="#75A74E"/>
<rect x="74.9072" y="43.3171" width="21.0318" height="9.46428" fill="#75A74E"/>
<rect x="74.9072" y="61.1943" width="21.0318" height="2.10317" rx="1.05159" fill="#75A74E"/>
<rect x="74.9072" y="66.4531" width="21.0318" height="2.10317" rx="1.05159" fill="#1D7588"/>
</svg>
