<svg width="150" height="150" viewBox="0 0 150 150" fill="none" xmlns="http://www.w3.org/2000/svg">
<path d="M88.6937 45.3459C85.865 42.9078 82.5382 41.7158 78.9623 41.1017C79.6917 41.8602 80.1543 42.8716 80.3322 43.9191C81.1861 43.9914 81.8266 44.4429 82.4848 45.0931C83.1253 45.7433 83.6946 46.267 84.6375 46.267C85.9006 46.267 86.0429 48.2537 84.7798 48.2537H84.4062C84.2995 48.2537 84.2105 48.2356 84.1216 48.2176C83.3921 48.1273 82.6271 47.9105 82.0756 47.441C81.5597 47.0075 81.0082 46.1767 80.35 45.96C80.0831 47.8925 78.9267 49.9694 76.952 50.4751C74.657 51.0711 71.9172 49.6263 70.7964 47.4951C70.1738 46.3212 70.1382 45.0931 71.0633 44.0636C72.0596 42.98 73.5006 43.4857 74.7103 43.7747C75.9379 44.0636 75.5643 46.0142 74.3367 45.7252C73.8742 45.6168 72.3798 44.9305 72.273 45.7974C72.1841 46.4476 72.8779 47.0978 73.3049 47.459C74.3012 48.3079 75.6532 49.1928 76.9342 48.344C78.8555 47.0436 79.1402 43.2148 76.952 42.0408C76.4182 41.7519 76.3471 41.192 76.525 40.7585C74.3901 40.4335 72.2552 40.0903 70.1026 40.0181C69.8357 40 69.5689 40 69.3198 40C69.6934 40.596 69.2486 41.6796 68.3057 41.5893C67.007 41.4629 66.669 43.883 66.4911 44.768C66.2242 46.0503 65.993 47.152 65.1568 48.0911C66.4911 48.7052 67.6653 49.5902 68.4303 50.8905C68.7861 51.4865 68.4836 52.4437 67.7009 52.4437H67.3451C66.669 52.4437 66.3132 51.8658 66.331 51.324C65.7439 50.6557 65.0145 50.1862 64.1783 49.8249C63.9115 49.6985 63.7514 49.5179 63.6802 49.2831C61.3852 50.6196 58.0584 50.9808 57.4179 47.7299C57.329 47.2423 57.8271 46.6463 58.3252 46.6643C58.8412 46.6824 59.1614 46.7908 59.5884 47.0978C60.0153 47.4048 60.0509 47.8563 59.8374 48.2176C60.4245 48.5065 61.403 48.2176 61.9189 48.0008C62.933 47.5854 64.0716 46.845 64.3384 45.7071C64.7476 43.9011 65.1212 41.3365 66.5979 40.1987C65.2813 40.3973 63.9826 40.7766 62.7017 41.4268C61.9901 41.788 61.2785 42.1673 60.5668 42.5465C61.2785 42.6368 61.9723 42.8897 62.4882 43.3773C63.2888 44.1539 63.5379 45.1292 63.4667 46.2309C63.4311 46.7727 62.7907 47.1159 62.3281 47.0075C61.7588 46.8991 61.5097 46.3754 61.5631 45.8516C61.6343 44.768 60.6558 44.4248 59.7485 44.4971C59.0902 44.5513 58.7344 44.0456 58.7344 43.5399C57.8805 43.9914 57.0265 44.4248 56.1548 44.8402C54.5892 45.5627 52.9881 46.3934 51.9384 47.8383C51.4581 48.4885 51.1201 49.2109 50.8354 49.9694C51.4047 49.8791 52.1519 50.3306 52.0985 51.1253C51.9918 52.823 52.0452 55.8933 54.3579 56.11C55.1585 56.1823 56.5462 55.8391 56.9554 55.0444C57.2044 54.5568 56.9376 53.9789 56.5284 53.9066C56.4394 54.1414 56.2437 54.3401 55.9235 54.4123C55.8168 54.4304 55.7278 54.4665 55.6211 54.4846C55.1941 54.611 54.7315 54.4846 54.4825 54.1053C54.4647 54.0872 54.4469 54.0511 54.4291 54.0331C54.1978 53.6718 54.1978 53.1481 54.5003 52.823C55.7812 51.4865 58.5031 51.7213 58.9657 53.8163C59.0724 54.304 59.0547 54.7735 58.9479 55.207C60.1221 54.4846 61.4386 53.9969 62.6306 53.7802C65.0679 53.3648 67.3273 54.0511 69.7468 54.1053C71.3479 54.1414 73.0558 54.7555 73.8386 56.3087C74.568 57.7716 74.8527 60.0111 73.9631 61.4921C73.127 62.9008 71.8994 62.8647 70.4584 62.8466C69.8535 62.8466 69.3198 62.8647 68.8395 63.2801C68.3235 63.7316 67.861 64.2373 67.3095 64.6346C66.0286 65.5557 64.5875 65.5557 63.6802 64.1289C63.0042 63.0453 64.6231 61.9436 65.2991 63.0092C65.566 63.4426 65.6194 63.4245 66.0641 63.0814C66.331 62.8827 66.5801 62.666 66.8291 62.4312C66.5445 62.1784 66.4022 61.763 66.6334 61.3115C66.7224 61.1309 66.7935 60.9864 66.8113 60.8419C66.8113 60.8238 66.8113 60.7877 66.8113 60.7877C66.7758 60.7516 66.7758 60.7516 66.758 60.7335C66.758 60.7335 66.7402 60.7335 66.7046 60.7155C66.2954 60.4987 65.8151 60.4265 65.2102 60.3181C64.1428 60.1556 62.3993 59.7763 63.0575 58.2412C63.4133 57.3923 64.4096 57.609 64.7654 58.2231C64.9433 58.2592 65.1212 58.2953 65.2813 58.3134C65.904 58.4037 66.5267 58.5121 67.1316 58.7288C68.2702 59.1442 68.7861 60.0472 68.6971 61.0767C69.0707 60.9322 69.4621 60.8419 69.9247 60.8419C70.6007 60.8238 71.9884 61.2212 72.2908 60.4084C72.6644 59.397 72.6466 57.9522 71.9884 57.0672C71.0989 55.8572 69.6045 56.1281 68.3057 55.9836C66.4377 55.7669 64.6587 55.3695 62.7729 55.7488C60.9582 56.11 57.7026 57.6632 57.6314 59.8847C57.578 61.1489 55.6389 61.3115 55.6744 60.0292C55.71 59.1984 55.9413 58.4398 56.3327 57.7716C56.1904 57.8258 56.0303 57.8619 55.8701 57.898C54.0199 58.3134 51.9384 57.7355 50.9599 55.9475C50.3906 54.9 50.1772 53.7802 50.1238 52.6243C50.0526 53.0397 49.9815 53.4371 49.9103 53.8344C49.5011 56.2906 49.1631 58.7649 48.238 61.0947C48.3447 61.2031 48.4337 61.3295 48.4693 61.474C49.679 61.2573 50.871 61.1309 52.0985 61.1309C53.3617 61.1128 53.504 63.0995 52.2409 63.1175C50.7642 63.1356 49.3054 63.2981 47.8644 63.6052C47.7932 63.6232 47.7043 63.6232 47.6331 63.6232C47.2061 64.3818 46.8503 65.2125 47.0638 65.8988C47.5086 67.3076 48.6472 68.5537 49.4477 69.7999C49.5011 69.7277 49.5723 69.6554 49.6612 69.6013C50.9777 68.626 52.828 68.4093 54.4113 68.1745C55.6567 67.9939 55.799 69.9805 54.5536 70.1611C53.3083 70.3417 51.7961 70.4862 50.7643 71.2628C50.6397 71.3531 50.4974 71.4073 50.3729 71.4434C50.7287 72.1297 51.0489 72.816 51.3513 73.5204C51.7071 73.3759 52.063 73.2495 52.4188 73.1231C52.9881 72.9244 53.8064 72.7438 54.269 72.3284C55.1941 71.4796 56.6885 72.7799 55.7456 73.6468C54.7493 74.5318 53.4506 74.8388 52.2409 75.3084C52.4544 75.6154 52.7034 75.9044 53.0237 76.1211C53.7709 76.6449 55.1941 77.0783 56.0836 76.988C56.7241 76.9338 56.5996 75.5071 56.6885 75.0014C56.8664 74.0442 57.5425 73.2676 58.0762 72.4909C58.343 72.0936 58.6277 71.6963 58.7878 71.2628C58.8234 71.1906 58.859 71.1003 58.859 71.01C58.859 71.01 58.859 71.01 58.8412 71.01C58.6099 70.8836 58.4676 70.6849 58.3964 70.4862C57.9161 70.4862 57.4357 70.4501 56.9554 70.3779C55.71 70.1611 56.0836 68.2106 57.329 68.4273C57.5247 68.4634 57.7026 68.4815 57.8983 68.4996C56.9554 68.1384 56.1726 67.5243 55.8701 66.4768C55.4965 65.2487 57.3468 64.5985 57.7204 65.8266C58.2363 67.5424 61.1006 66.2601 61.6165 67.8133C62.2925 67.5424 62.9686 67.2353 63.6268 66.9464C65.8506 65.935 67.9855 65.357 70.4584 65.4835C72.273 65.5738 74.1944 65.935 76.0446 65.8627C75.8667 65.5376 75.8489 65.1403 76.1692 64.7791C76.952 63.9122 77.966 63.551 78.9267 62.9369C79.8874 62.3229 80.2966 61.4379 80.2966 60.264C80.2966 59.2345 80.3322 57.8619 79.6739 57.013C79.5138 56.7963 79.1402 56.4893 78.8555 56.7241C78.731 56.8144 78.4819 57.1214 78.5887 57.302C79.2469 58.3857 77.628 59.5054 76.9697 58.4218C76.1514 57.0672 76.9697 55.1348 78.4819 54.7555C80.2966 54.304 81.5775 55.8752 81.9867 57.5007C82.4137 59.1623 82.5026 61.5101 81.5775 63.0272C81.0972 63.8219 80.4389 64.3818 79.6205 64.8152C79.1936 65.05 78.731 65.2667 78.304 65.5376C80.5634 64.9055 82.6271 63.7135 84.7264 62.6841C85.6693 62.2145 86.63 61.7991 87.6085 61.4198C86.6122 60.8419 85.5804 60.2459 84.424 60.3181C83.1609 60.4084 83.0185 58.4218 84.2817 58.3315C85.865 58.2231 87.1993 58.9455 88.5336 59.686C89.014 59.4873 89.5833 59.6138 89.7256 60.264C89.7434 60.3181 89.7612 60.3904 89.779 60.4446C90.0814 60.2459 90.3838 60.0472 90.6685 59.7944C91.4335 59.1261 92.0384 58.2773 92.4297 57.3381C92.2874 57.3923 92.1629 57.4465 92.0384 57.5007C91.647 57.6813 91.5046 57.7355 91.1488 57.9703C90.0814 58.6746 88.9962 57.013 90.0458 56.3267C90.4728 56.0558 90.9175 55.8211 91.3801 55.6224C91.7181 55.4598 92.0917 55.2973 92.4653 55.2612C92.6432 55.2431 92.8033 55.2792 92.9457 55.3334C92.9457 55.2612 92.9635 55.1889 92.9635 55.1348C93.2837 51.2517 91.4691 47.7299 88.6937 45.3459ZM76.6673 54.2137C76.436 54.7013 75.8311 54.9 75.3508 54.6652L74.2834 54.1234C73.803 53.8886 73.6073 53.2745 73.8386 52.7869C74.0699 52.2992 74.6748 52.1006 75.1551 52.3354L76.2225 52.8772C76.7029 53.13 76.9164 53.726 76.6673 54.2137ZM89.1385 55.0625C87.6263 55.8572 85.8117 56.0378 84.2105 55.3695C83.4633 55.0625 82.7695 54.5929 82.2535 53.9608C82.0401 53.708 81.8622 53.4732 81.702 53.1661C81.6309 53.0397 81.5597 52.8772 81.4885 52.7508C81.4708 52.7508 81.4352 52.7508 81.3818 52.7508C80.1187 52.8591 79.9764 50.8725 81.2395 50.7641C81.8444 50.7099 82.3603 50.8363 82.8051 51.2517C83.1787 51.5949 83.2854 52.1186 83.6056 52.4979C84.4596 53.4912 85.6871 53.9428 86.968 53.708C87.9821 53.5274 88.9072 53.0217 89.1919 51.9561C89.3698 51.3059 89.4231 50.5835 89.1919 49.9875C88.3735 50.1681 87.5018 49.1386 88.2312 48.3801C88.3379 48.2356 88.3913 48.1814 88.4091 48.1995C88.6581 47.5674 89.4053 47.2603 89.9746 47.748C92.0561 49.6263 91.6647 53.7621 89.1385 55.0625Z" fill="#FCBF95"/>
<path d="M108.976 79.1273C108.904 78.7503 108.651 78.4092 108.434 78.1041C108.362 77.9963 108.307 77.8886 108.289 77.7809C108.271 77.763 108.271 77.763 108.253 77.745C106.898 75.9498 105.741 73.975 104.277 72.2696C102.976 70.7796 101.494 69.4152 100.626 67.62C99.6682 65.6811 99.9031 63.2396 100.337 61.1931C100.789 59.1286 100.59 57.0102 100.662 54.9098C100.572 54.7842 100.518 54.6405 100.5 54.461C100.265 52.6837 99.5417 51.0142 98.6199 49.4883C96.3065 45.6644 93.234 42.092 89.4385 39.6505C86.0407 37.4603 82.2091 36.06 78.1968 35.4317C70.0818 34.175 61.7498 35.7728 54.1951 38.7887C51.9359 40.7096 49.3514 42.3074 47.4356 44.5873C45.3391 47.0647 43.839 50.1525 42.863 53.2403C41.3629 58.0155 40.423 63.3294 41.399 68.3022C42.3931 73.3467 45.1041 77.8707 47.5621 82.3049C48.9718 84.8182 50.4177 87.3315 51.8817 89.8089C53.2914 92.1786 54.8096 94.4944 56.1109 96.918C58.2797 100.921 59.9606 105.589 59.1111 110.167C59.5268 110.436 59.6533 111.01 59.4545 111.441C59.4726 111.477 59.5087 111.513 59.5268 111.531C59.6714 111.711 59.816 111.872 59.9606 112.052C60.304 112.411 60.6112 112.716 61.0631 112.967C62.4186 113.685 63.8825 114.098 65.3826 114.332C67.7683 114.691 70.2083 114.637 72.6121 114.798C75.0339 114.96 77.51 115.139 79.9499 114.834C81.9561 114.583 84.0165 114.008 85.2093 112.249C85.2816 112.141 85.372 112.052 85.4624 111.98C85.4624 111.926 85.4624 111.836 85.4443 111.782C85.372 111.513 85.2997 111.262 85.2274 111.01C85.0647 110.454 84.9021 109.897 84.7936 109.323C84.6129 108.228 84.7575 106.935 84.9744 105.84C85.2455 104.566 85.6973 103.129 86.8902 102.411C87.9204 101.783 89.0409 101.46 90.2338 101.352C90.4326 101.209 90.6856 101.119 90.9748 101.155C93.0713 101.388 95.2221 101.352 97.3367 101.388C98.1139 101.406 99.1621 101.478 99.8489 101.029C100.716 100.455 100.969 99.539 101.06 98.5516C101.168 97.4745 101.223 96.2537 101.837 95.3023C102.217 94.7278 102.65 94.2251 103.102 93.7045C103.554 93.1839 104.042 92.6274 104.295 91.9991C104.548 91.3707 104.295 91.1014 103.717 90.8142C103.446 90.6706 103.301 90.4731 103.229 90.2577C102.831 89.7371 103.03 88.7318 103.897 88.5881C106.066 88.2291 104.367 86.4339 103.5 85.644C102.361 84.5848 101.909 83.4 102.271 81.8561C102.271 81.8381 102.271 81.8202 102.289 81.8022C102.325 81.5868 102.452 81.3714 102.686 81.2098C103.915 80.366 105.777 80.4558 107.187 80.1686C107.747 80.0608 108.578 79.8454 108.85 79.4864C108.994 79.3787 109.03 79.4146 108.976 79.1273ZM94.8968 56.328C94.4449 58.2489 93.4328 59.9903 91.8785 61.2469C90.0711 62.7011 87.7396 63.2217 85.6792 64.2091C83.2755 65.3759 80.8717 66.7942 78.2329 67.3507C75.6123 67.9072 72.9916 67.3686 70.3529 67.2609C68.9793 67.2071 67.6057 67.243 66.3044 67.6738C65.22 68.0329 64.2079 68.4996 63.1596 68.9484C62.1836 69.3793 61.2076 69.7383 60.2136 69.9897C60.5208 70.6718 60.3943 71.4797 59.9786 72.2337C59.4726 73.1313 58.3159 74.1905 58.1713 75.1419C57.9725 76.3088 57.9906 77.6732 56.8881 78.3733C55.6952 79.1453 53.7071 78.517 52.4962 78.0502C51.3033 77.5834 50.3274 76.7576 49.7309 75.6267C49.1707 75.4292 48.8092 74.7829 49.0622 74.2802C48.52 73.1313 48.0139 71.9644 47.3091 70.8693C46.3331 69.3613 44.7246 67.7277 44.4715 65.8966C44.2366 64.2629 45.1945 62.9524 45.8813 61.5521C45.6282 61.2828 45.5017 60.9059 45.6825 60.475C46.6584 58.213 46.9295 55.7895 47.3633 53.3839C47.7248 51.3014 48.1766 49.0035 49.3695 47.2083C50.3454 45.7362 51.6648 44.6232 53.2372 43.7974C55.3337 42.7203 57.4845 41.7688 59.5449 40.6558C61.7137 39.4709 63.9548 38.3579 66.467 38.1425C69.1962 37.9091 71.9253 38.1604 74.6182 38.5374C76.8774 38.8426 79.227 39.0401 81.432 39.5786C85.2455 40.5301 88.9144 42.4151 91.5712 45.3413C94.228 48.2316 95.8185 52.4324 94.8968 56.328Z" fill="#BCBCBC"/>
<path d="M110.117 77.0108C110.081 76.885 110.027 76.7592 109.937 76.6513C108.707 74.9979 107.586 73.2547 106.32 71.6193C105.162 70.1097 103.697 68.8696 102.685 67.2522C101.581 65.4909 101.979 63.1726 102.395 61.2496C102.847 59.111 102.54 56.9185 102.685 54.7439C102.703 54.4743 102.63 54.2227 102.486 54.043C101.78 49.3704 98.4527 45.1291 95.2336 41.8223C92.3581 38.857 88.7954 36.5926 84.9252 35.1369C77.1306 32.1895 68.486 32.5669 60.5287 34.5977C58.25 35.1728 56.0075 35.9276 53.8192 36.7903C53.6203 36.7723 53.4213 36.8442 53.2224 37.0239C53.2043 37.0239 53.2043 37.0419 53.1862 37.0419C53.1501 37.0598 53.1139 37.0778 53.0777 37.0778C52.8065 37.1856 52.6437 37.3654 52.5533 37.581C50.9618 38.8929 49.298 40.0791 47.7427 41.4449C45.8799 43.0803 44.4693 45.0752 43.2757 47.2318C40.78 51.6887 39.6407 56.8107 39.1162 61.8427C38.5917 66.7849 39.8938 71.6013 41.9917 76.0403C44.3608 81.0544 47.2544 85.8528 50.0575 90.6333C53.566 96.5819 58.9011 103.447 56.966 110.797C56.8394 111.301 57.0745 111.66 57.4362 111.822C57.5085 112.073 57.6351 112.343 57.7979 112.559C58.6298 113.727 59.6425 114.553 60.9446 115.147C64.0914 116.602 67.4733 116.494 70.8552 116.692C73.803 116.872 76.7508 117.159 79.7168 116.89C82.321 116.656 85.2146 115.865 86.7518 113.583C86.8603 113.403 86.9326 113.224 86.9326 113.062C87.1858 112.954 87.4028 112.738 87.4933 112.415C87.6922 111.732 87.2943 110.833 87.0954 110.186C86.8241 109.27 86.7518 108.497 86.8241 107.563C86.8965 106.52 87.0592 105.316 87.656 104.435C88.3071 103.483 90.0794 103.357 91.1102 103.339C91.2911 103.339 91.4358 103.303 91.5443 103.231C93.7687 103.429 96.0836 103.447 98.308 103.411C100.894 103.375 102.685 101.812 103.064 99.2417C103.227 98.0555 103.173 96.8335 103.987 95.845C104.565 95.1441 105.18 94.4972 105.687 93.7423C106.591 92.3945 106.699 90.9927 105.813 89.9324C106.989 89.1236 107.423 87.7039 106.591 86.1403C106.175 85.3496 105.542 84.7565 104.891 84.1814C104.366 83.7142 104.168 83.3188 104.222 82.7257C104.312 82.6898 104.421 82.6718 104.547 82.6359C104.927 82.546 105.361 82.4921 105.777 82.4202C106.79 82.2764 107.821 82.1327 108.797 81.8092C109.629 81.5396 110.515 81.0184 110.841 80.1558C111.275 79.0595 110.75 77.9453 110.117 77.0108ZM58.666 112.073C58.9915 112.037 59.2266 111.894 59.3713 111.696C59.3351 111.858 59.1542 112.037 58.666 112.073ZM108.942 79.5268C108.653 79.8683 107.821 80.0839 107.278 80.2097C105.849 80.4973 104.005 80.4074 102.775 81.2521C102.54 81.4138 102.413 81.6295 102.377 81.8451C102.377 81.8631 102.359 81.8811 102.359 81.899C101.997 83.4446 102.449 84.6307 103.589 85.6911C104.439 86.4818 106.139 88.2969 103.987 88.6384C103.101 88.7822 102.92 89.7886 103.318 90.3098C103.39 90.5254 103.535 90.7231 103.806 90.8669C104.385 91.1544 104.638 91.424 104.385 92.053C104.113 92.7 103.625 93.2391 103.191 93.7603C102.739 94.2815 102.305 94.7847 101.925 95.3598C101.31 96.3123 101.256 97.5344 101.147 98.6127C101.057 99.6011 100.804 100.518 99.9357 101.093C99.2484 101.542 98.1995 101.47 97.4219 101.452C95.3059 101.416 93.1538 101.452 91.056 101.219C90.7485 101.183 90.4954 101.272 90.3145 101.416C89.1209 101.524 87.9996 101.848 86.9688 102.477C85.7752 103.195 85.3231 104.633 85.0518 105.909C84.8348 106.987 84.672 108.299 84.871 109.396C84.9614 109.971 85.1422 110.528 85.305 111.085C85.3773 111.337 85.4497 111.606 85.522 111.858C85.5401 111.912 85.5401 112.002 85.5401 112.055C85.4497 112.109 85.3592 112.199 85.2869 112.325C84.0933 114.086 82.0316 114.661 80.0242 114.913C77.6008 115.218 75.1232 115.039 72.6817 114.877C70.2765 114.715 67.835 114.787 65.4478 114.41C63.9287 114.176 62.4819 113.745 61.1255 113.044C60.6734 112.81 60.3659 112.505 60.0223 112.127C59.8596 111.966 59.7149 111.786 59.5883 111.606C59.5702 111.57 59.534 111.534 59.5159 111.516C59.6968 111.085 59.5702 110.492 59.1723 110.24C60.0223 105.658 58.3404 100.985 56.1702 96.9772C54.8681 94.5511 53.3309 92.2327 51.9384 89.8605C50.4735 87.3804 49.0267 84.8644 47.6161 82.3483C45.1385 77.9093 42.4257 73.3805 41.4491 68.3305C40.4726 63.3523 41.413 58.0327 42.914 53.2523C43.8906 50.1612 45.3916 47.088 47.4895 44.5899C49.4065 42.3076 51.9926 40.7081 54.2532 38.7851C61.8127 35.7659 70.1499 34.1664 78.27 35.4244C82.2848 36.0534 86.1007 37.4552 89.5188 39.6477C93.3166 42.0919 96.391 45.6682 98.7059 49.4962C99.6282 51.0238 100.352 52.6952 100.587 54.4743C100.605 54.6541 100.677 54.7978 100.749 54.9236C100.659 57.0263 100.858 59.147 100.424 61.2137C99.9899 63.2625 99.7548 65.7066 100.713 67.6475C101.599 69.4447 103.082 70.8106 104.366 72.3022C105.849 74.0095 107.007 75.9684 108.345 77.7835C108.363 77.8015 108.363 77.8015 108.381 77.8195C108.417 77.9273 108.454 78.0351 108.526 78.143C108.743 78.4485 108.996 78.79 109.069 79.1674C109.069 79.4369 109.032 79.401 108.942 79.5268Z" fill="#010101"/>
<path d="M91.4775 45.1664C88.8575 42.2894 85.2573 40.4361 81.4789 39.5006C79.2867 38.9535 76.9876 38.777 74.7597 38.4769C72.1041 38.1062 69.3951 37.8591 66.7216 38.0886C64.2443 38.3004 62.0343 39.3947 59.8955 40.5596C57.8459 41.6716 55.725 42.5894 53.6754 43.6484C52.1248 44.4604 50.8237 45.5547 49.8613 47.002C48.6672 48.767 48.2394 51.0263 47.883 53.0737C47.4731 55.4389 47.1879 57.8216 46.2255 60.0456C46.0472 60.4692 46.172 60.8575 46.4215 61.1046C45.7442 62.4813 44.8175 63.7698 45.0313 65.376C45.2809 67.1763 46.8849 68.7825 47.8295 70.2651C48.5246 71.3418 49.0236 72.4891 49.5583 73.6187C49.3088 74.0952 49.6653 74.7483 50.2178 74.9425C50.8059 76.0544 51.7505 76.8663 52.9446 77.3252C54.1388 77.7842 56.0993 78.4019 57.2756 77.643C58.3628 76.9369 58.3628 75.5955 58.541 74.4659C58.7014 73.5304 59.8421 72.4891 60.3233 71.6065C60.7332 70.8652 60.858 70.0533 60.555 69.4003C61.5352 69.1708 62.4976 68.8001 63.4601 68.3765C64.476 67.9353 65.4919 67.4764 66.5612 67.1234C67.8445 66.6998 69.2168 66.6645 70.5535 66.7174C73.1557 66.8233 75.74 67.3528 78.3243 66.8057C80.9264 66.2585 83.2968 64.8641 85.6672 63.7169C87.699 62.7461 89.9982 62.2342 91.7805 60.8046C93.3132 59.569 94.3113 57.8569 94.7569 55.9684C95.6302 52.1206 94.0618 47.9904 91.4775 45.1664ZM92.9568 54.6093C92.9568 54.6799 92.9389 54.7505 92.9389 54.8034C92.7964 54.7505 92.636 54.7152 92.4577 54.7328C92.0834 54.7681 91.7092 54.9446 91.3705 55.0858C90.9071 55.28 90.4438 55.5095 90.0338 55.7742C88.9645 56.4626 90.0695 58.0687 91.1388 57.3804C91.4953 57.1509 91.6379 57.098 92.03 56.9215C92.1547 56.8685 92.2973 56.8156 92.4221 56.7626C92.03 57.6804 91.4418 58.51 90.6576 59.1631C90.3725 59.3925 90.0873 59.6043 89.7665 59.7985C89.7487 59.7455 89.7308 59.6749 89.713 59.622C89.5704 58.9866 89.0001 58.863 88.5189 59.0572C87.1822 58.3512 85.8455 57.6275 84.2593 57.7334C82.9938 57.8216 83.1542 59.7455 84.4018 59.6749C85.5603 59.6043 86.594 60.1868 87.5921 60.7516C86.6119 61.1223 85.6494 61.5459 84.7048 61.9871C82.6196 62.9932 80.5343 64.1758 78.2708 64.7759C78.6807 64.5111 79.1441 64.2993 79.5897 64.0699C80.4095 63.6463 81.0512 63.0991 81.5502 62.3225C82.477 60.8575 82.3879 58.5453 81.9601 56.9215C81.5502 55.3506 80.2669 53.7974 78.449 54.2386C76.9163 54.6093 76.1142 56.4802 76.9341 57.8216C77.5935 58.8983 79.2154 57.804 78.556 56.7273C78.449 56.5508 78.6985 56.2508 78.8233 56.1625C79.1085 55.9507 79.4828 56.2331 79.6432 56.4449C80.3026 57.2745 80.267 58.6336 80.267 59.622C80.267 60.7516 79.857 61.6341 78.8946 62.2342C77.9322 62.8343 76.9163 63.1873 76.1321 64.0346C75.8113 64.3876 75.8113 64.7935 76.0073 65.0936C74.1537 65.1642 72.2289 64.8112 70.411 64.7229C67.9514 64.5994 65.8127 65.1818 63.567 66.1526C62.8898 66.4526 62.2303 66.7527 61.553 66.9998C61.0362 65.4819 58.1845 66.7351 57.6499 65.0583C57.2756 63.8581 55.422 64.5111 55.7963 65.6937C56.1171 66.6998 56.9013 67.3175 57.8281 67.6705C57.632 67.6529 57.4538 67.6352 57.2578 67.5999C56.0102 67.3881 55.6359 69.2944 56.8835 69.5062C57.3825 69.5944 57.8459 69.6297 58.3271 69.6121C58.3984 69.8062 58.541 69.9827 58.7727 70.1239C58.7727 70.1239 58.7727 70.1239 58.7905 70.1239C58.7727 70.2122 58.737 70.3004 58.7192 70.371C58.541 70.8123 58.2737 71.2006 58.0063 71.5712C57.4716 72.3302 56.7944 73.0892 56.6161 74.0246C56.527 74.5012 56.6518 75.9132 56.0102 75.9662C55.119 76.0544 53.6932 75.6308 52.9446 75.119C52.6238 74.9072 52.3743 74.6247 52.1604 74.3247C53.3902 73.8834 54.6913 73.5834 55.6715 72.7009C56.6161 71.8713 55.1368 70.6005 54.1922 71.4124C53.7288 71.8183 52.909 71.9949 52.3387 72.189C51.9822 72.3126 51.6258 72.4361 51.2693 72.5773C50.9663 71.8889 50.6277 71.2182 50.2891 70.5475C50.4138 70.5299 50.5386 70.4593 50.6812 70.371C51.7327 69.6121 53.2476 69.4709 54.4774 69.2944C55.725 69.1178 55.5824 67.1763 54.3348 67.3528C52.7486 67.5823 50.9128 67.7941 49.5761 68.7472C49.487 68.8001 49.4157 68.8707 49.3623 68.9413C48.5602 67.7235 47.4196 66.5056 46.974 65.1289C46.7601 64.4405 47.1166 63.6463 47.5443 62.9049C47.6156 62.9049 47.6869 62.9049 47.776 62.8873C49.2197 62.5696 50.6812 62.4284 52.1604 62.4107C53.4259 62.3931 53.2655 60.4692 52.0179 60.4692C50.7881 60.4868 49.5761 60.6104 48.382 60.8046C48.3285 60.6633 48.2573 60.5398 48.1503 60.4339C49.0593 58.157 49.3979 55.7389 49.8257 53.3385C49.8969 52.9502 49.9682 52.5442 50.0395 52.1559C50.093 53.2855 50.2891 54.3798 50.8772 55.4036C51.8753 57.1509 53.9427 57.7157 55.7963 57.3098C55.9567 57.2745 56.0993 57.2392 56.2597 57.1862C55.8676 57.8569 55.6359 58.5983 55.6002 59.3925C55.5468 60.6457 57.5073 60.4868 57.5607 59.2513C57.632 57.0803 60.8936 55.5624 62.7115 55.2094C64.6007 54.8387 66.383 55.2094 68.2544 55.4389C69.5733 55.5977 71.0526 55.3153 71.9437 56.4979C72.6032 57.3627 72.621 58.7748 72.2467 59.7632C71.9437 60.5751 70.5535 60.1868 69.8763 60.1868C69.4129 60.1868 69.0208 60.275 68.6465 60.4162C68.7356 59.4102 68.2366 58.5277 67.0781 58.1217C66.4721 57.9099 65.8483 57.804 65.2245 57.7157C65.0463 57.6804 64.8681 57.6628 64.7077 57.6275C64.3512 57.0274 63.3531 56.8156 62.9967 57.6451C62.3372 59.1631 64.0839 59.5161 65.1532 59.6749C65.7414 59.7632 66.2404 59.8514 66.6504 60.0632C66.686 60.0809 66.686 60.0809 66.7038 60.0809C66.7038 60.0809 66.7216 60.0985 66.7573 60.1338C66.7573 60.1515 66.7573 60.1691 66.7573 60.1868C66.7395 60.328 66.6682 60.4692 66.5791 60.6457C66.3474 61.087 66.49 61.4929 66.7751 61.74C66.5256 61.9518 66.2761 62.1813 66.0087 62.3754C65.5453 62.6931 65.5097 62.7108 65.2424 62.3048C64.5651 61.2458 62.9254 62.3401 63.6205 63.3991C64.5294 64.7935 65.9731 64.7935 67.2563 63.8934C67.8088 63.505 68.2722 62.9932 68.7891 62.5696C69.2703 62.1636 69.7872 62.1283 70.411 62.146C71.8546 62.1636 73.0844 62.1989 73.922 60.8222C74.8132 59.3749 74.5102 57.1862 73.7973 55.7566C73.0309 54.2386 71.3199 53.6385 69.698 53.6032C67.2742 53.5503 65.0107 52.8619 62.5689 53.2855C61.3748 53.4797 60.0381 53.9739 58.8796 54.6799C58.9866 54.2563 59.0044 53.7974 58.8975 53.3208C58.4519 51.2734 55.7072 51.0439 54.4239 52.35C54.1209 52.6678 54.1209 53.1796 54.3526 53.5326C54.3705 53.5503 54.3883 53.5856 54.4061 53.6032C54.6556 53.9739 55.119 54.0974 55.5468 53.9739C55.6537 53.9386 55.7428 53.9209 55.8498 53.9033C56.1884 53.8327 56.3666 53.6385 56.4557 53.4091C56.8657 53.4797 57.1508 54.0445 56.8835 54.521C56.4736 55.28 55.0834 55.633 54.2814 55.5624C51.9822 55.3506 51.9109 52.35 52.0179 50.6909C52.0713 49.9143 51.3228 49.473 50.7524 49.5613C51.0376 48.82 51.3762 48.114 51.8575 47.4786C52.909 46.0842 54.513 45.2546 56.0815 44.5486C56.9548 44.1603 57.8103 43.7367 58.6658 43.2778C58.6836 43.7896 59.04 44.2662 59.6817 44.2133C60.5728 44.125 61.5709 44.4604 61.4996 45.537C61.4639 46.0665 61.6956 46.5607 62.266 46.6666C62.7472 46.7549 63.371 46.4195 63.4066 45.9077C63.4779 44.831 63.2462 43.8779 62.4264 43.1189C61.9095 42.6424 61.2144 42.3776 60.5015 42.307C61.2144 41.9364 61.9095 41.5657 62.6402 41.2127C63.9235 40.5949 65.2245 40.2243 66.5434 40.0125C65.0641 41.1068 64.7077 43.6308 64.2799 45.3958C64.0126 46.5078 62.8719 47.2138 61.856 47.6374C61.3392 47.8492 60.3589 48.1316 59.7708 47.8492C59.9668 47.4962 59.949 47.0726 59.5212 46.7549C59.0935 46.4548 58.7727 46.3666 58.2558 46.3313C57.7568 46.3136 57.2578 46.8961 57.3469 47.3727C57.9885 50.5497 61.3213 50.1791 63.6205 48.8906C63.6918 49.1024 63.8522 49.2965 64.1195 49.4201C64.975 49.7908 65.7057 50.232 66.2761 50.8851C66.2583 51.4146 66.6147 51.9794 67.292 51.9794H67.6484C68.4326 51.9794 68.7356 51.0439 68.3792 50.4615C67.6128 49.1906 66.4365 48.3258 65.0998 47.7257C65.9374 46.8078 66.187 45.7135 66.4365 44.478C66.6147 43.6131 66.9533 41.248 68.2544 41.3716C69.199 41.4598 69.6446 40.4008 69.2703 39.8183C69.5376 39.8183 69.7872 39.8183 70.0545 39.836C72.2111 39.9066 74.3498 40.2419 76.4885 40.5596C76.3103 40.9832 76.3816 41.5304 76.9163 41.8128C79.1085 42.9777 78.8233 46.7196 76.8984 47.9728C75.633 48.8023 74.2607 47.9551 73.2626 47.1079C72.8349 46.7372 72.1398 46.1018 72.2289 45.4841C72.3358 44.6545 73.8329 45.3252 74.2963 45.4135C75.5261 45.6959 75.9004 43.7896 74.6706 43.5072C73.4587 43.2425 72.015 42.7306 71.0169 43.7896C70.0723 44.7957 70.1258 45.9959 70.7496 47.1432C71.8546 49.2259 74.5993 50.638 76.9163 50.0555C78.8946 49.5613 80.0531 47.5315 80.3204 45.6429C80.9977 45.8547 81.5502 46.6666 82.0492 47.0903C82.6017 47.5492 83.3503 47.7786 84.0988 47.8492C84.188 47.8669 84.2771 47.8845 84.384 47.8845H84.7583C86.0237 47.8845 85.8633 45.943 84.6157 45.943C83.6711 45.943 83.1008 45.4311 82.4592 44.7957C81.7997 44.1603 81.1759 43.719 80.3026 43.6484C80.1244 42.6071 79.661 41.6363 78.9302 40.895C82.5126 41.4775 85.8455 42.66 88.6793 45.0428C91.4775 47.5139 93.2954 50.9557 92.9568 54.6093Z" fill="black"/>
<path d="M89.6257 47.2703C89.042 46.7198 88.2759 47.0737 88.0205 47.7619C88.0205 47.7422 87.9475 47.8208 87.8381 47.9585C87.0902 48.7843 87.984 49.8854 88.8231 49.7084C89.0602 50.3769 89.0055 51.1438 88.8231 51.8516C88.5312 53.0117 87.5827 53.5622 86.543 53.7589C85.2296 53.9948 83.9528 53.5229 83.0955 52.4415C82.7671 52.0286 82.6577 51.4584 82.2746 51.0848C81.8186 50.6325 81.2714 50.4949 80.6694 50.5539C79.3743 50.6719 79.5385 52.8347 80.8153 52.7168C80.8701 52.7168 80.8883 52.7168 80.9248 52.7168C81.016 52.8544 81.089 53.0117 81.1437 53.169C81.3078 53.4836 81.4903 53.7589 81.7091 54.0341C82.2381 54.7223 82.9495 55.2335 83.7156 55.5678C85.3573 56.2756 87.1996 56.079 88.7684 55.2335C91.3586 53.7785 91.7599 49.2759 89.6257 47.2703ZM75.5437 52.8151L74.4493 52.2252C73.9568 51.9696 73.3548 52.1859 73.0994 52.7168C72.8623 53.2476 73.063 53.8965 73.5555 54.1718L74.6499 54.7616C75.1424 55.0172 75.7444 54.801 75.9997 54.2701C76.2369 53.7392 76.018 53.0903 75.5437 52.8151Z" fill="black"/>
</svg>
