<svg width="602" height="115" viewBox="0 0 602 115" fill="none" xmlns="http://www.w3.org/2000/svg">
<mask id="mask0" mask-type="alpha" maskUnits="userSpaceOnUse" x="33" y="10" width="537" height="95">
<circle cx="80.5" cy="57.5" r="47.5" fill="white"/>
<circle cx="301.5" cy="57.5" r="47.5" fill="white"/>
<circle cx="190.5" cy="57.5" r="47.5" fill="white"/>
<circle cx="411.5" cy="57.5" r="47.5" fill="white"/>
<circle cx="522.5" cy="57.5" r="47.5" fill="white"/>
</mask>
<g mask="url(#mask0)">
<rect x="-8" y="-21" width="620" height="156" fill="url(#paint0_linear)"/>
</g>
<g filter="url(#filter0_d)">
<path d="M135 59C135 88.8234 110.376 113 80 113C49.6243 113 25 88.8234 25 59" stroke="#DDF1F2" stroke-width="3"/>
</g>
<g filter="url(#filter1_d)">
<path d="M246 57C246 26.6243 221.152 2 190.5 2C159.848 2 135 26.6243 135 57" stroke="#DDF1F2" stroke-width="3"/>
</g>
<g filter="url(#filter2_d)">
<path d="M356 59C356 88.8234 331.376 113 301 113C270.624 113 246 88.8234 246 59" stroke="#DDF1F2" stroke-width="3"/>
</g>
<g filter="url(#filter3_d)">
<path d="M577 59C577 88.8234 552.376 113 522 113C491.624 113 467 88.8234 467 59" stroke="#DDF1F2" stroke-width="3"/>
</g>
<g filter="url(#filter4_d)">
<path d="M467 57C467 26.6243 442.152 2 411.5 2C380.848 2 356 26.6243 356 57" stroke="#DDF1F2" stroke-width="3"/>
</g>
<circle cx="80.5" cy="57.5" r="46" stroke="#ECC377" stroke-width="3"/>
<path d="M55.3648 42.5C55.8748 42.5 56.3598 42.655 56.8198 42.965C57.2798 43.265 57.6498 43.675 57.9298 44.195C58.2098 44.705 58.3498 45.265 58.3498 45.875C58.3498 46.475 58.2098 47.035 57.9298 47.555C57.6498 48.075 57.2798 48.49 56.8198 48.8C56.3598 49.1 55.8748 49.25 55.3648 49.25H52.7548V52.085C52.7548 52.355 52.6748 52.575 52.5148 52.745C52.3548 52.915 52.1448 53 51.8848 53C51.6348 53 51.4298 52.915 51.2698 52.745C51.1098 52.565 51.0298 52.345 51.0298 52.085V43.415C51.0298 43.155 51.1148 42.94 51.2848 42.77C51.4648 42.59 51.6848 42.5 51.9448 42.5H55.3648ZM55.3648 47.54C55.5548 47.54 55.7398 47.46 55.9198 47.3C56.1098 47.14 56.2598 46.935 56.3698 46.685C56.4898 46.425 56.5498 46.155 56.5498 45.875C56.5498 45.595 56.4898 45.33 56.3698 45.08C56.2598 44.82 56.1098 44.615 55.9198 44.465C55.7398 44.305 55.5548 44.225 55.3648 44.225H52.7548V47.54H55.3648ZM64.0879 44.825C64.3879 44.825 64.6379 44.91 64.8379 45.08C65.0479 45.25 65.1529 45.45 65.1529 45.68C65.1529 45.99 65.0729 46.225 64.9129 46.385C64.7529 46.535 64.5629 46.61 64.3429 46.61C64.1929 46.61 64.0229 46.575 63.8329 46.505C63.8029 46.495 63.7329 46.475 63.6229 46.445C63.5229 46.415 63.4129 46.4 63.2929 46.4C63.0329 46.4 62.7829 46.48 62.5429 46.64C62.3029 46.8 62.1029 47.045 61.9429 47.375C61.7929 47.695 61.7179 48.08 61.7179 48.53V52.085C61.7179 52.345 61.6329 52.565 61.4629 52.745C61.2929 52.915 61.0779 53 60.8179 53C60.5579 53 60.3429 52.915 60.1729 52.745C60.0029 52.565 59.9179 52.345 59.9179 52.085V45.89C59.9179 45.63 60.0029 45.415 60.1729 45.245C60.3429 45.065 60.5579 44.975 60.8179 44.975C61.0779 44.975 61.2929 45.065 61.4629 45.245C61.6329 45.415 61.7179 45.63 61.7179 45.89V46.085C61.9479 45.675 62.2779 45.365 62.7079 45.155C63.1379 44.935 63.5979 44.825 64.0879 44.825ZM73.7949 48.995C73.7949 49.795 73.6149 50.515 73.2549 51.155C72.8949 51.785 72.3999 52.275 71.7699 52.625C71.1499 52.975 70.4649 53.15 69.7149 53.15C68.9549 53.15 68.2649 52.975 67.6449 52.625C67.0249 52.275 66.5349 51.785 66.1749 51.155C65.8149 50.515 65.6349 49.795 65.6349 48.995C65.6349 48.195 65.8149 47.48 66.1749 46.85C66.5349 46.21 67.0249 45.715 67.6449 45.365C68.2649 45.005 68.9549 44.825 69.7149 44.825C70.4649 44.825 71.1499 45.005 71.7699 45.365C72.3999 45.715 72.8949 46.21 73.2549 46.85C73.6149 47.48 73.7949 48.195 73.7949 48.995ZM71.9949 48.995C71.9949 48.505 71.8899 48.07 71.6799 47.69C71.4799 47.3 71.2049 47 70.8549 46.79C70.5149 46.58 70.1349 46.475 69.7149 46.475C69.2949 46.475 68.9099 46.58 68.5599 46.79C68.2199 47 67.9449 47.3 67.7349 47.69C67.5349 48.07 67.4349 48.505 67.4349 48.995C67.4349 49.485 67.5349 49.92 67.7349 50.3C67.9449 50.68 68.2199 50.975 68.5599 51.185C68.9099 51.395 69.2949 51.5 69.7149 51.5C70.1349 51.5 70.5149 51.395 70.8549 51.185C71.2049 50.975 71.4799 50.68 71.6799 50.3C71.8899 49.92 71.9949 49.485 71.9949 48.995ZM79.4537 44.825C80.1437 44.825 80.7687 45.005 81.3287 45.365C81.8887 45.715 82.3287 46.205 82.6487 46.835C82.9787 47.465 83.1437 48.18 83.1437 48.98C83.1437 49.78 82.9837 50.5 82.6637 51.14C82.3437 51.77 81.9037 52.265 81.3437 52.625C80.7937 52.975 80.1837 53.15 79.5137 53.15C79.0337 53.15 78.5787 53.055 78.1487 52.865C77.7287 52.665 77.3787 52.425 77.0987 52.145V52.235C77.0987 52.495 77.0137 52.715 76.8437 52.895C76.6737 53.065 76.4587 53.15 76.1987 53.15C75.9387 53.15 75.7237 53.065 75.5537 52.895C75.3837 52.725 75.2987 52.505 75.2987 52.235V42.815C75.2987 42.555 75.3837 42.34 75.5537 42.17C75.7237 41.99 75.9387 41.9 76.1987 41.9C76.4587 41.9 76.6737 41.99 76.8437 42.17C77.0137 42.34 77.0987 42.555 77.0987 42.815V45.95C77.3387 45.65 77.6737 45.39 78.1037 45.17C78.5337 44.94 78.9837 44.825 79.4537 44.825ZM79.2287 51.5C79.8687 51.5 80.3937 51.26 80.8037 50.78C81.2137 50.3 81.4187 49.7 81.4187 48.98C81.4187 48.26 81.2137 47.665 80.8037 47.195C80.4037 46.715 79.8787 46.475 79.2287 46.475C78.5787 46.475 78.0487 46.715 77.6387 47.195C77.2287 47.665 77.0237 48.26 77.0237 48.98C77.0237 49.7 77.2287 50.3 77.6387 50.78C78.0487 51.26 78.5787 51.5 79.2287 51.5ZM86.5944 52.085C86.5944 52.345 86.5044 52.565 86.3244 52.745C86.1544 52.915 85.9394 53 85.6794 53C85.4294 53 85.2194 52.915 85.0494 52.745C84.8794 52.565 84.7944 52.345 84.7944 52.085V42.815C84.7944 42.555 84.8794 42.34 85.0494 42.17C85.2294 41.99 85.4494 41.9 85.7094 41.9C85.9594 41.9 86.1694 41.99 86.3394 42.17C86.5094 42.34 86.5944 42.555 86.5944 42.815V52.085ZM95.7409 48.8C95.7309 49.04 95.6359 49.235 95.4559 49.385C95.2759 49.535 95.0659 49.61 94.8259 49.61H89.8759C89.9959 50.2 90.2709 50.665 90.7009 51.005C91.1309 51.335 91.6159 51.5 92.1559 51.5C92.5659 51.5 92.8859 51.465 93.1159 51.395C93.3459 51.315 93.5259 51.235 93.6559 51.155C93.7959 51.065 93.8909 51.005 93.9409 50.975C94.1209 50.885 94.2909 50.84 94.4509 50.84C94.6609 50.84 94.8409 50.915 94.9909 51.065C95.1409 51.215 95.2159 51.39 95.2159 51.59C95.2159 51.86 95.0759 52.105 94.7959 52.325C94.5159 52.555 94.1409 52.75 93.6709 52.91C93.2009 53.07 92.7259 53.15 92.2459 53.15C91.4059 53.15 90.6709 52.975 90.0409 52.625C89.4209 52.275 88.9409 51.795 88.6009 51.185C88.2609 50.565 88.0909 49.87 88.0909 49.1C88.0909 48.24 88.2709 47.485 88.6309 46.835C88.9909 46.185 89.4659 45.69 90.0559 45.35C90.6459 45 91.2759 44.825 91.9459 44.825C92.6059 44.825 93.2259 45.005 93.8059 45.365C94.3959 45.725 94.8659 46.21 95.2159 46.82C95.5659 47.43 95.7409 48.09 95.7409 48.8ZM91.9459 46.475C90.7859 46.475 90.1009 47.02 89.8909 48.11H93.8209V48.005C93.7809 47.585 93.5759 47.225 93.2059 46.925C92.8359 46.625 92.4159 46.475 91.9459 46.475ZM106.497 44.825C107.487 44.825 108.172 45.13 108.552 45.74C108.932 46.34 109.122 47.175 109.122 48.245V52.085C109.122 52.345 109.037 52.565 108.867 52.745C108.697 52.915 108.482 53 108.222 53C107.962 53 107.747 52.915 107.577 52.745C107.407 52.565 107.322 52.345 107.322 52.085V48.245C107.322 47.695 107.212 47.265 106.992 46.955C106.782 46.635 106.407 46.475 105.867 46.475C105.307 46.475 104.867 46.645 104.547 46.985C104.237 47.315 104.082 47.735 104.082 48.245V52.085C104.082 52.345 103.997 52.565 103.827 52.745C103.657 52.915 103.442 53 103.182 53C102.922 53 102.707 52.915 102.537 52.745C102.367 52.565 102.282 52.345 102.282 52.085V48.245C102.282 47.695 102.172 47.265 101.952 46.955C101.742 46.635 101.367 46.475 100.827 46.475C100.267 46.475 99.8271 46.645 99.5071 46.985C99.1971 47.315 99.0421 47.735 99.0421 48.245V52.085C99.0421 52.345 98.9571 52.565 98.7871 52.745C98.6171 52.915 98.4021 53 98.1421 53C97.8821 53 97.6671 52.915 97.4971 52.745C97.3271 52.565 97.2421 52.345 97.2421 52.085V45.89C97.2421 45.63 97.3271 45.415 97.4971 45.245C97.6671 45.065 97.8821 44.975 98.1421 44.975C98.4021 44.975 98.6171 45.065 98.7871 45.245C98.9571 45.415 99.0421 45.63 99.0421 45.89V46.13C99.3121 45.77 99.6521 45.465 100.062 45.215C100.482 44.955 100.947 44.825 101.457 44.825C102.717 44.825 103.522 45.375 103.872 46.475C104.102 46.055 104.447 45.675 104.907 45.335C105.377 44.995 105.907 44.825 106.497 44.825ZM50.7983 61.5C51.7383 61.5 52.5433 61.735 53.2133 62.205C53.8933 62.665 54.4083 63.295 54.7583 64.095C55.1183 64.885 55.2983 65.77 55.2983 66.75C55.2983 67.73 55.1183 68.62 54.7583 69.42C54.4083 70.21 53.8933 70.84 53.2133 71.31C52.5433 71.77 51.7383 72 50.7983 72H47.2133C46.9533 72 46.7333 71.915 46.5533 71.745C46.3833 71.565 46.2983 71.345 46.2983 71.085V62.415C46.2983 62.155 46.3833 61.94 46.5533 61.77C46.7333 61.59 46.9533 61.5 47.2133 61.5H50.7983ZM50.6483 70.275C51.5483 70.275 52.2233 69.945 52.6733 69.285C53.1233 68.615 53.3483 67.77 53.3483 66.75C53.3483 65.73 53.1183 64.89 52.6583 64.23C52.2083 63.56 51.5383 63.225 50.6483 63.225H48.1733V70.275H50.6483ZM64.1882 67.8C64.1782 68.04 64.0832 68.235 63.9032 68.385C63.7232 68.535 63.5132 68.61 63.2732 68.61H58.3232C58.4432 69.2 58.7182 69.665 59.1482 70.005C59.5782 70.335 60.0632 70.5 60.6032 70.5C61.0132 70.5 61.3332 70.465 61.5632 70.395C61.7932 70.315 61.9732 70.235 62.1032 70.155C62.2432 70.065 62.3382 70.005 62.3882 69.975C62.5682 69.885 62.7382 69.84 62.8982 69.84C63.1082 69.84 63.2882 69.915 63.4382 70.065C63.5882 70.215 63.6632 70.39 63.6632 70.59C63.6632 70.86 63.5232 71.105 63.2432 71.325C62.9632 71.555 62.5882 71.75 62.1182 71.91C61.6482 72.07 61.1732 72.15 60.6932 72.15C59.8532 72.15 59.1182 71.975 58.4882 71.625C57.8682 71.275 57.3882 70.795 57.0482 70.185C56.7082 69.565 56.5382 68.87 56.5382 68.1C56.5382 67.24 56.7182 66.485 57.0782 65.835C57.4382 65.185 57.9132 64.69 58.5032 64.35C59.0932 64 59.7232 63.825 60.3932 63.825C61.0532 63.825 61.6732 64.005 62.2532 64.365C62.8432 64.725 63.3132 65.21 63.6632 65.82C64.0132 66.43 64.1882 67.09 64.1882 67.8ZM60.3932 65.475C59.2332 65.475 58.5482 66.02 58.3382 67.11H62.2682V67.005C62.2282 66.585 62.0232 66.225 61.6532 65.925C61.2832 65.625 60.8632 65.475 60.3932 65.475ZM69.5444 62.49C69.2044 62.49 68.9644 62.59 68.8244 62.79C68.6844 62.98 68.6144 63.19 68.6144 63.42V64.125H69.9794C70.2194 64.125 70.4194 64.205 70.5794 64.365C70.7394 64.515 70.8194 64.71 70.8194 64.95C70.8194 65.19 70.7394 65.39 70.5794 65.55C70.4194 65.7 70.2194 65.775 69.9794 65.775H68.6144V71.085C68.6144 71.345 68.5294 71.565 68.3594 71.745C68.1894 71.915 67.9744 72 67.7144 72C67.4544 72 67.2394 71.915 67.0694 71.745C66.8994 71.565 66.8144 71.345 66.8144 71.085V65.775H66.0044C65.7644 65.775 65.5644 65.7 65.4044 65.55C65.2444 65.39 65.1644 65.19 65.1644 64.95C65.1644 64.71 65.2444 64.515 65.4044 64.365C65.5644 64.205 65.7644 64.125 66.0044 64.125H66.8144V63.435C66.8144 62.685 67.0694 62.075 67.5794 61.605C68.0994 61.135 68.8444 60.9 69.8144 60.9C70.1844 60.9 70.5044 60.975 70.7744 61.125C71.0544 61.275 71.1944 61.505 71.1944 61.815C71.1944 62.055 71.1244 62.25 70.9844 62.4C70.8444 62.55 70.6744 62.625 70.4744 62.625C70.4244 62.625 70.3694 62.62 70.3094 62.61C70.2594 62.6 70.2044 62.59 70.1444 62.58C69.9044 62.52 69.7044 62.49 69.5444 62.49ZM73.6394 71.085C73.6394 71.345 73.5544 71.565 73.3844 71.745C73.2144 71.915 72.9994 72 72.7394 72C72.4794 72 72.2644 71.915 72.0944 71.745C71.9244 71.565 71.8394 71.345 71.8394 71.085V64.89C71.8394 64.63 71.9244 64.415 72.0944 64.245C72.2644 64.065 72.4794 63.975 72.7394 63.975C72.9994 63.975 73.2144 64.065 73.3844 64.245C73.5544 64.415 73.6394 64.63 73.6394 64.89V71.085ZM72.7244 63C72.3844 63 72.1444 62.945 72.0044 62.835C71.8644 62.725 71.7944 62.53 71.7944 62.25V61.965C71.7944 61.685 71.8694 61.49 72.0194 61.38C72.1694 61.27 72.4094 61.215 72.7394 61.215C73.0894 61.215 73.3344 61.27 73.4744 61.38C73.6144 61.49 73.6844 61.685 73.6844 61.965V62.25C73.6844 62.54 73.6094 62.74 73.4594 62.85C73.3194 62.95 73.0744 63 72.7244 63ZM79.7792 63.825C80.7992 63.825 81.5042 64.13 81.8942 64.74C82.2842 65.34 82.4792 66.175 82.4792 67.245V71.085C82.4792 71.345 82.3942 71.565 82.2242 71.745C82.0542 71.915 81.8392 72 81.5792 72C81.3192 72 81.1042 71.915 80.9342 71.745C80.7642 71.565 80.6792 71.345 80.6792 71.085V67.245C80.6792 66.695 80.5642 66.265 80.3342 65.955C80.1042 65.635 79.7092 65.475 79.1492 65.475C78.5692 65.475 78.1142 65.645 77.7842 65.985C77.4542 66.315 77.2892 66.735 77.2892 67.245V71.085C77.2892 71.345 77.2042 71.565 77.0342 71.745C76.8642 71.915 76.6492 72 76.3892 72C76.1292 72 75.9142 71.915 75.7442 71.745C75.5742 71.565 75.4892 71.345 75.4892 71.085V64.89C75.4892 64.63 75.5742 64.415 75.7442 64.245C75.9142 64.065 76.1292 63.975 76.3892 63.975C76.6492 63.975 76.8642 64.065 77.0342 64.245C77.2042 64.415 77.2892 64.63 77.2892 64.89V65.145C77.5592 64.785 77.9092 64.475 78.3392 64.215C78.7792 63.955 79.2592 63.825 79.7792 63.825ZM86.1197 71.085C86.1197 71.345 86.0347 71.565 85.8647 71.745C85.6947 71.915 85.4797 72 85.2197 72C84.9597 72 84.7447 71.915 84.5747 71.745C84.4047 71.565 84.3197 71.345 84.3197 71.085V64.89C84.3197 64.63 84.4047 64.415 84.5747 64.245C84.7447 64.065 84.9597 63.975 85.2197 63.975C85.4797 63.975 85.6947 64.065 85.8647 64.245C86.0347 64.415 86.1197 64.63 86.1197 64.89V71.085ZM85.2047 63C84.8647 63 84.6247 62.945 84.4847 62.835C84.3447 62.725 84.2747 62.53 84.2747 62.25V61.965C84.2747 61.685 84.3497 61.49 84.4997 61.38C84.6497 61.27 84.8897 61.215 85.2197 61.215C85.5697 61.215 85.8147 61.27 85.9547 61.38C86.0947 61.49 86.1647 61.685 86.1647 61.965V62.25C86.1647 62.54 86.0897 62.74 85.9397 62.85C85.7997 62.95 85.5547 63 85.2047 63ZM91.8396 70.305C91.9796 70.305 92.1046 70.375 92.2146 70.515C92.3346 70.645 92.3946 70.82 92.3946 71.04C92.3946 71.31 92.2446 71.54 91.9446 71.73C91.6546 71.91 91.3246 72 90.9546 72C90.3346 72 89.8096 71.87 89.3796 71.61C88.9596 71.34 88.7496 70.775 88.7496 69.915V65.775H88.0596C87.8196 65.775 87.6196 65.695 87.4596 65.535C87.2996 65.375 87.2196 65.175 87.2196 64.935C87.2196 64.705 87.2996 64.515 87.4596 64.365C87.6196 64.205 87.8196 64.125 88.0596 64.125H88.7496V63.165C88.7496 62.905 88.8346 62.69 89.0046 62.52C89.1846 62.34 89.4046 62.25 89.6646 62.25C89.9146 62.25 90.1246 62.34 90.2946 62.52C90.4646 62.69 90.5496 62.905 90.5496 63.165V64.125H91.6146C91.8546 64.125 92.0546 64.205 92.2146 64.365C92.3746 64.525 92.4546 64.725 92.4546 64.965C92.4546 65.195 92.3746 65.39 92.2146 65.55C92.0546 65.7 91.8546 65.775 91.6146 65.775H90.5496V69.84C90.5496 70.05 90.6046 70.205 90.7146 70.305C90.8246 70.395 90.9746 70.44 91.1646 70.44C91.2446 70.44 91.3546 70.42 91.4946 70.38C91.6146 70.33 91.7296 70.305 91.8396 70.305ZM95.8023 71.085C95.8023 71.345 95.7173 71.565 95.5473 71.745C95.3773 71.915 95.1623 72 94.9023 72C94.6423 72 94.4273 71.915 94.2573 71.745C94.0873 71.565 94.0023 71.345 94.0023 71.085V64.89C94.0023 64.63 94.0873 64.415 94.2573 64.245C94.4273 64.065 94.6423 63.975 94.9023 63.975C95.1623 63.975 95.3773 64.065 95.5473 64.245C95.7173 64.415 95.8023 64.63 95.8023 64.89V71.085ZM94.8873 63C94.5473 63 94.3073 62.945 94.1673 62.835C94.0273 62.725 93.9573 62.53 93.9573 62.25V61.965C93.9573 61.685 94.0323 61.49 94.1823 61.38C94.3323 61.27 94.5723 61.215 94.9023 61.215C95.2523 61.215 95.4973 61.27 95.6373 61.38C95.7773 61.49 95.8473 61.685 95.8473 61.965V62.25C95.8473 62.54 95.7723 62.74 95.6223 62.85C95.4823 62.95 95.2373 63 94.8873 63ZM105.362 67.995C105.362 68.795 105.182 69.515 104.822 70.155C104.462 70.785 103.967 71.275 103.337 71.625C102.717 71.975 102.032 72.15 101.282 72.15C100.522 72.15 99.8322 71.975 99.2122 71.625C98.5922 71.275 98.1022 70.785 97.7422 70.155C97.3822 69.515 97.2022 68.795 97.2022 67.995C97.2022 67.195 97.3822 66.48 97.7422 65.85C98.1022 65.21 98.5922 64.715 99.2122 64.365C99.8322 64.005 100.522 63.825 101.282 63.825C102.032 63.825 102.717 64.005 103.337 64.365C103.967 64.715 104.462 65.21 104.822 65.85C105.182 66.48 105.362 67.195 105.362 67.995ZM103.562 67.995C103.562 67.505 103.457 67.07 103.247 66.69C103.047 66.3 102.772 66 102.422 65.79C102.082 65.58 101.702 65.475 101.282 65.475C100.862 65.475 100.477 65.58 100.127 65.79C99.7872 66 99.5122 66.3 99.3022 66.69C99.1022 67.07 99.0022 67.505 99.0022 67.995C99.0022 68.485 99.1022 68.92 99.3022 69.3C99.5122 69.68 99.7872 69.975 100.127 70.185C100.477 70.395 100.862 70.5 101.282 70.5C101.702 70.5 102.082 70.395 102.422 70.185C102.772 69.975 103.047 69.68 103.247 69.3C103.457 68.92 103.562 68.485 103.562 67.995ZM111.156 63.825C112.176 63.825 112.881 64.13 113.271 64.74C113.661 65.34 113.856 66.175 113.856 67.245V71.085C113.856 71.345 113.771 71.565 113.601 71.745C113.431 71.915 113.216 72 112.956 72C112.696 72 112.481 71.915 112.311 71.745C112.141 71.565 112.056 71.345 112.056 71.085V67.245C112.056 66.695 111.941 66.265 111.711 65.955C111.481 65.635 111.086 65.475 110.526 65.475C109.946 65.475 109.491 65.645 109.161 65.985C108.831 66.315 108.666 66.735 108.666 67.245V71.085C108.666 71.345 108.581 71.565 108.411 71.745C108.241 71.915 108.026 72 107.766 72C107.506 72 107.291 71.915 107.121 71.745C106.951 71.565 106.866 71.345 106.866 71.085V64.89C106.866 64.63 106.951 64.415 107.121 64.245C107.291 64.065 107.506 63.975 107.766 63.975C108.026 63.975 108.241 64.065 108.411 64.245C108.581 64.415 108.666 64.63 108.666 64.89V65.145C108.936 64.785 109.286 64.475 109.716 64.215C110.156 63.955 110.636 63.825 111.156 63.825Z" fill="white"/>
<circle cx="301.5" cy="57.5" r="46" stroke="#89BA97" stroke-width="3"/>
<path d="M278.176 42.5C278.686 42.5 279.171 42.655 279.631 42.965C280.091 43.265 280.461 43.675 280.741 44.195C281.021 44.705 281.161 45.265 281.161 45.875C281.161 46.475 281.021 47.035 280.741 47.555C280.461 48.075 280.091 48.49 279.631 48.8C279.171 49.1 278.686 49.25 278.176 49.25H275.566V52.085C275.566 52.355 275.486 52.575 275.326 52.745C275.166 52.915 274.956 53 274.696 53C274.446 53 274.241 52.915 274.081 52.745C273.921 52.565 273.841 52.345 273.841 52.085V43.415C273.841 43.155 273.926 42.94 274.096 42.77C274.276 42.59 274.496 42.5 274.756 42.5H278.176ZM278.176 47.54C278.366 47.54 278.551 47.46 278.731 47.3C278.921 47.14 279.071 46.935 279.181 46.685C279.301 46.425 279.361 46.155 279.361 45.875C279.361 45.595 279.301 45.33 279.181 45.08C279.071 44.82 278.921 44.615 278.731 44.465C278.551 44.305 278.366 44.225 278.176 44.225H275.566V47.54H278.176ZM286.899 44.825C287.199 44.825 287.449 44.91 287.649 45.08C287.859 45.25 287.964 45.45 287.964 45.68C287.964 45.99 287.884 46.225 287.724 46.385C287.564 46.535 287.374 46.61 287.154 46.61C287.004 46.61 286.834 46.575 286.644 46.505C286.614 46.495 286.544 46.475 286.434 46.445C286.334 46.415 286.224 46.4 286.104 46.4C285.844 46.4 285.594 46.48 285.354 46.64C285.114 46.8 284.914 47.045 284.754 47.375C284.604 47.695 284.529 48.08 284.529 48.53V52.085C284.529 52.345 284.444 52.565 284.274 52.745C284.104 52.915 283.889 53 283.629 53C283.369 53 283.154 52.915 282.984 52.745C282.814 52.565 282.729 52.345 282.729 52.085V45.89C282.729 45.63 282.814 45.415 282.984 45.245C283.154 45.065 283.369 44.975 283.629 44.975C283.889 44.975 284.104 45.065 284.274 45.245C284.444 45.415 284.529 45.63 284.529 45.89V46.085C284.759 45.675 285.089 45.365 285.519 45.155C285.949 44.935 286.409 44.825 286.899 44.825ZM290.928 52.085C290.928 52.345 290.843 52.565 290.673 52.745C290.503 52.915 290.288 53 290.028 53C289.768 53 289.553 52.915 289.383 52.745C289.213 52.565 289.128 52.345 289.128 52.085V45.89C289.128 45.63 289.213 45.415 289.383 45.245C289.553 45.065 289.768 44.975 290.028 44.975C290.288 44.975 290.503 45.065 290.673 45.245C290.843 45.415 290.928 45.63 290.928 45.89V52.085ZM290.013 44C289.673 44 289.433 43.945 289.293 43.835C289.153 43.725 289.083 43.53 289.083 43.25V42.965C289.083 42.685 289.158 42.49 289.308 42.38C289.458 42.27 289.698 42.215 290.028 42.215C290.378 42.215 290.623 42.27 290.763 42.38C290.903 42.49 290.973 42.685 290.973 42.965V43.25C290.973 43.54 290.898 43.74 290.748 43.85C290.608 43.95 290.363 44 290.013 44ZM302.033 44.825C303.023 44.825 303.708 45.13 304.088 45.74C304.468 46.34 304.658 47.175 304.658 48.245V52.085C304.658 52.345 304.573 52.565 304.403 52.745C304.233 52.915 304.018 53 303.758 53C303.498 53 303.283 52.915 303.113 52.745C302.943 52.565 302.858 52.345 302.858 52.085V48.245C302.858 47.695 302.748 47.265 302.528 46.955C302.318 46.635 301.943 46.475 301.403 46.475C300.843 46.475 300.403 46.645 300.083 46.985C299.773 47.315 299.618 47.735 299.618 48.245V52.085C299.618 52.345 299.533 52.565 299.363 52.745C299.193 52.915 298.978 53 298.718 53C298.458 53 298.243 52.915 298.073 52.745C297.903 52.565 297.818 52.345 297.818 52.085V48.245C297.818 47.695 297.708 47.265 297.488 46.955C297.278 46.635 296.903 46.475 296.363 46.475C295.803 46.475 295.363 46.645 295.043 46.985C294.733 47.315 294.578 47.735 294.578 48.245V52.085C294.578 52.345 294.493 52.565 294.323 52.745C294.153 52.915 293.938 53 293.678 53C293.418 53 293.203 52.915 293.033 52.745C292.863 52.565 292.778 52.345 292.778 52.085V45.89C292.778 45.63 292.863 45.415 293.033 45.245C293.203 45.065 293.418 44.975 293.678 44.975C293.938 44.975 294.153 45.065 294.323 45.245C294.493 45.415 294.578 45.63 294.578 45.89V46.13C294.848 45.77 295.188 45.465 295.598 45.215C296.018 44.955 296.483 44.825 296.993 44.825C298.253 44.825 299.058 45.375 299.408 46.475C299.638 46.055 299.983 45.675 300.443 45.335C300.913 44.995 301.443 44.825 302.033 44.825ZM313.101 44.825C313.361 44.825 313.576 44.91 313.746 45.08C313.916 45.25 314.001 45.47 314.001 45.74V52.085C314.001 52.345 313.916 52.565 313.746 52.745C313.576 52.915 313.361 53 313.101 53C312.841 53 312.626 52.915 312.456 52.745C312.296 52.575 312.211 52.36 312.201 52.1C311.951 52.39 311.611 52.64 311.181 52.85C310.761 53.05 310.316 53.15 309.846 53.15C309.156 53.15 308.531 52.975 307.971 52.625C307.411 52.265 306.966 51.77 306.636 51.14C306.316 50.51 306.156 49.795 306.156 48.995C306.156 48.195 306.316 47.48 306.636 46.85C306.956 46.21 307.391 45.715 307.941 45.365C308.501 45.005 309.116 44.825 309.786 44.825C310.266 44.825 310.716 44.915 311.136 45.095C311.556 45.265 311.911 45.485 312.201 45.755V45.74C312.201 45.48 312.286 45.265 312.456 45.095C312.626 44.915 312.841 44.825 313.101 44.825ZM310.071 51.5C310.721 51.5 311.251 51.265 311.661 50.795C312.071 50.315 312.276 49.715 312.276 48.995C312.276 48.275 312.071 47.675 311.661 47.195C311.251 46.715 310.721 46.475 310.071 46.475C309.431 46.475 308.906 46.715 308.496 47.195C308.086 47.675 307.881 48.275 307.881 48.995C307.881 49.715 308.081 50.315 308.481 50.795C308.891 51.265 309.421 51.5 310.071 51.5ZM320.122 44.825C320.422 44.825 320.672 44.91 320.872 45.08C321.082 45.25 321.187 45.45 321.187 45.68C321.187 45.99 321.107 46.225 320.947 46.385C320.787 46.535 320.597 46.61 320.377 46.61C320.227 46.61 320.057 46.575 319.867 46.505C319.837 46.495 319.767 46.475 319.657 46.445C319.557 46.415 319.447 46.4 319.327 46.4C319.067 46.4 318.817 46.48 318.577 46.64C318.337 46.8 318.137 47.045 317.977 47.375C317.827 47.695 317.752 48.08 317.752 48.53V52.085C317.752 52.345 317.667 52.565 317.497 52.745C317.327 52.915 317.112 53 316.852 53C316.592 53 316.377 52.915 316.207 52.745C316.037 52.565 315.952 52.345 315.952 52.085V45.89C315.952 45.63 316.037 45.415 316.207 45.245C316.377 45.065 316.592 44.975 316.852 44.975C317.112 44.975 317.327 45.065 317.497 45.245C317.667 45.415 317.752 45.63 317.752 45.89V46.085C317.982 45.675 318.312 45.365 318.742 45.155C319.172 44.935 319.632 44.825 320.122 44.825ZM328.41 44.975C328.67 44.975 328.885 45.065 329.055 45.245C329.225 45.415 329.31 45.63 329.31 45.89V52.265C329.31 53.565 328.96 54.51 328.26 55.1C327.56 55.7 326.625 56 325.455 56C325.115 56 324.765 55.97 324.405 55.91C324.055 55.86 323.77 55.79 323.55 55.7C323.06 55.49 322.815 55.2 322.815 54.83C322.815 54.76 322.83 54.68 322.86 54.59C322.92 54.37 323.02 54.2 323.16 54.08C323.31 53.97 323.47 53.915 323.64 53.915C323.74 53.915 323.835 53.93 323.925 53.96C323.995 53.99 324.115 54.04 324.285 54.11C324.465 54.18 324.65 54.235 324.84 54.275C325.04 54.325 325.245 54.35 325.455 54.35C326.165 54.35 326.685 54.195 327.015 53.885C327.355 53.585 327.525 53.065 327.525 52.325V52.175C327.005 52.825 326.195 53.15 325.095 53.15C324.575 53.15 324.115 53.03 323.715 52.79C323.315 52.54 323.005 52.2 322.785 51.77C322.565 51.33 322.455 50.83 322.455 50.27V45.89C322.455 45.63 322.54 45.415 322.71 45.245C322.88 45.065 323.095 44.975 323.355 44.975C323.615 44.975 323.83 45.065 324 45.245C324.17 45.415 324.255 45.63 324.255 45.89V49.73C324.255 50.36 324.39 50.815 324.66 51.095C324.94 51.365 325.345 51.5 325.875 51.5C326.395 51.5 326.795 51.35 327.075 51.05C327.365 50.74 327.51 50.3 327.51 49.73V45.89C327.51 45.63 327.595 45.415 327.765 45.245C327.935 45.065 328.15 44.975 328.41 44.975ZM277.388 70.53C277.518 70.61 277.618 70.715 277.688 70.845C277.768 70.975 277.808 71.11 277.808 71.25C277.808 71.43 277.748 71.595 277.628 71.745C277.478 71.925 277.248 72.015 276.938 72.015C276.698 72.015 276.478 71.96 276.278 71.85C275.558 71.44 275.198 70.605 275.198 69.345C275.198 68.985 275.078 68.7 274.838 68.49C274.608 68.28 274.273 68.175 273.833 68.175H271.028V71.085C271.028 71.355 270.953 71.575 270.803 71.745C270.663 71.915 270.473 72 270.233 72C269.943 72 269.688 71.915 269.468 71.745C269.258 71.565 269.153 71.345 269.153 71.085V62.415C269.153 62.155 269.238 61.94 269.408 61.77C269.588 61.59 269.808 61.5 270.068 61.5H274.388C274.908 61.5 275.398 61.64 275.858 61.92C276.318 62.2 276.683 62.585 276.953 63.075C277.233 63.565 277.373 64.115 277.373 64.725C277.373 65.225 277.238 65.715 276.968 66.195C276.698 66.665 276.348 67.04 275.918 67.32C276.548 67.76 276.893 68.35 276.953 69.09C276.983 69.25 276.998 69.405 276.998 69.555C277.038 69.865 277.078 70.09 277.118 70.23C277.158 70.36 277.248 70.46 277.388 70.53ZM274.313 66.63C274.493 66.63 274.668 66.545 274.838 66.375C275.008 66.205 275.148 65.98 275.258 65.7C275.368 65.41 275.423 65.1 275.423 64.77C275.423 64.49 275.368 64.235 275.258 64.005C275.148 63.765 275.008 63.575 274.838 63.435C274.668 63.295 274.493 63.225 274.313 63.225H271.028V66.63H274.313ZM286.428 67.8C286.418 68.04 286.323 68.235 286.143 68.385C285.963 68.535 285.753 68.61 285.513 68.61H280.563C280.683 69.2 280.958 69.665 281.388 70.005C281.818 70.335 282.303 70.5 282.843 70.5C283.253 70.5 283.573 70.465 283.803 70.395C284.033 70.315 284.213 70.235 284.343 70.155C284.483 70.065 284.578 70.005 284.628 69.975C284.808 69.885 284.978 69.84 285.138 69.84C285.348 69.84 285.528 69.915 285.678 70.065C285.828 70.215 285.903 70.39 285.903 70.59C285.903 70.86 285.763 71.105 285.483 71.325C285.203 71.555 284.828 71.75 284.358 71.91C283.888 72.07 283.413 72.15 282.933 72.15C282.093 72.15 281.358 71.975 280.728 71.625C280.108 71.275 279.628 70.795 279.288 70.185C278.948 69.565 278.778 68.87 278.778 68.1C278.778 67.24 278.958 66.485 279.318 65.835C279.678 65.185 280.153 64.69 280.743 64.35C281.333 64 281.963 63.825 282.633 63.825C283.293 63.825 283.913 64.005 284.493 64.365C285.083 64.725 285.553 65.21 285.903 65.82C286.253 66.43 286.428 67.09 286.428 67.8ZM282.633 65.475C281.473 65.475 280.788 66.02 280.578 67.11H284.508V67.005C284.468 66.585 284.263 66.225 283.893 65.925C283.523 65.625 283.103 65.475 282.633 65.475ZM287.464 70.755C287.374 70.635 287.329 70.485 287.329 70.305C287.329 70.045 287.459 69.825 287.719 69.645C287.859 69.555 288.004 69.51 288.154 69.51C288.364 69.51 288.564 69.605 288.754 69.795C289.054 70.105 289.364 70.335 289.684 70.485C290.014 70.635 290.409 70.71 290.869 70.71C291.649 70.68 292.039 70.385 292.039 69.825C292.039 69.535 291.904 69.315 291.634 69.165C291.374 69.015 290.964 68.865 290.404 68.715C289.824 68.555 289.349 68.395 288.979 68.235C288.619 68.075 288.304 67.835 288.034 67.515C287.774 67.185 287.644 66.745 287.644 66.195C287.644 65.715 287.779 65.3 288.049 64.95C288.329 64.59 288.689 64.315 289.129 64.125C289.579 63.925 290.054 63.825 290.554 63.825C291.064 63.825 291.574 63.92 292.084 64.11C292.594 64.3 292.994 64.58 293.284 64.95C293.414 65.11 293.479 65.29 293.479 65.49C293.479 65.72 293.384 65.91 293.194 66.06C293.054 66.17 292.894 66.225 292.714 66.225C292.494 66.225 292.314 66.155 292.174 66.015C291.994 65.795 291.759 65.62 291.469 65.49C291.189 65.36 290.869 65.295 290.509 65.295C289.749 65.295 289.369 65.57 289.369 66.12C289.369 66.34 289.439 66.52 289.579 66.66C289.719 66.79 289.894 66.895 290.104 66.975C290.324 67.045 290.629 67.135 291.019 67.245C291.559 67.395 292.009 67.55 292.369 67.71C292.729 67.87 293.034 68.115 293.284 68.445C293.534 68.775 293.659 69.21 293.659 69.75C293.659 70.24 293.514 70.67 293.224 71.04C292.934 71.4 292.559 71.675 292.099 71.865C291.649 72.055 291.184 72.15 290.704 72.15C290.044 72.15 289.429 72.04 288.859 71.82C288.289 71.6 287.824 71.245 287.464 70.755ZM302.365 67.8C302.355 68.04 302.26 68.235 302.08 68.385C301.9 68.535 301.69 68.61 301.45 68.61H296.5C296.62 69.2 296.895 69.665 297.325 70.005C297.755 70.335 298.24 70.5 298.78 70.5C299.19 70.5 299.51 70.465 299.74 70.395C299.97 70.315 300.15 70.235 300.28 70.155C300.42 70.065 300.515 70.005 300.565 69.975C300.745 69.885 300.915 69.84 301.075 69.84C301.285 69.84 301.465 69.915 301.615 70.065C301.765 70.215 301.84 70.39 301.84 70.59C301.84 70.86 301.7 71.105 301.42 71.325C301.14 71.555 300.765 71.75 300.295 71.91C299.825 72.07 299.35 72.15 298.87 72.15C298.03 72.15 297.295 71.975 296.665 71.625C296.045 71.275 295.565 70.795 295.225 70.185C294.885 69.565 294.715 68.87 294.715 68.1C294.715 67.24 294.895 66.485 295.255 65.835C295.615 65.185 296.09 64.69 296.68 64.35C297.27 64 297.9 63.825 298.57 63.825C299.23 63.825 299.85 64.005 300.43 64.365C301.02 64.725 301.49 65.21 301.84 65.82C302.19 66.43 302.365 67.09 302.365 67.8ZM298.57 65.475C297.41 65.475 296.725 66.02 296.515 67.11H300.445V67.005C300.405 66.585 300.2 66.225 299.83 65.925C299.46 65.625 299.04 65.475 298.57 65.475ZM310.42 63.825C310.68 63.825 310.895 63.91 311.065 64.08C311.235 64.25 311.32 64.47 311.32 64.74V71.085C311.32 71.345 311.235 71.565 311.065 71.745C310.895 71.915 310.68 72 310.42 72C310.16 72 309.945 71.915 309.775 71.745C309.615 71.575 309.53 71.36 309.52 71.1C309.27 71.39 308.93 71.64 308.5 71.85C308.08 72.05 307.635 72.15 307.165 72.15C306.475 72.15 305.85 71.975 305.29 71.625C304.73 71.265 304.285 70.77 303.955 70.14C303.635 69.51 303.475 68.795 303.475 67.995C303.475 67.195 303.635 66.48 303.955 65.85C304.275 65.21 304.71 64.715 305.26 64.365C305.82 64.005 306.435 63.825 307.105 63.825C307.585 63.825 308.035 63.915 308.455 64.095C308.875 64.265 309.23 64.485 309.52 64.755V64.74C309.52 64.48 309.605 64.265 309.775 64.095C309.945 63.915 310.16 63.825 310.42 63.825ZM307.39 70.5C308.04 70.5 308.57 70.265 308.98 69.795C309.39 69.315 309.595 68.715 309.595 67.995C309.595 67.275 309.39 66.675 308.98 66.195C308.57 65.715 308.04 65.475 307.39 65.475C306.75 65.475 306.225 65.715 305.815 66.195C305.405 66.675 305.2 67.275 305.2 67.995C305.2 68.715 305.4 69.315 305.8 69.795C306.21 70.265 306.74 70.5 307.39 70.5ZM317.441 63.825C317.741 63.825 317.991 63.91 318.191 64.08C318.401 64.25 318.506 64.45 318.506 64.68C318.506 64.99 318.426 65.225 318.266 65.385C318.106 65.535 317.916 65.61 317.696 65.61C317.546 65.61 317.376 65.575 317.186 65.505C317.156 65.495 317.086 65.475 316.976 65.445C316.876 65.415 316.766 65.4 316.646 65.4C316.386 65.4 316.136 65.48 315.896 65.64C315.656 65.8 315.456 66.045 315.296 66.375C315.146 66.695 315.071 67.08 315.071 67.53V71.085C315.071 71.345 314.986 71.565 314.816 71.745C314.646 71.915 314.431 72 314.171 72C313.911 72 313.696 71.915 313.526 71.745C313.356 71.565 313.271 71.345 313.271 71.085V64.89C313.271 64.63 313.356 64.415 313.526 64.245C313.696 64.065 313.911 63.975 314.171 63.975C314.431 63.975 314.646 64.065 314.816 64.245C314.986 64.415 315.071 64.63 315.071 64.89V65.085C315.301 64.675 315.631 64.365 316.061 64.155C316.491 63.935 316.951 63.825 317.441 63.825ZM322.933 63.825C323.783 63.825 324.468 63.96 324.988 64.23C325.508 64.49 325.768 64.84 325.768 65.28C325.768 65.5 325.703 65.695 325.573 65.865C325.443 66.025 325.273 66.105 325.063 66.105C324.903 66.105 324.773 66.085 324.673 66.045C324.573 65.995 324.473 65.935 324.373 65.865C324.283 65.785 324.193 65.72 324.103 65.67C324.003 65.62 323.853 65.575 323.653 65.535C323.463 65.495 323.308 65.475 323.188 65.475C322.438 65.475 321.848 65.71 321.418 66.18C320.998 66.64 320.788 67.245 320.788 67.995C320.788 68.715 321.003 69.315 321.433 69.795C321.863 70.265 322.413 70.5 323.083 70.5C323.573 70.5 323.938 70.44 324.178 70.32C324.238 70.29 324.318 70.24 324.418 70.17C324.528 70.09 324.628 70.03 324.718 69.99C324.808 69.95 324.918 69.93 325.048 69.93C325.298 69.93 325.493 70.01 325.633 70.17C325.783 70.33 325.858 70.535 325.858 70.785C325.858 71.025 325.718 71.25 325.438 71.46C325.158 71.67 324.788 71.84 324.328 71.97C323.868 72.09 323.378 72.15 322.858 72.15C322.088 72.15 321.408 71.97 320.818 71.61C320.238 71.25 319.788 70.755 319.468 70.125C319.148 69.485 318.988 68.775 318.988 67.995C318.988 67.185 319.153 66.465 319.483 65.835C319.823 65.205 320.293 64.715 320.893 64.365C321.493 64.005 322.173 63.825 322.933 63.825ZM331.373 63.825C332.363 63.825 333.048 64.13 333.428 64.74C333.808 65.34 333.998 66.175 333.998 67.245V71.085C333.998 71.345 333.913 71.565 333.743 71.745C333.573 71.915 333.358 72 333.098 72C332.838 72 332.623 71.915 332.453 71.745C332.283 71.565 332.198 71.345 332.198 71.085V67.245C332.198 66.695 332.088 66.265 331.868 65.955C331.658 65.635 331.283 65.475 330.743 65.475C330.183 65.475 329.743 65.645 329.423 65.985C329.113 66.315 328.958 66.735 328.958 67.245V71.085C328.958 71.345 328.873 71.565 328.703 71.745C328.533 71.915 328.318 72 328.058 72C327.798 72 327.583 71.915 327.413 71.745C327.243 71.565 327.158 71.345 327.158 71.085V61.815C327.158 61.555 327.243 61.34 327.413 61.17C327.583 60.99 327.798 60.9 328.058 60.9C328.318 60.9 328.533 60.99 328.703 61.17C328.873 61.34 328.958 61.555 328.958 61.815V65.13C329.228 64.77 329.568 64.465 329.978 64.215C330.398 63.955 330.863 63.825 331.373 63.825Z" fill="white"/>
<circle cx="190.5" cy="57.5" r="46" stroke="#A1CF93" stroke-width="3"/>
<path d="M156.74 54.15C156.02 54.15 155.38 54.06 154.82 53.88C154.26 53.7 153.735 53.395 153.245 52.965C152.975 52.725 152.84 52.46 152.84 52.17C152.84 51.94 152.925 51.74 153.095 51.57C153.265 51.39 153.47 51.3 153.71 51.3C153.9 51.3 154.07 51.36 154.22 51.48C154.62 51.81 155.01 52.05 155.39 52.2C155.77 52.35 156.22 52.425 156.74 52.425C157.3 52.425 157.78 52.3 158.18 52.05C158.59 51.8 158.795 51.49 158.795 51.12C158.795 50.67 158.595 50.32 158.195 50.07C157.795 49.81 157.16 49.615 156.29 49.485C154.1 49.165 153.005 48.145 153.005 46.425C153.005 45.795 153.17 45.25 153.5 44.79C153.83 44.32 154.28 43.965 154.85 43.725C155.42 43.475 156.055 43.35 156.755 43.35C157.385 43.35 157.975 43.445 158.525 43.635C159.085 43.825 159.55 44.075 159.92 44.385C160.21 44.615 160.355 44.88 160.355 45.18C160.355 45.41 160.27 45.615 160.1 45.795C159.93 45.965 159.73 46.05 159.5 46.05C159.35 46.05 159.215 46.005 159.095 45.915C158.835 45.705 158.47 45.515 158 45.345C157.54 45.165 157.125 45.075 156.755 45.075C156.125 45.075 155.635 45.195 155.285 45.435C154.945 45.665 154.775 45.97 154.775 46.35C154.775 46.78 154.95 47.105 155.3 47.325C155.66 47.545 156.22 47.725 156.98 47.865C157.84 48.015 158.525 48.21 159.035 48.45C159.555 48.68 159.945 49 160.205 49.41C160.465 49.81 160.595 50.345 160.595 51.015C160.595 51.645 160.415 52.2 160.055 52.68C159.705 53.15 159.235 53.515 158.645 53.775C158.055 54.025 157.42 54.15 156.74 54.15ZM169.365 49.8C169.355 50.04 169.26 50.235 169.08 50.385C168.9 50.535 168.69 50.61 168.45 50.61H163.5C163.62 51.2 163.895 51.665 164.325 52.005C164.755 52.335 165.24 52.5 165.78 52.5C166.19 52.5 166.51 52.465 166.74 52.395C166.97 52.315 167.15 52.235 167.28 52.155C167.42 52.065 167.515 52.005 167.565 51.975C167.745 51.885 167.915 51.84 168.075 51.84C168.285 51.84 168.465 51.915 168.615 52.065C168.765 52.215 168.84 52.39 168.84 52.59C168.84 52.86 168.7 53.105 168.42 53.325C168.14 53.555 167.765 53.75 167.295 53.91C166.825 54.07 166.35 54.15 165.87 54.15C165.03 54.15 164.295 53.975 163.665 53.625C163.045 53.275 162.565 52.795 162.225 52.185C161.885 51.565 161.715 50.87 161.715 50.1C161.715 49.24 161.895 48.485 162.255 47.835C162.615 47.185 163.09 46.69 163.68 46.35C164.27 46 164.9 45.825 165.57 45.825C166.23 45.825 166.85 46.005 167.43 46.365C168.02 46.725 168.49 47.21 168.84 47.82C169.19 48.43 169.365 49.09 169.365 49.8ZM165.57 47.475C164.41 47.475 163.725 48.02 163.515 49.11H167.445V49.005C167.405 48.585 167.2 48.225 166.83 47.925C166.46 47.625 166.04 47.475 165.57 47.475ZM174.362 45.825C175.212 45.825 175.897 45.96 176.417 46.23C176.937 46.49 177.197 46.84 177.197 47.28C177.197 47.5 177.132 47.695 177.002 47.865C176.872 48.025 176.702 48.105 176.492 48.105C176.332 48.105 176.202 48.085 176.102 48.045C176.002 47.995 175.902 47.935 175.802 47.865C175.712 47.785 175.622 47.72 175.532 47.67C175.432 47.62 175.282 47.575 175.082 47.535C174.892 47.495 174.737 47.475 174.617 47.475C173.867 47.475 173.277 47.71 172.847 48.18C172.427 48.64 172.217 49.245 172.217 49.995C172.217 50.715 172.432 51.315 172.862 51.795C173.292 52.265 173.842 52.5 174.512 52.5C175.002 52.5 175.367 52.44 175.607 52.32C175.667 52.29 175.747 52.24 175.847 52.17C175.957 52.09 176.057 52.03 176.147 51.99C176.237 51.95 176.347 51.93 176.477 51.93C176.727 51.93 176.922 52.01 177.062 52.17C177.212 52.33 177.287 52.535 177.287 52.785C177.287 53.025 177.147 53.25 176.867 53.46C176.587 53.67 176.217 53.84 175.757 53.97C175.297 54.09 174.807 54.15 174.287 54.15C173.517 54.15 172.837 53.97 172.247 53.61C171.667 53.25 171.217 52.755 170.897 52.125C170.577 51.485 170.417 50.775 170.417 49.995C170.417 49.185 170.582 48.465 170.912 47.835C171.252 47.205 171.722 46.715 172.322 46.365C172.922 46.005 173.602 45.825 174.362 45.825ZM186.296 49.995C186.296 50.795 186.116 51.515 185.756 52.155C185.396 52.785 184.901 53.275 184.271 53.625C183.651 53.975 182.966 54.15 182.216 54.15C181.456 54.15 180.766 53.975 180.146 53.625C179.526 53.275 179.036 52.785 178.676 52.155C178.316 51.515 178.136 50.795 178.136 49.995C178.136 49.195 178.316 48.48 178.676 47.85C179.036 47.21 179.526 46.715 180.146 46.365C180.766 46.005 181.456 45.825 182.216 45.825C182.966 45.825 183.651 46.005 184.271 46.365C184.901 46.715 185.396 47.21 185.756 47.85C186.116 48.48 186.296 49.195 186.296 49.995ZM184.496 49.995C184.496 49.505 184.391 49.07 184.181 48.69C183.981 48.3 183.706 48 183.356 47.79C183.016 47.58 182.636 47.475 182.216 47.475C181.796 47.475 181.411 47.58 181.061 47.79C180.721 48 180.446 48.3 180.236 48.69C180.036 49.07 179.936 49.505 179.936 49.995C179.936 50.485 180.036 50.92 180.236 51.3C180.446 51.68 180.721 51.975 181.061 52.185C181.411 52.395 181.796 52.5 182.216 52.5C182.636 52.5 183.016 52.395 183.356 52.185C183.706 51.975 183.981 51.68 184.181 51.3C184.391 50.92 184.496 50.485 184.496 49.995ZM192.09 45.825C193.11 45.825 193.815 46.13 194.205 46.74C194.595 47.34 194.79 48.175 194.79 49.245V53.085C194.79 53.345 194.705 53.565 194.535 53.745C194.365 53.915 194.15 54 193.89 54C193.63 54 193.415 53.915 193.245 53.745C193.075 53.565 192.99 53.345 192.99 53.085V49.245C192.99 48.695 192.875 48.265 192.645 47.955C192.415 47.635 192.02 47.475 191.46 47.475C190.88 47.475 190.425 47.645 190.095 47.985C189.765 48.315 189.6 48.735 189.6 49.245V53.085C189.6 53.345 189.515 53.565 189.345 53.745C189.175 53.915 188.96 54 188.7 54C188.44 54 188.225 53.915 188.055 53.745C187.885 53.565 187.8 53.345 187.8 53.085V46.89C187.8 46.63 187.885 46.415 188.055 46.245C188.225 46.065 188.44 45.975 188.7 45.975C188.96 45.975 189.175 46.065 189.345 46.245C189.515 46.415 189.6 46.63 189.6 46.89V47.145C189.87 46.785 190.22 46.475 190.65 46.215C191.09 45.955 191.57 45.825 192.09 45.825ZM203.231 42.9C203.491 42.9 203.706 42.985 203.876 43.155C204.046 43.325 204.131 43.545 204.131 43.815V53.085C204.131 53.345 204.046 53.565 203.876 53.745C203.706 53.915 203.491 54 203.231 54C202.971 54 202.756 53.915 202.586 53.745C202.426 53.575 202.341 53.36 202.331 53.1C202.081 53.39 201.741 53.64 201.311 53.85C200.891 54.05 200.446 54.15 199.976 54.15C199.286 54.15 198.661 53.975 198.101 53.625C197.541 53.265 197.096 52.77 196.766 52.14C196.446 51.51 196.286 50.795 196.286 49.995C196.286 49.195 196.446 48.48 196.766 47.85C197.086 47.21 197.521 46.715 198.071 46.365C198.631 46.005 199.246 45.825 199.916 45.825C200.396 45.825 200.846 45.915 201.266 46.095C201.686 46.265 202.041 46.485 202.331 46.755V43.815C202.331 43.555 202.416 43.34 202.586 43.17C202.756 42.99 202.971 42.9 203.231 42.9ZM200.201 52.5C200.851 52.5 201.381 52.265 201.791 51.795C202.201 51.315 202.406 50.715 202.406 49.995C202.406 49.275 202.201 48.675 201.791 48.195C201.381 47.715 200.851 47.475 200.201 47.475C199.561 47.475 199.036 47.715 198.626 48.195C198.216 48.675 198.011 49.275 198.011 49.995C198.011 50.715 198.211 51.315 198.611 51.795C199.021 52.265 199.551 52.5 200.201 52.5ZM212.576 45.825C212.836 45.825 213.051 45.91 213.221 46.08C213.391 46.25 213.476 46.47 213.476 46.74V53.085C213.476 53.345 213.391 53.565 213.221 53.745C213.051 53.915 212.836 54 212.576 54C212.316 54 212.101 53.915 211.931 53.745C211.771 53.575 211.686 53.36 211.676 53.1C211.426 53.39 211.086 53.64 210.656 53.85C210.236 54.05 209.791 54.15 209.321 54.15C208.631 54.15 208.006 53.975 207.446 53.625C206.886 53.265 206.441 52.77 206.111 52.14C205.791 51.51 205.631 50.795 205.631 49.995C205.631 49.195 205.791 48.48 206.111 47.85C206.431 47.21 206.866 46.715 207.416 46.365C207.976 46.005 208.591 45.825 209.261 45.825C209.741 45.825 210.191 45.915 210.611 46.095C211.031 46.265 211.386 46.485 211.676 46.755V46.74C211.676 46.48 211.761 46.265 211.931 46.095C212.101 45.915 212.316 45.825 212.576 45.825ZM209.546 52.5C210.196 52.5 210.726 52.265 211.136 51.795C211.546 51.315 211.751 50.715 211.751 49.995C211.751 49.275 211.546 48.675 211.136 48.195C210.726 47.715 210.196 47.475 209.546 47.475C208.906 47.475 208.381 47.715 207.971 48.195C207.561 48.675 207.356 49.275 207.356 49.995C207.356 50.715 207.556 51.315 207.956 51.795C208.366 52.265 208.896 52.5 209.546 52.5ZM219.597 45.825C219.897 45.825 220.147 45.91 220.347 46.08C220.557 46.25 220.662 46.45 220.662 46.68C220.662 46.99 220.582 47.225 220.422 47.385C220.262 47.535 220.072 47.61 219.852 47.61C219.702 47.61 219.532 47.575 219.342 47.505C219.312 47.495 219.242 47.475 219.132 47.445C219.032 47.415 218.922 47.4 218.802 47.4C218.542 47.4 218.292 47.48 218.052 47.64C217.812 47.8 217.612 48.045 217.452 48.375C217.302 48.695 217.227 49.08 217.227 49.53V53.085C217.227 53.345 217.142 53.565 216.972 53.745C216.802 53.915 216.587 54 216.327 54C216.067 54 215.852 53.915 215.682 53.745C215.512 53.565 215.427 53.345 215.427 53.085V46.89C215.427 46.63 215.512 46.415 215.682 46.245C215.852 46.065 216.067 45.975 216.327 45.975C216.587 45.975 216.802 46.065 216.972 46.245C217.142 46.415 217.227 46.63 217.227 46.89V47.085C217.457 46.675 217.787 46.365 218.217 46.155C218.647 45.935 219.107 45.825 219.597 45.825ZM227.886 45.975C228.146 45.975 228.361 46.065 228.531 46.245C228.701 46.415 228.786 46.63 228.786 46.89V53.265C228.786 54.565 228.436 55.51 227.736 56.1C227.036 56.7 226.101 57 224.931 57C224.591 57 224.241 56.97 223.881 56.91C223.531 56.86 223.246 56.79 223.026 56.7C222.536 56.49 222.291 56.2 222.291 55.83C222.291 55.76 222.306 55.68 222.336 55.59C222.396 55.37 222.496 55.2 222.636 55.08C222.786 54.97 222.946 54.915 223.116 54.915C223.216 54.915 223.311 54.93 223.401 54.96C223.471 54.99 223.591 55.04 223.761 55.11C223.941 55.18 224.126 55.235 224.316 55.275C224.516 55.325 224.721 55.35 224.931 55.35C225.641 55.35 226.161 55.195 226.491 54.885C226.831 54.585 227.001 54.065 227.001 53.325V53.175C226.481 53.825 225.671 54.15 224.571 54.15C224.051 54.15 223.591 54.03 223.191 53.79C222.791 53.54 222.481 53.2 222.261 52.77C222.041 52.33 221.931 51.83 221.931 51.27V46.89C221.931 46.63 222.016 46.415 222.186 46.245C222.356 46.065 222.571 45.975 222.831 45.975C223.091 45.975 223.306 46.065 223.476 46.245C223.646 46.415 223.731 46.63 223.731 46.89V50.73C223.731 51.36 223.866 51.815 224.136 52.095C224.416 52.365 224.821 52.5 225.351 52.5C225.871 52.5 226.271 52.35 226.551 52.05C226.841 51.74 226.986 51.3 226.986 50.73V46.89C226.986 46.63 227.071 46.415 227.241 46.245C227.411 46.065 227.626 45.975 227.886 45.975ZM166.888 71.53C167.018 71.61 167.118 71.715 167.188 71.845C167.268 71.975 167.308 72.11 167.308 72.25C167.308 72.43 167.248 72.595 167.128 72.745C166.978 72.925 166.748 73.015 166.438 73.015C166.198 73.015 165.978 72.96 165.778 72.85C165.058 72.44 164.698 71.605 164.698 70.345C164.698 69.985 164.578 69.7 164.338 69.49C164.108 69.28 163.773 69.175 163.333 69.175H160.528V72.085C160.528 72.355 160.453 72.575 160.303 72.745C160.163 72.915 159.973 73 159.733 73C159.443 73 159.188 72.915 158.968 72.745C158.758 72.565 158.653 72.345 158.653 72.085V63.415C158.653 63.155 158.738 62.94 158.908 62.77C159.088 62.59 159.308 62.5 159.568 62.5H163.888C164.408 62.5 164.898 62.64 165.358 62.92C165.818 63.2 166.183 63.585 166.453 64.075C166.733 64.565 166.873 65.115 166.873 65.725C166.873 66.225 166.738 66.715 166.468 67.195C166.198 67.665 165.848 68.04 165.418 68.32C166.048 68.76 166.393 69.35 166.453 70.09C166.483 70.25 166.498 70.405 166.498 70.555C166.538 70.865 166.578 71.09 166.618 71.23C166.658 71.36 166.748 71.46 166.888 71.53ZM163.813 67.63C163.993 67.63 164.168 67.545 164.338 67.375C164.508 67.205 164.648 66.98 164.758 66.7C164.868 66.41 164.923 66.1 164.923 65.77C164.923 65.49 164.868 65.235 164.758 65.005C164.648 64.765 164.508 64.575 164.338 64.435C164.168 64.295 163.993 64.225 163.813 64.225H160.528V67.63H163.813ZM175.928 68.8C175.918 69.04 175.823 69.235 175.643 69.385C175.463 69.535 175.253 69.61 175.013 69.61H170.063C170.183 70.2 170.458 70.665 170.888 71.005C171.318 71.335 171.803 71.5 172.343 71.5C172.753 71.5 173.073 71.465 173.303 71.395C173.533 71.315 173.713 71.235 173.843 71.155C173.983 71.065 174.078 71.005 174.128 70.975C174.308 70.885 174.478 70.84 174.638 70.84C174.848 70.84 175.028 70.915 175.178 71.065C175.328 71.215 175.403 71.39 175.403 71.59C175.403 71.86 175.263 72.105 174.983 72.325C174.703 72.555 174.328 72.75 173.858 72.91C173.388 73.07 172.913 73.15 172.433 73.15C171.593 73.15 170.858 72.975 170.228 72.625C169.608 72.275 169.128 71.795 168.788 71.185C168.448 70.565 168.278 69.87 168.278 69.1C168.278 68.24 168.458 67.485 168.818 66.835C169.178 66.185 169.653 65.69 170.243 65.35C170.833 65 171.463 64.825 172.133 64.825C172.793 64.825 173.413 65.005 173.993 65.365C174.583 65.725 175.053 66.21 175.403 66.82C175.753 67.43 175.928 68.09 175.928 68.8ZM172.133 66.475C170.973 66.475 170.288 67.02 170.078 68.11H174.008V68.005C173.968 67.585 173.763 67.225 173.393 66.925C173.023 66.625 172.603 66.475 172.133 66.475ZM176.964 71.755C176.874 71.635 176.829 71.485 176.829 71.305C176.829 71.045 176.959 70.825 177.219 70.645C177.359 70.555 177.504 70.51 177.654 70.51C177.864 70.51 178.064 70.605 178.254 70.795C178.554 71.105 178.864 71.335 179.184 71.485C179.514 71.635 179.909 71.71 180.369 71.71C181.149 71.68 181.539 71.385 181.539 70.825C181.539 70.535 181.404 70.315 181.134 70.165C180.874 70.015 180.464 69.865 179.904 69.715C179.324 69.555 178.849 69.395 178.479 69.235C178.119 69.075 177.804 68.835 177.534 68.515C177.274 68.185 177.144 67.745 177.144 67.195C177.144 66.715 177.279 66.3 177.549 65.95C177.829 65.59 178.189 65.315 178.629 65.125C179.079 64.925 179.554 64.825 180.054 64.825C180.564 64.825 181.074 64.92 181.584 65.11C182.094 65.3 182.494 65.58 182.784 65.95C182.914 66.11 182.979 66.29 182.979 66.49C182.979 66.72 182.884 66.91 182.694 67.06C182.554 67.17 182.394 67.225 182.214 67.225C181.994 67.225 181.814 67.155 181.674 67.015C181.494 66.795 181.259 66.62 180.969 66.49C180.689 66.36 180.369 66.295 180.009 66.295C179.249 66.295 178.869 66.57 178.869 67.12C178.869 67.34 178.939 67.52 179.079 67.66C179.219 67.79 179.394 67.895 179.604 67.975C179.824 68.045 180.129 68.135 180.519 68.245C181.059 68.395 181.509 68.55 181.869 68.71C182.229 68.87 182.534 69.115 182.784 69.445C183.034 69.775 183.159 70.21 183.159 70.75C183.159 71.24 183.014 71.67 182.724 72.04C182.434 72.4 182.059 72.675 181.599 72.865C181.149 73.055 180.684 73.15 180.204 73.15C179.544 73.15 178.929 73.04 178.359 72.82C177.789 72.6 177.324 72.245 176.964 71.755ZM191.865 68.8C191.855 69.04 191.76 69.235 191.58 69.385C191.4 69.535 191.19 69.61 190.95 69.61H186C186.12 70.2 186.395 70.665 186.825 71.005C187.255 71.335 187.74 71.5 188.28 71.5C188.69 71.5 189.01 71.465 189.24 71.395C189.47 71.315 189.65 71.235 189.78 71.155C189.92 71.065 190.015 71.005 190.065 70.975C190.245 70.885 190.415 70.84 190.575 70.84C190.785 70.84 190.965 70.915 191.115 71.065C191.265 71.215 191.34 71.39 191.34 71.59C191.34 71.86 191.2 72.105 190.92 72.325C190.64 72.555 190.265 72.75 189.795 72.91C189.325 73.07 188.85 73.15 188.37 73.15C187.53 73.15 186.795 72.975 186.165 72.625C185.545 72.275 185.065 71.795 184.725 71.185C184.385 70.565 184.215 69.87 184.215 69.1C184.215 68.24 184.395 67.485 184.755 66.835C185.115 66.185 185.59 65.69 186.18 65.35C186.77 65 187.4 64.825 188.07 64.825C188.73 64.825 189.35 65.005 189.93 65.365C190.52 65.725 190.99 66.21 191.34 66.82C191.69 67.43 191.865 68.09 191.865 68.8ZM188.07 66.475C186.91 66.475 186.225 67.02 186.015 68.11H189.945V68.005C189.905 67.585 189.7 67.225 189.33 66.925C188.96 66.625 188.54 66.475 188.07 66.475ZM199.92 64.825C200.18 64.825 200.395 64.91 200.565 65.08C200.735 65.25 200.82 65.47 200.82 65.74V72.085C200.82 72.345 200.735 72.565 200.565 72.745C200.395 72.915 200.18 73 199.92 73C199.66 73 199.445 72.915 199.275 72.745C199.115 72.575 199.03 72.36 199.02 72.1C198.77 72.39 198.43 72.64 198 72.85C197.58 73.05 197.135 73.15 196.665 73.15C195.975 73.15 195.35 72.975 194.79 72.625C194.23 72.265 193.785 71.77 193.455 71.14C193.135 70.51 192.975 69.795 192.975 68.995C192.975 68.195 193.135 67.48 193.455 66.85C193.775 66.21 194.21 65.715 194.76 65.365C195.32 65.005 195.935 64.825 196.605 64.825C197.085 64.825 197.535 64.915 197.955 65.095C198.375 65.265 198.73 65.485 199.02 65.755V65.74C199.02 65.48 199.105 65.265 199.275 65.095C199.445 64.915 199.66 64.825 199.92 64.825ZM196.89 71.5C197.54 71.5 198.07 71.265 198.48 70.795C198.89 70.315 199.095 69.715 199.095 68.995C199.095 68.275 198.89 67.675 198.48 67.195C198.07 66.715 197.54 66.475 196.89 66.475C196.25 66.475 195.725 66.715 195.315 67.195C194.905 67.675 194.7 68.275 194.7 68.995C194.7 69.715 194.9 70.315 195.3 70.795C195.71 71.265 196.24 71.5 196.89 71.5ZM206.941 64.825C207.241 64.825 207.491 64.91 207.691 65.08C207.901 65.25 208.006 65.45 208.006 65.68C208.006 65.99 207.926 66.225 207.766 66.385C207.606 66.535 207.416 66.61 207.196 66.61C207.046 66.61 206.876 66.575 206.686 66.505C206.656 66.495 206.586 66.475 206.476 66.445C206.376 66.415 206.266 66.4 206.146 66.4C205.886 66.4 205.636 66.48 205.396 66.64C205.156 66.8 204.956 67.045 204.796 67.375C204.646 67.695 204.571 68.08 204.571 68.53V72.085C204.571 72.345 204.486 72.565 204.316 72.745C204.146 72.915 203.931 73 203.671 73C203.411 73 203.196 72.915 203.026 72.745C202.856 72.565 202.771 72.345 202.771 72.085V65.89C202.771 65.63 202.856 65.415 203.026 65.245C203.196 65.065 203.411 64.975 203.671 64.975C203.931 64.975 204.146 65.065 204.316 65.245C204.486 65.415 204.571 65.63 204.571 65.89V66.085C204.801 65.675 205.131 65.365 205.561 65.155C205.991 64.935 206.451 64.825 206.941 64.825ZM212.433 64.825C213.283 64.825 213.968 64.96 214.488 65.23C215.008 65.49 215.268 65.84 215.268 66.28C215.268 66.5 215.203 66.695 215.073 66.865C214.943 67.025 214.773 67.105 214.563 67.105C214.403 67.105 214.273 67.085 214.173 67.045C214.073 66.995 213.973 66.935 213.873 66.865C213.783 66.785 213.693 66.72 213.603 66.67C213.503 66.62 213.353 66.575 213.153 66.535C212.963 66.495 212.808 66.475 212.688 66.475C211.938 66.475 211.348 66.71 210.918 67.18C210.498 67.64 210.288 68.245 210.288 68.995C210.288 69.715 210.503 70.315 210.933 70.795C211.363 71.265 211.913 71.5 212.583 71.5C213.073 71.5 213.438 71.44 213.678 71.32C213.738 71.29 213.818 71.24 213.918 71.17C214.028 71.09 214.128 71.03 214.218 70.99C214.308 70.95 214.418 70.93 214.548 70.93C214.798 70.93 214.993 71.01 215.133 71.17C215.283 71.33 215.358 71.535 215.358 71.785C215.358 72.025 215.218 72.25 214.938 72.46C214.658 72.67 214.288 72.84 213.828 72.97C213.368 73.09 212.878 73.15 212.358 73.15C211.588 73.15 210.908 72.97 210.318 72.61C209.738 72.25 209.288 71.755 208.968 71.125C208.648 70.485 208.488 69.775 208.488 68.995C208.488 68.185 208.653 67.465 208.983 66.835C209.323 66.205 209.793 65.715 210.393 65.365C210.993 65.005 211.673 64.825 212.433 64.825ZM220.873 64.825C221.863 64.825 222.548 65.13 222.928 65.74C223.308 66.34 223.498 67.175 223.498 68.245V72.085C223.498 72.345 223.413 72.565 223.243 72.745C223.073 72.915 222.858 73 222.598 73C222.338 73 222.123 72.915 221.953 72.745C221.783 72.565 221.698 72.345 221.698 72.085V68.245C221.698 67.695 221.588 67.265 221.368 66.955C221.158 66.635 220.783 66.475 220.243 66.475C219.683 66.475 219.243 66.645 218.923 66.985C218.613 67.315 218.458 67.735 218.458 68.245V72.085C218.458 72.345 218.373 72.565 218.203 72.745C218.033 72.915 217.818 73 217.558 73C217.298 73 217.083 72.915 216.913 72.745C216.743 72.565 216.658 72.345 216.658 72.085V62.815C216.658 62.555 216.743 62.34 216.913 62.17C217.083 61.99 217.298 61.9 217.558 61.9C217.818 61.9 218.033 61.99 218.203 62.17C218.373 62.34 218.458 62.555 218.458 62.815V66.13C218.728 65.77 219.068 65.465 219.478 65.215C219.898 64.955 220.363 64.825 220.873 64.825Z" fill="white"/>
<circle cx="411.5" cy="57.5" r="46" stroke="#61BEAE" stroke-width="3"/>
<path d="M414.005 51.83C414.055 51.96 414.08 52.08 414.08 52.19C414.08 52.45 413.995 52.665 413.825 52.835C413.655 52.995 413.46 53.075 413.24 53.075C413.06 53.075 412.895 53.02 412.745 52.91C412.605 52.8 412.495 52.65 412.415 52.46L411.635 50.645H407.165L406.385 52.475C406.315 52.665 406.205 52.815 406.055 52.925C405.915 53.025 405.76 53.075 405.59 53.075C405.33 53.075 405.13 53.005 404.99 52.865C404.86 52.725 404.795 52.535 404.795 52.295C404.795 52.205 404.81 52.11 404.84 52.01L408.575 43.04C408.655 42.84 408.775 42.685 408.935 42.575C409.095 42.465 409.275 42.42 409.475 42.44C409.655 42.44 409.82 42.495 409.97 42.605C410.13 42.705 410.245 42.85 410.315 43.04L414.005 51.83ZM410.9 48.92L409.385 45.41L407.9 48.92H410.9ZM417.225 52.085C417.225 52.345 417.13 52.565 416.94 52.745C416.75 52.915 416.53 53 416.28 53C416.01 53 415.785 52.915 415.605 52.745C415.435 52.565 415.35 52.345 415.35 52.085V43.415C415.35 43.155 415.44 42.94 415.62 42.77C415.8 42.59 416.03 42.5 416.31 42.5C416.56 42.5 416.775 42.59 416.955 42.77C417.135 42.94 417.225 43.155 417.225 43.415V52.085ZM392.75 61.5C393.69 61.5 394.495 61.735 395.165 62.205C395.845 62.665 396.36 63.295 396.71 64.095C397.07 64.885 397.25 65.77 397.25 66.75C397.25 67.73 397.07 68.62 396.71 69.42C396.36 70.21 395.845 70.84 395.165 71.31C394.495 71.77 393.69 72 392.75 72H389.165C388.905 72 388.685 71.915 388.505 71.745C388.335 71.565 388.25 71.345 388.25 71.085V62.415C388.25 62.155 388.335 61.94 388.505 61.77C388.685 61.59 388.905 61.5 389.165 61.5H392.75ZM392.6 70.275C393.5 70.275 394.175 69.945 394.625 69.285C395.075 68.615 395.3 67.77 395.3 66.75C395.3 65.73 395.07 64.89 394.61 64.23C394.16 63.56 393.49 63.225 392.6 63.225H390.125V70.275H392.6ZM406.14 67.8C406.13 68.04 406.035 68.235 405.855 68.385C405.675 68.535 405.465 68.61 405.225 68.61H400.275C400.395 69.2 400.67 69.665 401.1 70.005C401.53 70.335 402.015 70.5 402.555 70.5C402.965 70.5 403.285 70.465 403.515 70.395C403.745 70.315 403.925 70.235 404.055 70.155C404.195 70.065 404.29 70.005 404.34 69.975C404.52 69.885 404.69 69.84 404.85 69.84C405.06 69.84 405.24 69.915 405.39 70.065C405.54 70.215 405.615 70.39 405.615 70.59C405.615 70.86 405.475 71.105 405.195 71.325C404.915 71.555 404.54 71.75 404.07 71.91C403.6 72.07 403.125 72.15 402.645 72.15C401.805 72.15 401.07 71.975 400.44 71.625C399.82 71.275 399.34 70.795 399 70.185C398.66 69.565 398.49 68.87 398.49 68.1C398.49 67.24 398.67 66.485 399.03 65.835C399.39 65.185 399.865 64.69 400.455 64.35C401.045 64 401.675 63.825 402.345 63.825C403.005 63.825 403.625 64.005 404.205 64.365C404.795 64.725 405.265 65.21 405.615 65.82C405.965 66.43 406.14 67.09 406.14 67.8ZM402.345 65.475C401.185 65.475 400.5 66.02 400.29 67.11H404.22V67.005C404.18 66.585 403.975 66.225 403.605 65.925C403.235 65.625 402.815 65.475 402.345 65.475ZM407.176 70.755C407.086 70.635 407.041 70.485 407.041 70.305C407.041 70.045 407.171 69.825 407.431 69.645C407.571 69.555 407.716 69.51 407.866 69.51C408.076 69.51 408.276 69.605 408.466 69.795C408.766 70.105 409.076 70.335 409.396 70.485C409.726 70.635 410.121 70.71 410.581 70.71C411.361 70.68 411.751 70.385 411.751 69.825C411.751 69.535 411.616 69.315 411.346 69.165C411.086 69.015 410.676 68.865 410.116 68.715C409.536 68.555 409.061 68.395 408.691 68.235C408.331 68.075 408.016 67.835 407.746 67.515C407.486 67.185 407.356 66.745 407.356 66.195C407.356 65.715 407.491 65.3 407.761 64.95C408.041 64.59 408.401 64.315 408.841 64.125C409.291 63.925 409.766 63.825 410.266 63.825C410.776 63.825 411.286 63.92 411.796 64.11C412.306 64.3 412.706 64.58 412.996 64.95C413.126 65.11 413.191 65.29 413.191 65.49C413.191 65.72 413.096 65.91 412.906 66.06C412.766 66.17 412.606 66.225 412.426 66.225C412.206 66.225 412.026 66.155 411.886 66.015C411.706 65.795 411.471 65.62 411.181 65.49C410.901 65.36 410.581 65.295 410.221 65.295C409.461 65.295 409.081 65.57 409.081 66.12C409.081 66.34 409.151 66.52 409.291 66.66C409.431 66.79 409.606 66.895 409.816 66.975C410.036 67.045 410.341 67.135 410.731 67.245C411.271 67.395 411.721 67.55 412.081 67.71C412.441 67.87 412.746 68.115 412.996 68.445C413.246 68.775 413.371 69.21 413.371 69.75C413.371 70.24 413.226 70.67 412.936 71.04C412.646 71.4 412.271 71.675 411.811 71.865C411.361 72.055 410.896 72.15 410.416 72.15C409.756 72.15 409.141 72.04 408.571 71.82C408.001 71.6 407.536 71.245 407.176 70.755ZM416.572 71.085C416.572 71.345 416.487 71.565 416.317 71.745C416.147 71.915 415.932 72 415.672 72C415.412 72 415.197 71.915 415.027 71.745C414.857 71.565 414.772 71.345 414.772 71.085V64.89C414.772 64.63 414.857 64.415 415.027 64.245C415.197 64.065 415.412 63.975 415.672 63.975C415.932 63.975 416.147 64.065 416.317 64.245C416.487 64.415 416.572 64.63 416.572 64.89V71.085ZM415.657 63C415.317 63 415.077 62.945 414.937 62.835C414.797 62.725 414.727 62.53 414.727 62.25V61.965C414.727 61.685 414.802 61.49 414.952 61.38C415.102 61.27 415.342 61.215 415.672 61.215C416.022 61.215 416.267 61.27 416.407 61.38C416.547 61.49 416.617 61.685 416.617 61.965V62.25C416.617 62.54 416.542 62.74 416.392 62.85C416.252 62.95 416.007 63 415.657 63ZM425.067 63.825C425.327 63.825 425.542 63.91 425.712 64.08C425.882 64.25 425.967 64.47 425.967 64.74V71.415C425.967 72.635 425.587 73.535 424.827 74.115C424.077 74.705 423.122 75 421.962 75C421.662 75 421.247 74.95 420.717 74.85C420.197 74.75 419.827 74.65 419.607 74.55C419.117 74.34 418.872 74.05 418.872 73.68C418.872 73.61 418.887 73.53 418.917 73.44C418.977 73.22 419.077 73.05 419.217 72.93C419.367 72.82 419.527 72.765 419.697 72.765C419.797 72.765 419.892 72.78 419.982 72.81C420.022 72.82 420.267 72.91 420.717 73.08C421.177 73.26 421.592 73.35 421.962 73.35C422.702 73.35 423.252 73.2 423.612 72.9C423.982 72.61 424.167 72.195 424.167 71.655V70.935C423.947 71.245 423.612 71.525 423.162 71.775C422.722 72.025 422.247 72.15 421.737 72.15C421.037 72.15 420.397 71.975 419.817 71.625C419.247 71.265 418.797 70.77 418.467 70.14C418.137 69.51 417.972 68.795 417.972 67.995C417.972 67.195 418.132 66.48 418.452 65.85C418.782 65.21 419.227 64.715 419.787 64.365C420.357 64.005 420.987 63.825 421.677 63.825C422.187 63.825 422.662 63.93 423.102 64.14C423.542 64.35 423.897 64.605 424.167 64.905V64.74C424.167 64.48 424.252 64.265 424.422 64.095C424.592 63.915 424.807 63.825 425.067 63.825ZM421.962 70.5C422.632 70.5 423.177 70.265 423.597 69.795C424.027 69.315 424.242 68.715 424.242 67.995C424.242 67.275 424.027 66.675 423.597 66.195C423.177 65.715 422.632 65.475 421.962 65.475C421.292 65.475 420.747 65.715 420.327 66.195C419.907 66.675 419.697 67.275 419.697 67.995C419.697 68.715 419.907 69.315 420.327 69.795C420.747 70.265 421.292 70.5 421.962 70.5ZM432.204 63.825C433.224 63.825 433.929 64.13 434.319 64.74C434.709 65.34 434.904 66.175 434.904 67.245V71.085C434.904 71.345 434.819 71.565 434.649 71.745C434.479 71.915 434.264 72 434.004 72C433.744 72 433.529 71.915 433.359 71.745C433.189 71.565 433.104 71.345 433.104 71.085V67.245C433.104 66.695 432.989 66.265 432.759 65.955C432.529 65.635 432.134 65.475 431.574 65.475C430.994 65.475 430.539 65.645 430.209 65.985C429.879 66.315 429.714 66.735 429.714 67.245V71.085C429.714 71.345 429.629 71.565 429.459 71.745C429.289 71.915 429.074 72 428.814 72C428.554 72 428.339 71.915 428.169 71.745C427.999 71.565 427.914 71.345 427.914 71.085V64.89C427.914 64.63 427.999 64.415 428.169 64.245C428.339 64.065 428.554 63.975 428.814 63.975C429.074 63.975 429.289 64.065 429.459 64.245C429.629 64.415 429.714 64.63 429.714 64.89V65.145C429.984 64.785 430.334 64.475 430.764 64.215C431.204 63.955 431.684 63.825 432.204 63.825Z" fill="white"/>
<circle cx="522.5" cy="57.5" r="46" stroke="#42ADB1" stroke-width="3"/>
<path d="M491.617 46.5C492.127 46.5 492.612 46.655 493.072 46.965C493.532 47.265 493.902 47.675 494.182 48.195C494.462 48.705 494.602 49.265 494.602 49.875C494.602 50.475 494.462 51.035 494.182 51.555C493.902 52.075 493.532 52.49 493.072 52.8C492.612 53.1 492.127 53.25 491.617 53.25H489.007V56.085C489.007 56.355 488.927 56.575 488.767 56.745C488.607 56.915 488.397 57 488.137 57C487.887 57 487.682 56.915 487.522 56.745C487.362 56.565 487.282 56.345 487.282 56.085V47.415C487.282 47.155 487.367 46.94 487.537 46.77C487.717 46.59 487.937 46.5 488.197 46.5H491.617ZM491.617 51.54C491.807 51.54 491.992 51.46 492.172 51.3C492.362 51.14 492.512 50.935 492.622 50.685C492.742 50.425 492.802 50.155 492.802 49.875C492.802 49.595 492.742 49.33 492.622 49.08C492.512 48.82 492.362 48.615 492.172 48.465C491.992 48.305 491.807 48.225 491.617 48.225H489.007V51.54H491.617ZM500.34 48.825C500.64 48.825 500.89 48.91 501.09 49.08C501.3 49.25 501.405 49.45 501.405 49.68C501.405 49.99 501.325 50.225 501.165 50.385C501.005 50.535 500.815 50.61 500.595 50.61C500.445 50.61 500.275 50.575 500.085 50.505C500.055 50.495 499.985 50.475 499.875 50.445C499.775 50.415 499.665 50.4 499.545 50.4C499.285 50.4 499.035 50.48 498.795 50.64C498.555 50.8 498.355 51.045 498.195 51.375C498.045 51.695 497.97 52.08 497.97 52.53V56.085C497.97 56.345 497.885 56.565 497.715 56.745C497.545 56.915 497.33 57 497.07 57C496.81 57 496.595 56.915 496.425 56.745C496.255 56.565 496.17 56.345 496.17 56.085V49.89C496.17 49.63 496.255 49.415 496.425 49.245C496.595 49.065 496.81 48.975 497.07 48.975C497.33 48.975 497.545 49.065 497.715 49.245C497.885 49.415 497.97 49.63 497.97 49.89V50.085C498.2 49.675 498.53 49.365 498.96 49.155C499.39 48.935 499.85 48.825 500.34 48.825ZM510.047 52.995C510.047 53.795 509.867 54.515 509.507 55.155C509.147 55.785 508.652 56.275 508.022 56.625C507.402 56.975 506.717 57.15 505.967 57.15C505.207 57.15 504.517 56.975 503.897 56.625C503.277 56.275 502.787 55.785 502.427 55.155C502.067 54.515 501.887 53.795 501.887 52.995C501.887 52.195 502.067 51.48 502.427 50.85C502.787 50.21 503.277 49.715 503.897 49.365C504.517 49.005 505.207 48.825 505.967 48.825C506.717 48.825 507.402 49.005 508.022 49.365C508.652 49.715 509.147 50.21 509.507 50.85C509.867 51.48 510.047 52.195 510.047 52.995ZM508.247 52.995C508.247 52.505 508.142 52.07 507.932 51.69C507.732 51.3 507.457 51 507.107 50.79C506.767 50.58 506.387 50.475 505.967 50.475C505.547 50.475 505.162 50.58 504.812 50.79C504.472 51 504.197 51.3 503.987 51.69C503.787 52.07 503.687 52.505 503.687 52.995C503.687 53.485 503.787 53.92 503.987 54.3C504.197 54.68 504.472 54.975 504.812 55.185C505.162 55.395 505.547 55.5 505.967 55.5C506.387 55.5 506.767 55.395 507.107 55.185C507.457 54.975 507.732 54.68 507.932 54.3C508.142 53.92 508.247 53.485 508.247 52.995ZM515.421 55.305C515.561 55.305 515.686 55.375 515.796 55.515C515.916 55.645 515.976 55.82 515.976 56.04C515.976 56.31 515.826 56.54 515.526 56.73C515.236 56.91 514.906 57 514.536 57C513.916 57 513.391 56.87 512.961 56.61C512.541 56.34 512.331 55.775 512.331 54.915V50.775H511.641C511.401 50.775 511.201 50.695 511.041 50.535C510.881 50.375 510.801 50.175 510.801 49.935C510.801 49.705 510.881 49.515 511.041 49.365C511.201 49.205 511.401 49.125 511.641 49.125H512.331V48.165C512.331 47.905 512.416 47.69 512.586 47.52C512.766 47.34 512.986 47.25 513.246 47.25C513.496 47.25 513.706 47.34 513.876 47.52C514.046 47.69 514.131 47.905 514.131 48.165V49.125H515.196C515.436 49.125 515.636 49.205 515.796 49.365C515.956 49.525 516.036 49.725 516.036 49.965C516.036 50.195 515.956 50.39 515.796 50.55C515.636 50.7 515.436 50.775 515.196 50.775H514.131V54.84C514.131 55.05 514.186 55.205 514.296 55.305C514.406 55.395 514.556 55.44 514.746 55.44C514.826 55.44 514.936 55.42 515.076 55.38C515.196 55.33 515.311 55.305 515.421 55.305ZM525.326 52.995C525.326 53.795 525.146 54.515 524.786 55.155C524.426 55.785 523.931 56.275 523.301 56.625C522.681 56.975 521.996 57.15 521.246 57.15C520.486 57.15 519.796 56.975 519.176 56.625C518.556 56.275 518.066 55.785 517.706 55.155C517.346 54.515 517.166 53.795 517.166 52.995C517.166 52.195 517.346 51.48 517.706 50.85C518.066 50.21 518.556 49.715 519.176 49.365C519.796 49.005 520.486 48.825 521.246 48.825C521.996 48.825 522.681 49.005 523.301 49.365C523.931 49.715 524.426 50.21 524.786 50.85C525.146 51.48 525.326 52.195 525.326 52.995ZM523.526 52.995C523.526 52.505 523.421 52.07 523.211 51.69C523.011 51.3 522.736 51 522.386 50.79C522.046 50.58 521.666 50.475 521.246 50.475C520.826 50.475 520.441 50.58 520.091 50.79C519.751 51 519.476 51.3 519.266 51.69C519.066 52.07 518.966 52.505 518.966 52.995C518.966 53.485 519.066 53.92 519.266 54.3C519.476 54.68 519.751 54.975 520.091 55.185C520.441 55.395 520.826 55.5 521.246 55.5C521.666 55.5 522.046 55.395 522.386 55.185C522.736 54.975 523.011 54.68 523.211 54.3C523.421 53.92 523.526 53.485 523.526 52.995ZM530.699 55.305C530.839 55.305 530.964 55.375 531.074 55.515C531.194 55.645 531.254 55.82 531.254 56.04C531.254 56.31 531.104 56.54 530.804 56.73C530.514 56.91 530.184 57 529.814 57C529.194 57 528.669 56.87 528.239 56.61C527.819 56.34 527.609 55.775 527.609 54.915V50.775H526.919C526.679 50.775 526.479 50.695 526.319 50.535C526.159 50.375 526.079 50.175 526.079 49.935C526.079 49.705 526.159 49.515 526.319 49.365C526.479 49.205 526.679 49.125 526.919 49.125H527.609V48.165C527.609 47.905 527.694 47.69 527.864 47.52C528.044 47.34 528.264 47.25 528.524 47.25C528.774 47.25 528.984 47.34 529.154 47.52C529.324 47.69 529.409 47.905 529.409 48.165V49.125H530.474C530.714 49.125 530.914 49.205 531.074 49.365C531.234 49.525 531.314 49.725 531.314 49.965C531.314 50.195 531.234 50.39 531.074 50.55C530.914 50.7 530.714 50.775 530.474 50.775H529.409V54.84C529.409 55.05 529.464 55.205 529.574 55.305C529.684 55.395 529.834 55.44 530.024 55.44C530.104 55.44 530.214 55.42 530.354 55.38C530.474 55.33 530.589 55.305 530.699 55.305ZM538.922 48.975C539.182 48.975 539.397 49.065 539.567 49.245C539.737 49.415 539.822 49.63 539.822 49.89V56.265C539.822 57.565 539.472 58.51 538.772 59.1C538.072 59.7 537.137 60 535.967 60C535.627 60 535.277 59.97 534.917 59.91C534.567 59.86 534.282 59.79 534.062 59.7C533.572 59.49 533.327 59.2 533.327 58.83C533.327 58.76 533.342 58.68 533.372 58.59C533.432 58.37 533.532 58.2 533.672 58.08C533.822 57.97 533.982 57.915 534.152 57.915C534.252 57.915 534.347 57.93 534.437 57.96C534.507 57.99 534.627 58.04 534.797 58.11C534.977 58.18 535.162 58.235 535.352 58.275C535.552 58.325 535.757 58.35 535.967 58.35C536.677 58.35 537.197 58.195 537.527 57.885C537.867 57.585 538.037 57.065 538.037 56.325V56.175C537.517 56.825 536.707 57.15 535.607 57.15C535.087 57.15 534.627 57.03 534.227 56.79C533.827 56.54 533.517 56.2 533.297 55.77C533.077 55.33 532.967 54.83 532.967 54.27V49.89C532.967 49.63 533.052 49.415 533.222 49.245C533.392 49.065 533.607 48.975 533.867 48.975C534.127 48.975 534.342 49.065 534.512 49.245C534.682 49.415 534.767 49.63 534.767 49.89V53.73C534.767 54.36 534.902 54.815 535.172 55.095C535.452 55.365 535.857 55.5 536.387 55.5C536.907 55.5 537.307 55.35 537.587 55.05C537.877 54.74 538.022 54.3 538.022 53.73V49.89C538.022 49.63 538.107 49.415 538.277 49.245C538.447 49.065 538.662 48.975 538.922 48.975ZM545.926 48.825C546.616 48.825 547.241 49.005 547.801 49.365C548.361 49.715 548.801 50.205 549.121 50.835C549.451 51.465 549.616 52.18 549.616 52.98C549.616 53.78 549.456 54.5 549.136 55.14C548.816 55.77 548.376 56.265 547.816 56.625C547.266 56.975 546.656 57.15 545.986 57.15C545.506 57.15 545.051 57.055 544.621 56.865C544.201 56.665 543.851 56.425 543.571 56.145V59.085C543.571 59.345 543.486 59.56 543.316 59.73C543.146 59.91 542.931 60 542.671 60C542.411 60 542.196 59.915 542.026 59.745C541.856 59.575 541.771 59.355 541.771 59.085V49.89C541.771 49.63 541.856 49.415 542.026 49.245C542.196 49.065 542.411 48.975 542.671 48.975C542.931 48.975 543.146 49.065 543.316 49.245C543.486 49.415 543.571 49.63 543.571 49.89V49.95C543.811 49.65 544.146 49.39 544.576 49.17C545.006 48.94 545.456 48.825 545.926 48.825ZM545.701 55.5C546.341 55.5 546.866 55.26 547.276 54.78C547.686 54.3 547.891 53.7 547.891 52.98C547.891 52.26 547.686 51.665 547.276 51.195C546.876 50.715 546.351 50.475 545.701 50.475C545.051 50.475 544.521 50.715 544.111 51.195C543.701 51.665 543.496 52.26 543.496 52.98C543.496 53.7 543.701 54.3 544.111 54.78C544.521 55.26 545.051 55.5 545.701 55.5ZM558.317 52.8C558.307 53.04 558.212 53.235 558.032 53.385C557.852 53.535 557.642 53.61 557.402 53.61H552.452C552.572 54.2 552.847 54.665 553.277 55.005C553.707 55.335 554.192 55.5 554.732 55.5C555.142 55.5 555.462 55.465 555.692 55.395C555.922 55.315 556.102 55.235 556.232 55.155C556.372 55.065 556.467 55.005 556.517 54.975C556.697 54.885 556.867 54.84 557.027 54.84C557.237 54.84 557.417 54.915 557.567 55.065C557.717 55.215 557.792 55.39 557.792 55.59C557.792 55.86 557.652 56.105 557.372 56.325C557.092 56.555 556.717 56.75 556.247 56.91C555.777 57.07 555.302 57.15 554.822 57.15C553.982 57.15 553.247 56.975 552.617 56.625C551.997 56.275 551.517 55.795 551.177 55.185C550.837 54.565 550.667 53.87 550.667 53.1C550.667 52.24 550.847 51.485 551.207 50.835C551.567 50.185 552.042 49.69 552.632 49.35C553.222 49 553.852 48.825 554.522 48.825C555.182 48.825 555.802 49.005 556.382 49.365C556.972 49.725 557.442 50.21 557.792 50.82C558.142 51.43 558.317 52.09 558.317 52.8ZM554.522 50.475C553.362 50.475 552.677 51.02 552.467 52.11H556.397V52.005C556.357 51.585 556.152 51.225 555.782 50.925C555.412 50.625 554.992 50.475 554.522 50.475ZM503.75 65.5C504.69 65.5 505.495 65.735 506.165 66.205C506.845 66.665 507.36 67.295 507.71 68.095C508.07 68.885 508.25 69.77 508.25 70.75C508.25 71.73 508.07 72.62 507.71 73.42C507.36 74.21 506.845 74.84 506.165 75.31C505.495 75.77 504.69 76 503.75 76H500.165C499.905 76 499.685 75.915 499.505 75.745C499.335 75.565 499.25 75.345 499.25 75.085V66.415C499.25 66.155 499.335 65.94 499.505 65.77C499.685 65.59 499.905 65.5 500.165 65.5H503.75ZM503.6 74.275C504.5 74.275 505.175 73.945 505.625 73.285C506.075 72.615 506.3 71.77 506.3 70.75C506.3 69.73 506.07 68.89 505.61 68.23C505.16 67.56 504.49 67.225 503.6 67.225H501.125V74.275H503.6ZM517.14 71.8C517.13 72.04 517.035 72.235 516.855 72.385C516.675 72.535 516.465 72.61 516.225 72.61H511.275C511.395 73.2 511.67 73.665 512.1 74.005C512.53 74.335 513.015 74.5 513.555 74.5C513.965 74.5 514.285 74.465 514.515 74.395C514.745 74.315 514.925 74.235 515.055 74.155C515.195 74.065 515.29 74.005 515.34 73.975C515.52 73.885 515.69 73.84 515.85 73.84C516.06 73.84 516.24 73.915 516.39 74.065C516.54 74.215 516.615 74.39 516.615 74.59C516.615 74.86 516.475 75.105 516.195 75.325C515.915 75.555 515.54 75.75 515.07 75.91C514.6 76.07 514.125 76.15 513.645 76.15C512.805 76.15 512.07 75.975 511.44 75.625C510.82 75.275 510.34 74.795 510 74.185C509.66 73.565 509.49 72.87 509.49 72.1C509.49 71.24 509.67 70.485 510.03 69.835C510.39 69.185 510.865 68.69 511.455 68.35C512.045 68 512.675 67.825 513.345 67.825C514.005 67.825 514.625 68.005 515.205 68.365C515.795 68.725 516.265 69.21 516.615 69.82C516.965 70.43 517.14 71.09 517.14 71.8ZM513.345 69.475C512.185 69.475 511.5 70.02 511.29 71.11H515.22V71.005C515.18 70.585 514.975 70.225 514.605 69.925C514.235 69.625 513.815 69.475 513.345 69.475ZM518.176 74.755C518.086 74.635 518.041 74.485 518.041 74.305C518.041 74.045 518.171 73.825 518.431 73.645C518.571 73.555 518.716 73.51 518.866 73.51C519.076 73.51 519.276 73.605 519.466 73.795C519.766 74.105 520.076 74.335 520.396 74.485C520.726 74.635 521.121 74.71 521.581 74.71C522.361 74.68 522.751 74.385 522.751 73.825C522.751 73.535 522.616 73.315 522.346 73.165C522.086 73.015 521.676 72.865 521.116 72.715C520.536 72.555 520.061 72.395 519.691 72.235C519.331 72.075 519.016 71.835 518.746 71.515C518.486 71.185 518.356 70.745 518.356 70.195C518.356 69.715 518.491 69.3 518.761 68.95C519.041 68.59 519.401 68.315 519.841 68.125C520.291 67.925 520.766 67.825 521.266 67.825C521.776 67.825 522.286 67.92 522.796 68.11C523.306 68.3 523.706 68.58 523.996 68.95C524.126 69.11 524.191 69.29 524.191 69.49C524.191 69.72 524.096 69.91 523.906 70.06C523.766 70.17 523.606 70.225 523.426 70.225C523.206 70.225 523.026 70.155 522.886 70.015C522.706 69.795 522.471 69.62 522.181 69.49C521.901 69.36 521.581 69.295 521.221 69.295C520.461 69.295 520.081 69.57 520.081 70.12C520.081 70.34 520.151 70.52 520.291 70.66C520.431 70.79 520.606 70.895 520.816 70.975C521.036 71.045 521.341 71.135 521.731 71.245C522.271 71.395 522.721 71.55 523.081 71.71C523.441 71.87 523.746 72.115 523.996 72.445C524.246 72.775 524.371 73.21 524.371 73.75C524.371 74.24 524.226 74.67 523.936 75.04C523.646 75.4 523.271 75.675 522.811 75.865C522.361 76.055 521.896 76.15 521.416 76.15C520.756 76.15 520.141 76.04 519.571 75.82C519.001 75.6 518.536 75.245 518.176 74.755ZM527.572 75.085C527.572 75.345 527.487 75.565 527.317 75.745C527.147 75.915 526.932 76 526.672 76C526.412 76 526.197 75.915 526.027 75.745C525.857 75.565 525.772 75.345 525.772 75.085V68.89C525.772 68.63 525.857 68.415 526.027 68.245C526.197 68.065 526.412 67.975 526.672 67.975C526.932 67.975 527.147 68.065 527.317 68.245C527.487 68.415 527.572 68.63 527.572 68.89V75.085ZM526.657 67C526.317 67 526.077 66.945 525.937 66.835C525.797 66.725 525.727 66.53 525.727 66.25V65.965C525.727 65.685 525.802 65.49 525.952 65.38C526.102 65.27 526.342 65.215 526.672 65.215C527.022 65.215 527.267 65.27 527.407 65.38C527.547 65.49 527.617 65.685 527.617 65.965V66.25C527.617 66.54 527.542 66.74 527.392 66.85C527.252 66.95 527.007 67 526.657 67ZM536.067 67.825C536.327 67.825 536.542 67.91 536.712 68.08C536.882 68.25 536.967 68.47 536.967 68.74V75.415C536.967 76.635 536.587 77.535 535.827 78.115C535.077 78.705 534.122 79 532.962 79C532.662 79 532.247 78.95 531.717 78.85C531.197 78.75 530.827 78.65 530.607 78.55C530.117 78.34 529.872 78.05 529.872 77.68C529.872 77.61 529.887 77.53 529.917 77.44C529.977 77.22 530.077 77.05 530.217 76.93C530.367 76.82 530.527 76.765 530.697 76.765C530.797 76.765 530.892 76.78 530.982 76.81C531.022 76.82 531.267 76.91 531.717 77.08C532.177 77.26 532.592 77.35 532.962 77.35C533.702 77.35 534.252 77.2 534.612 76.9C534.982 76.61 535.167 76.195 535.167 75.655V74.935C534.947 75.245 534.612 75.525 534.162 75.775C533.722 76.025 533.247 76.15 532.737 76.15C532.037 76.15 531.397 75.975 530.817 75.625C530.247 75.265 529.797 74.77 529.467 74.14C529.137 73.51 528.972 72.795 528.972 71.995C528.972 71.195 529.132 70.48 529.452 69.85C529.782 69.21 530.227 68.715 530.787 68.365C531.357 68.005 531.987 67.825 532.677 67.825C533.187 67.825 533.662 67.93 534.102 68.14C534.542 68.35 534.897 68.605 535.167 68.905V68.74C535.167 68.48 535.252 68.265 535.422 68.095C535.592 67.915 535.807 67.825 536.067 67.825ZM532.962 74.5C533.632 74.5 534.177 74.265 534.597 73.795C535.027 73.315 535.242 72.715 535.242 71.995C535.242 71.275 535.027 70.675 534.597 70.195C534.177 69.715 533.632 69.475 532.962 69.475C532.292 69.475 531.747 69.715 531.327 70.195C530.907 70.675 530.697 71.275 530.697 71.995C530.697 72.715 530.907 73.315 531.327 73.795C531.747 74.265 532.292 74.5 532.962 74.5ZM543.204 67.825C544.224 67.825 544.929 68.13 545.319 68.74C545.709 69.34 545.904 70.175 545.904 71.245V75.085C545.904 75.345 545.819 75.565 545.649 75.745C545.479 75.915 545.264 76 545.004 76C544.744 76 544.529 75.915 544.359 75.745C544.189 75.565 544.104 75.345 544.104 75.085V71.245C544.104 70.695 543.989 70.265 543.759 69.955C543.529 69.635 543.134 69.475 542.574 69.475C541.994 69.475 541.539 69.645 541.209 69.985C540.879 70.315 540.714 70.735 540.714 71.245V75.085C540.714 75.345 540.629 75.565 540.459 75.745C540.289 75.915 540.074 76 539.814 76C539.554 76 539.339 75.915 539.169 75.745C538.999 75.565 538.914 75.345 538.914 75.085V68.89C538.914 68.63 538.999 68.415 539.169 68.245C539.339 68.065 539.554 67.975 539.814 67.975C540.074 67.975 540.289 68.065 540.459 68.245C540.629 68.415 540.714 68.63 540.714 68.89V69.145C540.984 68.785 541.334 68.475 541.764 68.215C542.204 67.955 542.684 67.825 543.204 67.825Z" fill="white"/>
<line y1="57.5" x2="26" y2="57.5" stroke="#DDF1F2" stroke-width="3" stroke-linejoin="round"/>
<line x1="576" y1="57.5" x2="602" y2="57.5" stroke="#DDF1F2" stroke-width="3" stroke-linejoin="round"/>
<defs>
<filter id="filter0_d" x="23.5" y="56" width="113" height="58.5" filterUnits="userSpaceOnUse" color-interpolation-filters="sRGB">
<feFlood flood-opacity="0" result="BackgroundImageFix"/>
<feColorMatrix in="SourceAlpha" type="matrix" values="0 0 0 0 0 0 0 0 0 0 0 0 0 0 0 0 0 0 127 0"/>
<feOffset dy="-3"/>
<feColorMatrix type="matrix" values="0 0 0 0 0.866667 0 0 0 0 0.945098 0 0 0 0 0.94902 0 0 0 1 0"/>
<feBlend mode="normal" in2="BackgroundImageFix" result="effect1_dropShadow"/>
<feBlend mode="normal" in="SourceGraphic" in2="effect1_dropShadow" result="shape"/>
</filter>
<filter id="filter1_d" x="133.5" y="0.5" width="114" height="59.5" filterUnits="userSpaceOnUse" color-interpolation-filters="sRGB">
<feFlood flood-opacity="0" result="BackgroundImageFix"/>
<feColorMatrix in="SourceAlpha" type="matrix" values="0 0 0 0 0 0 0 0 0 0 0 0 0 0 0 0 0 0 127 0"/>
<feOffset dy="3"/>
<feColorMatrix type="matrix" values="0 0 0 0 0.866667 0 0 0 0 0.945098 0 0 0 0 0.94902 0 0 0 1 0"/>
<feBlend mode="normal" in2="BackgroundImageFix" result="effect1_dropShadow"/>
<feBlend mode="normal" in="SourceGraphic" in2="effect1_dropShadow" result="shape"/>
</filter>
<filter id="filter2_d" x="244.5" y="56" width="113" height="58.5" filterUnits="userSpaceOnUse" color-interpolation-filters="sRGB">
<feFlood flood-opacity="0" result="BackgroundImageFix"/>
<feColorMatrix in="SourceAlpha" type="matrix" values="0 0 0 0 0 0 0 0 0 0 0 0 0 0 0 0 0 0 127 0"/>
<feOffset dy="-3"/>
<feColorMatrix type="matrix" values="0 0 0 0 0.866667 0 0 0 0 0.945098 0 0 0 0 0.94902 0 0 0 1 0"/>
<feBlend mode="normal" in2="BackgroundImageFix" result="effect1_dropShadow"/>
<feBlend mode="normal" in="SourceGraphic" in2="effect1_dropShadow" result="shape"/>
</filter>
<filter id="filter3_d" x="465.5" y="56" width="113" height="58.5" filterUnits="userSpaceOnUse" color-interpolation-filters="sRGB">
<feFlood flood-opacity="0" result="BackgroundImageFix"/>
<feColorMatrix in="SourceAlpha" type="matrix" values="0 0 0 0 0 0 0 0 0 0 0 0 0 0 0 0 0 0 127 0"/>
<feOffset dy="-3"/>
<feColorMatrix type="matrix" values="0 0 0 0 0.866667 0 0 0 0 0.945098 0 0 0 0 0.94902 0 0 0 1 0"/>
<feBlend mode="normal" in2="BackgroundImageFix" result="effect1_dropShadow"/>
<feBlend mode="normal" in="SourceGraphic" in2="effect1_dropShadow" result="shape"/>
</filter>
<filter id="filter4_d" x="354.5" y="0.5" width="114" height="59.5" filterUnits="userSpaceOnUse" color-interpolation-filters="sRGB">
<feFlood flood-opacity="0" result="BackgroundImageFix"/>
<feColorMatrix in="SourceAlpha" type="matrix" values="0 0 0 0 0 0 0 0 0 0 0 0 0 0 0 0 0 0 127 0"/>
<feOffset dy="3"/>
<feColorMatrix type="matrix" values="0 0 0 0 0.866667 0 0 0 0 0.945098 0 0 0 0 0.94902 0 0 0 1 0"/>
<feBlend mode="normal" in2="BackgroundImageFix" result="effect1_dropShadow"/>
<feBlend mode="normal" in="SourceGraphic" in2="effect1_dropShadow" result="shape"/>
</filter>
<linearGradient id="paint0_linear" x1="-8" y1="40" x2="612" y2="40" gradientUnits="userSpaceOnUse">
<stop stop-color="#FFBA61"/>
<stop offset="0.447917" stop-color="#96D197"/>
<stop offset="1" stop-color="#46B4B8"/>
</linearGradient>
</defs>
</svg>
