<svg width="1000" height="600" viewBox="0 0 1000 600" fill="none" xmlns="http://www.w3.org/2000/svg">
<rect width="1000" height="600" fill="#F4F4F4"/>
<path d="M431.96 320.2C431.427 320.2 430.973 320.013 430.6 319.64C430.227 319.32 430.04 318.867 430.04 318.28V300.12C427.213 303.907 423.107 305.8 417.72 305.8C412.387 305.8 408.253 304.093 405.32 300.68C402.44 297.213 400.893 292.68 400.68 287.08L400.6 284.2L400.68 281.4C400.893 275.64 402.44 271.08 405.32 267.72C408.2 264.307 412.333 262.6 417.72 262.6C423.32 262.6 427.587 264.573 430.52 268.52V265.32C430.52 264.787 430.707 264.333 431.08 263.96C431.453 263.587 431.907 263.4 432.44 263.4H438.84C439.373 263.4 439.827 263.587 440.2 263.96C440.573 264.333 440.76 264.787 440.76 265.32V318.28C440.76 318.813 440.573 319.267 440.2 319.64C439.827 320.013 439.373 320.2 438.84 320.2H431.96ZM420.76 297.24C423.693 297.24 425.933 296.307 427.48 294.44C429.08 292.52 429.933 290.227 430.04 287.56C430.147 286.28 430.2 285.24 430.2 284.44C430.2 283.693 430.147 282.68 430.04 281.4C429.933 278.573 429.107 276.173 427.56 274.2C426.067 272.173 423.8 271.16 420.76 271.16C415 271.16 411.933 274.707 411.56 281.8L411.48 284.2L411.56 286.6C411.933 293.693 415 297.24 420.76 297.24ZM469.341 305.8C463.421 305.8 458.701 304.093 455.181 300.68C451.714 297.213 449.874 292.36 449.661 286.12L449.581 284.12L449.661 282.12C449.927 276.04 451.794 271.267 455.261 267.8C458.781 264.333 463.474 262.6 469.341 262.6C475.634 262.6 480.487 264.52 483.901 268.36C487.367 272.2 489.101 277.32 489.101 283.72V285.4C489.101 285.933 488.914 286.387 488.541 286.76C488.167 287.133 487.687 287.32 487.101 287.32H460.541V287.96C460.647 290.893 461.447 293.373 462.941 295.4C464.487 297.373 466.594 298.36 469.261 298.36C472.407 298.36 474.941 297.133 476.861 294.68C477.341 294.093 477.714 293.72 477.981 293.56C478.301 293.4 478.754 293.32 479.341 293.32H486.221C486.701 293.32 487.101 293.48 487.421 293.8C487.794 294.067 487.981 294.413 487.981 294.84C487.981 296.12 487.207 297.64 485.661 299.4C484.167 301.107 482.007 302.6 479.181 303.88C476.354 305.16 473.074 305.8 469.341 305.8ZM478.221 280.6V280.36C478.221 277.213 477.421 274.68 475.821 272.76C474.274 270.84 472.114 269.88 469.341 269.88C466.567 269.88 464.407 270.84 462.861 272.76C461.314 274.68 460.541 277.213 460.541 280.36V280.6H478.221ZM515.513 305.8C509.593 305.8 504.873 304.093 501.353 300.68C497.886 297.213 496.046 292.36 495.833 286.12L495.753 284.12L495.833 282.12C496.099 276.04 497.966 271.267 501.433 267.8C504.953 264.333 509.646 262.6 515.513 262.6C521.806 262.6 526.659 264.52 530.073 268.36C533.539 272.2 535.273 277.32 535.273 283.72V285.4C535.273 285.933 535.086 286.387 534.713 286.76C534.339 287.133 533.859 287.32 533.273 287.32H506.713V287.96C506.819 290.893 507.619 293.373 509.113 295.4C510.659 297.373 512.766 298.36 515.433 298.36C518.579 298.36 521.113 297.133 523.033 294.68C523.513 294.093 523.886 293.72 524.153 293.56C524.473 293.4 524.926 293.32 525.513 293.32H532.393C532.873 293.32 533.273 293.48 533.593 293.8C533.966 294.067 534.153 294.413 534.153 294.84C534.153 296.12 533.379 297.64 531.833 299.4C530.339 301.107 528.179 302.6 525.353 303.88C522.526 305.16 519.246 305.8 515.513 305.8ZM524.393 280.6V280.36C524.393 277.213 523.593 274.68 521.993 272.76C520.446 270.84 518.286 269.88 515.513 269.88C512.739 269.88 510.579 270.84 509.033 272.76C507.486 274.68 506.713 277.213 506.713 280.36V280.6H524.393ZM559.524 305.8C555.524 305.8 552.164 305.213 549.444 304.04C546.724 302.813 544.698 301.4 543.364 299.8C542.084 298.147 541.444 296.733 541.444 295.56C541.444 295.027 541.631 294.6 542.004 294.28C542.378 293.96 542.804 293.8 543.284 293.8H549.604C550.084 293.8 550.484 293.987 550.804 294.36C551.018 294.52 551.578 295 552.484 295.8C553.391 296.653 554.458 297.32 555.684 297.8C556.911 298.28 558.271 298.52 559.764 298.52C561.898 298.52 563.658 298.093 565.044 297.24C566.431 296.387 567.124 295.213 567.124 293.72C567.124 292.6 566.804 291.693 566.164 291C565.578 290.307 564.484 289.693 562.884 289.16C561.284 288.573 558.911 287.96 555.764 287.32C551.231 286.36 547.871 284.893 545.684 282.92C543.551 280.947 542.484 278.333 542.484 275.08C542.484 272.947 543.124 270.947 544.404 269.08C545.684 267.16 547.578 265.613 550.084 264.44C552.644 263.213 555.684 262.6 559.204 262.6C562.778 262.6 565.871 263.187 568.484 264.36C571.098 265.48 573.071 266.84 574.404 268.44C575.791 269.987 576.484 271.373 576.484 272.6C576.484 273.08 576.298 273.507 575.924 273.88C575.604 274.2 575.204 274.36 574.724 274.36H568.804C568.378 274.36 567.924 274.173 567.444 273.8C567.071 273.533 566.484 273.027 565.684 272.28C564.884 271.533 563.951 270.947 562.884 270.52C561.818 270.093 560.564 269.88 559.124 269.88C557.151 269.88 555.604 270.307 554.484 271.16C553.418 272.013 552.884 273.133 552.884 274.52C552.884 275.533 553.151 276.36 553.684 277C554.218 277.64 555.258 278.253 556.804 278.84C558.351 279.427 560.671 280.013 563.764 280.6C568.884 281.613 572.538 283.187 574.724 285.32C576.964 287.453 578.084 290.067 578.084 293.16C578.084 296.893 576.458 299.933 573.204 302.28C569.951 304.627 565.391 305.8 559.524 305.8ZM587.943 256.52C587.409 256.52 586.956 256.333 586.583 255.96C586.209 255.587 586.023 255.133 586.023 254.6V248.84C586.023 248.307 586.209 247.853 586.583 247.48C586.956 247.107 587.409 246.92 587.943 246.92H595.223C595.756 246.92 596.209 247.107 596.583 247.48C597.009 247.853 597.223 248.307 597.223 248.84V254.6C597.223 255.133 597.036 255.587 596.663 255.96C596.289 256.333 595.809 256.52 595.223 256.52H587.943ZM588.263 305C587.729 305 587.276 304.813 586.903 304.44C586.529 304.067 586.342 303.613 586.342 303.08V265.32C586.342 264.787 586.529 264.333 586.903 263.96C587.276 263.587 587.729 263.4 588.263 263.4H594.903C595.489 263.4 595.943 263.587 596.263 263.96C596.636 264.28 596.823 264.733 596.823 265.32V303.08C596.823 303.613 596.636 304.067 596.263 304.44C595.943 304.813 595.489 305 594.903 305H588.263Z" fill="#27323D"/>
<path d="M278.583 362.33C275.745 362.33 273.545 361.571 271.983 360.053C270.443 358.513 269.673 356.192 269.673 353.09V339.692C269.673 339.45 269.739 339.263 269.871 339.131C270.025 338.977 270.212 338.9 270.432 338.9H272.115C272.357 338.9 272.544 338.977 272.676 339.131C272.83 339.263 272.907 339.45 272.907 339.692V353.156C272.907 355.268 273.402 356.852 274.392 357.908C275.382 358.964 276.779 359.492 278.583 359.492C280.387 359.492 281.784 358.964 282.774 357.908C283.764 356.852 284.259 355.268 284.259 353.156V339.692C284.259 339.45 284.325 339.263 284.457 339.131C284.611 338.977 284.798 338.9 285.018 338.9H286.734C286.954 338.9 287.13 338.977 287.262 339.131C287.416 339.285 287.493 339.472 287.493 339.692V353.09C287.493 356.192 286.712 358.513 285.15 360.053C283.61 361.571 281.421 362.33 278.583 362.33ZM298.392 362.33C296.852 362.33 295.554 362.088 294.498 361.604C293.464 361.098 292.683 360.526 292.155 359.888C291.649 359.25 291.396 358.722 291.396 358.304C291.396 358.084 291.473 357.919 291.627 357.809C291.803 357.677 291.979 357.611 292.155 357.611H293.64C293.86 357.611 294.058 357.721 294.234 357.941C294.762 358.557 295.334 359.041 295.95 359.393C296.566 359.745 297.391 359.921 298.425 359.921C299.569 359.921 300.493 359.701 301.197 359.261C301.923 358.799 302.286 358.172 302.286 357.38C302.286 356.852 302.132 356.423 301.824 356.093C301.538 355.741 301.032 355.444 300.306 355.202C299.602 354.938 298.546 354.652 297.138 354.344C295.224 353.926 293.86 353.321 293.046 352.529C292.254 351.737 291.858 350.714 291.858 349.46C291.858 348.624 292.1 347.832 292.584 347.084C293.09 346.314 293.816 345.698 294.762 345.236C295.73 344.752 296.885 344.51 298.227 344.51C299.635 344.51 300.834 344.741 301.824 345.203C302.814 345.665 303.551 346.215 304.035 346.853C304.541 347.469 304.794 347.986 304.794 348.404C304.794 348.602 304.717 348.767 304.563 348.899C304.431 349.031 304.266 349.097 304.068 349.097H302.682C302.418 349.097 302.198 348.987 302.022 348.767C301.67 348.349 301.362 348.03 301.098 347.81C300.856 347.568 300.493 347.359 300.009 347.183C299.547 347.007 298.953 346.919 298.227 346.919C297.171 346.919 296.357 347.15 295.785 347.612C295.213 348.052 294.927 348.635 294.927 349.361C294.927 349.823 295.048 350.219 295.29 350.549C295.532 350.857 295.994 351.143 296.676 351.407C297.38 351.671 298.392 351.946 299.712 352.232C301.802 352.672 303.276 353.31 304.134 354.146C305.014 354.96 305.454 356.005 305.454 357.281C305.454 358.227 305.179 359.085 304.629 359.855C304.079 360.625 303.265 361.23 302.187 361.67C301.131 362.11 299.866 362.33 298.392 362.33ZM314.059 362.33C312.981 362.33 311.98 362.11 311.056 361.67C310.132 361.23 309.395 360.636 308.845 359.888C308.317 359.118 308.053 358.271 308.053 357.347C308.053 355.895 308.647 354.707 309.835 353.783C311.045 352.837 312.673 352.221 314.719 351.935L319.636 351.242V350.285C319.636 348.041 318.349 346.919 315.775 346.919C314.807 346.919 314.015 347.128 313.399 347.546C312.783 347.942 312.321 348.415 312.013 348.965C311.947 349.163 311.859 349.306 311.749 349.394C311.661 349.482 311.529 349.526 311.353 349.526H309.934C309.736 349.526 309.56 349.46 309.406 349.328C309.274 349.174 309.208 348.998 309.208 348.8C309.23 348.272 309.472 347.678 309.934 347.018C310.418 346.336 311.155 345.753 312.145 345.269C313.135 344.763 314.356 344.51 315.808 344.51C318.272 344.51 320.043 345.093 321.121 346.259C322.199 347.403 322.738 348.833 322.738 350.549V361.241C322.738 361.461 322.661 361.648 322.507 361.802C322.375 361.934 322.199 362 321.979 362H320.461C320.241 362 320.054 361.934 319.9 361.802C319.768 361.648 319.702 361.461 319.702 361.241V359.822C319.218 360.526 318.514 361.12 317.59 361.604C316.666 362.088 315.489 362.33 314.059 362.33ZM314.752 359.855C316.182 359.855 317.348 359.393 318.25 358.469C319.174 357.523 319.636 356.17 319.636 354.41V353.486L315.808 354.047C314.246 354.267 313.069 354.641 312.277 355.169C311.485 355.675 311.089 356.324 311.089 357.116C311.089 357.996 311.452 358.678 312.178 359.162C312.904 359.624 313.762 359.855 314.752 359.855ZM335.963 362.33C333.587 362.33 331.783 361.505 330.551 359.855V361.241C330.551 361.461 330.474 361.648 330.32 361.802C330.188 361.934 330.012 362 329.792 362H328.274C328.054 362 327.867 361.934 327.713 361.802C327.581 361.648 327.515 361.461 327.515 361.241V339.329C327.515 339.109 327.581 338.933 327.713 338.801C327.867 338.647 328.054 338.57 328.274 338.57H329.891C330.111 338.57 330.287 338.647 330.419 338.801C330.551 338.933 330.617 339.109 330.617 339.329V346.919C331.915 345.313 333.697 344.51 335.963 344.51C338.251 344.51 339.978 345.269 341.144 346.787C342.31 348.283 342.937 350.164 343.025 352.43C343.047 352.672 343.058 353.002 343.058 353.42C343.058 353.838 343.047 354.168 343.025 354.41C342.937 356.698 342.31 358.59 341.144 360.086C339.978 361.582 338.251 362.33 335.963 362.33ZM335.27 359.657C336.832 359.657 337.965 359.173 338.669 358.205C339.395 357.237 339.791 355.961 339.857 354.377C339.879 354.157 339.89 353.838 339.89 353.42C339.89 349.262 338.35 347.183 335.27 347.183C333.796 347.183 332.663 347.667 331.871 348.635C331.079 349.603 330.661 350.736 330.617 352.034L330.584 353.321L330.617 354.575C330.683 355.961 331.09 357.16 331.838 358.172C332.608 359.162 333.752 359.657 335.27 359.657ZM347.603 341.639C347.383 341.639 347.196 341.573 347.042 341.441C346.91 341.287 346.844 341.1 346.844 340.88V339.098C346.844 338.878 346.91 338.691 347.042 338.537C347.196 338.383 347.383 338.306 347.603 338.306H349.682C349.902 338.306 350.089 338.383 350.243 338.537C350.397 338.691 350.474 338.878 350.474 339.098V340.88C350.474 341.1 350.397 341.287 350.243 341.441C350.089 341.573 349.902 341.639 349.682 341.639H347.603ZM347.867 362C347.647 362 347.46 361.934 347.306 361.802C347.174 361.648 347.108 361.461 347.108 361.241V345.599C347.108 345.379 347.174 345.203 347.306 345.071C347.46 344.917 347.647 344.84 347.867 344.84H349.451C349.671 344.84 349.847 344.917 349.979 345.071C350.133 345.203 350.21 345.379 350.21 345.599V361.241C350.21 361.461 350.133 361.648 349.979 361.802C349.847 361.934 349.671 362 349.451 362H347.867ZM355.892 362C355.672 362 355.485 361.934 355.331 361.802C355.199 361.648 355.133 361.461 355.133 361.241V339.329C355.133 339.109 355.199 338.933 355.331 338.801C355.485 338.647 355.672 338.57 355.892 338.57H357.443C357.663 338.57 357.839 338.647 357.971 338.801C358.125 338.933 358.202 339.109 358.202 339.329V361.241C358.202 361.461 358.125 361.648 357.971 361.802C357.839 361.934 357.663 362 357.443 362H355.892ZM363.62 341.639C363.4 341.639 363.213 341.573 363.059 341.441C362.927 341.287 362.861 341.1 362.861 340.88V339.098C362.861 338.878 362.927 338.691 363.059 338.537C363.213 338.383 363.4 338.306 363.62 338.306H365.699C365.919 338.306 366.106 338.383 366.26 338.537C366.414 338.691 366.491 338.878 366.491 339.098V340.88C366.491 341.1 366.414 341.287 366.26 341.441C366.106 341.573 365.919 341.639 365.699 341.639H363.62ZM363.884 362C363.664 362 363.477 361.934 363.323 361.802C363.191 361.648 363.125 361.461 363.125 361.241V345.599C363.125 345.379 363.191 345.203 363.323 345.071C363.477 344.917 363.664 344.84 363.884 344.84H365.468C365.688 344.84 365.864 344.917 365.996 345.071C366.15 345.203 366.227 345.379 366.227 345.599V361.241C366.227 361.461 366.15 361.648 365.996 361.802C365.864 361.934 365.688 362 365.468 362H363.884ZM377.816 362C374.34 362 372.602 360.064 372.602 356.192V347.48H370.028C369.808 347.48 369.621 347.414 369.467 347.282C369.335 347.128 369.269 346.941 369.269 346.721V345.599C369.269 345.379 369.335 345.203 369.467 345.071C369.621 344.917 369.808 344.84 370.028 344.84H372.602V339.329C372.602 339.109 372.668 338.933 372.8 338.801C372.954 338.647 373.141 338.57 373.361 338.57H374.912C375.132 338.57 375.308 338.647 375.44 338.801C375.594 338.933 375.671 339.109 375.671 339.329V344.84H379.763C379.983 344.84 380.159 344.917 380.291 345.071C380.445 345.203 380.522 345.379 380.522 345.599V346.721C380.522 346.941 380.445 347.128 380.291 347.282C380.159 347.414 379.983 347.48 379.763 347.48H375.671V355.961C375.671 357.061 375.858 357.897 376.232 358.469C376.606 359.019 377.222 359.294 378.08 359.294H380.093C380.313 359.294 380.489 359.371 380.621 359.525C380.775 359.657 380.852 359.833 380.852 360.053V361.241C380.852 361.461 380.775 361.648 380.621 361.802C380.489 361.934 380.313 362 380.093 362H377.816ZM387.01 368.27C386.834 368.27 386.68 368.204 386.548 368.072C386.416 367.94 386.35 367.786 386.35 367.61C386.35 367.456 386.405 367.258 386.515 367.016L389.056 360.977L382.753 346.094C382.643 345.808 382.588 345.621 382.588 345.533C382.588 345.335 382.654 345.17 382.786 345.038C382.918 344.906 383.083 344.84 383.281 344.84H384.898C385.25 344.84 385.514 345.027 385.69 345.401L390.706 357.413L395.854 345.401C396.03 345.027 396.305 344.84 396.679 344.84H398.23C398.428 344.84 398.593 344.906 398.725 345.038C398.857 345.17 398.923 345.324 398.923 345.5C398.923 345.566 398.868 345.764 398.758 346.094L389.386 367.709C389.21 368.083 388.935 368.27 388.561 368.27H387.01ZM410.622 362C410.402 362 410.215 361.934 410.061 361.802C409.929 361.648 409.863 361.461 409.863 361.241V339.692C409.863 339.45 409.929 339.263 410.061 339.131C410.215 338.977 410.402 338.9 410.622 338.9H418.674C421.204 338.9 423.184 339.494 424.614 340.682C426.044 341.87 426.759 343.586 426.759 345.83C426.759 347.502 426.341 348.877 425.505 349.955C424.691 351.033 423.536 351.781 422.04 352.199L427.122 360.977C427.188 361.109 427.221 361.23 427.221 361.34C427.221 361.516 427.144 361.67 426.99 361.802C426.858 361.934 426.704 362 426.528 362H424.944C424.614 362 424.35 361.923 424.152 361.769C423.976 361.615 423.811 361.395 423.657 361.109L418.872 352.727H413.097V361.241C413.097 361.461 413.02 361.648 412.866 361.802C412.712 361.934 412.525 362 412.305 362H410.622ZM418.542 349.922C421.82 349.922 423.459 348.547 423.459 345.797C423.459 343.047 421.82 341.672 418.542 341.672H413.097V349.922H418.542ZM437.729 362.33C435.463 362.33 433.648 361.637 432.284 360.251C430.942 358.843 430.205 356.929 430.073 354.509L430.04 353.387L430.073 352.298C430.227 349.922 430.975 348.03 432.317 346.622C433.681 345.214 435.474 344.51 437.696 344.51C440.138 344.51 442.03 345.291 443.372 346.853C444.714 348.393 445.385 350.483 445.385 353.123V353.684C445.385 353.904 445.308 354.091 445.154 354.245C445.022 354.377 444.846 354.443 444.626 354.443H433.208V354.74C433.274 356.17 433.703 357.391 434.495 358.403C435.309 359.393 436.376 359.888 437.696 359.888C438.708 359.888 439.533 359.69 440.171 359.294C440.831 358.876 441.315 358.447 441.623 358.007C441.821 357.743 441.964 357.589 442.052 357.545C442.162 357.479 442.349 357.446 442.613 357.446H444.23C444.428 357.446 444.593 357.501 444.725 357.611C444.857 357.721 444.923 357.875 444.923 358.073C444.923 358.557 444.615 359.14 443.999 359.822C443.405 360.504 442.558 361.098 441.458 361.604C440.38 362.088 439.137 362.33 437.729 362.33ZM442.25 352.166V352.067C442.25 350.549 441.832 349.317 440.996 348.371C440.182 347.403 439.082 346.919 437.696 346.919C436.31 346.919 435.21 347.403 434.396 348.371C433.604 349.317 433.208 350.549 433.208 352.067V352.166H442.25ZM455.271 362.33C453.731 362.33 452.433 362.088 451.377 361.604C450.343 361.098 449.562 360.526 449.034 359.888C448.528 359.25 448.275 358.722 448.275 358.304C448.275 358.084 448.352 357.919 448.506 357.809C448.682 357.677 448.858 357.611 449.034 357.611H450.519C450.739 357.611 450.937 357.721 451.113 357.941C451.641 358.557 452.213 359.041 452.829 359.393C453.445 359.745 454.27 359.921 455.304 359.921C456.448 359.921 457.372 359.701 458.076 359.261C458.802 358.799 459.165 358.172 459.165 357.38C459.165 356.852 459.011 356.423 458.703 356.093C458.417 355.741 457.911 355.444 457.185 355.202C456.481 354.938 455.425 354.652 454.017 354.344C452.103 353.926 450.739 353.321 449.925 352.529C449.133 351.737 448.737 350.714 448.737 349.46C448.737 348.624 448.979 347.832 449.463 347.084C449.969 346.314 450.695 345.698 451.641 345.236C452.609 344.752 453.764 344.51 455.106 344.51C456.514 344.51 457.713 344.741 458.703 345.203C459.693 345.665 460.43 346.215 460.914 346.853C461.42 347.469 461.673 347.986 461.673 348.404C461.673 348.602 461.596 348.767 461.442 348.899C461.31 349.031 461.145 349.097 460.947 349.097H459.561C459.297 349.097 459.077 348.987 458.901 348.767C458.549 348.349 458.241 348.03 457.977 347.81C457.735 347.568 457.372 347.359 456.888 347.183C456.426 347.007 455.832 346.919 455.106 346.919C454.05 346.919 453.236 347.15 452.664 347.612C452.092 348.052 451.806 348.635 451.806 349.361C451.806 349.823 451.927 350.219 452.169 350.549C452.411 350.857 452.873 351.143 453.555 351.407C454.259 351.671 455.271 351.946 456.591 352.232C458.681 352.672 460.155 353.31 461.013 354.146C461.893 354.96 462.333 356.005 462.333 357.281C462.333 358.227 462.058 359.085 461.508 359.855C460.958 360.625 460.144 361.23 459.066 361.67C458.01 362.11 456.745 362.33 455.271 362.33ZM473.017 362.33C470.751 362.33 468.936 361.637 467.572 360.251C466.23 358.843 465.493 356.929 465.361 354.509L465.328 353.387L465.361 352.298C465.515 349.922 466.263 348.03 467.605 346.622C468.969 345.214 470.762 344.51 472.984 344.51C475.426 344.51 477.318 345.291 478.66 346.853C480.002 348.393 480.673 350.483 480.673 353.123V353.684C480.673 353.904 480.596 354.091 480.442 354.245C480.31 354.377 480.134 354.443 479.914 354.443H468.496V354.74C468.562 356.17 468.991 357.391 469.783 358.403C470.597 359.393 471.664 359.888 472.984 359.888C473.996 359.888 474.821 359.69 475.459 359.294C476.119 358.876 476.603 358.447 476.911 358.007C477.109 357.743 477.252 357.589 477.34 357.545C477.45 357.479 477.637 357.446 477.901 357.446H479.518C479.716 357.446 479.881 357.501 480.013 357.611C480.145 357.721 480.211 357.875 480.211 358.073C480.211 358.557 479.903 359.14 479.287 359.822C478.693 360.504 477.846 361.098 476.746 361.604C475.668 362.088 474.425 362.33 473.017 362.33ZM477.538 352.166V352.067C477.538 350.549 477.12 349.317 476.284 348.371C475.47 347.403 474.37 346.919 472.984 346.919C471.598 346.919 470.498 347.403 469.684 348.371C468.892 349.317 468.496 350.549 468.496 352.067V352.166H477.538ZM489.404 362.33C488.326 362.33 487.325 362.11 486.401 361.67C485.477 361.23 484.74 360.636 484.19 359.888C483.662 359.118 483.398 358.271 483.398 357.347C483.398 355.895 483.992 354.707 485.18 353.783C486.39 352.837 488.018 352.221 490.064 351.935L494.981 351.242V350.285C494.981 348.041 493.694 346.919 491.12 346.919C490.152 346.919 489.36 347.128 488.744 347.546C488.128 347.942 487.666 348.415 487.358 348.965C487.292 349.163 487.204 349.306 487.094 349.394C487.006 349.482 486.874 349.526 486.698 349.526H485.279C485.081 349.526 484.905 349.46 484.751 349.328C484.619 349.174 484.553 348.998 484.553 348.8C484.575 348.272 484.817 347.678 485.279 347.018C485.763 346.336 486.5 345.753 487.49 345.269C488.48 344.763 489.701 344.51 491.153 344.51C493.617 344.51 495.388 345.093 496.466 346.259C497.544 347.403 498.083 348.833 498.083 350.549V361.241C498.083 361.461 498.006 361.648 497.852 361.802C497.72 361.934 497.544 362 497.324 362H495.806C495.586 362 495.399 361.934 495.245 361.802C495.113 361.648 495.047 361.461 495.047 361.241V359.822C494.563 360.526 493.859 361.12 492.935 361.604C492.011 362.088 490.834 362.33 489.404 362.33ZM490.097 359.855C491.527 359.855 492.693 359.393 493.595 358.469C494.519 357.523 494.981 356.17 494.981 354.41V353.486L491.153 354.047C489.591 354.267 488.414 354.641 487.622 355.169C486.83 355.675 486.434 356.324 486.434 357.116C486.434 357.996 486.797 358.678 487.523 359.162C488.249 359.624 489.107 359.855 490.097 359.855ZM503.586 362C503.366 362 503.179 361.934 503.025 361.802C502.893 361.648 502.827 361.461 502.827 361.241V345.632C502.827 345.412 502.893 345.225 503.025 345.071C503.179 344.917 503.366 344.84 503.586 344.84H505.104C505.324 344.84 505.511 344.917 505.665 345.071C505.819 345.225 505.896 345.412 505.896 345.632V347.084C506.798 345.588 508.338 344.84 510.516 344.84H511.803C512.023 344.84 512.199 344.917 512.331 345.071C512.485 345.203 512.562 345.379 512.562 345.599V346.952C512.562 347.172 512.485 347.348 512.331 347.48C512.199 347.612 512.023 347.678 511.803 347.678H509.823C508.635 347.678 507.7 348.03 507.018 348.734C506.336 349.416 505.995 350.351 505.995 351.539V361.241C505.995 361.461 505.918 361.648 505.764 361.802C505.61 361.934 505.423 362 505.203 362H503.586ZM521.971 362.33C519.617 362.33 517.769 361.67 516.427 360.35C515.107 359.008 514.403 357.138 514.315 354.74L514.282 353.42L514.315 352.1C514.403 349.702 515.107 347.843 516.427 346.523C517.769 345.181 519.617 344.51 521.971 344.51C523.555 344.51 524.897 344.796 525.997 345.368C527.097 345.94 527.911 346.644 528.439 347.48C528.989 348.316 529.286 349.152 529.33 349.988C529.352 350.208 529.286 350.384 529.132 350.516C528.978 350.648 528.791 350.714 528.571 350.714H526.987C526.767 350.714 526.602 350.67 526.492 350.582C526.382 350.494 526.272 350.318 526.162 350.054C525.788 348.998 525.26 348.25 524.578 347.81C523.896 347.348 523.038 347.117 522.004 347.117C520.64 347.117 519.551 347.546 518.737 348.404C517.945 349.24 517.516 350.527 517.45 352.265L517.417 353.453L517.45 354.575C517.516 356.335 517.945 357.633 518.737 358.469C519.529 359.305 520.618 359.723 522.004 359.723C523.038 359.723 523.896 359.503 524.578 359.063C525.26 358.601 525.788 357.842 526.162 356.786C526.272 356.522 526.382 356.346 526.492 356.258C526.602 356.148 526.767 356.093 526.987 356.093H528.571C528.791 356.093 528.978 356.17 529.132 356.324C529.286 356.456 529.352 356.632 529.33 356.852C529.286 357.666 528.989 358.502 528.439 359.36C527.911 360.196 527.097 360.9 525.997 361.472C524.919 362.044 523.577 362.33 521.971 362.33ZM534.041 362C533.821 362 533.634 361.934 533.48 361.802C533.348 361.648 533.282 361.461 533.282 361.241V339.329C533.282 339.109 533.348 338.933 533.48 338.801C533.634 338.647 533.821 338.57 534.041 338.57H535.691C535.911 338.57 536.087 338.647 536.219 338.801C536.373 338.933 536.45 339.109 536.45 339.329V347.018C537.088 346.204 537.836 345.588 538.694 345.17C539.552 344.73 540.619 344.51 541.895 344.51C544.007 344.51 545.646 345.192 546.812 346.556C548 347.898 548.594 349.691 548.594 351.935V361.241C548.594 361.461 548.517 361.648 548.363 361.802C548.231 361.934 548.055 362 547.835 362H546.185C545.965 362 545.778 361.934 545.624 361.802C545.492 361.648 545.426 361.461 545.426 361.241V352.1C545.426 350.538 545.041 349.328 544.271 348.47C543.523 347.612 542.434 347.183 541.004 347.183C539.618 347.183 538.507 347.623 537.671 348.503C536.857 349.361 536.45 350.56 536.45 352.1V361.241C536.45 361.461 536.373 361.648 536.219 361.802C536.087 361.934 535.911 362 535.691 362H534.041ZM568.476 362.33C566.98 362.33 565.649 362.055 564.483 361.505C563.339 360.955 562.448 360.185 561.81 359.195C561.172 358.205 560.853 357.083 560.853 355.829C560.853 354.443 561.26 353.266 562.074 352.298C562.888 351.308 564.032 350.384 565.506 349.526C564.472 348.426 563.735 347.469 563.295 346.655C562.877 345.819 562.668 344.939 562.668 344.015C562.668 343.025 562.921 342.123 563.427 341.309C563.933 340.473 564.659 339.813 565.605 339.329C566.551 338.823 567.629 338.57 568.839 338.57C570.027 338.57 571.083 338.812 572.007 339.296C572.931 339.758 573.646 340.407 574.152 341.243C574.658 342.057 574.911 342.97 574.911 343.982C574.911 345.324 574.482 346.446 573.624 347.348C572.766 348.25 571.523 349.163 569.895 350.087L575.505 355.598C576.385 354.124 576.979 352.452 577.287 350.582C577.309 350.384 577.375 350.23 577.485 350.12C577.617 349.988 577.782 349.922 577.98 349.922H579.432C579.63 349.922 579.795 349.988 579.927 350.12C580.059 350.252 580.125 350.417 580.125 350.615C580.103 351.583 579.85 352.694 579.366 353.948C578.904 355.18 578.266 356.368 577.452 357.512L580.818 360.878C581.016 361.076 581.115 361.241 581.115 361.373C581.115 361.791 580.895 362 580.455 362H578.607C578.189 362 577.892 361.89 577.716 361.67L575.538 359.525C573.624 361.395 571.27 362.33 568.476 362.33ZM568.08 348.173C569.4 347.447 570.39 346.787 571.05 346.193C571.71 345.599 572.04 344.873 572.04 344.015C572.04 343.157 571.732 342.464 571.116 341.936C570.5 341.386 569.741 341.111 568.839 341.111C567.959 341.111 567.2 341.386 566.562 341.936C565.946 342.464 565.638 343.168 565.638 344.048C565.638 344.642 565.803 345.236 566.133 345.83C566.485 346.402 567.134 347.183 568.08 348.173ZM568.476 359.69C569.378 359.69 570.269 359.503 571.149 359.129C572.029 358.755 572.832 358.205 573.558 357.479L567.387 351.473C566.265 352.111 565.396 352.76 564.78 353.42C564.186 354.08 563.889 354.861 563.889 355.763C563.889 356.973 564.34 357.93 565.242 358.634C566.144 359.338 567.222 359.69 568.476 359.69ZM593.637 362C593.417 362 593.23 361.934 593.076 361.802C592.944 361.648 592.878 361.461 592.878 361.241V339.692C592.878 339.45 592.944 339.263 593.076 339.131C593.23 338.977 593.417 338.9 593.637 338.9H601.689C604.219 338.9 606.199 339.494 607.629 340.682C609.059 341.87 609.774 343.586 609.774 345.83C609.774 347.502 609.356 348.877 608.52 349.955C607.706 351.033 606.551 351.781 605.055 352.199L610.137 360.977C610.203 361.109 610.236 361.23 610.236 361.34C610.236 361.516 610.159 361.67 610.005 361.802C609.873 361.934 609.719 362 609.543 362H607.959C607.629 362 607.365 361.923 607.167 361.769C606.991 361.615 606.826 361.395 606.672 361.109L601.887 352.727H596.112V361.241C596.112 361.461 596.035 361.648 595.881 361.802C595.727 361.934 595.54 362 595.32 362H593.637ZM601.557 349.922C604.835 349.922 606.474 348.547 606.474 345.797C606.474 343.047 604.835 341.672 601.557 341.672H596.112V349.922H601.557ZM620.744 362.33C618.478 362.33 616.663 361.637 615.299 360.251C613.957 358.843 613.22 356.929 613.088 354.509L613.055 353.387L613.088 352.298C613.242 349.922 613.99 348.03 615.332 346.622C616.696 345.214 618.489 344.51 620.711 344.51C623.153 344.51 625.045 345.291 626.387 346.853C627.729 348.393 628.399 350.483 628.399 353.123V353.684C628.399 353.904 628.323 354.091 628.169 354.245C628.037 354.377 627.861 354.443 627.641 354.443H616.223V354.74C616.289 356.17 616.718 357.391 617.51 358.403C618.324 359.393 619.391 359.888 620.711 359.888C621.723 359.888 622.548 359.69 623.186 359.294C623.846 358.876 624.33 358.447 624.638 358.007C624.836 357.743 624.979 357.589 625.067 357.545C625.177 357.479 625.364 357.446 625.628 357.446H627.245C627.443 357.446 627.608 357.501 627.74 357.611C627.872 357.721 627.938 357.875 627.938 358.073C627.938 358.557 627.63 359.14 627.014 359.822C626.42 360.504 625.573 361.098 624.473 361.604C623.395 362.088 622.152 362.33 620.744 362.33ZM625.265 352.166V352.067C625.265 350.549 624.847 349.317 624.011 348.371C623.197 347.403 622.097 346.919 620.711 346.919C619.325 346.919 618.225 347.403 617.411 348.371C616.619 349.317 616.223 350.549 616.223 352.067V352.166H625.265ZM638.615 362.33C636.327 362.33 634.6 361.582 633.434 360.086C632.268 358.59 631.652 356.698 631.586 354.41L631.553 353.42L631.586 352.43C631.652 350.164 632.268 348.283 633.434 346.787C634.6 345.269 636.327 344.51 638.615 344.51C640.881 344.51 642.663 345.313 643.961 346.919V339.329C643.961 339.109 644.027 338.933 644.159 338.801C644.313 338.647 644.5 338.57 644.72 338.57H646.304C646.524 338.57 646.7 338.647 646.832 338.801C646.986 338.933 647.063 339.109 647.063 339.329V361.241C647.063 361.461 646.986 361.648 646.832 361.802C646.7 361.934 646.524 362 646.304 362H644.819C644.599 362 644.412 361.934 644.258 361.802C644.126 361.648 644.06 361.461 644.06 361.241V359.855C642.784 361.505 640.969 362.33 638.615 362.33ZM639.308 359.657C640.826 359.657 641.959 359.162 642.707 358.172C643.477 357.16 643.895 355.961 643.961 354.575C643.983 354.333 643.994 353.915 643.994 353.321C643.994 352.705 643.983 352.276 643.961 352.034C643.917 350.736 643.499 349.603 642.707 348.635C641.915 347.667 640.782 347.183 639.308 347.183C637.746 347.183 636.602 347.667 635.876 348.635C635.172 349.603 634.787 350.879 634.721 352.463L634.688 353.42C634.688 357.578 636.228 359.657 639.308 359.657ZM658.835 362.33C656.569 362.33 654.754 361.637 653.39 360.251C652.048 358.843 651.311 356.929 651.179 354.509L651.146 353.387L651.179 352.298C651.333 349.922 652.081 348.03 653.423 346.622C654.787 345.214 656.58 344.51 658.802 344.51C661.244 344.51 663.136 345.291 664.478 346.853C665.82 348.393 666.491 350.483 666.491 353.123V353.684C666.491 353.904 666.414 354.091 666.26 354.245C666.128 354.377 665.952 354.443 665.732 354.443H654.314V354.74C654.38 356.17 654.809 357.391 655.601 358.403C656.415 359.393 657.482 359.888 658.802 359.888C659.814 359.888 660.639 359.69 661.277 359.294C661.937 358.876 662.421 358.447 662.729 358.007C662.927 357.743 663.07 357.589 663.158 357.545C663.268 357.479 663.455 357.446 663.719 357.446H665.336C665.534 357.446 665.699 357.501 665.831 357.611C665.963 357.721 666.029 357.875 666.029 358.073C666.029 358.557 665.721 359.14 665.105 359.822C664.511 360.504 663.664 361.098 662.564 361.604C661.486 362.088 660.243 362.33 658.835 362.33ZM663.356 352.166V352.067C663.356 350.549 662.938 349.317 662.102 348.371C661.288 347.403 660.188 346.919 658.802 346.919C657.416 346.919 656.316 347.403 655.502 348.371C654.71 349.317 654.314 350.549 654.314 352.067V352.166H663.356ZM676.377 362.33C674.837 362.33 673.539 362.088 672.483 361.604C671.449 361.098 670.668 360.526 670.14 359.888C669.634 359.25 669.381 358.722 669.381 358.304C669.381 358.084 669.458 357.919 669.612 357.809C669.788 357.677 669.964 357.611 670.14 357.611H671.625C671.845 357.611 672.043 357.721 672.219 357.941C672.747 358.557 673.319 359.041 673.935 359.393C674.551 359.745 675.376 359.921 676.41 359.921C677.554 359.921 678.478 359.701 679.182 359.261C679.908 358.799 680.271 358.172 680.271 357.38C680.271 356.852 680.117 356.423 679.809 356.093C679.523 355.741 679.017 355.444 678.291 355.202C677.587 354.938 676.531 354.652 675.123 354.344C673.209 353.926 671.845 353.321 671.031 352.529C670.239 351.737 669.843 350.714 669.843 349.46C669.843 348.624 670.085 347.832 670.569 347.084C671.075 346.314 671.801 345.698 672.747 345.236C673.715 344.752 674.87 344.51 676.212 344.51C677.62 344.51 678.819 344.741 679.809 345.203C680.799 345.665 681.536 346.215 682.02 346.853C682.526 347.469 682.779 347.986 682.779 348.404C682.779 348.602 682.702 348.767 682.548 348.899C682.416 349.031 682.251 349.097 682.053 349.097H680.667C680.403 349.097 680.183 348.987 680.007 348.767C679.655 348.349 679.347 348.03 679.083 347.81C678.841 347.568 678.478 347.359 677.994 347.183C677.532 347.007 676.938 346.919 676.212 346.919C675.156 346.919 674.342 347.15 673.77 347.612C673.198 348.052 672.912 348.635 672.912 349.361C672.912 349.823 673.033 350.219 673.275 350.549C673.517 350.857 673.979 351.143 674.661 351.407C675.365 351.671 676.377 351.946 677.697 352.232C679.787 352.672 681.261 353.31 682.119 354.146C682.999 354.96 683.439 356.005 683.439 357.281C683.439 358.227 683.164 359.085 682.614 359.855C682.064 360.625 681.25 361.23 680.172 361.67C679.116 362.11 677.851 362.33 676.377 362.33ZM687.754 341.639C687.534 341.639 687.347 341.573 687.193 341.441C687.061 341.287 686.995 341.1 686.995 340.88V339.098C686.995 338.878 687.061 338.691 687.193 338.537C687.347 338.383 687.534 338.306 687.754 338.306H689.833C690.053 338.306 690.24 338.383 690.394 338.537C690.548 338.691 690.625 338.878 690.625 339.098V340.88C690.625 341.1 690.548 341.287 690.394 341.441C690.24 341.573 690.053 341.639 689.833 341.639H687.754ZM688.018 362C687.798 362 687.611 361.934 687.457 361.802C687.325 361.648 687.259 361.461 687.259 361.241V345.599C687.259 345.379 687.325 345.203 687.457 345.071C687.611 344.917 687.798 344.84 688.018 344.84H689.602C689.822 344.84 689.998 344.917 690.13 345.071C690.284 345.203 690.361 345.379 690.361 345.599V361.241C690.361 361.461 690.284 361.648 690.13 361.802C689.998 361.934 689.822 362 689.602 362H688.018ZM702.281 369.26C700.477 369.26 699.025 368.952 697.925 368.336C696.825 367.742 696.044 367.06 695.582 366.29C695.12 365.52 694.867 364.827 694.823 364.211C694.801 363.991 694.867 363.804 695.021 363.65C695.197 363.496 695.384 363.419 695.582 363.419H697.166C697.364 363.419 697.529 363.463 697.661 363.551C697.793 363.661 697.903 363.848 697.991 364.112C698.255 364.816 698.684 365.421 699.278 365.927C699.894 366.455 700.84 366.719 702.116 366.719C703.744 366.719 704.943 366.367 705.713 365.663C706.483 364.981 706.868 363.76 706.868 362V359.756C706.296 360.482 705.57 361.065 704.69 361.505C703.81 361.923 702.765 362.132 701.555 362.132C699.223 362.132 697.474 361.395 696.308 359.921C695.164 358.425 694.559 356.533 694.493 354.245L694.46 353.321L694.493 352.43C694.559 350.164 695.175 348.283 696.341 346.787C697.507 345.269 699.245 344.51 701.555 344.51C703.865 344.51 705.669 345.357 706.967 347.051V345.632C706.967 345.412 707.033 345.225 707.165 345.071C707.319 344.917 707.506 344.84 707.726 344.84H709.244C709.464 344.84 709.651 344.917 709.805 345.071C709.959 345.225 710.036 345.412 710.036 345.632V361.637C710.036 366.719 707.451 369.26 702.281 369.26ZM702.215 359.492C703.711 359.492 704.844 358.997 705.614 358.007C706.384 357.017 706.802 355.84 706.868 354.476C706.89 354.278 706.901 353.893 706.901 353.321C706.901 352.771 706.89 352.397 706.868 352.199C706.802 350.835 706.384 349.658 705.614 348.668C704.866 347.678 703.733 347.183 702.215 347.183C700.653 347.183 699.52 347.667 698.816 348.635C698.112 349.603 697.727 350.879 697.661 352.463L697.628 353.321L697.661 354.212C697.727 355.774 698.112 357.05 698.816 358.04C699.52 359.008 700.653 359.492 702.215 359.492ZM715.701 362C715.481 362 715.294 361.934 715.14 361.802C715.008 361.648 714.942 361.461 714.942 361.241V345.599C714.942 345.379 715.008 345.203 715.14 345.071C715.294 344.917 715.481 344.84 715.701 344.84H717.252C717.472 344.84 717.648 344.917 717.78 345.071C717.934 345.203 718.011 345.379 718.011 345.599V347.051C718.649 346.237 719.397 345.61 720.255 345.17C721.135 344.73 722.224 344.51 723.522 344.51C725.634 344.51 727.273 345.192 728.439 346.556C729.627 347.898 730.221 349.691 730.221 351.935V361.241C730.221 361.461 730.144 361.648 729.99 361.802C729.858 361.934 729.682 362 729.462 362H727.812C727.592 362 727.405 361.934 727.251 361.802C727.119 361.648 727.053 361.461 727.053 361.241V352.1C727.053 350.538 726.668 349.328 725.898 348.47C725.15 347.612 724.061 347.183 722.631 347.183C721.245 347.183 720.145 347.623 719.331 348.503C718.517 349.361 718.11 350.56 718.11 352.1V361.241C718.11 361.461 718.033 361.648 717.879 361.802C717.747 361.934 717.571 362 717.351 362H715.701Z" fill="#27323D"/>
<rect y="528" width="642" height="70" fill="#7FEFAC"/>
<rect x="500" y="528" width="500" height="70" fill="#F0867F"/>
<rect x="502" y="2" width="498" height="70" fill="#27323D"/>
<rect y="2" width="502" height="70" fill="#6ADEDA"/>
</svg>
