<svg width="200" height="150" viewBox="0 0 200 150" fill="none" xmlns="http://www.w3.org/2000/svg">
<rect x="20" y="39.874" width="118.485" height="74.4466" fill="#95CA6C"/>
<path d="M179.379 57.2136C179.379 51.6908 174.902 47.2136 169.379 47.2136H139.534V110.126H179.379V57.2136Z" fill="#95CA6C"/>
<path d="M174.136 64.5532C174.136 59.0304 169.659 54.5532 164.136 54.5532H143.728V78.6697H174.136V64.5532Z" fill="white"/>
<rect x="27.3398" y="88.1067" width="23.068" height="14.6796" fill="white"/>
<rect x="57.748" y="88.1067" width="23.068" height="14.6796" fill="white"/>
<rect x="88.1553" y="88.1067" width="23.068" height="14.6796" fill="white"/>
<rect width="23.068" height="36.699" transform="matrix(1 0 0 -1 27.3398 88.1067)" fill="#E4F3D8"/>
<rect width="23.068" height="36.699" transform="matrix(1 0 0 -1 57.748 88.1067)" fill="#E4F3D8"/>
<rect width="23.068" height="36.699" transform="matrix(1 0 0 -1 88.1553 88.1067)" fill="#E4F3D8"/>
<ellipse cx="128" cy="117.466" rx="11.534" ry="11.534" fill="#E4F3D8"/>
<ellipse cx="32.5823" cy="117.466" rx="11.534" ry="11.534" fill="#E4F3D8"/>
<ellipse cx="167.845" cy="117.466" rx="11.534" ry="11.534" fill="#E4F3D8"/>
<path d="M45.8926 72.6699C45.8926 72.6699 49.3363 74.8194 51.821 75.7708C54.3056 76.7223 58.4085 77.6078 58.4085 77.6078L51.9204 95.2858C51.9204 95.2858 47.0615 95.5053 44.7965 94.4943C42.5315 93.4832 39.5194 90.5365 39.5194 90.5365L45.8926 72.6699Z" fill="#75A74E"/>
<ellipse rx="6.71391" ry="1.41053" transform="matrix(0.936593 0.350419 -0.317138 0.948379 52.814 73.3393)" fill="#75A74E"/>
<path d="M50.8148 97.4879C50.2774 99.0951 46.8042 99.6312 43.5167 98.4012C40.2292 97.1712 37.9223 94.136 38.4597 92.5288C38.9972 90.9216 40.8256 94.4023 44.1131 95.6323C47.4006 96.8623 51.3523 95.8807 50.8148 97.4879Z" fill="#75A74E"/>
<path d="M94.314 87.6125C94.314 87.6125 96.7459 89.0536 98.4632 89.7513C100.18 90.449 102.973 91.2099 102.973 91.2099L99.7472 100.893C99.7472 100.893 96.5187 100.716 94.9443 99.9978C93.3699 99.2797 91.1762 97.4106 91.1762 97.4106L94.314 87.6125Z" fill="#75A74E"/>
<ellipse rx="4.67611" ry="0.766224" transform="matrix(0.928668 0.370911 -0.280521 0.959848 98.9733 88.4264)" fill="#75A74E"/>
<path d="M63.1689 114.405L83.6429 112.995L82.725 123.354L64.0865 124.356L63.1689 114.405Z" fill="#75A74E"/>
<path d="M63.165 113.809L83.8403 112.324L84.0439 110.569L76.9474 103.578L68.8991 104.32L62.9902 111.913L63.165 113.809Z" fill="#75A74E"/>
<path d="M64.0698 125.17L82.7083 124.168L82.7957 125.115C82.7957 125.115 77.724 126.539 73.173 126.839C68.622 127.139 64.1791 126.354 64.1791 126.354L64.0698 125.17Z" fill="#75A74E"/>
<path d="M68.4209 103.647L77.4451 102.203L77.3705 101.394C77.3705 101.394 74.7736 100.818 72.5634 101.124C70.3531 101.429 68.3277 102.636 68.3277 102.636L68.4209 103.647Z" fill="#75A74E"/>
<rect x="80.8145" y="38.2896" width="36.2188" height="33.8242" rx="3" transform="rotate(-28.5132 80.8145 38.2896)" fill="#1D7588"/>
<rect x="88.3994" y="40.3457" width="24.3932" height="21.9215" rx="1" transform="rotate(-28.5132 88.3994 40.3457)" fill="white"/>
<path d="M90.2514 25.7515L97.067 28.8972L99.1641 21.5574" stroke="#75A74E"/>
</svg>
