<svg width="479" height="267" viewBox="0 0 479 267" fill="none" xmlns="http://www.w3.org/2000/svg">
<rect width="479" height="267" fill="white"/>
<rect x="30" y="90" width="30" height="30" fill="#478C5C"/>
<path d="M72.6113 115V94.7656H83.918V96.9121H75.4824V103.406H82.5508V105.525H75.4824V112.854H84.5059V115H72.6113ZM87.8691 115V100.152H90.5625V102.941C91.875 100.863 93.5612 99.8242 95.6211 99.8242C97.6081 99.8242 98.9616 100.863 99.6816 102.941C100.958 100.854 102.617 99.8105 104.658 99.8105C105.971 99.8105 106.987 100.198 107.707 100.973C108.427 101.738 108.787 102.814 108.787 104.199V115H106.08V104.623C106.08 102.928 105.41 102.08 104.07 102.08C102.676 102.08 101.213 103.069 99.6816 105.047V115H96.9746V104.623C96.9746 102.919 96.291 102.066 94.9238 102.066C93.5658 102.066 92.112 103.06 90.5625 105.047V115H87.8691ZM119.82 115.342C117.697 115.342 116.001 114.64 114.734 113.236C113.467 111.824 112.834 109.937 112.834 107.576C112.834 105.188 113.467 103.301 114.734 101.916C116.01 100.521 117.738 99.8242 119.916 99.8242C122.094 99.8242 123.817 100.521 125.084 101.916C126.36 103.301 126.998 105.179 126.998 107.549C126.998 109.973 126.36 111.878 125.084 113.264C123.808 114.649 122.053 115.342 119.82 115.342ZM119.861 113.318C122.714 113.318 124.141 111.395 124.141 107.549C124.141 103.748 122.732 101.848 119.916 101.848C117.109 101.848 115.705 103.757 115.705 107.576C115.705 111.404 117.09 113.318 119.861 113.318ZM135.666 115.342C134.299 115.342 133.232 114.95 132.467 114.166C131.701 113.382 131.318 112.293 131.318 110.898V102.176H129.459V100.152H131.318V97.459L134.012 97.1992V100.152H137.895V102.176H134.012V110.406C134.012 112.348 134.85 113.318 136.527 113.318C136.883 113.318 137.316 113.259 137.826 113.141V115C136.997 115.228 136.277 115.342 135.666 115.342ZM141.682 115V100.152H144.375V115H141.682ZM141.682 97.459V94.7656H144.375V97.459H141.682ZM155.586 115.342C153.462 115.342 151.767 114.64 150.5 113.236C149.233 111.824 148.6 109.937 148.6 107.576C148.6 105.188 149.233 103.301 150.5 101.916C151.776 100.521 153.503 99.8242 155.682 99.8242C157.86 99.8242 159.583 100.521 160.85 101.916C162.126 103.301 162.764 105.179 162.764 107.549C162.764 109.973 162.126 111.878 160.85 113.264C159.574 114.649 157.819 115.342 155.586 115.342ZM155.627 113.318C158.48 113.318 159.906 111.395 159.906 107.549C159.906 103.748 158.498 101.848 155.682 101.848C152.874 101.848 151.471 103.757 151.471 107.576C151.471 111.404 152.856 113.318 155.627 113.318ZM166.975 115V100.152H169.668V102.941C171.09 100.863 172.831 99.8242 174.891 99.8242C176.176 99.8242 177.201 100.234 177.967 101.055C178.732 101.866 179.115 102.96 179.115 104.336V115H176.422V105.211C176.422 104.108 176.258 103.324 175.93 102.859C175.611 102.385 175.077 102.148 174.33 102.148C172.68 102.148 171.126 103.229 169.668 105.389V115H166.975ZM188.303 115.342C187.072 115.342 185.577 115.055 183.818 114.48V112.006C185.577 112.881 187.109 113.318 188.412 113.318C189.187 113.318 189.829 113.109 190.34 112.689C190.85 112.27 191.105 111.746 191.105 111.117C191.105 110.197 190.39 109.436 188.959 108.834L187.387 108.164C185.062 107.198 183.9 105.808 183.9 103.994C183.9 102.7 184.356 101.684 185.268 100.945C186.188 100.198 187.446 99.8242 189.041 99.8242C189.87 99.8242 190.896 99.9382 192.117 100.166L192.678 100.275V102.518C191.174 102.071 189.98 101.848 189.096 101.848C187.364 101.848 186.498 102.477 186.498 103.734C186.498 104.546 187.154 105.229 188.467 105.785L189.766 106.332C191.233 106.952 192.272 107.608 192.883 108.301C193.493 108.984 193.799 109.841 193.799 110.871C193.799 112.174 193.284 113.245 192.254 114.084C191.224 114.923 189.907 115.342 188.303 115.342ZM215.154 113.113C213.541 114.599 211.987 115.342 210.492 115.342C209.262 115.342 208.241 114.959 207.43 114.193C206.618 113.419 206.213 112.443 206.213 111.268C206.213 109.645 206.892 108.401 208.25 107.535C209.617 106.66 211.572 106.223 214.115 106.223H214.758V104.432C214.758 102.709 213.874 101.848 212.105 101.848C210.684 101.848 209.148 102.285 207.498 103.16V100.932C209.312 100.193 211.012 99.8242 212.598 99.8242C214.257 99.8242 215.478 100.198 216.262 100.945C217.055 101.693 217.451 102.855 217.451 104.432V111.158C217.451 112.699 217.925 113.469 218.873 113.469C218.992 113.469 219.165 113.451 219.393 113.414L219.584 114.904C218.973 115.196 218.299 115.342 217.561 115.342C216.303 115.342 215.501 114.599 215.154 113.113ZM214.758 111.65V107.809L213.855 107.781C212.379 107.781 211.185 108.064 210.273 108.629C209.362 109.185 208.906 109.919 208.906 110.83C208.906 111.477 209.134 112.024 209.59 112.471C210.046 112.917 210.602 113.141 211.258 113.141C212.379 113.141 213.546 112.644 214.758 111.65ZM222.975 115V100.152H225.668V102.941C227.09 100.863 228.831 99.8242 230.891 99.8242C232.176 99.8242 233.201 100.234 233.967 101.055C234.732 101.866 235.115 102.96 235.115 104.336V115H232.422V105.211C232.422 104.108 232.258 103.324 231.93 102.859C231.611 102.385 231.077 102.148 230.33 102.148C228.68 102.148 227.126 103.229 225.668 105.389V115H222.975ZM249.895 115V112.211C248.801 114.298 247.151 115.342 244.945 115.342C243.159 115.342 241.751 114.69 240.721 113.387C239.7 112.083 239.189 110.301 239.189 108.041C239.189 105.571 239.768 103.584 240.926 102.08C242.092 100.576 243.624 99.8242 245.52 99.8242C247.279 99.8242 248.737 100.499 249.895 101.848V93.4121H252.602V115H249.895ZM249.895 103.693C248.5 102.463 247.178 101.848 245.93 101.848C243.35 101.848 242.061 103.821 242.061 107.768C242.061 111.24 243.209 112.977 245.506 112.977C247.001 112.977 248.464 112.161 249.895 110.529V103.693ZM266.779 115V94.7656H269.65V103.297H279.275V94.7656H282.146V115H279.275V105.443H269.65V115H266.779ZM295.107 113.113C293.494 114.599 291.94 115.342 290.445 115.342C289.215 115.342 288.194 114.959 287.383 114.193C286.572 113.419 286.166 112.443 286.166 111.268C286.166 109.645 286.845 108.401 288.203 107.535C289.57 106.66 291.525 106.223 294.068 106.223H294.711V104.432C294.711 102.709 293.827 101.848 292.059 101.848C290.637 101.848 289.101 102.285 287.451 103.16V100.932C289.265 100.193 290.965 99.8242 292.551 99.8242C294.21 99.8242 295.431 100.198 296.215 100.945C297.008 101.693 297.404 102.855 297.404 104.432V111.158C297.404 112.699 297.878 113.469 298.826 113.469C298.945 113.469 299.118 113.451 299.346 113.414L299.537 114.904C298.926 115.196 298.252 115.342 297.514 115.342C296.256 115.342 295.454 114.599 295.107 113.113ZM294.711 111.65V107.809L293.809 107.781C292.332 107.781 291.138 108.064 290.227 108.629C289.315 109.185 288.859 109.919 288.859 110.83C288.859 111.477 289.087 112.024 289.543 112.471C289.999 112.917 290.555 113.141 291.211 113.141C292.332 113.141 293.499 112.644 294.711 111.65ZM302.928 115.164V93.4121H305.621V102.941C306.724 100.863 308.378 99.8242 310.584 99.8242C312.37 99.8242 313.774 100.476 314.795 101.779C315.825 103.083 316.34 104.865 316.34 107.125C316.34 109.586 315.757 111.573 314.59 113.086C313.432 114.59 311.906 115.342 310.01 115.342C308.251 115.342 306.788 114.667 305.621 113.318L305.293 115.164H302.928ZM305.621 111.459C307.007 112.699 308.328 113.318 309.586 113.318C312.174 113.318 313.469 111.345 313.469 107.398C313.469 103.917 312.32 102.176 310.023 102.176C308.52 102.176 307.052 102.992 305.621 104.623V111.459ZM320.564 115V100.152H323.258V115H320.564ZM320.564 97.459V94.7656H323.258V97.459H320.564ZM333.115 115.342C331.748 115.342 330.682 114.95 329.916 114.166C329.15 113.382 328.768 112.293 328.768 110.898V102.176H326.908V100.152H328.768V97.459L331.461 97.1992V100.152H335.344V102.176H331.461V110.406C331.461 112.348 332.299 113.318 333.977 113.318C334.332 113.318 334.765 113.259 335.275 113.141V115C334.446 115.228 333.726 115.342 333.115 115.342ZM343.068 115.342C341.838 115.342 340.343 115.055 338.584 114.48V112.006C340.343 112.881 341.874 113.318 343.178 113.318C343.952 113.318 344.595 113.109 345.105 112.689C345.616 112.27 345.871 111.746 345.871 111.117C345.871 110.197 345.156 109.436 343.725 108.834L342.152 108.164C339.828 107.198 338.666 105.808 338.666 103.994C338.666 102.7 339.122 101.684 340.033 100.945C340.954 100.198 342.212 99.8242 343.807 99.8242C344.636 99.8242 345.661 99.9382 346.883 100.166L347.443 100.275V102.518C345.939 102.071 344.745 101.848 343.861 101.848C342.13 101.848 341.264 102.477 341.264 103.734C341.264 104.546 341.92 105.229 343.232 105.785L344.531 106.332C345.999 106.952 347.038 107.608 347.648 108.301C348.259 108.984 348.564 109.841 348.564 110.871C348.564 112.174 348.049 113.245 347.02 114.084C345.99 114.923 344.673 115.342 343.068 115.342Z" fill="#478C5C"/>
<rect x="30" y="33" width="30" height="30" fill="#013A20"/>
<path d="M72.6113 58V37.7656H78.1211C80.5638 37.7656 82.3184 38.1803 83.3848 39.0098C84.4512 39.8301 84.9844 41.1836 84.9844 43.0703C84.9844 45.2214 84.2552 46.9076 82.7969 48.1289C81.3385 49.3503 79.3151 49.9609 76.7266 49.9609H75.4551V58H72.6113ZM75.4551 47.7871H76.6172C78.3216 47.7871 79.6387 47.3952 80.5684 46.6113C81.498 45.8275 81.9629 44.7201 81.9629 43.2891C81.9629 42.0768 81.5983 41.2109 80.8691 40.6914C80.14 40.1719 78.9232 39.9121 77.2188 39.9121H75.4551V47.7871ZM88.1699 58V43.1523H90.8633V45.9414C91.9297 43.8633 93.4792 42.8242 95.5117 42.8242C95.7852 42.8242 96.0723 42.847 96.373 42.8926V45.4082C95.9082 45.2533 95.498 45.1758 95.1426 45.1758C93.4382 45.1758 92.0117 46.1875 90.8633 48.2109V58H88.1699ZM105.438 58.3418C103.314 58.3418 101.618 57.64 100.352 56.2363C99.0846 54.8236 98.4512 52.9368 98.4512 50.5762C98.4512 48.1882 99.0846 46.3014 100.352 44.916C101.628 43.5215 103.355 42.8242 105.533 42.8242C107.712 42.8242 109.434 43.5215 110.701 44.916C111.977 46.3014 112.615 48.179 112.615 50.5488C112.615 52.9733 111.977 54.8783 110.701 56.2637C109.425 57.6491 107.671 58.3418 105.438 58.3418ZM105.479 56.3184C108.331 56.3184 109.758 54.3952 109.758 50.5488C109.758 46.748 108.35 44.8477 105.533 44.8477C102.726 44.8477 101.322 46.7572 101.322 50.5762C101.322 54.4043 102.708 56.3184 105.479 56.3184ZM116.826 58.1641V36.4121H119.52V45.9414C120.622 43.8633 122.277 42.8242 124.482 42.8242C126.269 42.8242 127.673 43.4759 128.693 44.7793C129.723 46.0827 130.238 47.8646 130.238 50.125C130.238 52.5859 129.655 54.5729 128.488 56.0859C127.331 57.5898 125.804 58.3418 123.908 58.3418C122.149 58.3418 120.686 57.6673 119.52 56.3184L119.191 58.1641H116.826ZM119.52 54.459C120.905 55.6986 122.227 56.3184 123.484 56.3184C126.073 56.3184 127.367 54.3451 127.367 50.3984C127.367 46.9167 126.219 45.1758 123.922 45.1758C122.418 45.1758 120.951 45.9915 119.52 47.623V54.459ZM134.463 58V36.4121H137.156V58H134.463ZM153.439 57.5215C151.635 58.0684 150.09 58.3418 148.805 58.3418C146.617 58.3418 144.831 57.6172 143.445 56.168C142.069 54.7096 141.381 52.8229 141.381 50.5078C141.381 48.2565 141.987 46.4108 143.199 44.9707C144.421 43.5306 145.979 42.8105 147.875 42.8105C149.671 42.8105 151.056 43.4486 152.031 44.7246C153.016 46.0007 153.508 47.8145 153.508 50.166L153.494 51H144.129C144.521 54.5273 146.248 56.291 149.311 56.291C150.432 56.291 151.808 55.9902 153.439 55.3887V57.5215ZM144.252 48.9766H150.801C150.801 46.2148 149.771 44.834 147.711 44.834C145.642 44.834 144.489 46.2148 144.252 48.9766ZM158.17 58V43.1523H160.863V45.9414C162.176 43.8633 163.862 42.8242 165.922 42.8242C167.909 42.8242 169.262 43.8633 169.982 45.9414C171.258 43.8542 172.917 42.8105 174.959 42.8105C176.271 42.8105 177.288 43.1979 178.008 43.9727C178.728 44.7383 179.088 45.8138 179.088 47.1992V58H176.381V47.623C176.381 45.9277 175.711 45.0801 174.371 45.0801C172.977 45.0801 171.514 46.069 169.982 48.0469V58H167.275V47.623C167.275 45.9186 166.592 45.0664 165.225 45.0664C163.867 45.0664 162.413 46.0599 160.863 48.0469V58H158.17ZM200.826 56.1133C199.213 57.599 197.659 58.3418 196.164 58.3418C194.934 58.3418 193.913 57.959 193.102 57.1934C192.29 56.4186 191.885 55.4434 191.885 54.2676C191.885 52.6452 192.564 51.401 193.922 50.5352C195.289 49.6602 197.244 49.2227 199.787 49.2227H200.43V47.4316C200.43 45.709 199.546 44.8477 197.777 44.8477C196.355 44.8477 194.82 45.2852 193.17 46.1602V43.9316C194.984 43.1934 196.684 42.8242 198.27 42.8242C199.928 42.8242 201.15 43.1979 201.934 43.9453C202.727 44.6927 203.123 45.8548 203.123 47.4316V54.1582C203.123 55.6986 203.597 56.4688 204.545 56.4688C204.663 56.4688 204.837 56.4505 205.064 56.4141L205.256 57.9043C204.645 58.196 203.971 58.3418 203.232 58.3418C201.975 58.3418 201.173 57.599 200.826 56.1133ZM200.43 54.6504V50.8086L199.527 50.7812C198.051 50.7812 196.857 51.0638 195.945 51.6289C195.034 52.1849 194.578 52.9186 194.578 53.8301C194.578 54.4772 194.806 55.0241 195.262 55.4707C195.717 55.9173 196.273 56.1406 196.93 56.1406C198.051 56.1406 199.217 55.6439 200.43 54.6504ZM208.646 58V43.1523H211.34V45.9414C212.762 43.8633 214.503 42.8242 216.562 42.8242C217.848 42.8242 218.873 43.2344 219.639 44.0547C220.404 44.8659 220.787 45.9596 220.787 47.3359V58H218.094V48.2109C218.094 47.1081 217.93 46.3242 217.602 45.8594C217.283 45.3854 216.749 45.1484 216.002 45.1484C214.352 45.1484 212.798 46.2285 211.34 48.3887V58H208.646ZM235.566 58V55.2109C234.473 57.2982 232.823 58.3418 230.617 58.3418C228.831 58.3418 227.423 57.6901 226.393 56.3867C225.372 55.0833 224.861 53.3014 224.861 51.041C224.861 48.571 225.44 46.584 226.598 45.0801C227.764 43.5762 229.296 42.8242 231.191 42.8242C232.951 42.8242 234.409 43.4987 235.566 44.8477V36.4121H238.273V58H235.566ZM235.566 46.6934C234.172 45.4629 232.85 44.8477 231.602 44.8477C229.022 44.8477 227.732 46.821 227.732 50.7676C227.732 54.2402 228.881 55.9766 231.178 55.9766C232.673 55.9766 234.135 55.1608 235.566 53.5293V46.6934ZM261.119 58.5059C257.975 58.5059 255.546 57.5853 253.832 55.7441C252.118 53.8939 251.262 51.278 251.262 47.8965C251.262 44.5241 252.132 41.9082 253.873 40.0488C255.623 38.1895 258.084 37.2598 261.256 37.2598C263.07 37.2598 265.193 37.556 267.627 38.1484V40.8418C264.856 39.8848 262.719 39.4062 261.215 39.4062C259.018 39.4062 257.318 40.1491 256.115 41.6348C254.912 43.1204 254.311 45.2168 254.311 47.9238C254.311 50.5033 254.953 52.5404 256.238 54.0352C257.523 55.5208 259.278 56.2637 261.502 56.2637C263.416 56.2637 265.467 55.6758 267.654 54.5V56.9609C265.658 57.9909 263.48 58.5059 261.119 58.5059ZM277.73 58.3418C275.607 58.3418 273.911 57.64 272.645 56.2363C271.378 54.8236 270.744 52.9368 270.744 50.5762C270.744 48.1882 271.378 46.3014 272.645 44.916C273.921 43.5215 275.648 42.8242 277.826 42.8242C280.005 42.8242 281.727 43.5215 282.994 44.916C284.27 46.3014 284.908 48.179 284.908 50.5488C284.908 52.9733 284.27 54.8783 282.994 56.2637C281.718 57.6491 279.964 58.3418 277.73 58.3418ZM277.771 56.3184C280.624 56.3184 282.051 54.3952 282.051 50.5488C282.051 46.748 280.643 44.8477 277.826 44.8477C275.019 44.8477 273.615 46.7572 273.615 50.5762C273.615 54.4043 275.001 56.3184 277.771 56.3184ZM289.119 58V43.1523H291.812V45.9414C293.234 43.8633 294.975 42.8242 297.035 42.8242C298.32 42.8242 299.346 43.2344 300.111 44.0547C300.877 44.8659 301.26 45.9596 301.26 47.3359V58H298.566V48.2109C298.566 47.1081 298.402 46.3242 298.074 45.8594C297.755 45.3854 297.222 45.1484 296.475 45.1484C294.825 45.1484 293.271 46.2285 291.812 48.3887V58H289.119ZM312.307 58.3418C310.301 58.3418 308.638 57.599 307.316 56.1133C305.995 54.6276 305.334 52.7546 305.334 50.4941C305.334 48.0788 305.986 46.1966 307.289 44.8477C308.602 43.4987 310.429 42.8242 312.771 42.8242C313.929 42.8242 315.223 42.9837 316.654 43.3027V45.5586C315.132 45.112 313.893 44.8887 312.936 44.8887C311.559 44.8887 310.452 45.4082 309.613 46.4473C308.784 47.4772 308.369 48.8535 308.369 50.5762C308.369 52.2441 308.798 53.5931 309.654 54.623C310.511 55.653 311.632 56.168 313.018 56.168C314.248 56.168 315.515 55.8535 316.818 55.2246V57.5488C315.077 58.0775 313.574 58.3418 312.307 58.3418ZM331.748 57.5215C329.943 58.0684 328.398 58.3418 327.113 58.3418C324.926 58.3418 323.139 57.6172 321.754 56.168C320.378 54.7096 319.689 52.8229 319.689 50.5078C319.689 48.2565 320.296 46.4108 321.508 44.9707C322.729 43.5306 324.288 42.8105 326.184 42.8105C327.979 42.8105 329.365 43.4486 330.34 44.7246C331.324 46.0007 331.816 47.8145 331.816 50.166L331.803 51H322.438C322.829 54.5273 324.557 56.291 327.619 56.291C328.74 56.291 330.117 55.9902 331.748 55.3887V57.5215ZM322.561 48.9766H329.109C329.109 46.2148 328.079 44.834 326.02 44.834C323.951 44.834 322.798 46.2148 322.561 48.9766ZM336.479 58V43.1523H339.172V45.9414C340.238 43.8633 341.788 42.8242 343.82 42.8242C344.094 42.8242 344.381 42.847 344.682 42.8926V45.4082C344.217 45.2533 343.807 45.1758 343.451 45.1758C341.747 45.1758 340.32 46.1875 339.172 48.2109V58H336.479ZM347.936 58V43.1523H350.629V45.9414C352.051 43.8633 353.792 42.8242 355.852 42.8242C357.137 42.8242 358.162 43.2344 358.928 44.0547C359.693 44.8659 360.076 45.9596 360.076 47.3359V58H357.383V48.2109C357.383 47.1081 357.219 46.3242 356.891 45.8594C356.572 45.3854 356.038 45.1484 355.291 45.1484C353.641 45.1484 352.087 46.2285 350.629 48.3887V58H347.936ZM369.264 58.3418C368.033 58.3418 366.538 58.0547 364.779 57.4805V55.0059C366.538 55.8809 368.07 56.3184 369.373 56.3184C370.148 56.3184 370.79 56.1087 371.301 55.6895C371.811 55.2702 372.066 54.7461 372.066 54.1172C372.066 53.1966 371.351 52.4355 369.92 51.834L368.348 51.1641C366.023 50.1979 364.861 48.8079 364.861 46.9941C364.861 45.6999 365.317 44.6836 366.229 43.9453C367.149 43.1979 368.407 42.8242 370.002 42.8242C370.831 42.8242 371.857 42.9382 373.078 43.166L373.639 43.2754V45.5176C372.135 45.071 370.941 44.8477 370.057 44.8477C368.325 44.8477 367.459 45.4766 367.459 46.7344C367.459 47.5456 368.115 48.2292 369.428 48.7852L370.727 49.332C372.194 49.9518 373.233 50.6081 373.844 51.3008C374.454 51.9844 374.76 52.8411 374.76 53.8711C374.76 55.1745 374.245 56.2454 373.215 57.084C372.185 57.9225 370.868 58.3418 369.264 58.3418Z" fill="#013A20"/>
<rect x="30" y="204" width="30" height="30" fill="#998E57"/>
<path d="M72.6113 229V208.766H83.918V210.912H75.4824V217.693H82.5645V219.812H75.4824V229H72.6113ZM95.3613 227.113C93.748 228.599 92.194 229.342 90.6992 229.342C89.4688 229.342 88.4479 228.959 87.6367 228.193C86.8255 227.419 86.4199 226.443 86.4199 225.268C86.4199 223.645 87.099 222.401 88.457 221.535C89.8242 220.66 91.7793 220.223 94.3223 220.223H94.9648V218.432C94.9648 216.709 94.0807 215.848 92.3125 215.848C90.8906 215.848 89.3548 216.285 87.7051 217.16V214.932C89.5189 214.193 91.2188 213.824 92.8047 213.824C94.4635 213.824 95.6849 214.198 96.4688 214.945C97.2617 215.693 97.6582 216.855 97.6582 218.432V225.158C97.6582 226.699 98.1322 227.469 99.0801 227.469C99.1986 227.469 99.3717 227.451 99.5996 227.414L99.791 228.904C99.1803 229.196 98.5059 229.342 97.7676 229.342C96.5098 229.342 95.7077 228.599 95.3613 227.113ZM94.9648 225.65V221.809L94.0625 221.781C92.5859 221.781 91.3919 222.064 90.4805 222.629C89.569 223.185 89.1133 223.919 89.1133 224.83C89.1133 225.477 89.3411 226.024 89.7969 226.471C90.2526 226.917 90.8086 227.141 91.4648 227.141C92.5859 227.141 93.7526 226.644 94.9648 225.65ZM108.979 229.342C106.973 229.342 105.31 228.599 103.988 227.113C102.667 225.628 102.006 223.755 102.006 221.494C102.006 219.079 102.658 217.197 103.961 215.848C105.273 214.499 107.101 213.824 109.443 213.824C110.601 213.824 111.895 213.984 113.326 214.303V216.559C111.804 216.112 110.564 215.889 109.607 215.889C108.231 215.889 107.124 216.408 106.285 217.447C105.456 218.477 105.041 219.854 105.041 221.576C105.041 223.244 105.469 224.593 106.326 225.623C107.183 226.653 108.304 227.168 109.689 227.168C110.92 227.168 112.187 226.854 113.49 226.225V228.549C111.749 229.077 110.245 229.342 108.979 229.342ZM117.537 229V214.152H120.23V229H117.537ZM117.537 211.459V208.766H120.23V211.459H117.537ZM125.631 229V207.412H128.324V229H125.631ZM133.725 229V214.152H136.418V229H133.725ZM133.725 211.459V208.766H136.418V211.459H133.725ZM146.275 229.342C144.908 229.342 143.842 228.95 143.076 228.166C142.311 227.382 141.928 226.293 141.928 224.898V216.176H140.068V214.152H141.928V211.459L144.621 211.199V214.152H148.504V216.176H144.621V224.406C144.621 226.348 145.46 227.318 147.137 227.318C147.492 227.318 147.925 227.259 148.436 227.141V229C147.606 229.228 146.886 229.342 146.275 229.342ZM152.291 229V214.152H154.984V229H152.291ZM152.291 211.459V208.766H154.984V211.459H152.291ZM171.268 228.521C169.463 229.068 167.918 229.342 166.633 229.342C164.445 229.342 162.659 228.617 161.273 227.168C159.897 225.71 159.209 223.823 159.209 221.508C159.209 219.257 159.815 217.411 161.027 215.971C162.249 214.531 163.807 213.811 165.703 213.811C167.499 213.811 168.884 214.449 169.859 215.725C170.844 217.001 171.336 218.814 171.336 221.166L171.322 222H161.957C162.349 225.527 164.076 227.291 167.139 227.291C168.26 227.291 169.636 226.99 171.268 226.389V228.521ZM162.08 219.977H168.629C168.629 217.215 167.599 215.834 165.539 215.834C163.47 215.834 162.317 217.215 162.08 219.977ZM179.936 229.342C178.705 229.342 177.21 229.055 175.451 228.48V226.006C177.21 226.881 178.742 227.318 180.045 227.318C180.82 227.318 181.462 227.109 181.973 226.689C182.483 226.27 182.738 225.746 182.738 225.117C182.738 224.197 182.023 223.436 180.592 222.834L179.02 222.164C176.695 221.198 175.533 219.808 175.533 217.994C175.533 216.7 175.989 215.684 176.9 214.945C177.821 214.198 179.079 213.824 180.674 213.824C181.503 213.824 182.529 213.938 183.75 214.166L184.311 214.275V216.518C182.807 216.071 181.613 215.848 180.729 215.848C178.997 215.848 178.131 216.477 178.131 217.734C178.131 218.546 178.787 219.229 180.1 219.785L181.398 220.332C182.866 220.952 183.905 221.608 184.516 222.301C185.126 222.984 185.432 223.841 185.432 224.871C185.432 226.174 184.917 227.245 183.887 228.084C182.857 228.923 181.54 229.342 179.936 229.342Z" fill="#998E57"/>
<rect x="30" y="146" width="30" height="30" fill="#8E9E5B"/>
<path d="M72.5977 171V150.766H75.4688V171H72.5977ZM80.7598 171V156.152H83.4531V158.941C84.7656 156.863 86.4518 155.824 88.5117 155.824C90.4987 155.824 91.8522 156.863 92.5723 158.941C93.8483 156.854 95.5072 155.811 97.5488 155.811C98.8613 155.811 99.8776 156.198 100.598 156.973C101.318 157.738 101.678 158.814 101.678 160.199V171H98.9707V160.623C98.9707 158.928 98.3008 158.08 96.9609 158.08C95.5664 158.08 94.1035 159.069 92.5723 161.047V171H89.8652V160.623C89.8652 158.919 89.1816 158.066 87.8145 158.066C86.4564 158.066 85.0026 159.06 83.4531 161.047V171H80.7598ZM106.9 176.4V156.152H109.594V158.941C110.697 156.863 112.351 155.824 114.557 155.824C116.343 155.824 117.747 156.476 118.768 157.779C119.798 159.083 120.312 160.865 120.312 163.125C120.312 165.586 119.729 167.573 118.562 169.086C117.405 170.59 115.878 171.342 113.982 171.342C112.223 171.342 110.76 170.667 109.594 169.318V176.4H106.9ZM109.594 167.459C110.979 168.699 112.301 169.318 113.559 169.318C116.147 169.318 117.441 167.345 117.441 163.398C117.441 159.917 116.293 158.176 113.996 158.176C112.492 158.176 111.025 158.992 109.594 160.623V167.459ZM132.193 169.113C130.58 170.599 129.026 171.342 127.531 171.342C126.301 171.342 125.28 170.959 124.469 170.193C123.658 169.419 123.252 168.443 123.252 167.268C123.252 165.645 123.931 164.401 125.289 163.535C126.656 162.66 128.611 162.223 131.154 162.223H131.797V160.432C131.797 158.709 130.913 157.848 129.145 157.848C127.723 157.848 126.187 158.285 124.537 159.16V156.932C126.351 156.193 128.051 155.824 129.637 155.824C131.296 155.824 132.517 156.198 133.301 156.945C134.094 157.693 134.49 158.855 134.49 160.432V167.158C134.49 168.699 134.964 169.469 135.912 169.469C136.031 169.469 136.204 169.451 136.432 169.414L136.623 170.904C136.012 171.196 135.338 171.342 134.6 171.342C133.342 171.342 132.54 170.599 132.193 169.113ZM131.797 167.65V163.809L130.895 163.781C129.418 163.781 128.224 164.064 127.312 164.629C126.401 165.185 125.945 165.919 125.945 166.83C125.945 167.477 126.173 168.024 126.629 168.471C127.085 168.917 127.641 169.141 128.297 169.141C129.418 169.141 130.585 168.644 131.797 167.65ZM145.811 171.342C143.805 171.342 142.142 170.599 140.82 169.113C139.499 167.628 138.838 165.755 138.838 163.494C138.838 161.079 139.49 159.197 140.793 157.848C142.105 156.499 143.933 155.824 146.275 155.824C147.433 155.824 148.727 155.984 150.158 156.303V158.559C148.636 158.112 147.396 157.889 146.439 157.889C145.063 157.889 143.956 158.408 143.117 159.447C142.288 160.477 141.873 161.854 141.873 163.576C141.873 165.244 142.301 166.593 143.158 167.623C144.015 168.653 145.136 169.168 146.521 169.168C147.752 169.168 149.019 168.854 150.322 168.225V170.549C148.581 171.077 147.077 171.342 145.811 171.342ZM158.826 171.342C157.459 171.342 156.393 170.95 155.627 170.166C154.861 169.382 154.479 168.293 154.479 166.898V158.176H152.619V156.152H154.479V153.459L157.172 153.199V156.152H161.055V158.176H157.172V166.406C157.172 168.348 158.01 169.318 159.688 169.318C160.043 169.318 160.476 169.259 160.986 169.141V171C160.157 171.228 159.437 171.342 158.826 171.342ZM168.779 171.342C167.549 171.342 166.054 171.055 164.295 170.48V168.006C166.054 168.881 167.585 169.318 168.889 169.318C169.663 169.318 170.306 169.109 170.816 168.689C171.327 168.27 171.582 167.746 171.582 167.117C171.582 166.197 170.867 165.436 169.436 164.834L167.863 164.164C165.539 163.198 164.377 161.808 164.377 159.994C164.377 158.7 164.833 157.684 165.744 156.945C166.665 156.198 167.923 155.824 169.518 155.824C170.347 155.824 171.372 155.938 172.594 156.166L173.154 156.275V158.518C171.65 158.071 170.456 157.848 169.572 157.848C167.84 157.848 166.975 158.477 166.975 159.734C166.975 160.546 167.631 161.229 168.943 161.785L170.242 162.332C171.71 162.952 172.749 163.608 173.359 164.301C173.97 164.984 174.275 165.841 174.275 166.871C174.275 168.174 173.76 169.245 172.73 170.084C171.701 170.923 170.383 171.342 168.779 171.342Z" fill="#8E9E5B"/>
</svg>
