<?xml version="1.0" encoding="utf-8"?>
<svg version="1.1" xmlns:xlink="http://www.w3.org/1999/xlink" width="422px" height="422px" xmlns="http://www.w3.org/2000/svg">
  <g transform="matrix(1 0 0 1 -752 -132 )">
    <path d="M 422 422  L 211 422  C 329.16 422  422 329.16  422 211  L 422 422  Z M 0 211  C 0 329.16  92.84 422  211 422  L 0 422  L 0 211  Z M 211 0  C 92.84 0  0 92.84  0 211  L 0 0  L 211 0  Z M 422 211  C 422 92.84  329.16 0  211 0  L 422 0  L 422 211  Z " fill-rule="nonzero" fill="#fafafa" stroke="none" transform="matrix(1 0 0 1 752 132 )" />
  </g>
</svg>