<?xml version="1.0" encoding="utf-8"?>
<svg version="1.1" xmlns:xlink="http://www.w3.org/1999/xlink" width="153px" height="153px" xmlns="http://www.w3.org/2000/svg">
  <g transform="matrix(1 0 0 1 -158 -361 )">
    <path d="M 153 153  L 76.5 153  C 119.34 153  153 119.34  153 76.5  L 153 153  Z M 0 76.5  C 0 119.34  33.66 153  76.5 153  L 0 153  L 0 76.5  Z M 76.5 0  C 33.66 0  0 33.66  0 76.5  L 0 0  L 76.5 0  Z M 153 76.5  C 153 33.66  119.34 0  76.5 0  L 153 0  L 153 76.5  Z " fill-rule="nonzero" fill="#fafafa" stroke="none" transform="matrix(1 0 0 1 158 361 )" />
  </g>
</svg>