<?xml version="1.0" encoding="utf-8"?>
<svg version="1.1" xmlns:xlink="http://www.w3.org/1999/xlink" width="312px" height="312px" xmlns="http://www.w3.org/2000/svg">
  <g transform="matrix(1 0 0 1 -427 -169 )">
    <path d="M 312 312  L 156 312  C 243.36 312  312 243.36  312 156  L 312 312  Z M 0 156  C 0 243.36  68.64 312  156 312  L 0 312  L 0 156  Z M 156 0  C 68.64 0  0 68.64  0 156  L 0 0  L 156 0  Z M 312 156  C 312 68.64  243.36 0  156 0  L 312 0  L 312 156  Z " fill-rule="nonzero" fill="#fafafa" stroke="none" transform="matrix(1 0 0 1 427 169 )" />
  </g>
</svg>